<?xml version="1.0" encoding="utf-8" standalone="no"?>
<!DOCTYPE svg PUBLIC "-//W3C//DTD SVG 1.1//EN"
  "http://www.w3.org/Graphics/SVG/1.1/DTD/svg11.dtd">
<svg xmlns:xlink="http://www.w3.org/1999/xlink" width="928.8pt" height="247.716pt" viewBox="0 0 928.8 247.716" xmlns="http://www.w3.org/2000/svg" version="1.1">
 <metadata>
  <rdf:RDF xmlns:dc="http://purl.org/dc/elements/1.1/" xmlns:cc="http://creativecommons.org/ns#" xmlns:rdf="http://www.w3.org/1999/02/22-rdf-syntax-ns#">
   <cc:Work>
    <dc:type rdf:resource="http://purl.org/dc/dcmitype/StillImage"/>
    <dc:date>2026-04-11T00:07:13.318800</dc:date>
    <dc:format>image/svg+xml</dc:format>
    <dc:creator>
     <cc:Agent>
      <dc:title>Matplotlib v3.10.0, https://matplotlib.org/</dc:title>
     </cc:Agent>
    </dc:creator>
   </cc:Work>
  </rdf:RDF>
 </metadata>
 <defs>
  <style type="text/css">*{stroke-linejoin: round; stroke-linecap: butt}</style>
 </defs>
 <g id="figure_1">
  <g id="patch_1">
   <path d="M 0 247.716 
L 928.8 247.716 
L 928.8 0 
L 0 0 
z
" style="fill: #5894b9"/>
  </g>
  <g id="axes_1">
   <g id="patch_2">
    <path d="M 60.886364 95.629644 
L 148.862727 95.629644 
Q 153.711818 95.629644 153.711818 91.597022 
L 153.711818 69.129556 
Q 153.711818 65.096933 148.862727 65.096933 
L 60.886364 65.096933 
Q 56.037273 65.096933 56.037273 69.129556 
L 56.037273 91.597022 
Q 56.037273 95.629644 60.886364 95.629644 
z
" clip-path="url(#p6c9f9a7ed4)" style="fill: #f7f6f2; stroke: #80807e; stroke-width: 1.05; stroke-linejoin: miter"/>
   </g>
   <g id="patch_3">
    <path d="M 174.493636 95.629644 
L 251.386364 95.629644 
Q 256.235455 95.629644 256.235455 91.597022 
L 256.235455 69.129556 
Q 256.235455 65.096933 251.386364 65.096933 
L 174.493636 65.096933 
Q 169.644545 65.096933 169.644545 69.129556 
L 169.644545 91.597022 
Q 169.644545 95.629644 174.493636 95.629644 
z
" clip-path="url(#p6c9f9a7ed4)" style="fill: #f7f6f2; stroke: #80807e; stroke-width: 1.05; stroke-linejoin: miter"/>
   </g>
   <g id="patch_4">
    <path d="M 277.017273 95.629644 
L 353.91 95.629644 
Q 358.759091 95.629644 358.759091 91.597022 
L 358.759091 69.129556 
Q 358.759091 65.096933 353.91 65.096933 
L 277.017273 65.096933 
Q 272.168182 65.096933 272.168182 69.129556 
L 272.168182 91.597022 
Q 272.168182 95.629644 277.017273 95.629644 
z
" clip-path="url(#p6c9f9a7ed4)" style="fill: #f7f6f2; stroke: #80807e; stroke-width: 1.05; stroke-linejoin: miter"/>
   </g>
   <g id="patch_5">
    <path d="M 379.540909 95.629644 
L 477.215455 95.629644 
Q 482.064545 95.629644 482.064545 91.597022 
L 482.064545 69.129556 
Q 482.064545 65.096933 477.215455 65.096933 
L 379.540909 65.096933 
Q 374.691818 65.096933 374.691818 69.129556 
L 374.691818 91.597022 
Q 374.691818 95.629644 379.540909 95.629644 
z
" clip-path="url(#p6c9f9a7ed4)" style="fill: #f7f6f2; stroke: #80807e; stroke-width: 1.05; stroke-linejoin: miter"/>
   </g>
   <g id="patch_6">
    <path d="M 502.846364 95.629644 
L 574.89 95.629644 
Q 579.739091 95.629644 579.739091 91.597022 
L 579.739091 69.129556 
Q 579.739091 65.096933 574.89 65.096933 
L 502.846364 65.096933 
Q 497.997273 65.096933 497.997273 69.129556 
L 497.997273 91.597022 
Q 497.997273 95.629644 502.846364 95.629644 
z
" clip-path="url(#p6c9f9a7ed4)" style="fill: #f7f6f2; stroke: #80807e; stroke-width: 1.05; stroke-linejoin: miter"/>
   </g>
   <g id="patch_7">
    <path d="M 156.056199 80.363289 
Q 161.676606 80.363289 166.123077 80.363289 
" clip-path="url(#p6c9f9a7ed4)" style="fill: none; stroke: #dbebfa; stroke-opacity: 0.9; stroke-width: 1.05; stroke-linecap: round"/>
    <path d="M 162.523077 78.563289 
L 166.123077 80.363289 
L 162.523077 82.163289 
z
" clip-path="url(#p6c9f9a7ed4)" style="fill: #dbebfa; fill-opacity: 0.9; stroke: #dbebfa; stroke-opacity: 0.9; stroke-width: 1.05; stroke-linecap: round"/>
   </g>
   <g id="patch_8">
    <path d="M 258.579836 80.363289 
Q 264.200243 80.363289 268.646714 80.363289 
" clip-path="url(#p6c9f9a7ed4)" style="fill: none; stroke: #dbebfa; stroke-opacity: 0.9; stroke-width: 1.05; stroke-linecap: round"/>
    <path d="M 265.046714 78.563289 
L 268.646714 80.363289 
L 265.046714 82.163289 
z
" clip-path="url(#p6c9f9a7ed4)" style="fill: #dbebfa; fill-opacity: 0.9; stroke: #dbebfa; stroke-opacity: 0.9; stroke-width: 1.05; stroke-linecap: round"/>
   </g>
   <g id="patch_9">
    <path d="M 361.103472 80.363289 
Q 366.723879 80.363289 371.17035 80.363289 
" clip-path="url(#p6c9f9a7ed4)" style="fill: none; stroke: #dbebfa; stroke-opacity: 0.9; stroke-width: 1.05; stroke-linecap: round"/>
    <path d="M 367.57035 78.563289 
L 371.17035 80.363289 
L 367.57035 82.163289 
z
" clip-path="url(#p6c9f9a7ed4)" style="fill: #dbebfa; fill-opacity: 0.9; stroke: #dbebfa; stroke-opacity: 0.9; stroke-width: 1.05; stroke-linecap: round"/>
   </g>
   <g id="patch_10">
    <path d="M 484.408927 80.363289 
Q 490.029334 80.363289 494.475805 80.363289 
" clip-path="url(#p6c9f9a7ed4)" style="fill: none; stroke: #dbebfa; stroke-opacity: 0.9; stroke-width: 1.05; stroke-linecap: round"/>
    <path d="M 490.875805 78.563289 
L 494.475805 80.363289 
L 490.875805 82.163289 
z
" clip-path="url(#p6c9f9a7ed4)" style="fill: #dbebfa; fill-opacity: 0.9; stroke: #dbebfa; stroke-opacity: 0.9; stroke-width: 1.05; stroke-linecap: round"/>
   </g>
   <g id="patch_11">
    <path d="M 538.868182 98.496306 
Q 538.868182 106.865139 538.868182 114.060037 
" clip-path="url(#p6c9f9a7ed4)" style="fill: none; stroke: #dbebfa; stroke-opacity: 0.9; stroke-width: 1.05; stroke-linecap: round"/>
    <path d="M 540.668182 110.460037 
L 538.868182 114.060037 
L 537.068182 110.460037 
z
" clip-path="url(#p6c9f9a7ed4)" style="fill: #dbebfa; fill-opacity: 0.9; stroke: #dbebfa; stroke-opacity: 0.9; stroke-width: 1.05; stroke-linecap: round"/>
   </g>
   <g id="patch_12">
    <path d="M 538.868182 118.385156 
L 580.431818 137.972178 
L 538.868182 157.5592 
L 497.304545 137.972178 
z
" clip-path="url(#p6c9f9a7ed4)" style="fill: #bbc784; stroke: #616745; stroke-width: 1.1; stroke-linejoin: miter"/>
   </g>
   <g id="patch_13">
    <path d="M 396.512727 151.510267 
L 466.478182 151.510267 
Q 471.327273 151.510267 471.327273 147.477644 
L 471.327273 128.466711 
Q 471.327273 124.434089 466.478182 124.434089 
L 396.512727 124.434089 
Q 391.663636 124.434089 391.663636 128.466711 
L 391.663636 147.477644 
Q 391.663636 151.510267 396.512727 151.510267 
z
" clip-path="url(#p6c9f9a7ed4)" style="fill: #f7f6f2; stroke: #80807e; stroke-width: 1.05; stroke-linejoin: miter"/>
   </g>
   <g id="patch_14">
    <path d="M 493.921327 137.972178 
Q 483.798248 137.972178 474.849104 137.972178 
" clip-path="url(#p6c9f9a7ed4)" style="fill: none; stroke: #dbebfa; stroke-opacity: 0.9; stroke-width: 1.05; stroke-linecap: round"/>
    <path d="M 478.449104 139.772178 
L 474.849104 137.972178 
L 478.449104 136.172178 
z
" clip-path="url(#p6c9f9a7ed4)" style="fill: #dbebfa; fill-opacity: 0.9; stroke: #dbebfa; stroke-opacity: 0.9; stroke-width: 1.05; stroke-linecap: round"/>
   </g>
   <g id="patch_15">
    <path d="M 538.868182 160.714046 
Q 538.868182 167.066236 538.868182 172.244489 
" clip-path="url(#p6c9f9a7ed4)" style="fill: none; stroke: #dbebfa; stroke-opacity: 0.9; stroke-width: 1.05; stroke-linecap: round"/>
    <path d="M 540.668182 168.644489 
L 538.868182 172.244489 
L 537.068182 168.644489 
z
" clip-path="url(#p6c9f9a7ed4)" style="fill: #dbebfa; fill-opacity: 0.9; stroke: #dbebfa; stroke-opacity: 0.9; stroke-width: 1.05; stroke-linecap: round"/>
   </g>
   <g id="patch_16">
    <path d="M 433.360382 152.515766 
Q 483.401519 171.605933 535.697103 174.662186 
" clip-path="url(#p6c9f9a7ed4)" style="fill: none; stroke: #dbebfa; stroke-opacity: 0.9; stroke-width: 1.05; stroke-linecap: round"/>
    <path d="M 532.208251 172.65522 
L 535.697103 174.662186 
L 531.998219 176.249087 
z
" clip-path="url(#p6c9f9a7ed4)" style="fill: #dbebfa; fill-opacity: 0.9; stroke: #dbebfa; stroke-opacity: 0.9; stroke-width: 1.05; stroke-linecap: round"/>
   </g>
   <g id="patch_17">
    <path d="M 536.864203 184.014247 
Q 461.971662 182.330937 388.25276 180.674006 
" clip-path="url(#p6c9f9a7ed4)" style="fill: none; stroke: #dbebfa; stroke-opacity: 0.9; stroke-width: 1.05; stroke-linecap: round"/>
    <path d="M 391.811404 182.554446 
L 388.25276 180.674006 
L 391.892298 178.955355 
z
" clip-path="url(#p6c9f9a7ed4)" style="fill: #dbebfa; fill-opacity: 0.9; stroke: #dbebfa; stroke-opacity: 0.9; stroke-width: 1.05; stroke-linecap: round"/>
   </g>
   <g id="patch_18">
    <path d="M 346.636364 210.271333 
L 423.529091 210.271333 
Q 428.378182 210.271333 428.378182 206.238711 
L 428.378182 184.923422 
Q 428.378182 180.8908 423.529091 180.8908 
L 346.636364 180.8908 
Q 341.787273 180.8908 341.787273 184.923422 
L 341.787273 206.238711 
Q 341.787273 210.271333 346.636364 210.271333 
z
" clip-path="url(#p6c9f9a7ed4)" style="fill: #f7f6f2; stroke: #80807e; stroke-width: 1.05; stroke-linejoin: miter"/>
   </g>
   <g id="patch_19">
    <path d="M 447.774545 210.271333 
L 531.594545 210.271333 
Q 536.443636 210.271333 536.443636 206.238711 
L 536.443636 184.923422 
Q 536.443636 180.8908 531.594545 180.8908 
L 447.774545 180.8908 
Q 442.925455 180.8908 442.925455 184.923422 
L 442.925455 206.238711 
Q 442.925455 210.271333 447.774545 210.271333 
z
" clip-path="url(#p6c9f9a7ed4)" style="fill: #f7f6f2; stroke: #80807e; stroke-width: 1.05; stroke-linejoin: miter"/>
   </g>
   <g id="patch_20">
    <path d="M 555.84 210.271333 
L 639.66 210.271333 
Q 644.509091 210.271333 644.509091 206.238711 
L 644.509091 184.923422 
Q 644.509091 180.8908 639.66 180.8908 
L 555.84 180.8908 
Q 550.990909 180.8908 550.990909 184.923422 
L 550.990909 206.238711 
Q 550.990909 210.271333 555.84 210.271333 
z
" clip-path="url(#p6c9f9a7ed4)" style="fill: #f7f6f2; stroke: #80807e; stroke-width: 1.05; stroke-linejoin: miter"/>
   </g>
   <g id="patch_21">
    <path d="M 663.905455 210.271333 
L 731.1 210.271333 
Q 735.949091 210.271333 735.949091 206.238711 
L 735.949091 184.923422 
Q 735.949091 180.8908 731.1 180.8908 
L 663.905455 180.8908 
Q 659.056364 180.8908 659.056364 184.923422 
L 659.056364 206.238711 
Q 659.056364 210.271333 663.905455 210.271333 
z
" clip-path="url(#p6c9f9a7ed4)" style="fill: #f7f6f2; stroke: #80807e; stroke-width: 1.05; stroke-linejoin: miter"/>
   </g>
   <g id="patch_22">
    <path d="M 430.723578 195.581067 
Q 435.651315 195.581067 439.405116 195.581067 
" clip-path="url(#p6c9f9a7ed4)" style="fill: none; stroke: #dbebfa; stroke-opacity: 0.9; stroke-width: 1.05; stroke-linecap: round"/>
    <path d="M 435.805116 193.781067 
L 439.405116 195.581067 
L 435.805116 197.381067 
z
" clip-path="url(#p6c9f9a7ed4)" style="fill: #dbebfa; fill-opacity: 0.9; stroke: #dbebfa; stroke-opacity: 0.9; stroke-width: 1.05; stroke-linecap: round"/>
   </g>
   <g id="patch_23">
    <path d="M 538.789032 195.581067 
Q 543.716769 195.581067 547.470571 195.581067 
" clip-path="url(#p6c9f9a7ed4)" style="fill: none; stroke: #dbebfa; stroke-opacity: 0.9; stroke-width: 1.05; stroke-linecap: round"/>
    <path d="M 543.870571 193.781067 
L 547.470571 195.581067 
L 543.870571 197.381067 
z
" clip-path="url(#p6c9f9a7ed4)" style="fill: #dbebfa; fill-opacity: 0.9; stroke: #dbebfa; stroke-opacity: 0.9; stroke-width: 1.05; stroke-linecap: round"/>
   </g>
   <g id="patch_24">
    <path d="M 646.854487 195.581067 
Q 651.782224 195.581067 655.536025 195.581067 
" clip-path="url(#p6c9f9a7ed4)" style="fill: none; stroke: #dbebfa; stroke-opacity: 0.9; stroke-width: 1.05; stroke-linecap: round"/>
    <path d="M 651.936025 193.781067 
L 655.536025 195.581067 
L 651.936025 197.381067 
z
" clip-path="url(#p6c9f9a7ed4)" style="fill: #dbebfa; fill-opacity: 0.9; stroke: #dbebfa; stroke-opacity: 0.9; stroke-width: 1.05; stroke-linecap: round"/>
   </g>
   <g id="text_1">
    <!-- 问题一 baseline 非协同调度逻辑示意图 -->
    <g style="fill: #f7f8fa" transform="translate(344.752031 26.472173) scale(0.135 -0.135)">
     <defs>
      <path id="MicrosoftYaHei-Bold-95ee" d="M 1213 5072 
L 1969 5359 
Q 2338 4747 2663 4047 
L 1831 3734 
Q 1544 4409 1213 5072 
z
M 6019 422 
Q 6019 -153 5800 -429 
Q 5581 -706 5178 -757 
Q 4775 -809 3675 -809 
Q 3569 -316 3450 91 
Q 4247 59 4506 59 
Q 5113 59 5113 609 
L 5113 4084 
L 2844 4084 
L 2844 4922 
L 6019 4922 
L 6019 422 
z
M 369 4453 
L 1275 4453 
L 1275 -766 
L 369 -766 
L 369 4453 
z
M 1863 3416 
L 4525 3416 
L 4525 716 
L 2663 716 
L 2663 328 
L 1863 328 
L 1863 3416 
z
M 3725 1528 
L 3725 2603 
L 2663 2603 
L 2663 1528 
L 3725 1528 
z
" transform="scale(0.015625)"/>
      <path id="MicrosoftYaHei-Bold-9898" d="M 406 5091 
L 2856 5091 
L 2856 2666 
L 406 2666 
L 406 5091 
z
M 2131 4503 
L 1131 4503 
L 1131 4141 
L 2131 4141 
L 2131 4503 
z
M 2131 3253 
L 2131 3616 
L 1131 3616 
L 1131 3253 
L 2131 3253 
z
M 3213 3966 
L 4041 3966 
Q 4084 4219 4116 4453 
L 3100 4453 
L 3100 5078 
L 6169 5078 
L 6169 4453 
L 4906 4453 
Q 4866 4206 4819 3966 
L 5981 3966 
L 5981 1341 
L 5269 1341 
L 5269 3341 
L 3925 3341 
L 3925 1347 
L 3213 1347 
L 3213 3966 
z
M 425 1491 
L 1106 1491 
Q 1109 1134 1094 822 
Q 1238 688 1394 575 
L 1394 1753 
L 138 1753 
L 138 2378 
L 3000 2378 
L 3000 1753 
L 2163 1753 
L 2163 1353 
L 2906 1353 
L 2906 741 
L 2163 741 
L 2163 178 
Q 2594 28 3172 19 
Q 2953 347 2713 609 
Q 3400 797 3831 1211 
Q 4263 1625 4263 2509 
L 4263 3072 
L 4938 3072 
L 4938 2472 
Q 4938 1956 4825 1541 
Q 5659 1050 6306 591 
L 5828 25 
L 6319 34 
Q 6175 -303 6094 -691 
Q 4706 -691 3689 -680 
Q 2672 -669 2331 -597 
Q 1991 -525 1653 -358 
Q 1316 -191 1013 66 
Q 909 -544 688 -909 
Q 463 -628 75 -266 
Q 431 278 425 1491 
z
M 3428 16 
L 5744 25 
Q 5163 506 4544 909 
Q 4166 369 3428 16 
z
" transform="scale(0.015625)"/>
      <path id="MicrosoftYaHei-Bold-4e00" d="M 188 2716 
L 6225 2716 
L 6225 1791 
L 188 1791 
L 188 2716 
z
" transform="scale(0.015625)"/>
      <path id="MicrosoftYaHei-Bold-20" transform="scale(0.015625)"/>
      <path id="MicrosoftYaHei-Bold-62" d="M 1469 416 
L 1469 0 
L 459 0 
L 459 5116 
L 1469 5116 
L 1469 2928 
L 1481 2928 
Q 1878 3541 2613 3541 
Q 3266 3541 3636 3084 
Q 4006 2628 4006 1825 
Q 4006 966 3581 441 
Q 3156 -84 2453 -84 
Q 1809 -84 1481 416 
L 1469 416 
z
M 1453 1494 
Q 1453 1153 1656 922 
Q 1859 691 2172 691 
Q 2550 691 2761 984 
Q 2972 1278 2972 1816 
Q 2972 2263 2780 2514 
Q 2588 2766 2231 2766 
Q 1894 2766 1673 2512 
Q 1453 2259 1453 1863 
L 1453 1494 
z
" transform="scale(0.015625)"/>
      <path id="MicrosoftYaHei-Bold-61" d="M 544 3247 
Q 778 3378 1170 3459 
Q 1563 3541 1841 3541 
Q 3291 3541 3291 2088 
L 3291 0 
L 2331 0 
L 2331 503 
L 2319 503 
Q 1966 -84 1284 -84 
Q 794 -84 498 195 
Q 203 475 203 956 
Q 203 1950 1388 2113 
L 2338 2241 
Q 2338 2844 1709 2844 
Q 1091 2844 544 2469 
L 544 3247 
z
M 1684 1566 
Q 1138 1494 1138 1072 
Q 1138 878 1270 759 
Q 1403 641 1628 641 
Q 1938 641 2138 859 
Q 2338 1078 2338 1403 
L 2338 1650 
L 1684 1566 
z
" transform="scale(0.015625)"/>
      <path id="MicrosoftYaHei-Bold-73" d="M 369 928 
Q 888 613 1384 613 
Q 2009 613 2009 947 
Q 2009 1184 1494 1344 
Q 850 1544 609 1789 
Q 369 2034 369 2453 
Q 369 2963 781 3252 
Q 1194 3541 1863 3541 
Q 2338 3541 2778 3400 
L 2778 2606 
Q 2375 2844 1891 2844 
Q 1650 2844 1503 2758 
Q 1356 2672 1356 2531 
Q 1356 2294 1794 2147 
Q 2263 1991 2498 1862 
Q 2734 1734 2857 1525 
Q 2981 1316 2981 1041 
Q 2981 506 2553 211 
Q 2125 -84 1409 -84 
Q 847 -84 369 94 
L 369 928 
z
" transform="scale(0.015625)"/>
      <path id="MicrosoftYaHei-Bold-65" d="M 3528 1444 
L 1253 1444 
Q 1306 641 2222 641 
Q 2794 641 3231 922 
L 3231 181 
Q 2759 -84 1994 -84 
Q 1169 -84 711 381 
Q 253 847 253 1678 
Q 253 2506 740 3023 
Q 1228 3541 1966 3541 
Q 2700 3541 3114 3095 
Q 3528 2650 3528 1872 
L 3528 1444 
z
M 2588 2075 
Q 2588 2850 1959 2850 
Q 1700 2850 1500 2637 
Q 1300 2425 1250 2075 
L 2588 2075 
z
" transform="scale(0.015625)"/>
      <path id="MicrosoftYaHei-Bold-6c" d="M 444 0 
L 444 5116 
L 1450 5116 
L 1450 0 
L 444 0 
z
" transform="scale(0.015625)"/>
      <path id="MicrosoftYaHei-Bold-69" d="M 369 4572 
Q 369 4803 533 4948 
Q 697 5094 953 5094 
Q 1216 5094 1378 4945 
Q 1541 4797 1541 4572 
Q 1541 4344 1375 4192 
Q 1209 4041 953 4041 
Q 700 4041 534 4194 
Q 369 4347 369 4572 
z
M 444 0 
L 444 3456 
L 1450 3456 
L 1450 0 
L 444 0 
z
" transform="scale(0.015625)"/>
      <path id="MicrosoftYaHei-Bold-6e" d="M 3744 0 
L 2741 0 
L 2741 1928 
Q 2741 2766 2138 2766 
Q 1850 2766 1659 2542 
Q 1469 2319 1469 1972 
L 1469 0 
L 459 0 
L 459 3456 
L 1469 3456 
L 1469 2906 
L 1481 2906 
Q 1859 3541 2594 3541 
Q 3744 3541 3744 2116 
L 3744 0 
z
" transform="scale(0.015625)"/>
      <path id="MicrosoftYaHei-Bold-975e" d="M 75 1191 
L 1863 1191 
L 1863 2066 
L 275 2066 
L 275 2853 
L 1863 2853 
L 1863 3716 
L 175 3716 
L 175 4516 
L 1863 4516 
L 1863 5284 
L 2775 5284 
L 2775 -797 
L 1863 -797 
L 1863 391 
L 75 391 
L 75 1191 
z
M 3650 5284 
L 4563 5284 
L 4563 4516 
L 6225 4516 
L 6225 3716 
L 4563 3716 
L 4563 2853 
L 6125 2853 
L 6125 2066 
L 4563 2066 
L 4563 1191 
L 6325 1191 
L 6325 391 
L 4563 391 
L 4563 -797 
L 3650 -797 
L 3650 5284 
z
" transform="scale(0.015625)"/>
      <path id="MicrosoftYaHei-Bold-534f" d="M 3725 -753 
Q 3638 -316 3500 103 
Q 3906 78 4131 78 
Q 4575 78 4673 290 
Q 4772 503 4781 3428 
L 4041 3428 
Q 3991 553 2388 -878 
Q 2100 -559 1700 -203 
Q 3150 956 3203 3428 
L 2175 3428 
L 2175 4241 
L 3213 4241 
L 3213 5303 
L 4063 5303 
Q 4063 4741 4056 4241 
L 5638 4241 
L 5613 2784 
Q 6006 2469 6325 2197 
L 6131 1178 
Q 5850 1497 5597 1769 
L 5569 363 
Q 5556 -141 5334 -408 
Q 5113 -675 4763 -711 
Q 4413 -747 3725 -753 
z
M 119 3653 
L 669 3653 
L 669 5272 
L 1456 5272 
L 1456 3653 
L 1975 3653 
L 1975 2903 
L 1456 2903 
L 1456 -822 
L 669 -822 
L 669 2903 
L 119 2903 
L 119 3653 
z
M 1650 1434 
Q 1988 2197 2219 3041 
L 2906 2872 
Q 2669 2009 2356 1172 
Q 2025 1316 1650 1434 
z
" transform="scale(0.015625)"/>
      <path id="MicrosoftYaHei-Bold-540c" d="M 381 5078 
L 6019 5078 
L 6019 291 
Q 6019 -253 5776 -523 
Q 5534 -794 5107 -801 
Q 4681 -809 4075 -809 
Q 3981 -309 3881 59 
Q 4272 19 4597 19 
Q 4847 19 4950 45 
Q 5053 72 5117 165 
Q 5181 259 5181 416 
L 5181 4297 
L 1219 4297 
L 1219 -797 
L 381 -797 
L 381 5078 
z
M 4875 3078 
L 1525 3078 
L 1525 3791 
L 4875 3791 
L 4875 3078 
z
M 1738 2591 
L 4638 2591 
L 4638 403 
L 2550 403 
L 2550 3 
L 1738 3 
L 1738 2591 
z
M 3825 1103 
L 3825 1891 
L 2550 1891 
L 2550 1103 
L 3825 1103 
z
" transform="scale(0.015625)"/>
      <path id="MicrosoftYaHei-Bold-8c03" d="M 5225 4341 
L 2644 4341 
L 2644 2078 
Q 2644 184 2088 -884 
Q 1706 -622 1225 -366 
Q 1856 484 1856 1997 
L 1856 5078 
L 6013 5078 
L 6013 84 
Q 6013 -753 5281 -791 
Q 4988 -816 4400 -816 
Q 4313 -384 4213 16 
Q 4631 -16 4900 -9 
Q 5225 -9 5225 303 
L 5225 4341 
z
M 2894 -41 
L 2894 1978 
L 4931 1978 
L 4931 266 
L 3581 266 
L 3581 -41 
L 2894 -41 
z
M 1663 1853 
Q 1656 1372 1738 891 
Q 1369 553 769 -147 
L 325 459 
Q 481 641 488 991 
L 488 2641 
L 100 2641 
L 100 3453 
L 1281 3453 
L 1281 1441 
Q 1406 1578 1663 1853 
z
M 2775 2891 
L 3550 2891 
L 3550 3253 
L 2881 3253 
L 2881 3841 
L 3550 3841 
L 3550 4228 
L 4313 4228 
L 4313 3841 
L 4994 3841 
L 4994 3253 
L 4313 3253 
L 4313 2891 
L 5094 2891 
L 5094 2303 
L 2775 2303 
L 2775 2891 
z
M 938 5247 
Q 1375 4684 1694 4172 
Q 1394 3991 963 3734 
Q 644 4334 263 4853 
L 938 5247 
z
M 4244 1391 
L 3581 1391 
L 3581 853 
L 4244 853 
L 4244 1391 
z
" transform="scale(0.015625)"/>
      <path id="MicrosoftYaHei-Bold-5ea6" d="M 5656 1697 
L 5656 1022 
Q 5156 447 4656 97 
Q 5344 -34 6306 -66 
Q 6119 -428 5938 -822 
Q 4556 -653 3719 -353 
Q 2825 -653 1494 -872 
Q 1338 -522 1088 -178 
Q 2100 -128 2888 78 
Q 2369 453 1938 1022 
L 1538 1022 
L 1538 1697 
L 5656 1697 
z
M 1325 2478 
Q 1338 134 700 -884 
Q 356 -553 19 -297 
Q 550 697 525 2591 
L 525 4772 
L 3013 4772 
Q 2944 4953 2831 5209 
L 3869 5359 
Q 3981 5072 4094 4772 
L 6256 4772 
L 6256 4072 
L 1325 4072 
L 1325 2478 
z
M 1463 3684 
L 2144 3684 
L 2144 3947 
L 2944 3947 
L 2944 3684 
L 4494 3684 
L 4494 3947 
L 5294 3947 
L 5294 3684 
L 6144 3684 
L 6144 3009 
L 5294 3009 
L 5294 1991 
L 2144 1991 
L 2144 3009 
L 1463 3009 
L 1463 3684 
z
M 3756 378 
Q 4325 641 4725 1022 
L 2825 1022 
Q 3225 622 3756 378 
z
M 4494 2628 
L 4494 3009 
L 2944 3009 
L 2944 2628 
L 4494 2628 
z
" transform="scale(0.015625)"/>
      <path id="MicrosoftYaHei-Bold-903b" d="M 913 5328 
Q 1450 4678 1781 4184 
Q 1319 3891 1044 3697 
Q 625 4366 238 4884 
L 913 5328 
z
M 5825 2609 
L 5825 1941 
Q 5003 703 3522 47 
Q 4906 31 6306 72 
L 6006 -741 
Q 3428 -741 2537 -709 
Q 1647 -678 1138 -103 
L 456 -884 
L 100 78 
Q 359 309 694 594 
L 694 2309 
L 138 2309 
L 138 3134 
L 1475 3134 
L 1475 581 
Q 1694 288 2106 159 
Q 2825 450 3381 759 
Q 3088 972 2688 1241 
L 3144 1753 
Q 3650 1472 4081 1206 
Q 4553 1553 4844 1922 
L 3022 1922 
Q 2641 1497 2175 1103 
Q 1888 1366 1594 1591 
Q 2472 2303 2909 3016 
L 1963 3016 
L 1963 5116 
L 6038 5116 
L 6038 3016 
L 3825 3016 
Q 3703 2809 3566 2609 
L 5825 2609 
z
M 5300 3666 
L 5300 4472 
L 4875 4472 
L 4875 3666 
L 5300 3666 
z
M 2700 3666 
L 3125 3666 
L 3125 4472 
L 2700 4472 
L 2700 3666 
z
M 3788 3666 
L 4213 3666 
L 4213 4472 
L 3788 4472 
L 3788 3666 
z
" transform="scale(0.015625)"/>
      <path id="MicrosoftYaHei-Bold-8f91" d="M 2363 3153 
L 6275 3153 
L 6275 2534 
L 5900 2534 
L 5900 434 
L 6319 453 
Q 6288 53 6281 -234 
Q 6100 -234 5900 -241 
L 5900 -841 
L 5094 -841 
L 5094 -259 
L 2325 -366 
L 2300 316 
L 1931 291 
L 1931 -847 
L 1188 -847 
L 1188 247 
L 125 172 
L 106 959 
L 1188 1003 
L 1188 1578 
L 125 1578 
L 125 2434 
Q 319 3009 503 3766 
L 106 3766 
L 106 4528 
L 672 4528 
Q 750 4894 825 5297 
L 1625 5241 
L 1444 4528 
L 2475 4528 
L 2475 3766 
L 1247 3766 
Q 1038 2969 850 2316 
L 1188 2316 
L 1188 3366 
L 1931 3366 
L 1931 2316 
L 2431 2316 
L 2431 1578 
L 1931 1578 
L 1931 1038 
L 2513 1066 
Q 2506 675 2513 338 
Q 2638 341 2763 341 
L 2763 2534 
L 2363 2534 
L 2363 3153 
z
M 3569 2172 
L 5094 2172 
L 5094 2534 
L 3569 2534 
L 3569 2172 
z
M 3569 1272 
L 5094 1272 
L 5094 1634 
L 3569 1634 
L 3569 1272 
z
M 5094 403 
L 5094 734 
L 3569 734 
L 3569 359 
L 5094 403 
z
M 2706 5066 
L 6006 5066 
L 6006 3428 
L 2706 3428 
L 2706 5066 
z
M 5238 4434 
L 3475 4434 
L 3475 4059 
L 5238 4059 
L 5238 4434 
z
" transform="scale(0.015625)"/>
      <path id="MicrosoftYaHei-Bold-793a" d="M 769 4966 
L 5669 4966 
L 5669 4078 
L 769 4078 
L 769 4966 
z
M 206 3259 
L 6206 3259 
L 6206 2372 
L 3794 2372 
L 3794 303 
Q 3794 -216 3612 -430 
Q 3431 -644 3173 -711 
Q 2916 -778 1850 -778 
Q 1744 -241 1638 159 
Q 2116 109 2431 109 
Q 2850 109 2850 447 
L 2850 2372 
L 206 2372 
L 206 3259 
z
M 1438 2103 
L 2244 1678 
Q 1488 459 825 -353 
Q 513 -97 88 197 
Q 850 1097 1438 2103 
z
M 4869 2072 
Q 5606 1178 6319 203 
Q 5981 -16 5506 -341 
Q 4944 578 4175 1609 
L 4869 2072 
z
" transform="scale(0.015625)"/>
      <path id="MicrosoftYaHei-Bold-610f" d="M 175 3897 
L 1622 3897 
Q 1497 4072 1400 4184 
L 1891 4366 
L 488 4366 
L 488 4903 
L 2731 4903 
L 2569 5272 
L 3631 5366 
Q 3716 5178 3813 4903 
L 5881 4903 
L 5881 4366 
L 4397 4366 
L 4963 4166 
L 4728 3897 
L 6238 3897 
L 6238 3334 
L 175 3334 
L 175 3897 
z
M 2578 3897 
L 3794 3897 
Q 3988 4184 4097 4366 
L 2219 4366 
Q 2416 4116 2578 3897 
z
M 794 966 
L 794 3053 
L 5600 3053 
L 5600 966 
L 3441 966 
Q 3734 734 3906 572 
L 3319 41 
Q 3069 341 2650 722 
L 2934 966 
L 794 966 
z
M 4794 2541 
L 1600 2541 
L 1600 2234 
L 4794 2234 
L 4794 2541 
z
M 4794 1478 
L 4794 1784 
L 1600 1784 
L 1600 1478 
L 4794 1478 
z
M 606 859 
L 1350 572 
Q 1094 -78 781 -634 
L 88 -291 
Q 425 322 606 859 
z
M 4194 728 
Q 4488 559 4975 366 
Q 4806 -363 4540 -548 
Q 4275 -734 3819 -734 
L 2544 -734 
Q 1594 -734 1594 28 
L 1594 834 
L 2419 834 
L 2419 253 
Q 2419 -47 2756 -47 
L 3550 -47 
Q 3888 -47 4016 79 
Q 4144 206 4194 728 
z
M 5688 834 
Q 6100 309 6338 -166 
L 5644 -578 
Q 5331 9 5000 466 
L 5688 834 
z
" transform="scale(0.015625)"/>
      <path id="MicrosoftYaHei-Bold-56fe" d="M 369 -841 
L 369 5072 
L 6019 5072 
L 6019 -834 
L 5156 -834 
L 5156 -591 
L 1231 -591 
L 1231 -841 
L 369 -841 
z
M 4875 3978 
L 4875 3466 
Q 4547 3022 4006 2678 
Q 4513 2541 5156 2463 
L 5156 4316 
L 3256 4316 
Q 3141 4144 3009 3978 
L 4875 3978 
z
M 2394 4316 
L 1231 4316 
L 1231 3231 
Q 2016 3747 2394 4316 
z
M 3228 2959 
Q 3666 3163 3919 3416 
L 2575 3416 
Q 2828 3156 3228 2959 
z
M 1644 2747 
Q 1481 2925 1231 3147 
L 1231 2400 
Q 1950 2522 2500 2688 
Q 2266 2863 2078 3063 
Q 1872 2900 1644 2747 
z
M 1669 1303 
Q 3319 1084 4775 841 
L 4600 166 
L 5156 166 
L 5156 2388 
Q 5019 2159 4825 1822 
Q 3897 1978 3219 2275 
Q 2872 2134 2472 2019 
Q 3509 1888 4500 1722 
L 4375 1128 
Q 3344 1309 2063 1484 
L 2159 1934 
Q 1856 1859 1525 1797 
Q 1409 2059 1231 2347 
L 1231 166 
L 4569 166 
Q 3297 425 1494 647 
L 1669 1303 
z
" transform="scale(0.015625)"/>
     </defs>
     <use xlink:href="#MicrosoftYaHei-Bold-95ee"/>
     <use xlink:href="#MicrosoftYaHei-Bold-9898" transform="translate(100 0)"/>
     <use xlink:href="#MicrosoftYaHei-Bold-4e00" transform="translate(200 0)"/>
     <use xlink:href="#MicrosoftYaHei-Bold-20" transform="translate(300 0)"/>
     <use xlink:href="#MicrosoftYaHei-Bold-62" transform="translate(329.785156 0)"/>
     <use xlink:href="#MicrosoftYaHei-Bold-61" transform="translate(395.261719 0)"/>
     <use xlink:href="#MicrosoftYaHei-Bold-73" transform="translate(453.025391 0)"/>
     <use xlink:href="#MicrosoftYaHei-Bold-65" transform="translate(502.390625 0)"/>
     <use xlink:href="#MicrosoftYaHei-Bold-6c" transform="translate(560.59375 0)"/>
     <use xlink:href="#MicrosoftYaHei-Bold-69" transform="translate(590.183594 0)"/>
     <use xlink:href="#MicrosoftYaHei-Bold-6e" transform="translate(619.773438 0)"/>
     <use xlink:href="#MicrosoftYaHei-Bold-65" transform="translate(684.568359 0)"/>
     <use xlink:href="#MicrosoftYaHei-Bold-20" transform="translate(742.771484 0)"/>
     <use xlink:href="#MicrosoftYaHei-Bold-975e" transform="translate(772.556641 0)"/>
     <use xlink:href="#MicrosoftYaHei-Bold-534f" transform="translate(872.556641 0)"/>
     <use xlink:href="#MicrosoftYaHei-Bold-540c" transform="translate(972.556641 0)"/>
     <use xlink:href="#MicrosoftYaHei-Bold-8c03" transform="translate(1072.556641 0)"/>
     <use xlink:href="#MicrosoftYaHei-Bold-5ea6" transform="translate(1172.556641 0)"/>
     <use xlink:href="#MicrosoftYaHei-Bold-903b" transform="translate(1272.556641 0)"/>
     <use xlink:href="#MicrosoftYaHei-Bold-8f91" transform="translate(1372.556641 0)"/>
     <use xlink:href="#MicrosoftYaHei-Bold-793a" transform="translate(1472.556641 0)"/>
     <use xlink:href="#MicrosoftYaHei-Bold-610f" transform="translate(1572.556641 0)"/>
     <use xlink:href="#MicrosoftYaHei-Bold-56fe" transform="translate(1672.556641 0)"/>
    </g>
   </g>
   <g id="text_2">
    <!-- 单时间步内固定次序执行（规则驱动，非最优化求解） -->
    <g style="fill: #d6e8f2" transform="translate(367.2 42.267731) scale(0.081 -0.081)">
     <defs>
      <path id="MicrosoftYaHei-5355" d="M 125 909 
L 2956 909 
L 2956 1616 
L 1225 1616 
L 1225 1322 
L 750 1322 
L 750 4353 
L 2047 4353 
Q 1747 4703 1400 5072 
L 1756 5366 
Q 2219 4922 2569 4547 
L 2338 4353 
L 3803 4353 
Q 4147 4809 4500 5347 
L 5000 5078 
Q 4678 4688 4378 4353 
L 5656 4353 
L 5656 1322 
L 5181 1322 
L 5181 1616 
L 3444 1616 
L 3444 909 
L 6275 909 
L 6275 459 
L 3444 459 
L 3444 -859 
L 2956 -859 
L 2956 459 
L 125 459 
L 125 909 
z
M 3444 2053 
L 5181 2053 
L 5181 2778 
L 3444 2778 
L 3444 2053 
z
M 1225 2053 
L 2956 2053 
L 2956 2778 
L 1225 2778 
L 1225 2053 
z
M 5181 3916 
L 3444 3916 
L 3444 3203 
L 5181 3203 
L 5181 3916 
z
M 1225 3203 
L 2956 3203 
L 2956 3916 
L 1225 3916 
L 1225 3203 
z
" transform="scale(0.015625)"/>
      <path id="MicrosoftYaHei-65f6" d="M 344 4728 
L 2500 4728 
L 2500 -366 
L 2006 -366 
L 2006 153 
L 838 153 
L 838 -441 
L 344 -441 
L 344 4728 
z
M 2706 3941 
L 4925 3941 
L 4925 5322 
L 5425 5322 
L 5425 3941 
L 6313 3941 
L 6313 3478 
L 5425 3478 
L 5425 116 
Q 5425 -722 4625 -722 
Q 4263 -722 3563 -703 
Q 3531 -478 3463 -178 
Q 4119 -228 4488 -228 
Q 4925 -228 4925 216 
L 4925 3478 
L 2706 3478 
L 2706 3941 
z
M 838 616 
L 2006 616 
L 2006 2234 
L 838 2234 
L 838 616 
z
M 2006 4266 
L 838 4266 
L 838 2684 
L 2006 2684 
L 2006 4266 
z
M 3406 2878 
Q 3906 1966 4163 1422 
Q 4000 1347 3663 1172 
Q 3419 1766 2963 2653 
L 3406 2878 
z
" transform="scale(0.015625)"/>
      <path id="MicrosoftYaHei-95f4" d="M 1863 3647 
L 4513 3647 
L 4513 553 
L 2313 553 
L 2313 166 
L 1863 166 
L 1863 3647 
z
M 2388 4453 
L 2388 4922 
L 6013 4922 
L 6013 -28 
Q 6013 -816 5119 -816 
Q 4756 -816 4169 -803 
Q 4144 -616 4069 -297 
Q 4588 -334 5056 -334 
Q 5525 -334 5525 122 
L 5525 4453 
L 2388 4453 
z
M 419 4084 
L 906 4084 
L 906 -816 
L 419 -816 
L 419 4084 
z
M 2313 997 
L 4063 997 
L 4063 1884 
L 2313 1884 
L 2313 997 
z
M 4063 3203 
L 2313 3203 
L 2313 2328 
L 4063 2328 
L 4063 3203 
z
M 744 5003 
L 1100 5322 
Q 1575 4872 1981 4447 
L 1575 4091 
Q 1194 4541 744 5003 
z
" transform="scale(0.015625)"/>
      <path id="MicrosoftYaHei-6b65" d="M 188 2997 
L 1250 2997 
L 1250 4759 
L 1750 4759 
L 1750 2997 
L 3088 2997 
L 3088 5328 
L 3588 5328 
L 3588 4416 
L 5744 4416 
L 5744 3966 
L 3588 3966 
L 3588 2997 
L 6225 2997 
L 6225 2534 
L 188 2534 
L 188 2997 
z
M 188 -441 
Q 3744 -9 5400 1872 
L 5794 1484 
Q 4013 -453 375 -891 
Q 306 -691 188 -441 
z
M 1794 2147 
L 2194 1803 
Q 1369 947 613 322 
Q 469 497 275 691 
Q 1044 1291 1794 2147 
z
M 3038 2378 
L 3538 2378 
L 3538 528 
L 3038 528 
L 3038 2378 
z
" transform="scale(0.015625)"/>
      <path id="MicrosoftYaHei-5185" d="M 638 4184 
L 2944 4184 
L 2944 5259 
L 3456 5259 
L 3456 4184 
L 5750 4184 
L 5750 59 
Q 5750 -734 4969 -728 
Q 4556 -728 3956 -716 
Q 3938 -503 3863 -172 
Q 4456 -222 4850 -228 
Q 5244 -241 5244 166 
L 5244 3709 
L 3444 3709 
Q 3419 3141 3306 2697 
Q 4413 1809 5094 1134 
L 4713 728 
Q 4044 1459 3156 2247 
Q 2731 1328 1538 647 
Q 1275 1009 1188 1097 
Q 2206 1634 2581 2291 
Q 2881 2772 2931 3709 
L 1144 3709 
L 1144 -784 
L 638 -784 
L 638 4184 
z
" transform="scale(0.015625)"/>
      <path id="MicrosoftYaHei-56fa" d="M 469 4997 
L 5938 4997 
L 5938 -834 
L 5469 -834 
L 5469 -509 
L 944 -509 
L 944 -841 
L 469 -841 
L 469 4997 
z
M 5469 4541 
L 944 4541 
L 944 -53 
L 5469 -53 
L 5469 4541 
z
M 1869 2459 
L 2963 2459 
L 2963 3216 
L 1313 3216 
L 1313 3641 
L 2963 3641 
L 2963 4366 
L 3425 4366 
L 3425 3641 
L 5081 3641 
L 5081 3216 
L 3425 3216 
L 3425 2459 
L 4531 2459 
L 4531 434 
L 4081 434 
L 4081 691 
L 2319 691 
L 2319 434 
L 1869 434 
L 1869 2459 
z
M 4081 2047 
L 2319 2047 
L 2319 1103 
L 4081 1103 
L 4081 2047 
z
" transform="scale(0.015625)"/>
      <path id="MicrosoftYaHei-5b9a" d="M 81 -384 
Q 1119 509 1281 2241 
L 1806 2159 
Q 1731 1581 1578 1081 
Q 2063 50 3081 -103 
L 3081 2647 
L 225 2647 
L 225 3116 
L 6163 3116 
L 6163 2647 
L 3600 2647 
L 3600 1634 
L 5775 1634 
L 5775 1172 
L 3600 1172 
L 3600 -138 
Q 4844 -169 6306 -116 
Q 6200 -359 6125 -634 
Q 4594 -653 3450 -616 
Q 2041 -616 1378 528 
Q 1022 -300 413 -872 
Q 269 -628 81 -384 
z
M 450 4566 
L 3116 4566 
Q 2931 4834 2725 5091 
L 3200 5347 
Q 3444 5066 3731 4716 
L 3450 4566 
L 5981 4566 
L 5981 3378 
L 5488 3378 
L 5488 4097 
L 944 4097 
L 944 3384 
L 450 3384 
L 450 4566 
z
" transform="scale(0.015625)"/>
      <path id="MicrosoftYaHei-6b21" d="M 4119 3472 
Q 4113 3159 4091 2856 
Q 4509 728 6319 -284 
Q 6063 -559 5913 -772 
Q 4344 331 3900 1944 
Q 3491 200 1650 -866 
Q 1525 -672 1306 -422 
Q 3225 591 3525 2428 
Q 3613 2878 3619 3472 
L 4119 3472 
z
M 4944 2647 
Q 5225 3166 5450 3766 
L 2991 3766 
Q 2719 3144 2388 2572 
Q 2163 2734 1938 2841 
Q 2669 4034 3000 5309 
L 3506 5166 
Q 3356 4675 3175 4209 
L 5988 4209 
L 5988 3766 
Q 5731 3072 5425 2466 
Q 5213 2572 4944 2647 
z
M 1388 2622 
Q 1675 2403 1875 2284 
Q 1075 859 575 -178 
L 69 153 
Q 713 1128 1388 2622 
z
M 644 4916 
Q 1150 4409 1781 3672 
L 1375 3297 
Q 769 4097 281 4591 
L 644 4916 
z
" transform="scale(0.015625)"/>
      <path id="MicrosoftYaHei-5e8f" d="M 1438 1966 
L 3634 1966 
Q 3053 2394 2525 2722 
L 2825 3041 
Q 3294 2756 3719 2478 
L 4850 3147 
L 1806 3147 
L 1806 3597 
L 5756 3597 
L 5756 3141 
L 4141 2191 
Q 4219 2138 4294 2084 
L 4128 1966 
L 6181 1966 
L 6181 1503 
L 5638 384 
Q 5450 484 5175 609 
L 5619 1509 
L 4119 1509 
L 4119 22 
Q 4119 -734 3400 -734 
Q 3019 -734 2463 -722 
Q 2438 -509 2388 -184 
Q 2881 -253 3250 -253 
Q 3606 -253 3606 103 
L 3606 1509 
L 1438 1509 
L 1438 1966 
z
M 2981 5147 
L 3431 5391 
Q 3675 5078 3881 4747 
L 3584 4572 
L 6244 4572 
L 6244 4116 
L 1263 4116 
L 1263 2416 
Q 1263 191 406 -872 
Q 256 -666 50 -447 
Q 738 353 738 2291 
L 738 4572 
L 3369 4572 
Q 3178 4884 2981 5147 
z
" transform="scale(0.015625)"/>
      <path id="MicrosoftYaHei-6267" d="M 2225 2272 
L 2519 2647 
Q 2788 2472 3059 2294 
Q 3128 2856 3147 3622 
L 2406 3622 
L 2406 4097 
L 3156 4097 
Q 3169 4672 3175 5303 
L 3663 5303 
Q 3656 4653 3644 4097 
L 5363 4097 
Q 5350 3228 5344 2341 
Q 5319 616 5488 34 
Q 5531 -103 5618 -103 
Q 5706 -103 5744 59 
Q 5831 409 5913 1059 
Q 6156 934 6375 878 
Q 6288 253 6175 -159 
Q 6025 -691 5613 -691 
Q 5194 -691 5013 -103 
Q 4869 397 4875 1847 
Q 4869 2672 4869 3622 
L 3634 3622 
Q 3616 2709 3513 1988 
Q 3994 1663 4481 1322 
L 4163 891 
Q 3791 1172 3416 1444 
Q 3113 100 2088 -847 
Q 1931 -634 1713 -422 
Q 2725 506 2975 1756 
Q 2600 2019 2225 2272 
z
M 88 1966 
Q 525 2069 969 2181 
L 969 3647 
L 144 3647 
L 144 4097 
L 969 4097 
L 969 5303 
L 1431 5303 
L 1431 4097 
L 2163 4097 
L 2163 3647 
L 1431 3647 
L 1431 2303 
Q 1772 2394 2113 2491 
Q 2125 2216 2156 2016 
L 1431 1813 
L 1431 -78 
Q 1431 -759 875 -759 
Q 606 -759 219 -747 
Q 194 -516 138 -247 
Q 538 -291 694 -291 
Q 969 -291 969 3 
L 969 1678 
Q 559 1559 150 1441 
L 88 1966 
z
" transform="scale(0.015625)"/>
      <path id="MicrosoftYaHei-884c" d="M 2363 2978 
L 6319 2978 
L 6319 2509 
L 5106 2509 
L 5106 66 
Q 5106 -709 4325 -709 
Q 3800 -709 3256 -703 
Q 3219 -453 3163 -141 
Q 3650 -191 4144 -191 
Q 4575 -191 4575 234 
L 4575 2509 
L 2363 2509 
L 2363 2978 
z
M 100 1578 
Q 1069 2372 1863 3809 
L 2300 3541 
Q 1978 2984 1619 2500 
L 1619 -809 
L 1100 -809 
L 1100 1856 
Q 725 1431 319 1072 
Q 219 1334 100 1578 
z
M 2725 4866 
L 5969 4866 
L 5969 4397 
L 2725 4397 
L 2725 4866 
z
M 131 3559 
Q 1125 4328 1731 5347 
L 2181 5072 
Q 1456 3959 381 3078 
Q 269 3316 131 3559 
z
" transform="scale(0.015625)"/>
      <path id="MicrosoftYaHei-ff08" d="M 5288 -1100 
Q 4172 119 4172 1850 
Q 4172 3603 5288 4838 
L 5825 4838 
Q 4716 3572 4716 1856 
Q 4716 166 5819 -1100 
L 5288 -1100 
z
" transform="scale(0.015625)"/>
      <path id="MicrosoftYaHei-89c4" d="M 4006 4047 
L 4469 4047 
L 4469 3116 
Q 4469 2272 4344 1653 
L 4756 1653 
L 4756 109 
Q 4756 -253 5100 -253 
L 5406 -253 
Q 5719 -253 5756 66 
Q 5800 428 5819 903 
Q 6113 778 6313 709 
Q 6269 266 6219 -84 
Q 6119 -691 5494 -691 
L 4975 -691 
Q 4300 -691 4300 34 
L 4300 1459 
Q 4019 234 2581 -878 
Q 2331 -597 2200 -478 
Q 3313 334 3669 1109 
Q 4006 1778 4006 3122 
L 4006 4047 
z
M 138 2559 
L 1100 2559 
Q 1113 2859 1113 3678 
L 219 3678 
L 219 4103 
L 1113 4103 
L 1113 5266 
L 1581 5266 
L 1581 4103 
L 2481 4103 
L 2481 3678 
L 1581 3678 
Q 1581 3216 1569 2559 
L 2581 2559 
L 2581 2134 
L 1544 2134 
Q 1538 1934 1513 1728 
Q 2106 1178 2788 491 
L 2400 128 
Q 1938 709 1431 1241 
Q 1144 59 394 -822 
Q 281 -653 94 -384 
Q 1038 791 1075 2134 
L 138 2134 
L 138 2559 
z
M 2763 5003 
L 5794 5003 
L 5794 1259 
L 5331 1259 
L 5331 4559 
L 3225 4559 
L 3225 1172 
L 2763 1172 
L 2763 5003 
z
" transform="scale(0.015625)"/>
      <path id="MicrosoftYaHei-5219" d="M 5419 5203 
L 5919 5203 
L 5919 9 
Q 5919 -753 5169 -759 
Q 4825 -766 4194 -753 
Q 4163 -534 4094 -197 
Q 4731 -253 5006 -253 
Q 5419 -259 5419 153 
L 5419 5203 
z
M 4619 797 
L 4131 797 
L 4131 4647 
L 4619 4647 
L 4619 797 
z
M 538 4934 
L 3319 4934 
L 3319 903 
L 2838 903 
L 2838 4491 
L 1019 4491 
L 1019 903 
L 538 903 
L 538 4934 
z
M 3219 -628 
Q 2600 9 1875 653 
Q 1456 -309 375 -884 
Q 244 -691 63 -472 
Q 1306 153 1563 1241 
Q 1725 1766 1719 4034 
L 2200 4034 
Q 2206 1747 2031 1109 
Q 2775 528 3613 -234 
L 3219 -628 
z
" transform="scale(0.015625)"/>
      <path id="MicrosoftYaHei-9a71" d="M 1006 4128 
L 800 2366 
L 1544 2366 
L 1725 4553 
L 206 4553 
L 206 4991 
L 2238 4991 
L 2019 2366 
L 2494 2366 
Q 2444 1034 2388 278 
Q 2356 -684 1525 -684 
Q 1150 -684 656 -666 
Q 625 -434 575 -141 
Q 1038 -197 1450 -197 
Q 1894 -197 1931 341 
Q 1975 922 2000 1928 
L 281 1928 
L 538 4128 
L 1006 4128 
z
M 2900 4941 
L 6163 4941 
L 6163 4491 
L 3381 4491 
L 3381 -122 
L 6250 -122 
L 6250 -572 
L 2900 -572 
L 2900 4941 
z
M 3513 3847 
L 3900 4047 
Q 4334 3359 4756 2638 
Q 5109 3347 5394 4116 
L 5844 3953 
Q 5456 2978 5034 2163 
Q 5500 1356 5956 509 
L 5513 297 
Q 5156 963 4766 1663 
Q 4322 884 3844 272 
L 3438 522 
Q 4022 1284 4497 2144 
Q 4028 2972 3513 3847 
z
M 56 997 
Q 588 1116 1769 1459 
Q 1788 1197 1813 1003 
Q 1338 872 194 522 
L 56 997 
z
" transform="scale(0.015625)"/>
      <path id="MicrosoftYaHei-52a8" d="M 2975 4022 
L 3906 4022 
Q 3916 4650 3913 5309 
L 4425 5309 
Q 4422 4656 4409 4022 
L 6094 4022 
Q 6050 1659 5969 216 
Q 5900 -666 5150 -678 
Q 4763 -678 4306 -659 
Q 4263 -397 4206 -109 
Q 4638 -166 4994 -172 
Q 5456 -172 5475 347 
Q 5569 1897 5588 3547 
L 4400 3547 
Q 4394 3278 4388 3016 
Q 4356 553 2900 -872 
Q 2725 -659 2525 -447 
Q 3831 716 3888 3028 
Q 3894 3284 3900 3547 
L 2975 3547 
L 2975 4022 
z
M 2338 1866 
Q 2731 1016 3063 178 
Q 2788 59 2594 -28 
Q 2550 91 2506 209 
Q 1316 97 338 -16 
L 119 491 
Q 394 647 563 997 
Q 869 1613 1200 2559 
L 144 2559 
L 144 3022 
L 3163 3022 
L 3163 2559 
L 1725 2559 
Q 1191 1228 800 491 
Q 1519 544 2347 631 
Q 2138 1163 1906 1672 
L 2338 1866 
z
M 406 4778 
L 2913 4778 
L 2913 4316 
L 406 4316 
L 406 4778 
z
" transform="scale(0.015625)"/>
      <path id="MicrosoftYaHei-ff0c" d="M 1931 775 
L 1403 -891 
L 966 -891 
L 1350 775 
L 1931 775 
z
" transform="scale(0.015625)"/>
      <path id="MicrosoftYaHei-975e" d="M 3688 5284 
L 4188 5284 
L 4188 4391 
L 6131 4391 
L 6131 3941 
L 4188 3941 
L 4188 2716 
L 6038 2716 
L 6038 2266 
L 4188 2266 
L 4188 1016 
L 6269 1016 
L 6269 566 
L 4188 566 
L 4188 -797 
L 3688 -797 
L 3688 5284 
z
M 150 1016 
L 2206 1016 
L 2206 2266 
L 375 2266 
L 375 2716 
L 2206 2716 
L 2206 3941 
L 275 3941 
L 275 4391 
L 2206 4391 
L 2206 5284 
L 2706 5284 
L 2706 -797 
L 2206 -797 
L 2206 566 
L 150 566 
L 150 1016 
z
" transform="scale(0.015625)"/>
      <path id="MicrosoftYaHei-6700" d="M 169 -28 
Q 475 3 781 38 
L 781 2416 
L 94 2416 
L 94 2791 
L 6288 2791 
L 6288 2416 
L 3025 2416 
L 3025 331 
Q 3325 375 3625 422 
Q 3619 309 3631 22 
Q 3338 -19 3025 -63 
L 3025 -859 
L 2600 -859 
L 2600 -125 
Q 1525 -278 281 -472 
L 169 -28 
z
M 1038 5053 
L 5363 5053 
L 5363 3047 
L 4925 3047 
L 4925 3191 
L 1475 3191 
L 1475 3047 
L 1038 3047 
L 1038 5053 
z
M 3338 1609 
L 3338 1972 
L 5819 1972 
L 5819 1609 
Q 5500 844 4981 278 
Q 5516 -113 6306 -316 
Q 6144 -553 6025 -753 
Q 5219 -488 4666 -34 
Q 4128 -516 3413 -822 
Q 3306 -634 3125 -428 
Q 3834 -156 4347 266 
Q 3825 825 3603 1609 
L 3338 1609 
z
M 1475 3553 
L 4925 3553 
L 4925 3953 
L 1475 3953 
L 1475 3553 
z
M 4925 4691 
L 1475 4691 
L 1475 4291 
L 4925 4291 
L 4925 4691 
z
M 5344 1609 
L 4025 1609 
Q 4222 994 4659 556 
Q 5094 1013 5344 1609 
z
M 2600 269 
L 2600 691 
L 1206 691 
L 1206 88 
Q 1913 172 2600 269 
z
M 1206 1916 
L 2600 1916 
L 2600 2416 
L 1206 2416 
L 1206 1916 
z
M 1206 1053 
L 2600 1053 
L 2600 1553 
L 1206 1553 
L 1206 1053 
z
" transform="scale(0.015625)"/>
      <path id="MicrosoftYaHei-4f18" d="M 1825 3609 
L 3184 3609 
Q 3216 4322 3213 5272 
L 3713 5272 
Q 3719 4338 3688 3609 
L 6188 3609 
L 6188 3153 
L 4475 3153 
L 4475 228 
Q 4475 -122 4838 -122 
L 5244 -122 
Q 5656 -122 5700 303 
Q 5750 659 5781 1266 
Q 6031 1166 6294 1066 
Q 6244 528 6175 109 
Q 6100 -291 5900 -447 
Q 5713 -603 5275 -597 
L 4763 -597 
Q 4325 -597 4150 -422 
Q 3969 -259 3969 184 
L 3969 3153 
L 3663 3153 
Q 3600 791 1950 -803 
Q 1775 -597 1575 -397 
Q 3100 1028 3159 3153 
L 1825 3153 
L 1825 3609 
z
M 88 2334 
Q 1056 3641 1556 5291 
L 2063 5122 
Q 1753 4253 1388 3522 
L 1388 -809 
L 913 -809 
L 913 2666 
Q 616 2184 288 1778 
Q 194 2047 88 2334 
z
M 4600 5184 
Q 5269 4759 5713 4391 
Q 5538 4197 5388 3991 
Q 4875 4447 4325 4841 
L 4600 5184 
z
" transform="scale(0.015625)"/>
      <path id="MicrosoftYaHei-5316" d="M 1844 1453 
Q 2663 1834 3375 2331 
L 3375 5197 
L 3913 5197 
L 3913 2734 
Q 4869 3506 5613 4516 
L 6069 4184 
Q 5159 2975 3913 2069 
L 3913 303 
Q 3913 -122 4363 -122 
L 5156 -122 
Q 5581 -122 5650 284 
Q 5738 709 5763 1266 
Q 6025 1166 6313 1084 
Q 6263 559 6181 122 
Q 6063 -597 5281 -597 
L 4225 -597 
Q 3375 -597 3375 241 
L 3375 1703 
Q 2791 1328 2144 1016 
Q 2013 1222 1844 1453 
z
M 88 2222 
Q 1175 3666 1688 5291 
L 2231 5134 
Q 1934 4359 1588 3675 
L 1588 -797 
L 1063 -797 
L 1063 2734 
Q 716 2172 325 1678 
Q 219 1947 88 2222 
z
" transform="scale(0.015625)"/>
      <path id="MicrosoftYaHei-6c42" d="M 225 4178 
L 2969 4178 
L 2969 5309 
L 3494 5309 
L 3494 4178 
L 6225 4178 
L 6225 3728 
L 3494 3728 
L 3494 3341 
Q 3800 2641 4219 2066 
Q 4869 2628 5444 3316 
L 5888 2947 
Q 5119 2184 4525 1684 
Q 5275 809 6319 284 
Q 6088 16 5944 -203 
Q 4331 741 3494 2322 
L 3494 28 
Q 3494 -778 2650 -778 
Q 2200 -778 1819 -766 
Q 1781 -509 1719 -209 
Q 2213 -266 2525 -266 
Q 2969 -266 2969 191 
L 2969 1372 
Q 1494 616 400 -3 
L 131 509 
Q 1438 1116 2969 1953 
L 2969 3728 
L 225 3728 
L 225 4178 
z
M 1144 3353 
Q 1644 2859 2163 2247 
Q 1969 2084 1731 1897 
Q 1294 2466 769 3047 
L 1144 3353 
z
M 4069 4978 
L 4369 5309 
Q 4963 4934 5313 4628 
L 4975 4253 
Q 4606 4578 4069 4978 
z
" transform="scale(0.015625)"/>
      <path id="MicrosoftYaHei-89e3" d="M 75 3559 
Q 756 4316 1188 5322 
L 1625 5203 
Q 1497 4941 1366 4697 
L 2544 4697 
L 2544 4309 
L 2084 3641 
L 2881 3641 
L 2881 -128 
Q 2881 -753 2263 -759 
Q 1994 -766 1706 -747 
Q 1688 -591 1638 -328 
Q 1938 -359 2175 -359 
Q 2475 -359 2475 -66 
L 2475 953 
L 1913 953 
L 1913 -203 
L 1506 -203 
L 1506 953 
L 950 953 
Q 897 -225 438 -847 
Q 294 -684 88 -528 
Q 550 153 550 1303 
L 550 3428 
Q 463 3319 375 3216 
Q 269 3359 75 3559 
z
M 3075 897 
L 4550 897 
L 4550 1797 
L 3794 1797 
Q 3659 1438 3513 1122 
Q 3331 1228 3106 1309 
Q 3456 2059 3663 2828 
L 4094 2709 
Q 4019 2456 3941 2222 
L 4550 2222 
L 4550 2897 
L 5013 2897 
L 5013 2222 
L 6131 2222 
L 6131 1797 
L 5013 1797 
L 5013 897 
L 6281 897 
L 6281 472 
L 5013 472 
L 5013 -841 
L 4550 -841 
L 4550 472 
L 3075 472 
L 3075 897 
z
M 3138 4997 
L 5950 4997 
Q 5931 4384 5888 3847 
Q 5844 3084 5081 3084 
Q 4819 3084 4438 3103 
Q 4400 3366 4350 3603 
Q 4800 3547 5056 3547 
Q 5394 3547 5425 3909 
Q 5456 4191 5469 4572 
L 4284 4572 
Q 4263 3950 4063 3584 
Q 3844 3159 3219 2759 
Q 3119 2916 2919 3159 
Q 3438 3441 3638 3778 
Q 3806 4050 3828 4572 
L 3138 4572 
L 3138 4997 
z
M 709 3641 
L 1581 3641 
L 2038 4316 
L 1150 4316 
Q 934 3950 709 3641 
z
M 1913 1322 
L 2475 1322 
L 2475 2116 
L 1913 2116 
L 1913 1322 
z
M 2475 3272 
L 1913 3272 
L 1913 2484 
L 2475 2484 
L 2475 3272 
z
M 956 1322 
L 1506 1322 
L 1506 2116 
L 956 2116 
L 956 1322 
z
M 956 2484 
L 1506 2484 
L 1506 3272 
L 956 3272 
L 956 2484 
z
" transform="scale(0.015625)"/>
      <path id="MicrosoftYaHei-ff09" d="M 1113 -1100 
L 575 -1100 
Q 1684 163 1684 1888 
Q 1684 3581 581 4838 
L 1113 4838 
Q 2222 3628 2222 1888 
Q 2222 128 1113 -1100 
z
" transform="scale(0.015625)"/>
     </defs>
     <use xlink:href="#MicrosoftYaHei-5355"/>
     <use xlink:href="#MicrosoftYaHei-65f6" transform="translate(100 0)"/>
     <use xlink:href="#MicrosoftYaHei-95f4" transform="translate(200 0)"/>
     <use xlink:href="#MicrosoftYaHei-6b65" transform="translate(300 0)"/>
     <use xlink:href="#MicrosoftYaHei-5185" transform="translate(400 0)"/>
     <use xlink:href="#MicrosoftYaHei-56fa" transform="translate(500 0)"/>
     <use xlink:href="#MicrosoftYaHei-5b9a" transform="translate(600 0)"/>
     <use xlink:href="#MicrosoftYaHei-6b21" transform="translate(700 0)"/>
     <use xlink:href="#MicrosoftYaHei-5e8f" transform="translate(800 0)"/>
     <use xlink:href="#MicrosoftYaHei-6267" transform="translate(900 0)"/>
     <use xlink:href="#MicrosoftYaHei-884c" transform="translate(1000 0)"/>
     <use xlink:href="#MicrosoftYaHei-ff08" transform="translate(1100 0)"/>
     <use xlink:href="#MicrosoftYaHei-89c4" transform="translate(1200 0)"/>
     <use xlink:href="#MicrosoftYaHei-5219" transform="translate(1300 0)"/>
     <use xlink:href="#MicrosoftYaHei-9a71" transform="translate(1400 0)"/>
     <use xlink:href="#MicrosoftYaHei-52a8" transform="translate(1500 0)"/>
     <use xlink:href="#MicrosoftYaHei-ff0c" transform="translate(1600 0)"/>
     <use xlink:href="#MicrosoftYaHei-975e" transform="translate(1700 0)"/>
     <use xlink:href="#MicrosoftYaHei-6700" transform="translate(1800 0)"/>
     <use xlink:href="#MicrosoftYaHei-4f18" transform="translate(1900 0)"/>
     <use xlink:href="#MicrosoftYaHei-5316" transform="translate(2000 0)"/>
     <use xlink:href="#MicrosoftYaHei-6c42" transform="translate(2100 0)"/>
     <use xlink:href="#MicrosoftYaHei-89e3" transform="translate(2200 0)"/>
     <use xlink:href="#MicrosoftYaHei-ff09" transform="translate(2300 0)"/>
    </g>
   </g>
   <g id="text_3">
    <!-- 读取输入与状态 -->
    <g style="fill: #0c1f2e" transform="translate(73.724545 82.814265) scale(0.089 -0.089)">
     <defs>
      <path id="MicrosoftYaHei-8bfb" d="M 1844 3516 
L 3750 3516 
L 3750 4141 
L 2075 4141 
L 2075 4578 
L 3750 4578 
L 3750 5303 
L 4225 5303 
L 4225 4578 
L 6013 4578 
L 6013 4141 
L 4225 4141 
L 4225 3516 
L 6138 3516 
L 6063 2291 
Q 5838 2316 5581 2322 
L 5650 3078 
L 1844 3078 
L 1844 3516 
z
M 1794 1291 
L 4063 1291 
Q 4188 1803 4156 2916 
L 4631 2916 
Q 4650 1741 4556 1291 
L 6219 1291 
L 6219 853 
L 4463 853 
Q 4419 734 4369 634 
Q 5300 134 6200 -391 
L 5888 -816 
Q 4950 -222 4125 247 
Q 3563 -434 2044 -884 
Q 1906 -666 1731 -434 
Q 3544 53 3950 853 
L 1794 853 
L 1794 1291 
z
M 2025 672 
Q 2038 384 2069 128 
Q 1381 -316 913 -691 
L 625 -278 
Q 838 -91 838 259 
L 838 2678 
L 88 2678 
L 88 3128 
L 1306 3128 
L 1306 166 
Q 1619 378 2025 672 
z
M 813 5147 
Q 1288 4672 1763 4141 
L 1331 3784 
Q 894 4334 431 4834 
L 813 5147 
z
M 2056 1997 
L 2281 2334 
Q 2869 2053 3425 1728 
L 3181 1353 
Q 2675 1678 2056 1997 
z
M 2513 2678 
L 2744 3022 
Q 3331 2734 3869 2434 
L 3619 2053 
Q 3088 2384 2513 2678 
z
" transform="scale(0.015625)"/>
      <path id="MicrosoftYaHei-53d6" d="M 88 641 
Q 363 675 650 713 
L 650 4578 
L 181 4578 
L 181 5016 
L 3244 5016 
L 3244 4797 
L 5975 4797 
L 5975 4403 
Q 5613 2097 4906 1006 
Q 5497 172 6325 -291 
Q 6150 -472 5944 -753 
Q 5275 -266 4625 609 
Q 3994 -219 3125 -828 
Q 2947 -594 2806 -434 
L 2806 -822 
L 2338 -822 
L 2338 531 
Q 1197 353 156 178 
L 88 641 
z
M 3194 4372 
L 3194 4578 
L 2806 4578 
L 2806 1025 
Q 3156 1081 3519 1141 
Q 3500 884 3500 709 
Q 3147 656 2806 603 
L 2806 -403 
Q 3681 109 4350 1006 
Q 3628 2156 3422 4372 
L 3194 4372 
z
M 5506 4372 
L 3875 4372 
Q 4022 2544 4638 1428 
Q 5181 2344 5506 4372 
z
M 2338 953 
L 2338 1866 
L 1119 1866 
L 1119 775 
Q 1703 859 2338 953 
z
M 1119 2266 
L 2338 2266 
L 2338 3222 
L 1119 3222 
L 1119 2266 
z
M 1119 3622 
L 2338 3622 
L 2338 4578 
L 1119 4578 
L 1119 3622 
z
" transform="scale(0.015625)"/>
      <path id="MicrosoftYaHei-8f93" d="M 625 2216 
L 1188 2216 
L 1188 3353 
L 1600 3353 
L 1600 2216 
L 2200 2216 
L 2200 1803 
L 1600 1803 
L 1600 947 
Q 1931 991 2275 1047 
Q 2244 809 2231 616 
Q 1913 572 1600 528 
L 1600 -866 
L 1188 -866 
L 1188 466 
Q 681 391 169 309 
L 100 766 
Q 638 822 1188 891 
L 1188 1803 
L 188 1803 
L 188 2234 
Q 425 2903 681 3934 
L 131 3934 
L 131 4334 
L 781 4334 
Q 888 4784 1000 5297 
L 1450 5197 
Q 1331 4741 1225 4334 
L 2356 4334 
L 2356 3934 
L 1119 3934 
Q 844 2922 625 2216 
z
M 2813 -853 
L 2413 -853 
L 2413 2828 
L 4075 2828 
L 4075 -247 
Q 4075 -797 3569 -797 
Q 3375 -797 3081 -791 
Q 3050 -653 2994 -403 
Q 3244 -422 3450 -422 
Q 3675 -422 3675 -172 
L 3675 553 
L 2813 553 
L 2813 -853 
z
M 4619 5253 
L 4513 5116 
Q 5244 4016 6344 3541 
Q 6131 3291 6019 3109 
Q 5594 3347 5231 3647 
L 5231 3334 
L 3063 3334 
L 3063 3609 
Q 2694 3303 2294 3047 
Q 2106 3291 1963 3428 
Q 3206 4153 3969 5253 
L 4619 5253 
z
M 5550 2941 
L 5975 2941 
L 5975 -103 
Q 5975 -797 5388 -803 
Q 5069 -809 4656 -791 
Q 4625 -559 4569 -322 
Q 4963 -372 5244 -372 
Q 5550 -372 5550 -47 
L 5550 2941 
z
M 4206 4791 
Q 3738 4203 3194 3728 
L 5131 3728 
Q 4600 4191 4206 4791 
z
M 4594 2641 
L 4994 2641 
L 4994 366 
L 4594 366 
L 4594 2641 
z
M 2813 903 
L 3675 903 
L 3675 1503 
L 2813 1503 
L 2813 903 
z
M 3675 2447 
L 2813 2447 
L 2813 1853 
L 3675 1853 
L 3675 2447 
z
" transform="scale(0.015625)"/>
      <path id="MicrosoftYaHei-5165" d="M 1831 4947 
L 2244 5241 
Q 2944 4809 3781 3028 
Q 4950 472 6319 -91 
L 5881 -641 
Q 4513 172 3350 2784 
Q 3256 2994 3166 3184 
Q 2441 700 469 -678 
Q 300 -428 88 -209 
Q 2116 1069 2819 3834 
Q 2328 4653 1831 4947 
z
" transform="scale(0.015625)"/>
      <path id="MicrosoftYaHei-4e0e" d="M 1163 2384 
L 1163 2859 
L 1413 5328 
L 1931 5328 
L 1834 4334 
L 6269 4334 
L 6269 3859 
L 1791 3859 
L 1694 2859 
L 5813 2859 
Q 5738 1547 5644 416 
Q 5556 -247 5263 -478 
Q 4981 -703 4322 -703 
Q 3706 -697 2900 -678 
Q 2863 -466 2794 -134 
Q 3744 -203 4213 -209 
Q 5050 -266 5125 447 
Q 5206 1278 5263 2384 
L 1163 2384 
z
M 106 1409 
L 4738 1409 
L 4738 934 
L 106 934 
L 106 1409 
z
" transform="scale(0.015625)"/>
      <path id="MicrosoftYaHei-72b6" d="M 2213 3516 
L 3791 3516 
Q 3825 4369 3825 5297 
L 4325 5297 
Q 4325 4338 4294 3516 
L 6175 3516 
L 6175 3047 
L 4309 3047 
Q 4884 628 6313 -228 
Q 6069 -491 5906 -703 
Q 4638 266 4119 2106 
Q 3766 413 2363 -809 
Q 2169 -541 2013 -384 
Q 3600 853 3766 3047 
L 2213 3047 
L 2213 3516 
z
M 1494 5316 
L 1994 5316 
L 1994 -834 
L 1494 -834 
L 1494 1606 
Q 916 1119 400 691 
L 75 1122 
Q 769 1628 1494 2222 
L 1494 5316 
z
M 219 4134 
L 644 4334 
Q 1019 3672 1306 2884 
L 831 2666 
Q 519 3541 219 4134 
z
M 5006 5053 
Q 5550 4641 5950 4278 
Q 5775 4078 5606 3884 
Q 5150 4328 4681 4716 
L 5006 5053 
z
" transform="scale(0.015625)"/>
      <path id="MicrosoftYaHei-6001" d="M 325 4434 
L 2888 4434 
Q 2972 4822 2969 5328 
L 3438 5328 
Q 3444 4841 3372 4434 
L 6075 4434 
L 6075 3991 
L 3528 3991 
Q 4419 2706 6231 2241 
Q 6050 2034 5881 1759 
Q 4041 2394 3172 3772 
Q 2975 3331 2588 2953 
Q 3078 2616 3538 2259 
L 3225 1891 
Q 2828 2244 2259 2675 
Q 1556 2138 388 1703 
Q 294 1922 113 2178 
Q 2250 2866 2750 3991 
L 325 3991 
L 325 4434 
z
M 1713 1547 
L 2200 1547 
L 2200 203 
Q 2200 -172 2575 -172 
L 3763 -172 
Q 4175 -172 4256 134 
Q 4331 428 4381 1028 
Q 4556 953 4863 847 
Q 4763 128 4706 -47 
Q 4563 -616 3869 -616 
L 2488 -616 
Q 1713 -616 1713 172 
L 1713 1547 
z
M 813 1447 
L 1281 1297 
Q 1038 522 663 -297 
Q 463 -203 194 -116 
Q 569 591 813 1447 
z
M 4894 1272 
L 5263 1553 
Q 5781 972 6306 309 
L 5888 -9 
Q 5425 641 4894 1272 
z
M 2594 1503 
L 2913 1809 
Q 3419 1403 3850 991 
L 3488 641 
Q 3094 1059 2594 1503 
z
" transform="scale(0.015625)"/>
     </defs>
     <use xlink:href="#MicrosoftYaHei-8bfb"/>
     <use xlink:href="#MicrosoftYaHei-53d6" transform="translate(100 0)"/>
     <use xlink:href="#MicrosoftYaHei-8f93" transform="translate(200 0)"/>
     <use xlink:href="#MicrosoftYaHei-5165" transform="translate(300 0)"/>
     <use xlink:href="#MicrosoftYaHei-4e0e" transform="translate(400 0)"/>
     <use xlink:href="#MicrosoftYaHei-72b6" transform="translate(500 0)"/>
     <use xlink:href="#MicrosoftYaHei-6001" transform="translate(600 0)"/>
    </g>
   </g>
   <g id="text_4">
    <!-- EV 规则充电 -->
    <g style="fill: #0c1f2e" transform="translate(188.366961 82.814265) scale(0.089 -0.089)">
     <defs>
      <path id="MicrosoftYaHei-45" d="M 3228 0 
L 625 0 
L 625 4841 
L 3119 4841 
L 3119 4284 
L 1250 4284 
L 1250 2734 
L 2981 2734 
L 2981 2181 
L 1250 2181 
L 1250 553 
L 3228 553 
L 3228 0 
z
" transform="scale(0.015625)"/>
      <path id="MicrosoftYaHei-56" d="M 4272 4841 
L 2494 0 
L 1800 0 
L 56 4841 
L 750 4841 
L 2053 1056 
Q 2119 869 2150 622 
L 2166 622 
Q 2191 838 2275 1063 
L 3603 4841 
L 4272 4841 
z
" transform="scale(0.015625)"/>
      <path id="MicrosoftYaHei-20" transform="scale(0.015625)"/>
      <path id="MicrosoftYaHei-5145" d="M 4381 3653 
Q 5344 2684 5925 1941 
L 5488 1622 
Q 5294 1875 5094 2122 
Q 4631 2109 4219 2097 
L 4219 241 
Q 4219 -41 4288 -116 
Q 4369 -228 4619 -228 
L 5213 -228 
Q 5625 -228 5675 84 
Q 5719 347 5744 903 
Q 5969 816 6294 716 
Q 6250 278 6188 -78 
Q 6088 -659 5319 -659 
L 4531 -659 
Q 4063 -659 3888 -459 
Q 3713 -291 3713 159 
L 3713 2078 
Q 3094 2056 2600 2038 
Q 2566 1025 2200 447 
Q 1706 -347 406 -797 
Q 281 -591 94 -334 
Q 1338 53 1769 747 
Q 2078 1238 2109 2016 
Q 1697 1997 1400 1978 
Q 1219 1966 900 1878 
L 644 2416 
Q 975 2491 1225 2716 
Q 1838 3294 2384 3978 
L 213 3978 
L 213 4441 
L 3156 4441 
Q 2938 4828 2750 5091 
L 3194 5341 
Q 3419 5034 3669 4622 
L 3338 4441 
L 6206 4441 
L 6206 3978 
L 3063 3978 
Q 2466 3275 1650 2478 
Q 3591 2519 4741 2550 
Q 4388 2975 4019 3384 
L 4381 3653 
z
" transform="scale(0.015625)"/>
      <path id="MicrosoftYaHei-7535" d="M 406 4497 
L 2713 4497 
L 2713 5297 
L 3231 5297 
L 3231 4497 
L 5544 4497 
L 5544 984 
L 3231 984 
L 3231 253 
Q 3231 -128 3631 -128 
L 5094 -128 
Q 5519 -128 5613 153 
Q 5713 459 5756 1034 
Q 5938 953 6275 841 
Q 6200 341 6106 -16 
Q 5950 -603 5256 -603 
L 3594 -603 
Q 2713 -603 2713 259 
L 2713 984 
L 925 984 
L 925 553 
L 406 553 
L 406 4497 
z
M 5025 1453 
L 5025 2522 
L 3231 2522 
L 3231 1453 
L 5025 1453 
z
M 925 1453 
L 2713 1453 
L 2713 2522 
L 925 2522 
L 925 1453 
z
M 5025 4028 
L 3231 4028 
L 3231 2966 
L 5025 2966 
L 5025 4028 
z
M 925 2966 
L 2713 2966 
L 2713 4028 
L 925 4028 
L 925 2966 
z
" transform="scale(0.015625)"/>
     </defs>
     <use xlink:href="#MicrosoftYaHei-45"/>
     <use xlink:href="#MicrosoftYaHei-56" transform="translate(54.980469 0)"/>
     <use xlink:href="#MicrosoftYaHei-20" transform="translate(122.607422 0)"/>
     <use xlink:href="#MicrosoftYaHei-89c4" transform="translate(152.197266 0)"/>
     <use xlink:href="#MicrosoftYaHei-5219" transform="translate(252.197266 0)"/>
     <use xlink:href="#MicrosoftYaHei-5145" transform="translate(352.197266 0)"/>
     <use xlink:href="#MicrosoftYaHei-7535" transform="translate(452.197266 0)"/>
    </g>
   </g>
   <g id="text_5">
    <!-- 形成总需求 -->
    <g style="fill: #0c1f2e" transform="translate(293.213636 82.814265) scale(0.089 -0.089)">
     <defs>
      <path id="MicrosoftYaHei-5f62" d="M 175 2647 
L 1019 2647 
L 1019 4422 
L 350 4422 
L 350 4872 
L 3775 4872 
L 3775 4422 
L 3006 4422 
L 3006 2647 
L 3975 2647 
L 3975 2197 
L 3006 2197 
L 3006 -791 
L 2525 -791 
L 2525 2197 
L 1497 2197 
Q 1500 128 406 -841 
Q 256 -622 75 -428 
Q 1025 366 1016 2197 
L 175 2197 
L 175 2647 
z
M 1500 2647 
L 2525 2647 
L 2525 4422 
L 1500 4422 
L 1500 2647 
z
M 6319 1353 
Q 5331 166 3738 -834 
Q 3631 -666 3388 -422 
Q 4925 397 5956 1672 
L 6319 1353 
z
M 6138 3172 
Q 5250 2159 4019 1347 
Q 3888 1528 3694 1722 
Q 4856 2441 5775 3484 
L 6138 3172 
z
M 6038 4934 
Q 5194 4009 3988 3266 
Q 3875 3428 3675 3666 
Q 4838 4322 5675 5253 
L 6038 4934 
z
" transform="scale(0.015625)"/>
      <path id="MicrosoftYaHei-6210" d="M 2750 -347 
Q 3472 138 4038 781 
Q 3675 1703 3609 3759 
L 1250 3759 
L 1250 2809 
L 3050 2809 
Q 3013 1616 2950 803 
Q 2875 -59 2113 -59 
Q 1856 -59 1431 -34 
Q 1394 197 1331 484 
Q 1769 422 2063 422 
Q 2425 422 2469 922 
Q 2519 1497 2544 2347 
L 1247 2347 
Q 1197 175 369 -866 
Q 213 -653 44 -434 
Q 750 503 750 2528 
L 750 4222 
L 3591 4222 
Q 3569 4716 3550 5291 
L 4069 5291 
Q 4066 4850 4084 4222 
L 6238 4222 
L 6238 3759 
L 4100 3759 
Q 4163 2078 4409 1247 
Q 5016 2069 5406 3109 
L 5900 2903 
Q 5363 1631 4609 691 
Q 5069 -244 5506 -244 
Q 5666 -244 5750 47 
Q 5838 503 5888 984 
Q 6156 878 6363 809 
Q 6269 141 6156 -284 
Q 6038 -741 5631 -778 
Q 5250 -803 4900 -522 
Q 4522 -231 4256 278 
Q 3728 -291 3106 -722 
Q 2944 -534 2750 -347 
z
M 4544 4984 
L 4806 5309 
Q 5331 5009 5788 4684 
L 5488 4309 
Q 5038 4666 4544 4984 
z
" transform="scale(0.015625)"/>
      <path id="MicrosoftYaHei-603b" d="M 900 4253 
L 3631 4253 
Q 4022 4822 4331 5353 
L 4813 5103 
Q 4500 4675 4175 4253 
L 5500 4253 
L 5500 1703 
L 5000 1703 
L 5000 1978 
L 1400 1978 
L 1400 1703 
L 900 1703 
L 900 4253 
z
M 5000 3803 
L 1400 3803 
L 1400 2428 
L 5000 2428 
L 5000 3803 
z
M 1694 1378 
L 2181 1378 
L 2181 284 
Q 2181 -203 2619 -203 
L 3875 -203 
Q 4244 -203 4338 172 
Q 4394 366 4450 872 
Q 4631 791 4931 684 
Q 4850 209 4750 -97 
Q 4556 -641 3900 -641 
L 2519 -641 
Q 1694 -641 1694 197 
L 1694 1378 
z
M 719 1422 
L 1188 1272 
Q 931 491 538 -334 
Q 338 -247 81 -134 
Q 444 597 719 1422 
z
M 4881 1203 
L 5238 1478 
Q 5813 841 6319 197 
L 5900 -134 
Q 5456 491 4881 1203 
z
M 2663 1591 
L 3044 1841 
Q 3488 1372 3863 841 
L 3444 547 
Q 3069 1109 2663 1591 
z
M 1594 5109 
L 1975 5353 
Q 2350 4959 2650 4541 
L 2225 4266 
Q 1956 4653 1594 5109 
z
" transform="scale(0.015625)"/>
      <path id="MicrosoftYaHei-9700" d="M 1188 -822 
L 713 -822 
L 713 1228 
L 2750 1228 
L 2853 1716 
L 125 1716 
L 125 2103 
L 6275 2103 
L 6275 1716 
L 3338 1716 
L 3213 1228 
L 5719 1228 
L 5719 -172 
Q 5719 -791 5100 -791 
Q 4800 -791 4444 -778 
Q 4425 -572 4356 -297 
Q 4725 -334 4963 -334 
Q 5244 -334 5244 -84 
L 5244 841 
L 4169 841 
L 4169 -647 
L 3725 -647 
L 3725 841 
L 2688 841 
L 2688 -647 
L 2244 -647 
L 2244 841 
L 1188 841 
L 1188 -822 
z
M 338 4266 
L 2975 4266 
L 2975 4628 
L 650 4628 
L 650 5016 
L 5700 5016 
L 5700 4628 
L 3419 4628 
L 3419 4266 
L 6063 4266 
L 6063 3103 
L 5581 3103 
L 5581 3878 
L 3419 3878 
L 3419 2391 
L 2975 2391 
L 2975 3878 
L 819 3878 
L 819 3103 
L 338 3103 
L 338 4266 
z
M 3750 2816 
L 5219 2816 
L 5219 2478 
L 3750 2478 
L 3750 2816 
z
M 1175 3516 
L 2644 3516 
L 2644 3178 
L 1175 3178 
L 1175 3516 
z
M 1175 2816 
L 2644 2816 
L 2644 2478 
L 1175 2478 
L 1175 2816 
z
M 3750 3516 
L 5219 3516 
L 5219 3178 
L 3750 3178 
L 3750 3516 
z
" transform="scale(0.015625)"/>
     </defs>
     <use xlink:href="#MicrosoftYaHei-5f62"/>
     <use xlink:href="#MicrosoftYaHei-6210" transform="translate(100 0)"/>
     <use xlink:href="#MicrosoftYaHei-603b" transform="translate(200 0)"/>
     <use xlink:href="#MicrosoftYaHei-9700" transform="translate(300 0)"/>
     <use xlink:href="#MicrosoftYaHei-6c42" transform="translate(400 0)"/>
    </g>
   </g>
   <g id="text_6">
    <!-- 光伏优先就地消纳 -->
    <g style="fill: #0c1f2e" transform="translate(392.778182 82.814265) scale(0.089 -0.089)">
     <defs>
      <path id="MicrosoftYaHei-5149" d="M 169 2691 
L 2931 2691 
L 2931 5309 
L 3444 5309 
L 3444 2691 
L 6256 2691 
L 6256 2228 
L 4206 2228 
L 4206 216 
Q 4206 -22 4269 -116 
Q 4356 -241 4638 -241 
L 5256 -241 
Q 5706 -241 5750 91 
Q 5794 428 5819 984 
Q 6056 884 6344 797 
Q 6288 153 6231 -122 
Q 6175 -441 5963 -559 
Q 5763 -678 5281 -678 
L 4538 -678 
Q 4056 -678 3863 -466 
Q 3700 -284 3700 141 
L 3700 2228 
L 2491 2228 
Q 2466 931 1988 266 
Q 1469 -459 369 -841 
Q 244 -647 50 -397 
Q 1150 -16 1569 603 
Q 1966 1134 1991 2228 
L 169 2228 
L 169 2691 
z
M 4094 3397 
Q 4813 4084 5369 4828 
L 5825 4503 
Q 5200 3766 4481 3059 
L 4094 3397 
z
M 619 4528 
L 1000 4828 
Q 1631 4134 2213 3434 
L 1756 3084 
Q 1188 3866 619 4528 
z
" transform="scale(0.015625)"/>
      <path id="MicrosoftYaHei-4f0f" d="M 1844 3416 
L 3691 3416 
Q 3719 4347 3719 5316 
L 4225 5316 
Q 4219 4578 4197 3416 
L 6269 3416 
L 6269 2959 
L 4209 2959 
Q 4597 781 6313 -316 
Q 6063 -584 5888 -791 
Q 4441 331 4000 2022 
Q 3625 378 1956 -847 
Q 1806 -641 1613 -403 
Q 3503 894 3669 2959 
L 1844 2959 
L 1844 3416 
z
M 88 2328 
Q 1056 3634 1556 5284 
L 2063 5116 
Q 1753 4247 1388 3516 
L 1388 -809 
L 913 -809 
L 913 2659 
Q 616 2178 288 1772 
Q 194 2041 88 2328 
z
M 5006 5028 
Q 5519 4522 5913 4116 
Q 5719 3947 5531 3766 
Q 5106 4272 4675 4728 
L 5006 5028 
z
" transform="scale(0.015625)"/>
      <path id="MicrosoftYaHei-5148" d="M 225 2453 
L 2956 2453 
L 2956 3784 
L 1459 3784 
Q 1153 3166 800 2709 
Q 569 2891 394 2997 
Q 1094 3903 1481 5166 
L 1969 5028 
Q 1828 4613 1672 4247 
L 2956 4247 
L 2956 5309 
L 3469 5309 
L 3469 4247 
L 5788 4247 
L 5788 3784 
L 3469 3784 
L 3469 2453 
L 6219 2453 
L 6219 1991 
L 4206 1991 
L 4206 222 
Q 4169 -259 4638 -216 
L 5275 -216 
Q 5706 -216 5750 109 
Q 5794 428 5819 1022 
Q 6056 922 6344 834 
Q 6313 372 6231 -122 
Q 6169 -434 5956 -559 
Q 5769 -678 5281 -678 
L 4538 -678 
Q 3663 -716 3700 141 
L 3700 1991 
L 2478 1991 
Q 2428 909 2044 328 
Q 1581 -397 369 -847 
Q 244 -647 50 -397 
Q 1163 -16 1581 584 
Q 1925 1047 1978 1991 
L 225 1991 
L 225 2453 
z
" transform="scale(0.015625)"/>
      <path id="MicrosoftYaHei-5c31" d="M 3194 3534 
L 3847 3534 
Q 3856 4031 3869 5309 
L 4325 5309 
Q 4313 4128 4297 3534 
L 6125 3534 
L 6125 3078 
L 5013 3078 
L 5013 84 
Q 5013 -209 5244 -209 
L 5450 -209 
Q 5719 -209 5769 159 
Q 5831 534 5850 1116 
Q 6294 941 6319 928 
Q 6263 372 6213 9 
Q 6119 -659 5513 -659 
L 5094 -659 
Q 4556 -659 4556 -3 
L 4556 3078 
L 4278 3078 
Q 4238 603 2863 -872 
Q 2700 -697 2506 -509 
Q 3800 866 3828 3078 
L 3194 3078 
L 3194 3534 
z
M 550 3497 
L 3025 3497 
L 3025 1616 
L 2588 1616 
L 2588 1766 
L 2006 1766 
L 2006 -84 
Q 2006 -722 1369 -722 
Q 1088 -722 819 -709 
Q 794 -466 719 -228 
Q 1000 -272 1294 -272 
Q 1569 -272 1569 9 
L 1569 1766 
L 988 1766 
L 988 1616 
L 550 1616 
L 550 3497 
z
M 175 4478 
L 1719 4478 
Q 1556 4809 1325 5166 
L 1744 5366 
Q 1975 5022 2150 4672 
L 1750 4478 
L 3375 4478 
L 3375 4053 
L 175 4053 
L 175 4478 
z
M 2588 3084 
L 988 3084 
L 988 2178 
L 2588 2178 
L 2588 3084 
z
M 813 1397 
L 1219 1234 
Q 913 447 519 -166 
Q 363 -53 119 53 
Q 525 666 813 1397 
z
M 4663 4678 
L 4956 5003 
Q 5450 4653 5913 4272 
L 5588 3909 
Q 5300 4184 4663 4678 
z
M 2206 1259 
L 2563 1484 
Q 2919 1022 3156 634 
L 2769 372 
Q 2538 797 2206 1259 
z
" transform="scale(0.015625)"/>
      <path id="MicrosoftYaHei-5730" d="M 3975 5303 
L 4463 5303 
L 4463 3688 
L 5981 4147 
Q 5944 2916 5906 2134 
Q 5869 1291 5231 1284 
Q 4944 1278 4669 1284 
Q 4631 1516 4575 1803 
Q 4875 1766 5094 1766 
Q 5419 1759 5431 2241 
Q 5469 2809 5475 3534 
L 4463 3219 
L 4463 509 
L 3975 509 
L 3975 3069 
L 3031 2775 
L 3031 353 
Q 3031 -134 3563 -134 
L 5094 -134 
Q 5669 -134 5731 328 
Q 5806 728 5856 1259 
Q 6106 1159 6375 1078 
Q 6288 478 6206 103 
Q 6056 -609 5225 -609 
L 3444 -609 
Q 2544 -609 2544 272 
L 2544 2622 
L 2075 2478 
L 1994 2941 
L 2544 3106 
L 2544 4566 
L 3031 4566 
L 3031 3253 
L 3975 3538 
L 3975 5303 
z
M 44 303 
Q 491 447 944 597 
L 944 3091 
L 138 3091 
L 138 3528 
L 944 3528 
L 944 5272 
L 1406 5272 
L 1406 3528 
L 2131 3528 
L 2131 3091 
L 1406 3091 
L 1406 753 
Q 1803 891 2206 1034 
Q 2219 772 2250 572 
Q 1225 203 219 -178 
L 44 303 
z
" transform="scale(0.015625)"/>
      <path id="MicrosoftYaHei-6d88" d="M 2513 -803 
L 2019 -803 
L 2019 3566 
L 3731 3566 
L 3731 5334 
L 4250 5334 
L 4250 3566 
L 5925 3566 
L 5925 -47 
Q 5925 -778 5225 -778 
Q 4819 -778 4144 -759 
Q 4106 -528 4050 -247 
Q 4669 -284 5031 -284 
Q 5431 -284 5431 59 
L 5431 653 
L 2513 653 
L 2513 -803 
z
M 2513 1103 
L 5431 1103 
L 5431 1878 
L 2513 1878 
L 2513 1103 
z
M 5431 3097 
L 2513 3097 
L 2513 2328 
L 5431 2328 
L 5431 3097 
z
M 844 1816 
Q 1100 1716 1356 1628 
Q 1050 384 781 -784 
L 231 -622 
Q 569 491 844 1816 
z
M 4750 4097 
Q 5225 4578 5644 5159 
L 6094 4816 
Q 5700 4353 5119 3772 
L 4750 4097 
z
M 400 3622 
Q 869 3291 1500 2772 
Q 1269 2509 1138 2366 
Q 431 2997 88 3259 
L 400 3622 
z
M 638 5241 
Q 1113 4866 1713 4328 
Q 1500 4109 1344 3941 
Q 669 4597 319 4897 
L 638 5241 
z
M 1931 4872 
L 2294 5159 
Q 2581 4897 3250 4141 
L 2825 3816 
Q 2213 4584 1931 4872 
z
" transform="scale(0.015625)"/>
      <path id="MicrosoftYaHei-7eb3" d="M 2969 -791 
L 2494 -791 
L 2494 4197 
L 4059 4197 
Q 4063 4716 4063 5309 
L 4544 5309 
Q 4544 4706 4538 4197 
L 6088 4197 
L 6088 -28 
Q 6088 -722 5419 -722 
L 4494 -722 
Q 4463 -516 4400 -234 
Q 4944 -272 5231 -272 
Q 5613 -272 5613 59 
L 5613 1128 
Q 5434 984 5238 809 
Q 4744 1519 4263 2109 
Q 3934 1184 3206 584 
Q 3100 725 2969 888 
L 2969 -791 
z
M 894 1566 
Q 1506 1653 2219 1778 
Q 2181 1547 2163 1297 
Q 1600 1216 319 1003 
L 219 1472 
Q 666 1944 1184 2791 
Q 738 2766 219 2722 
L 100 3147 
Q 675 3916 1294 5366 
L 1769 5178 
Q 1094 3853 663 3184 
Q 1084 3194 1428 3203 
Q 1641 3572 1863 3997 
L 2325 3766 
Q 1613 2578 894 1566 
z
M 4056 3772 
L 2969 3772 
L 2969 1059 
Q 4028 1931 4056 3772 
z
M 4413 2644 
Q 5025 1947 5613 1206 
L 5613 3772 
L 4531 3772 
Q 4525 3163 4413 2644 
z
M 88 109 
Q 1094 297 2238 547 
Q 2219 297 2219 78 
Q 1244 -109 225 -359 
L 88 109 
z
" transform="scale(0.015625)"/>
     </defs>
     <use xlink:href="#MicrosoftYaHei-5149"/>
     <use xlink:href="#MicrosoftYaHei-4f0f" transform="translate(100 0)"/>
     <use xlink:href="#MicrosoftYaHei-4f18" transform="translate(200 0)"/>
     <use xlink:href="#MicrosoftYaHei-5148" transform="translate(300 0)"/>
     <use xlink:href="#MicrosoftYaHei-5c31" transform="translate(400 0)"/>
     <use xlink:href="#MicrosoftYaHei-5730" transform="translate(500 0)"/>
     <use xlink:href="#MicrosoftYaHei-6d88" transform="translate(600 0)"/>
     <use xlink:href="#MicrosoftYaHei-7eb3" transform="translate(700 0)"/>
    </g>
   </g>
   <g id="text_7">
    <!-- 净需求（储能前） -->
    <g style="fill: #0c1f2e" transform="translate(503.268182 82.814265) scale(0.089 -0.089)">
     <defs>
      <path id="MicrosoftYaHei-51c0" d="M 2013 1278 
L 3575 1278 
L 3575 1947 
L 1706 1947 
L 1706 2397 
L 3575 2397 
L 3575 3059 
L 2125 3059 
L 2125 3297 
Q 2009 3178 1894 3066 
Q 1788 3178 1556 3416 
Q 2350 4166 3050 5353 
L 3525 5228 
Q 3400 5000 3266 4784 
L 5144 4784 
L 5144 4366 
L 4419 3497 
L 5700 3497 
L 5700 2397 
L 6269 2397 
L 6269 1947 
L 5700 1947 
L 5700 584 
L 5225 584 
L 5225 841 
L 4063 841 
L 4063 3 
Q 4063 -766 3275 -772 
Q 2863 -772 2488 -772 
Q 2444 -503 2388 -253 
Q 2781 -297 3163 -297 
Q 3575 -297 3575 116 
L 3575 841 
L 2013 841 
L 2013 1278 
z
M 4538 4353 
L 2984 4353 
Q 2669 3897 2309 3497 
L 3847 3497 
L 4538 4353 
z
M 925 2334 
Q 1150 2222 1394 2122 
Q 1063 991 713 -241 
L 206 -47 
Q 638 1159 925 2334 
z
M 4063 1278 
L 5225 1278 
L 5225 1947 
L 4063 1947 
L 4063 1278 
z
M 663 4891 
Q 1063 4203 1406 3509 
Q 1150 3372 938 3272 
Q 619 3991 256 4678 
L 663 4891 
z
M 5225 3059 
L 4063 3059 
L 4063 2397 
L 5225 2397 
L 5225 3059 
z
" transform="scale(0.015625)"/>
      <path id="MicrosoftYaHei-50a8" d="M 2850 3216 
L 3956 3216 
L 3956 4097 
L 3063 4097 
L 3063 4497 
L 3956 4497 
L 3956 5303 
L 4406 5303 
L 4406 4497 
L 5281 4497 
L 5281 4097 
L 4406 4097 
L 4406 3216 
L 4581 3216 
Q 5250 3928 5719 4816 
L 6125 4609 
Q 5722 3869 5150 3216 
L 6294 3216 
L 6294 2816 
L 4778 2816 
Q 4481 2519 4147 2241 
L 5825 2241 
L 5825 -791 
L 5400 -791 
L 5400 -366 
L 3938 -366 
L 3938 -797 
L 3513 -797 
L 3513 1756 
Q 3200 1538 2863 1334 
Q 2756 1528 2625 1722 
Q 3491 2191 4175 2816 
L 2850 2816 
L 2850 3216 
z
M 44 2266 
Q 856 3697 1169 5328 
L 1631 5241 
Q 1466 4541 1250 3906 
L 1250 -816 
L 813 -816 
L 813 2806 
Q 556 2247 250 1753 
Q 163 1997 44 2266 
z
M 3125 897 
Q 3144 584 3169 372 
Q 2613 9 2094 -409 
L 1825 -9 
Q 2019 172 2019 472 
L 2019 2816 
L 1425 2816 
L 1425 3247 
L 2463 3247 
L 2463 403 
Q 2869 691 3125 897 
z
M 3938 3 
L 5400 3 
L 5400 784 
L 3938 784 
L 3938 3 
z
M 5400 1859 
L 3938 1859 
L 3938 1153 
L 5400 1153 
L 5400 1859 
z
M 2181 5103 
Q 2550 4447 2781 3984 
L 2356 3747 
Q 2144 4234 1794 4903 
L 2181 5103 
z
" transform="scale(0.015625)"/>
      <path id="MicrosoftYaHei-80fd" d="M 950 -759 
L 463 -759 
L 463 2928 
L 3000 2928 
L 3000 -28 
Q 3000 -703 2375 -703 
Q 2100 -709 1669 -709 
Q 1638 -516 1575 -234 
Q 1969 -266 2206 -266 
Q 2513 -266 2513 53 
L 2513 572 
L 950 572 
L 950 -759 
z
M 3606 2253 
L 4094 2253 
L 4094 1222 
Q 4981 1553 5950 2091 
L 6231 1659 
Q 5209 1122 4094 706 
L 4094 166 
Q 4094 -228 4400 -228 
L 5319 -228 
Q 5638 -228 5688 78 
Q 5731 353 5763 897 
Q 6000 803 6250 722 
Q 6200 172 6144 -109 
Q 6063 -659 5363 -659 
L 4319 -659 
Q 3606 -659 3606 72 
L 3606 2253 
z
M 3619 5303 
L 4106 5303 
L 4106 4231 
Q 4966 4572 5813 5053 
L 6094 4622 
Q 5119 4128 4106 3719 
L 4106 3359 
Q 4106 2941 4438 2941 
L 5231 2941 
Q 5625 2941 5675 3266 
Q 5719 3534 5750 4047 
Q 5988 3953 6238 3866 
Q 6188 3366 6131 3053 
Q 6038 2509 5288 2509 
L 4375 2509 
Q 3619 2509 3619 3259 
L 3619 5303 
z
M 2463 4772 
Q 3031 4034 3450 3353 
Q 3213 3191 3019 3066 
Q 2897 3281 2759 3506 
Q 1231 3394 313 3303 
L 113 3828 
Q 388 3978 719 4391 
Q 1063 4841 1394 5397 
L 1888 5216 
Q 1369 4466 794 3797 
Q 1731 3856 2497 3919 
Q 2300 4216 2075 4528 
L 2463 4772 
z
M 950 947 
L 2513 947 
L 2513 1553 
L 950 1553 
L 950 947 
z
M 2513 2528 
L 950 2528 
L 950 1928 
L 2513 1928 
L 2513 2528 
z
" transform="scale(0.015625)"/>
      <path id="MicrosoftYaHei-524d" d="M 1038 -841 
L 563 -841 
L 563 3322 
L 3300 3322 
L 3300 -172 
Q 3300 -784 2669 -772 
Q 2406 -772 1950 -759 
Q 1913 -516 1856 -297 
Q 2238 -328 2563 -328 
Q 2825 -334 2825 -72 
L 2825 722 
L 1038 722 
L 1038 -841 
z
M 150 4372 
L 2169 4372 
Q 1963 4697 1644 5078 
L 2038 5347 
Q 2425 4916 2663 4578 
L 2353 4372 
L 4063 4372 
L 3813 4509 
Q 4144 4916 4388 5359 
L 4863 5084 
Q 4575 4691 4284 4372 
L 6263 4372 
L 6263 3934 
L 150 3934 
L 150 4372 
z
M 5331 3522 
L 5819 3522 
L 5819 28 
Q 5819 -741 5094 -747 
Q 4763 -753 4269 -741 
Q 4238 -484 4181 -216 
Q 4644 -266 4931 -266 
Q 5331 -266 5331 141 
L 5331 3522 
z
M 4044 3222 
L 4519 3222 
L 4519 409 
L 4044 409 
L 4044 3222 
z
M 2825 2897 
L 1038 2897 
L 1038 2228 
L 2825 2228 
L 2825 2897 
z
M 1038 1141 
L 2825 1141 
L 2825 1809 
L 1038 1809 
L 1038 1141 
z
" transform="scale(0.015625)"/>
     </defs>
     <use xlink:href="#MicrosoftYaHei-51c0"/>
     <use xlink:href="#MicrosoftYaHei-9700" transform="translate(100 0)"/>
     <use xlink:href="#MicrosoftYaHei-6c42" transform="translate(200 0)"/>
     <use xlink:href="#MicrosoftYaHei-ff08" transform="translate(300 0)"/>
     <use xlink:href="#MicrosoftYaHei-50a8" transform="translate(400 0)"/>
     <use xlink:href="#MicrosoftYaHei-80fd" transform="translate(500 0)"/>
     <use xlink:href="#MicrosoftYaHei-524d" transform="translate(600 0)"/>
     <use xlink:href="#MicrosoftYaHei-ff09" transform="translate(700 0)"/>
    </g>
   </g>
   <g id="text_8">
    <!-- 高价且 -->
    <g style="fill: #1e2410" transform="translate(526.568182 135.605965) scale(0.082 -0.082)">
     <defs>
      <path id="MicrosoftYaHei-9ad8" d="M 1194 3922 
L 5250 3922 
L 5250 2397 
L 4775 2397 
L 4775 2597 
L 1669 2597 
L 1669 2403 
L 1194 2403 
L 1194 3922 
z
M 969 -784 
L 494 -784 
L 494 2147 
L 5956 2147 
L 5956 22 
Q 5956 -747 5231 -747 
Q 4825 -747 4319 -734 
Q 4281 -522 4219 -241 
Q 4794 -284 5100 -284 
Q 5481 -284 5481 97 
L 5481 1747 
L 969 1747 
L 969 -784 
z
M 1813 1334 
L 4638 1334 
L 4638 28 
L 2263 28 
L 2263 -241 
L 1813 -241 
L 1813 1334 
z
M 125 4747 
L 2988 4747 
Q 2850 5013 2725 5216 
L 3194 5403 
Q 3372 5094 3541 4747 
L 6275 4747 
L 6275 4334 
L 125 4334 
L 125 4747 
z
M 4775 3534 
L 1669 3534 
L 1669 2984 
L 4775 2984 
L 4775 3534 
z
M 4188 416 
L 4188 947 
L 2263 947 
L 2263 416 
L 4188 416 
z
" transform="scale(0.015625)"/>
      <path id="MicrosoftYaHei-4ef7" d="M 69 2166 
Q 913 3484 1388 5259 
L 1875 5109 
Q 1650 4391 1400 3766 
L 1400 -853 
L 931 -853 
L 931 2722 
Q 619 2109 281 1622 
Q 163 1959 69 2166 
z
M 4319 5272 
L 4231 5116 
Q 5006 3747 6319 3141 
Q 6156 2953 5975 2703 
Q 4706 3434 3975 4703 
Q 3275 3497 2000 2603 
Q 1850 2822 1675 2997 
Q 3088 3884 3756 5272 
L 4319 5272 
z
M 3313 2828 
L 3313 1941 
Q 3313 134 2275 -891 
Q 2094 -709 1856 -541 
Q 2825 347 2825 1897 
L 2825 2828 
L 3313 2828 
z
M 4631 2828 
L 5119 2828 
L 5119 -828 
L 4631 -828 
L 4631 2828 
z
" transform="scale(0.015625)"/>
      <path id="MicrosoftYaHei-4e14" d="M 94 -28 
L 956 -28 
L 956 4947 
L 5438 4947 
L 5438 -28 
L 6288 -28 
L 6288 -491 
L 94 -491 
L 94 -28 
z
M 1456 -28 
L 4938 -28 
L 4938 1197 
L 1456 1197 
L 1456 -28 
z
M 1456 1634 
L 4938 1634 
L 4938 2841 
L 1456 2841 
L 1456 1634 
z
M 4938 4484 
L 1456 4484 
L 1456 3278 
L 4938 3278 
L 4938 4484 
z
" transform="scale(0.015625)"/>
     </defs>
     <use xlink:href="#MicrosoftYaHei-9ad8"/>
     <use xlink:href="#MicrosoftYaHei-4ef7" transform="translate(100 0)"/>
     <use xlink:href="#MicrosoftYaHei-4e14" transform="translate(200 0)"/>
    </g>
    <!-- 净需求&gt;0？ -->
    <g style="fill: #1e2410" transform="translate(517.022869 144.854797) scale(0.082 -0.082)">
     <defs>
      <path id="MicrosoftYaHei-3e" d="M 3844 1866 
L 913 409 
L 913 947 
L 3094 1981 
L 3094 2003 
L 913 3175 
L 913 3716 
L 3844 2103 
L 3844 1866 
z
" transform="scale(0.015625)"/>
      <path id="MicrosoftYaHei-30" d="M 284 2325 
Q 284 3606 709 4264 
Q 1134 4922 1941 4922 
Q 3478 4922 3478 2441 
Q 3478 1216 3045 567 
Q 2613 -81 1831 -81 
Q 1094 -81 689 534 
Q 284 1150 284 2325 
z
M 909 2353 
Q 909 425 1888 425 
Q 2850 425 2850 2384 
Q 2850 4413 1906 4413 
Q 909 4413 909 2353 
z
" transform="scale(0.015625)"/>
      <path id="MicrosoftYaHei-ff1f" d="M 1722 1369 
L 1178 1369 
L 1178 1638 
Q 1178 1966 1309 2202 
Q 1441 2438 1778 2700 
Q 2109 2956 2251 3179 
Q 2394 3403 2394 3694 
Q 2394 4003 2173 4203 
Q 1953 4403 1575 4403 
Q 978 4403 525 3950 
L 525 4588 
Q 1050 4916 1663 4916 
Q 2272 4916 2633 4595 
Q 2994 4275 2994 3756 
Q 2994 3394 2825 3097 
Q 2656 2800 2259 2472 
Q 1941 2206 1831 2050 
Q 1722 1894 1722 1613 
L 1722 1369 
z
M 1447 716 
Q 1613 716 1731 600 
Q 1850 484 1850 319 
Q 1850 150 1731 36 
Q 1613 -78 1447 -78 
Q 1288 -78 1169 34 
Q 1050 147 1050 319 
Q 1050 488 1167 602 
Q 1284 716 1447 716 
z
" transform="scale(0.015625)"/>
     </defs>
     <use xlink:href="#MicrosoftYaHei-51c0"/>
     <use xlink:href="#MicrosoftYaHei-9700" transform="translate(100 0)"/>
     <use xlink:href="#MicrosoftYaHei-6c42" transform="translate(200 0)"/>
     <use xlink:href="#MicrosoftYaHei-3e" transform="translate(300 0)"/>
     <use xlink:href="#MicrosoftYaHei-30" transform="translate(374.169922 0)"/>
     <use xlink:href="#MicrosoftYaHei-ff1f" transform="translate(432.8125 0)"/>
    </g>
   </g>
   <g id="text_9">
    <!-- 储能放电削峰 -->
    <g style="fill: #0c1f2e" transform="translate(405.695455 140.340537) scale(0.086 -0.086)">
     <defs>
      <path id="MicrosoftYaHei-653e" d="M 3956 5359 
L 4456 5272 
Q 4322 4681 4106 4128 
L 6281 4128 
L 6281 3666 
L 5759 3666 
Q 5638 1816 4884 725 
Q 5447 25 6338 -353 
Q 6131 -628 5994 -847 
Q 5153 -394 4559 322 
Q 3947 -356 3094 -903 
Q 2950 -722 2738 -509 
Q 3669 56 4259 731 
Q 3713 1625 3563 2988 
Q 3378 2669 3163 2366 
Q 3031 2553 2850 2766 
Q 3663 3884 3956 5359 
z
M 156 4184 
L 3169 4184 
L 3169 3722 
L 1400 3722 
Q 1394 3166 1378 2703 
L 2813 2703 
Q 2750 1166 2694 241 
Q 2638 -584 1981 -616 
Q 1600 -622 1263 -609 
Q 1225 -378 1156 -84 
Q 1569 -128 1794 -128 
Q 2175 -128 2206 347 
Q 2269 1078 2306 2241 
L 1359 2241 
Q 1338 216 369 -853 
Q 225 -641 38 -416 
Q 625 247 750 1003 
Q 909 1713 906 3722 
L 156 3722 
L 156 4184 
z
M 5263 3666 
L 3934 3666 
Q 4034 2134 4584 1166 
Q 5188 2131 5263 3666 
z
M 1206 5141 
L 1631 5366 
Q 1900 4966 2144 4503 
L 1706 4272 
Q 1456 4753 1206 5141 
z
" transform="scale(0.015625)"/>
      <path id="MicrosoftYaHei-524a" d="M 950 -828 
L 475 -828 
L 475 3478 
L 1800 3478 
L 1800 5291 
L 2275 5291 
L 2275 3478 
L 3575 3478 
L 3575 -84 
Q 3575 -759 2906 -766 
Q 2631 -772 2094 -766 
Q 2056 -559 1975 -259 
Q 2425 -309 2831 -309 
Q 3100 -309 3100 -53 
L 3100 691 
L 950 691 
L 950 -828 
z
M 5431 5228 
L 5919 5228 
L 5919 3 
Q 5919 -734 5163 -741 
Q 4819 -747 4181 -734 
Q 4150 -447 4081 -209 
Q 4731 -266 5000 -266 
Q 5431 -278 5431 147 
L 5431 5228 
z
M 4700 822 
L 4225 822 
L 4225 4672 
L 4700 4672 
L 4700 822 
z
M 3100 3041 
L 950 3041 
L 950 2303 
L 3100 2303 
L 3100 3041 
z
M 950 1128 
L 3100 1128 
L 3100 1866 
L 950 1866 
L 950 1128 
z
M 3388 5034 
L 3788 4797 
Q 3356 4128 3000 3691 
Q 2769 3859 2619 3953 
Q 2938 4316 3388 5034 
z
M 681 5009 
Q 1163 4453 1475 4016 
L 1088 3722 
Q 719 4278 338 4741 
L 681 5009 
z
" transform="scale(0.015625)"/>
      <path id="MicrosoftYaHei-5cf0" d="M 2369 4147 
L 2369 -72 
L 1950 -72 
L 1950 244 
L 319 141 
L 319 4166 
L 738 4166 
L 738 566 
L 1131 591 
L 1131 5134 
L 1556 5134 
L 1556 619 
L 1950 644 
L 1950 4147 
L 2369 4147 
z
M 2450 3734 
Q 3238 4472 3588 5341 
L 4013 5216 
Q 3909 4988 3784 4766 
L 5725 4766 
L 5725 4366 
Q 5378 3809 4784 3384 
Q 5431 3091 6306 2959 
Q 6188 2759 6106 2509 
Q 5100 2725 4381 3125 
Q 3672 2719 2688 2459 
Q 2588 2691 2450 2878 
Q 3334 3069 3978 3381 
Q 3584 3669 3297 4025 
Q 3047 3700 2744 3397 
Q 2613 3572 2450 3734 
z
M 2613 459 
L 4169 459 
L 4169 953 
L 2869 953 
L 2869 1328 
L 4169 1328 
L 4169 1816 
L 2781 1816 
L 2781 2191 
L 4169 2191 
L 4169 2766 
L 4613 2766 
L 4613 2191 
L 5981 2191 
L 5981 1816 
L 4613 1816 
L 4613 1328 
L 5900 1328 
L 5900 953 
L 4613 953 
L 4613 459 
L 6188 459 
L 6188 84 
L 4613 84 
L 4613 -828 
L 4169 -828 
L 4169 84 
L 2613 84 
L 2613 459 
z
M 5231 4378 
L 3550 4378 
L 3534 4356 
Q 3863 3913 4375 3600 
Q 4913 3934 5231 4378 
z
" transform="scale(0.015625)"/>
     </defs>
     <use xlink:href="#MicrosoftYaHei-50a8"/>
     <use xlink:href="#MicrosoftYaHei-80fd" transform="translate(100 0)"/>
     <use xlink:href="#MicrosoftYaHei-653e" transform="translate(200 0)"/>
     <use xlink:href="#MicrosoftYaHei-7535" transform="translate(300 0)"/>
     <use xlink:href="#MicrosoftYaHei-524a" transform="translate(400 0)"/>
     <use xlink:href="#MicrosoftYaHei-5cf0" transform="translate(500 0)"/>
    </g>
   </g>
   <g id="patch_25">
    <path d="M 538.868182 182.907111 
C 539.970462 182.907111 541.027745 182.542909 541.807175 181.894716 
C 542.586605 181.246523 543.024545 180.367261 543.024545 179.450578 
C 543.024545 178.533894 542.586605 177.654633 541.807175 177.00644 
C 541.027745 176.358247 539.970462 175.994044 538.868182 175.994044 
C 537.765901 175.994044 536.708619 176.358247 535.929189 177.00644 
C 535.149759 177.654633 534.711818 178.533894 534.711818 179.450578 
C 534.711818 180.367261 535.149759 181.246523 535.929189 181.894716 
C 536.708619 182.542909 537.765901 182.907111 538.868182 182.907111 
z
" clip-path="url(#p6c9f9a7ed4)" style="fill: #c7e0f5; stroke: #c7e0f5; stroke-linejoin: miter"/>
   </g>
   <g id="text_10">
    <!-- 是 -->
    <g style="fill: #f0f7fc" transform="translate(473.059091 133.363467) scale(0.075 -0.075)">
     <defs>
      <path id="MicrosoftYaHei-662f" d="M 1088 5078 
L 5338 5078 
L 5338 2472 
L 4863 2472 
L 4863 2722 
L 1563 2722 
L 1563 2472 
L 1088 2472 
L 1088 5078 
z
M 1400 1553 
L 1875 1409 
Q 1775 1081 1647 788 
Q 2122 19 3063 -134 
L 3063 1747 
L 213 1747 
L 213 2184 
L 6225 2184 
L 6225 1747 
L 3563 1747 
L 3563 1122 
L 5788 1122 
L 5788 697 
L 3563 697 
L 3563 -172 
Q 4763 -197 6344 -147 
Q 6244 -416 6169 -641 
Q 4331 -647 3344 -622 
Q 2022 -606 1434 359 
Q 1006 -413 350 -891 
Q 225 -703 44 -484 
Q 1050 191 1400 1553 
z
M 1563 3147 
L 4863 3147 
L 4863 3697 
L 1563 3697 
L 1563 3147 
z
M 4863 4653 
L 1563 4653 
L 1563 4109 
L 4863 4109 
L 4863 4653 
z
" transform="scale(0.015625)"/>
     </defs>
     <use xlink:href="#MicrosoftYaHei-662f"/>
    </g>
   </g>
   <g id="text_11">
    <!-- 否 -->
    <g style="fill: #f0f7fc" transform="translate(561.035455 169.080978) scale(0.075 -0.075)">
     <defs>
      <path id="MicrosoftYaHei-5426" d="M 938 1959 
L 5463 1959 
L 5463 -816 
L 4956 -816 
L 4956 -397 
L 1444 -397 
L 1444 -828 
L 938 -828 
L 938 1959 
z
M 350 4959 
L 6050 4959 
L 6050 4509 
L 3713 4509 
Q 3494 4247 3219 3984 
L 3488 3984 
L 3488 2166 
L 2981 2166 
L 2981 3772 
Q 1813 2803 419 2159 
Q 313 2347 100 2616 
Q 1875 3378 3113 4509 
L 350 4509 
L 350 4959 
z
M 4956 1509 
L 1444 1509 
L 1444 41 
L 4956 41 
L 4956 1509 
z
M 3619 3622 
L 3888 3984 
Q 5244 3297 6313 2603 
L 5981 2172 
Q 4913 2916 3619 3622 
z
" transform="scale(0.015625)"/>
     </defs>
     <use xlink:href="#MicrosoftYaHei-5426"/>
    </g>
   </g>
   <g id="text_12">
    <!-- 电网补足缺口 -->
    <g style="fill: #0c1f2e" transform="translate(358.982727 197.976965) scale(0.087 -0.087)">
     <defs>
      <path id="MicrosoftYaHei-7f51" d="M 1075 3641 
L 1444 3834 
Q 1816 3244 2184 2628 
Q 2488 3281 2706 3928 
L 3131 3772 
Q 2822 2931 2450 2175 
Q 2809 1563 3163 922 
L 2738 697 
Q 2478 1191 2203 1691 
Q 1819 969 1375 328 
L 1000 544 
L 1000 -759 
L 531 -759 
L 531 4953 
L 5856 4953 
L 5856 -59 
Q 5856 -728 5138 -728 
Q 4738 -728 4181 -716 
Q 4150 -516 4094 -228 
Q 4619 -272 4988 -272 
Q 5388 -272 5388 72 
L 5388 4503 
L 1000 4503 
L 1000 572 
Q 1538 1363 1947 2150 
Q 1531 2891 1075 3641 
z
M 3156 3341 
L 3519 3553 
Q 3831 3047 4166 2481 
Q 4525 3197 4775 3891 
L 5200 3728 
Q 4847 2838 4428 2028 
Q 4822 1353 5244 597 
L 4825 359 
Q 4513 953 4175 1559 
Q 3788 866 3350 241 
L 2969 484 
Q 3506 1263 3919 2016 
Q 3553 2672 3156 3341 
z
" transform="scale(0.015625)"/>
      <path id="MicrosoftYaHei-8865" d="M 163 3616 
L 163 4078 
L 2450 4078 
L 2450 3603 
Q 2106 3072 1700 2591 
L 1700 2228 
Q 1813 2147 1931 2066 
Q 2388 2516 2781 3009 
L 3169 2666 
Q 2681 2222 2256 1841 
Q 2650 1566 3031 1291 
L 2725 872 
Q 2156 1347 1700 1697 
L 1700 -841 
L 1194 -841 
L 1194 2047 
Q 750 1609 244 1228 
Q 163 1509 75 1766 
Q 1181 2597 1875 3616 
L 163 3616 
z
M 3775 5266 
L 4294 5266 
L 4294 3184 
L 4613 3434 
Q 5569 2584 6331 1784 
L 5888 1372 
Q 5194 2203 4294 3053 
L 4294 -841 
L 3775 -841 
L 3775 5266 
z
M 1038 5059 
L 1475 5278 
Q 1706 4909 1963 4422 
L 1500 4184 
Q 1256 4691 1038 5059 
z
" transform="scale(0.015625)"/>
      <path id="MicrosoftYaHei-8db3" d="M 31 -384 
Q 1081 503 1238 2241 
L 1769 2159 
Q 1694 1559 1531 1041 
Q 2041 63 3050 -100 
L 3050 2822 
L 1400 2822 
L 1400 2553 
L 894 2553 
L 894 5059 
L 5538 5059 
L 5538 2553 
L 5031 2553 
L 5031 2822 
L 3569 2822 
L 3569 1641 
L 5913 1641 
L 5913 1184 
L 3569 1184 
L 3569 -138 
Q 4763 -169 6325 -109 
Q 6225 -359 6144 -628 
Q 4538 -641 3438 -616 
Q 1984 -597 1331 503 
Q 975 -306 363 -872 
Q 219 -628 31 -384 
z
M 5031 4603 
L 1400 4603 
L 1400 3278 
L 5031 3278 
L 5031 4603 
z
" transform="scale(0.015625)"/>
      <path id="MicrosoftYaHei-7f3a" d="M 3056 2259 
L 4091 2259 
Q 4122 2716 4128 3753 
L 3188 3753 
L 3188 4191 
L 4131 4191 
Q 4134 4691 4131 5303 
L 4594 5303 
Q 4594 4694 4594 4191 
L 5869 4191 
L 5869 2259 
L 6319 2259 
L 6319 1822 
L 4638 1822 
Q 5088 241 6356 -303 
Q 6125 -547 5938 -784 
Q 4781 -41 4372 1309 
Q 4066 19 3038 -872 
Q 2900 -666 2706 -447 
Q 2791 -388 2872 -322 
L 2450 -322 
L 2450 -72 
L 400 -141 
L 400 1922 
L 838 1922 
L 838 297 
L 1419 316 
L 1419 2416 
L 100 2416 
L 100 2841 
L 1419 2841 
L 1419 4078 
L 959 4078 
Q 753 3581 525 3166 
Q 338 3272 100 3372 
Q 638 4241 925 5347 
L 1375 5222 
Q 1256 4847 1128 4503 
L 2913 4503 
L 2913 4078 
L 1869 4078 
L 1869 2841 
L 3106 2841 
L 3106 2416 
L 1869 2416 
L 1869 331 
L 2450 350 
L 2450 1922 
L 2888 1922 
L 2888 -309 
Q 3784 428 4034 1822 
L 3056 1822 
L 3056 2259 
z
M 4566 2259 
L 5419 2259 
L 5419 3753 
L 4591 3753 
Q 4584 2759 4566 2259 
z
" transform="scale(0.015625)"/>
      <path id="MicrosoftYaHei-53e3" d="M 713 4684 
L 5675 4684 
L 5675 -578 
L 5138 -578 
L 5138 28 
L 1250 28 
L 1250 -578 
L 713 -578 
L 713 4684 
z
M 5138 497 
L 5138 4216 
L 1250 4216 
L 1250 497 
L 5138 497 
z
" transform="scale(0.015625)"/>
     </defs>
     <use xlink:href="#MicrosoftYaHei-7535"/>
     <use xlink:href="#MicrosoftYaHei-7f51" transform="translate(100 0)"/>
     <use xlink:href="#MicrosoftYaHei-8865" transform="translate(200 0)"/>
     <use xlink:href="#MicrosoftYaHei-8db3" transform="translate(300 0)"/>
     <use xlink:href="#MicrosoftYaHei-7f3a" transform="translate(400 0)"/>
     <use xlink:href="#MicrosoftYaHei-53e3" transform="translate(500 0)"/>
    </g>
   </g>
   <g id="text_13">
    <!-- 仍不足则记录未满足 -->
    <g style="fill: #0c1f2e" transform="translate(450.534545 197.976965) scale(0.087 -0.087)">
     <defs>
      <path id="MicrosoftYaHei-4ecd" d="M 4294 2916 
L 4963 4366 
L 3406 4366 
Q 3406 2003 3144 1059 
Q 2906 34 2025 -803 
Q 1850 -616 1644 -422 
Q 2469 403 2675 1328 
Q 2913 2166 2913 4366 
L 2200 4366 
L 2200 4828 
L 5506 4828 
L 5506 4366 
L 4831 2909 
L 6031 2909 
Q 6000 1497 5950 616 
Q 5900 -122 5675 -391 
Q 5444 -672 4894 -672 
Q 4556 -672 3956 -641 
Q 3913 -372 3856 -91 
Q 4344 -166 4844 -172 
Q 5425 -178 5456 659 
Q 5494 1222 5525 2447 
L 4294 2447 
L 4294 2916 
z
M 88 2228 
Q 931 3484 1438 5253 
L 1938 5103 
Q 1713 4391 1450 3763 
L 1450 -791 
L 963 -791 
L 963 2741 
Q 656 2169 306 1684 
Q 213 1953 88 2228 
z
" transform="scale(0.015625)"/>
      <path id="MicrosoftYaHei-4e0d" d="M 225 4772 
L 6181 4772 
L 6181 4284 
L 3881 4284 
Q 3581 3766 3081 3053 
L 3444 3053 
L 3444 -866 
L 2906 -866 
L 2906 2859 
Q 1838 1541 388 609 
Q 231 834 38 1059 
Q 2006 2291 3213 4284 
L 225 4284 
L 225 4772 
z
M 4069 2859 
Q 5238 2147 6325 1409 
L 5969 916 
Q 4681 1872 3763 2434 
L 4069 2859 
z
" transform="scale(0.015625)"/>
      <path id="MicrosoftYaHei-8bb0" d="M 2975 2466 
L 2975 341 
Q 2975 -128 3425 -128 
L 5019 -128 
Q 5588 -128 5663 291 
Q 5731 628 5794 1266 
Q 6063 1159 6319 1084 
Q 6238 503 6138 72 
Q 6000 -603 5125 -603 
L 3250 -603 
Q 2488 -603 2488 197 
L 2488 2928 
L 5375 2928 
L 5375 4534 
L 2225 4534 
L 2225 4997 
L 5863 4997 
L 5863 2166 
L 5375 2166 
L 5375 2466 
L 2975 2466 
z
M 2206 716 
Q 2225 391 2250 178 
Q 1438 -366 994 -722 
L 700 -303 
Q 913 -141 913 259 
L 913 2703 
L 100 2703 
L 100 3166 
L 1400 3166 
L 1400 147 
Q 1775 403 2206 716 
z
M 806 5222 
Q 1488 4522 1794 4184 
L 1356 3816 
Q 963 4334 425 4891 
L 806 5222 
z
" transform="scale(0.015625)"/>
      <path id="MicrosoftYaHei-5f55" d="M 5450 2172 
L 5813 1759 
Q 5281 1409 4494 934 
Q 5225 366 6319 116 
Q 6125 -153 5975 -397 
Q 4275 122 3475 1366 
L 3475 9 
Q 3475 -747 2700 -747 
Q 2331 -747 1825 -734 
Q 1788 -503 1738 -197 
Q 2188 -247 2544 -253 
Q 2988 -253 2988 147 
L 2988 2384 
L 175 2384 
L 175 2803 
L 4838 2803 
L 4838 3472 
L 963 3472 
L 963 3872 
L 4838 3872 
L 4838 4534 
L 844 4534 
L 844 4953 
L 5306 4953 
L 5306 2803 
L 6275 2803 
L 6275 2384 
L 3475 2384 
L 3475 2241 
Q 3731 1678 4138 1253 
Q 4863 1722 5450 2172 
z
M 88 241 
Q 1313 622 2744 1147 
Q 2794 872 2838 672 
Q 1594 241 281 -234 
L 88 241 
z
M 956 2216 
Q 1556 1853 2175 1428 
L 1869 1016 
Q 1300 1447 669 1853 
L 956 2216 
z
" transform="scale(0.015625)"/>
      <path id="MicrosoftYaHei-672a" d="M 6325 128 
Q 6150 -84 5975 -334 
Q 4328 488 3444 1791 
L 3444 -822 
L 2956 -822 
L 2956 1784 
Q 2006 525 419 -409 
Q 300 -241 81 9 
Q 1778 900 2763 2153 
L 181 2153 
L 181 2616 
L 2956 2616 
L 2956 3791 
L 550 3791 
L 550 4253 
L 2956 4253 
L 2956 5322 
L 3444 5322 
L 3444 4253 
L 5875 4253 
L 5875 3791 
L 3444 3791 
L 3444 2616 
L 6219 2616 
L 6219 2153 
L 3619 2153 
Q 4625 809 6325 128 
z
" transform="scale(0.015625)"/>
      <path id="MicrosoftYaHei-6ee1" d="M 1594 3516 
L 6263 3516 
L 6263 3091 
L 4881 3091 
Q 4881 2769 4875 2459 
L 6075 2459 
L 6075 -28 
Q 6075 -759 5369 -759 
Q 5063 -759 4688 -741 
Q 4656 -503 4594 -259 
Q 5000 -309 5256 -309 
Q 5619 -309 5619 53 
L 5619 488 
Q 5497 375 5306 197 
Q 4969 631 4653 988 
Q 4406 278 3881 -191 
Q 3744 -22 3563 153 
Q 4309 797 4409 2034 
L 3384 2034 
Q 3372 1784 3328 1556 
Q 3678 1241 4013 891 
Q 3956 841 3675 559 
Q 3438 834 3206 1084 
Q 2975 403 2456 -66 
Q 2350 63 2225 209 
L 2225 -809 
L 1769 -809 
L 1769 2459 
L 2956 2459 
Q 2963 2784 2963 3091 
L 1594 3091 
L 1594 3516 
z
M 1600 4622 
L 2794 4622 
L 2794 5316 
L 3269 5316 
L 3269 4622 
L 4594 4622 
L 4594 5322 
L 5069 5322 
L 5069 4622 
L 6275 4622 
L 6275 4197 
L 5069 4197 
L 5069 3659 
L 4594 3659 
L 4594 4197 
L 3269 4197 
L 3269 3653 
L 2794 3653 
L 2794 4197 
L 1600 4197 
L 1600 4622 
z
M 788 1772 
Q 1050 1647 1294 1566 
Q 1019 453 738 -784 
L 188 -622 
Q 500 366 788 1772 
z
M 2225 350 
Q 2869 953 2941 2034 
L 2225 2034 
L 2225 350 
z
M 5619 2034 
L 4856 2034 
Q 4838 1738 4781 1469 
Q 5284 953 5619 578 
L 5619 2034 
z
M 356 3578 
Q 925 3147 1381 2741 
Q 1150 2484 1019 2341 
Q 525 2816 44 3222 
L 356 3578 
z
M 3397 2459 
L 4428 2459 
Q 4434 2753 4438 3091 
L 3406 3091 
Q 3403 2819 3397 2459 
z
M 575 5216 
Q 1006 4878 1469 4466 
Q 1275 4266 1113 4084 
Q 700 4516 263 4878 
L 575 5216 
z
" transform="scale(0.015625)"/>
     </defs>
     <use xlink:href="#MicrosoftYaHei-4ecd"/>
     <use xlink:href="#MicrosoftYaHei-4e0d" transform="translate(100 0)"/>
     <use xlink:href="#MicrosoftYaHei-8db3" transform="translate(200 0)"/>
     <use xlink:href="#MicrosoftYaHei-5219" transform="translate(300 0)"/>
     <use xlink:href="#MicrosoftYaHei-8bb0" transform="translate(400 0)"/>
     <use xlink:href="#MicrosoftYaHei-5f55" transform="translate(500 0)"/>
     <use xlink:href="#MicrosoftYaHei-672a" transform="translate(600 0)"/>
     <use xlink:href="#MicrosoftYaHei-6ee1" transform="translate(700 0)"/>
     <use xlink:href="#MicrosoftYaHei-8db3" transform="translate(800 0)"/>
    </g>
   </g>
   <g id="text_14">
    <!-- 剩余光伏分配 -->
    <g style="fill: #0c1f2e" transform="translate(571.65 194.520432) scale(0.087 -0.087)">
     <defs>
      <path id="MicrosoftYaHei-5269" d="M 106 -84 
Q 1356 809 1931 1966 
L 1931 3472 
L 144 3472 
L 144 3922 
L 1931 3922 
L 1931 4528 
Q 1225 4503 506 4478 
Q 469 4691 419 4928 
Q 2869 4997 3956 5072 
L 4044 4622 
Q 3225 4584 2388 4547 
L 2388 3922 
L 4200 3922 
L 4200 3472 
L 2388 3472 
L 2388 1672 
Q 3156 1047 4075 247 
L 3738 -109 
Q 3044 547 2388 1147 
L 2388 -834 
L 1931 -834 
L 1931 1184 
Q 1375 322 456 -484 
Q 319 -316 106 -84 
z
M 5575 5278 
L 6031 5278 
L 6031 59 
Q 6031 -747 5356 -759 
Q 5094 -766 4544 -747 
Q 4519 -491 4456 -228 
Q 4925 -278 5188 -278 
Q 5575 -278 5575 209 
L 5575 5278 
z
M 5000 628 
L 4563 628 
L 4563 4684 
L 5000 4684 
L 5000 628 
z
M 2844 3197 
L 3269 3197 
L 3269 2816 
Q 3794 2966 4106 3072 
L 4263 2684 
Q 4088 2641 3269 2428 
L 3269 2053 
Q 3269 1816 3444 1816 
L 3569 1816 
Q 3781 1816 3831 2022 
Q 3875 2222 3919 2509 
Q 4138 2409 4331 2334 
Q 4275 2084 4225 1897 
Q 4094 1391 3638 1391 
L 3344 1391 
Q 2844 1391 2844 1991 
L 2844 3197 
z
M 75 1866 
Q 600 1941 1063 2022 
L 1063 2472 
L 163 2472 
L 163 2872 
L 1063 2872 
L 1063 3197 
L 1488 3197 
L 1488 1347 
L 1063 1347 
L 1063 1634 
Q 625 1547 194 1459 
L 75 1866 
z
" transform="scale(0.015625)"/>
      <path id="MicrosoftYaHei-4f59" d="M 325 1972 
L 2994 1972 
L 2994 2841 
L 1463 2841 
L 1463 3153 
Q 969 2816 394 2509 
Q 263 2722 81 2966 
Q 2013 3928 2994 5278 
L 3656 5278 
L 3531 5122 
Q 4575 3772 6313 3078 
Q 6119 2809 5981 2591 
Q 5425 2859 4931 3191 
L 4931 2841 
L 3500 2841 
L 3500 1972 
L 6075 1972 
L 6075 1503 
L 3500 1503 
L 3500 59 
Q 3500 -803 2656 -803 
Q 2363 -803 1869 -791 
Q 1838 -553 1788 -272 
Q 2256 -322 2563 -328 
Q 2994 -341 2994 109 
L 2994 1503 
L 325 1503 
L 325 1972 
z
M 3219 4741 
Q 2619 3978 1681 3309 
L 4756 3309 
Q 3894 3922 3219 4741 
z
M 4481 1234 
Q 5469 472 6156 -134 
L 5769 -534 
Q 5000 203 4138 897 
L 4481 1234 
z
M 1644 1241 
L 2094 941 
Q 1331 28 656 -572 
Q 481 -416 238 -228 
Q 1031 397 1644 1241 
z
" transform="scale(0.015625)"/>
      <path id="MicrosoftYaHei-5206" d="M 900 2559 
L 5056 2559 
Q 5025 1497 4963 484 
Q 4888 -684 3856 -678 
Q 3350 -684 2788 -647 
Q 2750 -384 2700 -116 
Q 3181 -184 3775 -191 
Q 4400 -203 4463 541 
Q 4513 1216 4538 2097 
L 2616 2097 
Q 2541 1053 2181 416 
Q 1706 -422 588 -878 
Q 425 -666 231 -459 
Q 1269 -72 1725 666 
Q 2053 1225 2103 2097 
L 900 2097 
L 900 2559 
z
M 3488 5159 
L 3938 5353 
Q 4625 3678 6350 2847 
Q 6069 2553 5944 2372 
Q 4225 3366 3488 5159 
z
M 50 2766 
Q 1338 3678 2250 5253 
L 2694 5009 
Q 1744 3347 413 2341 
Q 281 2534 50 2766 
z
" transform="scale(0.015625)"/>
      <path id="MicrosoftYaHei-914d" d="M 388 3697 
L 1244 3697 
L 1244 4516 
L 194 4516 
L 194 4928 
L 3506 4928 
L 3506 4516 
L 2469 4516 
L 2469 3697 
L 3375 3697 
L 3375 -766 
L 2956 -766 
L 2956 -366 
L 806 -366 
L 806 -772 
L 388 -772 
L 388 3697 
z
M 3831 2916 
L 5488 2916 
L 5488 4541 
L 3725 4541 
L 3725 4978 
L 5938 4978 
L 5938 2234 
L 5488 2234 
L 5488 2478 
L 4281 2478 
L 4281 316 
Q 4281 -178 4706 -178 
L 5300 -178 
Q 5669 -178 5719 191 
Q 5800 609 5831 1203 
Q 6006 1116 6300 997 
Q 6256 491 6169 34 
Q 6063 -628 5381 -628 
L 4575 -628 
Q 3831 -628 3831 253 
L 3831 2916 
z
M 2069 2291 
L 2069 3297 
L 1644 3297 
L 1644 3047 
Q 1644 2047 1125 1391 
Q 975 1538 806 1697 
L 806 1178 
L 2956 1178 
L 2956 1778 
L 2513 1778 
Q 2069 1778 2069 2291 
z
M 806 34 
L 2956 34 
L 2956 784 
L 806 784 
L 806 34 
z
M 2956 3297 
L 2469 3297 
L 2469 2428 
Q 2456 2147 2700 2166 
L 2956 2166 
L 2956 3297 
z
M 806 1738 
Q 1244 2234 1244 3078 
L 1244 3297 
L 806 3297 
L 806 1738 
z
M 1644 3697 
L 2069 3697 
L 2069 4516 
L 1644 4516 
L 1644 3697 
z
" transform="scale(0.015625)"/>
     </defs>
     <use xlink:href="#MicrosoftYaHei-5269"/>
     <use xlink:href="#MicrosoftYaHei-4f59" transform="translate(100 0)"/>
     <use xlink:href="#MicrosoftYaHei-5149" transform="translate(200 0)"/>
     <use xlink:href="#MicrosoftYaHei-4f0f" transform="translate(300 0)"/>
     <use xlink:href="#MicrosoftYaHei-5206" transform="translate(400 0)"/>
     <use xlink:href="#MicrosoftYaHei-914d" transform="translate(500 0)"/>
    </g>
   </g>
   <g id="text_15">
    <!-- 充储能→上网→弃光 -->
    <g style="fill: #2c3d4d" transform="translate(566.7 205.546506) scale(0.069 -0.069)">
     <defs>
      <path id="MicrosoftYaHei-2192" d="M 4859 3766 
Q 5241 3344 5514 3125 
Q 5788 2906 6150 2713 
L 6150 2572 
Q 5788 2381 5517 2164 
Q 5247 1947 4859 1519 
L 4622 1519 
Q 4766 1822 4866 1983 
Q 4966 2144 5141 2369 
L 247 2369 
L 247 2916 
L 5141 2916 
Q 4972 3131 4869 3298 
Q 4766 3466 4622 3766 
L 4859 3766 
z
" transform="scale(0.015625)"/>
      <path id="MicrosoftYaHei-4e0a" d="M 163 47 
L 2613 47 
L 2613 5209 
L 3181 5209 
L 3181 3328 
L 5750 3328 
L 5750 2828 
L 3181 2828 
L 3181 47 
L 6244 47 
L 6244 -453 
L 163 -453 
L 163 47 
z
" transform="scale(0.015625)"/>
      <path id="MicrosoftYaHei-5f03" d="M 200 4534 
L 3072 4534 
Q 2884 4841 2700 5103 
L 3125 5353 
Q 3369 5047 3613 4653 
L 3391 4534 
L 6206 4534 
L 6206 4084 
L 2869 4084 
Q 2366 3528 1725 2934 
Q 3225 2941 4516 2978 
Q 4231 3269 3938 3547 
L 4281 3841 
Q 5056 3159 5763 2416 
L 5363 2059 
Q 5141 2313 4916 2556 
Q 2978 2528 1575 2447 
Q 1388 2434 1038 2372 
L 806 2878 
Q 1088 2978 1319 3178 
Q 1806 3606 2206 4084 
L 200 4084 
L 200 4534 
z
M 138 1459 
L 1725 1459 
Q 1759 1794 1756 2209 
L 2250 2209 
Q 2256 1800 2231 1459 
L 4188 1459 
L 4188 2222 
L 4688 2222 
L 4688 1459 
L 6281 1459 
L 6281 1009 
L 4688 1009 
L 4688 -809 
L 4188 -809 
L 4188 1009 
L 2175 1009 
Q 2013 -184 675 -872 
Q 531 -678 300 -459 
Q 1500 116 1653 1009 
L 138 1009 
L 138 1459 
z
" transform="scale(0.015625)"/>
     </defs>
     <use xlink:href="#MicrosoftYaHei-5145"/>
     <use xlink:href="#MicrosoftYaHei-50a8" transform="translate(100 0)"/>
     <use xlink:href="#MicrosoftYaHei-80fd" transform="translate(200 0)"/>
     <use xlink:href="#MicrosoftYaHei-2192" transform="translate(300 0)"/>
     <use xlink:href="#MicrosoftYaHei-4e0a" transform="translate(400 0)"/>
     <use xlink:href="#MicrosoftYaHei-7f51" transform="translate(500 0)"/>
     <use xlink:href="#MicrosoftYaHei-2192" transform="translate(600 0)"/>
     <use xlink:href="#MicrosoftYaHei-5f03" transform="translate(700 0)"/>
     <use xlink:href="#MicrosoftYaHei-5149" transform="translate(800 0)"/>
    </g>
   </g>
   <g id="text_16">
    <!-- 更新状态 -->
    <g style="fill: #0c1f2e" transform="translate(680.102727 197.976965) scale(0.087 -0.087)">
     <defs>
      <path id="MicrosoftYaHei-66f4" d="M 106 -422 
Q 1250 -231 1950 166 
Q 1416 534 981 1134 
L 1309 1384 
L 825 1384 
L 825 4003 
L 3019 4003 
Q 3022 4272 3025 4578 
L 331 4578 
L 331 5016 
L 6069 5016 
L 6069 4578 
L 3506 4578 
Q 3506 4269 3503 4003 
L 5575 4003 
L 5575 1078 
L 5100 1078 
L 5100 1384 
L 3350 1384 
Q 3188 644 2834 244 
Q 4088 -216 6325 -209 
Q 6169 -484 6069 -709 
Q 3588 -641 2422 -100 
Q 1703 -575 394 -866 
Q 269 -647 106 -422 
z
M 1300 2903 
L 3006 2903 
Q 3013 3203 3016 3578 
L 1300 3578 
L 1300 2903 
z
M 3000 2484 
L 1300 2484 
L 1300 1809 
L 2947 1809 
Q 2988 2116 3000 2484 
z
M 3422 1809 
L 5100 1809 
L 5100 2484 
L 3481 2484 
Q 3466 2122 3422 1809 
z
M 5100 3578 
L 3500 3578 
Q 3497 3200 3491 2903 
L 5100 2903 
L 5100 3578 
z
M 2369 453 
Q 2706 744 2866 1384 
L 1334 1384 
Q 1766 784 2369 453 
z
" transform="scale(0.015625)"/>
      <path id="MicrosoftYaHei-65b0" d="M 3594 4797 
Q 4888 4809 5981 5053 
L 6144 4572 
Q 4906 4409 4038 4359 
L 4038 2903 
L 6319 2903 
L 6319 2478 
L 5425 2478 
L 5425 -797 
L 4963 -797 
L 4963 2478 
L 4038 2478 
L 4038 2172 
Q 4038 253 3119 -816 
Q 2969 -622 2788 -416 
Q 3594 466 3594 2191 
L 3594 4797 
z
M 263 1991 
L 1538 1991 
L 1538 2584 
L 1988 2584 
L 1988 1991 
L 3213 1991 
L 3213 1591 
L 1988 1591 
L 1988 -41 
Q 1988 -703 1350 -703 
Q 1081 -703 744 -697 
Q 719 -491 675 -222 
Q 1038 -259 1244 -259 
Q 1538 -259 1538 59 
L 1538 1591 
L 263 1591 
L 263 1991 
z
M 88 3159 
L 1094 3159 
Q 828 3581 594 3884 
L 931 4122 
Q 1138 3872 1463 3416 
L 1109 3159 
L 1934 3159 
Q 2275 3650 2563 4128 
L 3006 3878 
Q 2703 3488 2428 3159 
L 3375 3159 
L 3375 2759 
L 88 2759 
L 88 3159 
z
M 288 4609 
L 1638 4609 
Q 1503 4866 1331 5166 
L 1731 5353 
Q 1925 5034 2094 4709 
L 1884 4609 
L 3213 4609 
L 3213 4209 
L 288 4209 
L 288 4609 
z
M 744 1309 
L 1169 1109 
Q 831 403 500 -166 
Q 319 -53 88 59 
Q 394 534 744 1309 
z
M 2544 1278 
Q 2894 803 3156 403 
L 2756 128 
Q 2481 609 2175 1034 
L 2544 1278 
z
" transform="scale(0.015625)"/>
     </defs>
     <use xlink:href="#MicrosoftYaHei-66f4"/>
     <use xlink:href="#MicrosoftYaHei-65b0" transform="translate(100 0)"/>
     <use xlink:href="#MicrosoftYaHei-72b6" transform="translate(200 0)"/>
     <use xlink:href="#MicrosoftYaHei-6001" transform="translate(300 0)"/>
    </g>
   </g>
  </g>
 </g>
 <defs>
  <clipPath id="p6c9f9a7ed4">
   <rect x="7.2" y="7.2" width="914.4" height="233.316"/>
  </clipPath>
 </defs>
</svg>
