<?xml version="1.0" encoding="utf-8" standalone="no"?>
<!DOCTYPE svg PUBLIC "-//W3C//DTD SVG 1.1//EN"
  "http://www.w3.org/Graphics/SVG/1.1/DTD/svg11.dtd">
<svg xmlns:xlink="http://www.w3.org/1999/xlink" width="756.288pt" height="332.172pt" viewBox="0 0 756.288 332.172" xmlns="http://www.w3.org/2000/svg" version="1.1">
 <metadata>
  <rdf:RDF xmlns:dc="http://purl.org/dc/elements/1.1/" xmlns:cc="http://creativecommons.org/ns#" xmlns:rdf="http://www.w3.org/1999/02/22-rdf-syntax-ns#">
   <cc:Work>
    <dc:type rdf:resource="http://purl.org/dc/dcmitype/StillImage"/>
    <dc:date>2026-04-11T00:18:45.923927</dc:date>
    <dc:format>image/svg+xml</dc:format>
    <dc:creator>
     <cc:Agent>
      <dc:title>Matplotlib v3.10.0, https://matplotlib.org/</dc:title>
     </cc:Agent>
    </dc:creator>
   </cc:Work>
  </rdf:RDF>
 </metadata>
 <defs>
  <style type="text/css">*{stroke-linejoin: round; stroke-linecap: butt}</style>
 </defs>
 <g id="figure_1">
  <g id="patch_1">
   <path d="M 0 332.172 
L 756.288 332.172 
L 756.288 0 
L 0 0 
z
" style="fill: #5894b9"/>
  </g>
  <g id="axes_1">
   <g id="patch_2">
    <path d="M 134.566199 95.714609 
Q 178.932766 95.714609 222.1813 95.714609 
" clip-path="url(#p2ad9b84914)" style="fill: none; stroke: #e6f0fc; stroke-opacity: 0.88; stroke-linecap: round"/>
    <path d="M 218.1813 93.714609 
L 222.1813 95.714609 
L 218.1813 97.714609 
z
" clip-path="url(#p2ad9b84914)" style="fill: #e6f0fc; fill-opacity: 0.88; stroke: #e6f0fc; stroke-opacity: 0.88; stroke-linecap: round"/>
   </g>
   <g id="patch_3">
    <path d="M 178.933333 108.645847 
Q 178.933333 126.383811 178.933333 143.003741 
" clip-path="url(#p2ad9b84914)" style="fill: none; stroke: #e6f0fc; stroke-opacity: 0.88; stroke-linecap: round"/>
    <path d="M 180.933333 139.003741 
L 178.933333 143.003741 
L 176.933333 139.003741 
z
" clip-path="url(#p2ad9b84914)" style="fill: #e6f0fc; fill-opacity: 0.88; stroke: #e6f0fc; stroke-opacity: 0.88; stroke-linecap: round"/>
   </g>
   <g id="patch_4">
    <path d="M 178.933333 168.769237 
Q 178.933333 178.763645 178.933333 187.640018 
" clip-path="url(#p2ad9b84914)" style="fill: none; stroke: #e6f0fc; stroke-opacity: 0.88; stroke-linecap: round"/>
    <path d="M 180.933333 183.640018 
L 178.933333 187.640018 
L 176.933333 183.640018 
z
" clip-path="url(#p2ad9b84914)" style="fill: #e6f0fc; fill-opacity: 0.88; stroke: #e6f0fc; stroke-opacity: 0.88; stroke-linecap: round"/>
   </g>
   <g id="patch_5">
    <path d="M 176.932835 190.757739 
Q 136.85745 190.757739 97.9001 190.757739 
" clip-path="url(#p2ad9b84914)" style="fill: none; stroke: #e6f0fc; stroke-opacity: 0.88; stroke-linecap: round"/>
    <path d="M 101.9001 192.757739 
L 97.9001 190.757739 
L 101.9001 188.757739 
z
" clip-path="url(#p2ad9b84914)" style="fill: #e6f0fc; fill-opacity: 0.88; stroke: #e6f0fc; stroke-opacity: 0.88; stroke-linecap: round"/>
   </g>
   <g id="patch_6">
    <path d="M 94.784 192.757388 
Q 94.784 201.838921 94.784 209.802419 
" clip-path="url(#p2ad9b84914)" style="fill: none; stroke: #e6f0fc; stroke-opacity: 0.88; stroke-linecap: round"/>
    <path d="M 96.784 205.802419 
L 94.784 209.802419 
L 92.784 205.802419 
z
" clip-path="url(#p2ad9b84914)" style="fill: #e6f0fc; fill-opacity: 0.88; stroke: #e6f0fc; stroke-opacity: 0.88; stroke-linecap: round"/>
   </g>
   <g id="patch_7">
    <path d="M 178.933333 190.757739 
Q 178.933333 190.757739 178.933333 190.757739 
" clip-path="url(#p2ad9b84914)" style="fill: none; stroke: #e6f0fc; stroke-opacity: 0.88; stroke-linecap: round"/>
   </g>
   <g id="patch_8">
    <path d="M 178.933333 192.757388 
Q 178.933333 201.838921 178.933333 209.802419 
" clip-path="url(#p2ad9b84914)" style="fill: none; stroke: #e6f0fc; stroke-opacity: 0.88; stroke-linecap: round"/>
    <path d="M 180.933333 205.802419 
L 178.933333 209.802419 
L 176.933333 205.802419 
z
" clip-path="url(#p2ad9b84914)" style="fill: #e6f0fc; fill-opacity: 0.88; stroke: #e6f0fc; stroke-opacity: 0.88; stroke-linecap: round"/>
   </g>
   <g id="patch_9">
    <path d="M 180.933832 190.757739 
Q 221.009216 190.757739 259.966567 190.757739 
" clip-path="url(#p2ad9b84914)" style="fill: none; stroke: #e6f0fc; stroke-opacity: 0.88; stroke-linecap: round"/>
    <path d="M 255.966567 188.757739 
L 259.966567 190.757739 
L 255.966567 192.757739 
z
" clip-path="url(#p2ad9b84914)" style="fill: #e6f0fc; fill-opacity: 0.88; stroke: #e6f0fc; stroke-opacity: 0.88; stroke-linecap: round"/>
   </g>
   <g id="patch_10">
    <path d="M 263.082667 192.757388 
Q 263.082667 201.838921 263.082667 209.802419 
" clip-path="url(#p2ad9b84914)" style="fill: none; stroke: #e6f0fc; stroke-opacity: 0.88; stroke-linecap: round"/>
    <path d="M 265.082667 205.802419 
L 263.082667 209.802419 
L 261.082667 205.802419 
z
" clip-path="url(#p2ad9b84914)" style="fill: #e6f0fc; fill-opacity: 0.88; stroke: #e6f0fc; stroke-opacity: 0.88; stroke-linecap: round"/>
   </g>
   <g id="patch_11">
    <path d="M 59.64736 107.192661 
L 129.92064 107.192661 
Q 132.324907 107.192661 132.324907 105.067096 
L 132.324907 86.362122 
Q 132.324907 84.236557 129.92064 84.236557 
L 59.64736 84.236557 
Q 57.243093 84.236557 57.243093 86.362122 
L 57.243093 105.067096 
Q 57.243093 107.192661 59.64736 107.192661 
z
" clip-path="url(#p2ad9b84914)" style="fill: #9dd3af; stroke: #5d7a8c; stroke-linejoin: miter"/>
   </g>
   <g id="patch_12">
    <path d="M 227.946027 107.192661 
L 298.219307 107.192661 
Q 300.623573 107.192661 300.623573 105.067096 
L 300.623573 86.362122 
Q 300.623573 84.236557 298.219307 84.236557 
L 227.946027 84.236557 
Q 225.54176 84.236557 225.54176 86.362122 
L 225.54176 105.067096 
Q 225.54176 107.192661 227.946027 107.192661 
z
" clip-path="url(#p2ad9b84914)" style="fill: #d9eedf; stroke: #5d7a8c; stroke-linejoin: miter"/>
   </g>
   <g id="patch_13">
    <path d="M 137.786027 167.315791 
L 220.08064 167.315791 
Q 222.484907 167.315791 222.484907 165.190226 
L 222.484907 147.699861 
Q 222.484907 145.574296 220.08064 145.574296 
L 137.786027 145.574296 
Q 135.38176 145.574296 135.38176 147.699861 
L 135.38176 165.190226 
Q 135.38176 167.315791 137.786027 167.315791 
z
" clip-path="url(#p2ad9b84914)" style="fill: #c0e2ca; stroke: #5d7a8c; stroke-linejoin: miter"/>
   </g>
   <g id="patch_14">
    <path d="M 72.870827 234.11927 
L 116.697173 234.11927 
Q 119.10144 234.11927 119.10144 231.993704 
L 119.10144 214.503339 
Q 119.10144 212.377774 116.697173 212.377774 
L 72.870827 212.377774 
Q 70.46656 212.377774 70.46656 214.503339 
L 70.46656 231.993704 
Q 70.46656 234.11927 72.870827 234.11927 
z
" clip-path="url(#p2ad9b84914)" style="fill: #c0e2ca; stroke: #5d7a8c; stroke-linejoin: miter"/>
   </g>
   <g id="patch_15">
    <path d="M 157.02016 234.11927 
L 200.846507 234.11927 
Q 203.250773 234.11927 203.250773 231.993704 
L 203.250773 214.503339 
Q 203.250773 212.377774 200.846507 212.377774 
L 157.02016 212.377774 
Q 154.615893 212.377774 154.615893 214.503339 
L 154.615893 231.993704 
Q 154.615893 234.11927 157.02016 234.11927 
z
" clip-path="url(#p2ad9b84914)" style="fill: #e0c79f; stroke: #5d7a8c; stroke-linejoin: miter"/>
   </g>
   <g id="patch_16">
    <path d="M 241.169493 234.11927 
L 284.99584 234.11927 
Q 287.400107 234.11927 287.400107 231.993704 
L 287.400107 214.503339 
Q 287.400107 212.377774 284.99584 212.377774 
L 241.169493 212.377774 
Q 238.765227 212.377774 238.765227 214.503339 
L 238.765227 231.993704 
Q 238.765227 234.11927 241.169493 234.11927 
z
" clip-path="url(#p2ad9b84914)" style="fill: #d1b494; stroke: #5d7a8c; stroke-linejoin: miter"/>
   </g>
   <g id="text_1">
    <!-- 情形一：光伏充足 -->
    <g style="fill: #f4f8fb" transform="translate(136.933333 64.633264) scale(0.105 -0.105)">
     <defs>
      <path id="MicrosoftYaHei-Bold-60c5" d="M 1950 3209 
L 3688 3209 
L 3688 3478 
L 2269 3478 
L 2269 4016 
L 3688 4016 
L 3688 4284 
L 2131 4284 
L 2131 4822 
L 3688 4822 
L 3688 5316 
L 4500 5316 
L 4500 4822 
L 6156 4822 
L 6156 4284 
L 4500 4284 
L 4500 4016 
L 6000 4016 
L 6000 3478 
L 4500 3478 
L 4500 3209 
L 6300 3209 
L 6300 2672 
L 1950 2672 
L 1950 3209 
z
M 925 5303 
L 1700 5303 
L 1700 4128 
L 2200 3928 
L 2000 3266 
L 1700 3422 
L 1700 -847 
L 925 -847 
L 925 5303 
z
M 38 2316 
Q 244 3334 338 4191 
L 881 4147 
Q 769 3191 581 2216 
L 38 2316 
z
M 3038 -797 
L 2250 -797 
L 2250 2422 
L 5938 2422 
L 5938 41 
Q 5938 -322 5788 -522 
Q 5638 -722 5359 -762 
Q 5081 -803 4113 -809 
Q 4050 -509 3938 -141 
Q 4538 -178 4844 -178 
Q 5150 -178 5150 122 
L 5150 209 
L 3038 209 
L 3038 -797 
z
M 5150 1847 
L 3038 1847 
L 3038 1534 
L 5150 1534 
L 5150 1847 
z
M 3038 728 
L 5150 728 
L 5150 1016 
L 3038 1016 
L 3038 728 
z
" transform="scale(0.015625)"/>
      <path id="MicrosoftYaHei-Bold-5f62" d="M 5488 5322 
L 6100 4797 
Q 5244 3897 4169 3209 
Q 3900 3591 3569 3934 
Q 4719 4497 5488 5322 
z
M 150 2797 
L 806 2797 
L 806 4216 
L 288 4216 
L 288 4966 
L 3744 4966 
L 3744 4216 
L 3188 4216 
L 3188 2797 
L 3894 2797 
L 3894 2094 
Q 4859 2678 5631 3547 
L 6244 3003 
Q 5325 2003 4188 1241 
Q 3944 1566 3594 1922 
Q 3706 1981 3816 2047 
L 3188 2047 
L 3188 -759 
L 2363 -759 
L 2363 2047 
L 1619 2047 
Q 1528 56 781 -872 
Q 375 -434 75 -172 
Q 725 528 797 2047 
L 150 2047 
L 150 2797 
z
M 1631 2797 
L 2363 2797 
L 2363 4216 
L 1631 4216 
L 1631 2797 
z
M 5669 1659 
L 6319 1134 
Q 5225 -141 3931 -872 
Q 3644 -453 3350 -91 
Q 4688 559 5669 1659 
z
" transform="scale(0.015625)"/>
      <path id="MicrosoftYaHei-Bold-4e00" d="M 188 2716 
L 6225 2716 
L 6225 1791 
L 188 1791 
L 188 2716 
z
" transform="scale(0.015625)"/>
      <path id="MicrosoftYaHei-Bold-ff1a" d="M 1594 3506 
Q 1831 3506 2000 3354 
Q 2169 3203 2169 2981 
Q 2169 2766 2003 2614 
Q 1838 2463 1594 2463 
Q 1353 2463 1189 2616 
Q 1025 2769 1025 2981 
Q 1025 3200 1192 3353 
Q 1359 3506 1594 3506 
z
M 1594 959 
Q 1831 959 2000 806 
Q 2169 653 2169 434 
Q 2169 222 2000 69 
Q 1831 -84 1594 -84 
Q 1356 -84 1190 69 
Q 1025 222 1025 434 
Q 1025 653 1190 806 
Q 1356 959 1594 959 
z
" transform="scale(0.015625)"/>
      <path id="MicrosoftYaHei-Bold-5149" d="M 5381 1547 
Q 5919 1366 6294 1259 
Q 6131 -197 5873 -469 
Q 5616 -741 5056 -741 
L 4450 -741 
Q 3444 -741 3444 284 
L 3444 2047 
L 2703 2047 
Q 2700 -172 763 -853 
Q 406 -403 81 -109 
Q 1763 528 1722 2047 
L 188 2047 
L 188 2916 
L 2700 2916 
L 2700 5322 
L 3650 5322 
L 3650 2916 
L 6213 2916 
L 6213 2047 
L 4369 2047 
L 4369 478 
Q 4369 78 4706 78 
L 4856 78 
Q 5113 78 5203 297 
Q 5294 516 5381 1547 
z
M 5163 4978 
L 5956 4403 
Q 5150 3466 4688 3034 
L 4000 3622 
Q 4525 4128 5163 4978 
z
M 1156 4978 
Q 1906 4222 2369 3678 
L 1613 3103 
Q 988 3891 463 4447 
L 1156 4978 
z
" transform="scale(0.015625)"/>
      <path id="MicrosoftYaHei-Bold-4f0f" d="M 1931 3547 
L 3431 3547 
Q 3469 4463 3469 5303 
L 4356 5303 
Q 4350 4113 4322 3547 
L 6238 3547 
L 6238 2728 
L 4475 2728 
Q 4947 800 6294 -34 
Q 5919 -453 5619 -822 
Q 4425 81 3966 1766 
Q 3569 175 2244 -872 
Q 1963 -397 1725 -59 
Q 3125 1031 3372 2728 
L 1931 2728 
L 1931 3547 
z
M 1431 5297 
L 2275 5022 
Q 2009 4219 1650 3488 
L 1650 -791 
L 825 -791 
L 825 2084 
Q 584 1741 319 1416 
Q 225 1966 100 2572 
Q 888 3591 1431 5297 
z
M 5113 5109 
Q 5575 4741 6088 4241 
L 5488 3641 
Q 4994 4191 4563 4591 
L 5113 5109 
z
" transform="scale(0.015625)"/>
      <path id="MicrosoftYaHei-Bold-5145" d="M 4269 3803 
Q 5231 2972 6113 2109 
L 5469 1503 
L 5000 1991 
L 4338 1969 
L 4338 384 
Q 4338 59 4669 59 
L 4913 59 
Q 5188 59 5275 232 
Q 5363 406 5438 1159 
Q 5788 997 6313 816 
Q 6131 -197 5878 -455 
Q 5625 -713 5025 -703 
L 4300 -703 
Q 3463 -703 3463 234 
L 3463 1941 
L 2759 1909 
Q 2603 -241 744 -853 
Q 363 -334 113 -47 
Q 1725 400 1894 1863 
Q 1256 1822 919 1778 
L 594 2522 
Q 1291 2934 2056 3816 
L 213 3816 
L 213 4641 
L 2756 4641 
L 2531 5159 
L 3444 5359 
L 3738 4641 
L 6188 4641 
L 6188 3816 
L 3191 3816 
Q 2634 3206 1956 2609 
Q 2834 2622 4325 2672 
L 3656 3328 
L 4269 3803 
z
" transform="scale(0.015625)"/>
      <path id="MicrosoftYaHei-Bold-8db3" d="M 838 5103 
L 5569 5103 
L 5569 2566 
L 3756 2566 
L 3756 1741 
L 5906 1741 
L 5906 972 
L 3756 972 
L 3756 122 
Q 4578 106 6313 141 
Q 6138 -372 6050 -703 
Q 3953 -703 3229 -665 
Q 2506 -628 2079 -415 
Q 1653 -203 1413 194 
Q 1100 -438 613 -891 
Q 419 -591 94 -122 
Q 988 647 1100 2253 
L 1931 2134 
Q 1875 1591 1753 1119 
Q 2100 363 2863 188 
L 2863 2566 
L 838 2566 
L 838 5103 
z
M 4700 3341 
L 4700 4328 
L 1706 4328 
L 1706 3341 
L 4700 3341 
z
" transform="scale(0.015625)"/>
     </defs>
     <use xlink:href="#MicrosoftYaHei-Bold-60c5"/>
     <use xlink:href="#MicrosoftYaHei-Bold-5f62" transform="translate(100 0)"/>
     <use xlink:href="#MicrosoftYaHei-Bold-4e00" transform="translate(200 0)"/>
     <use xlink:href="#MicrosoftYaHei-Bold-ff1a" transform="translate(300 0)"/>
     <use xlink:href="#MicrosoftYaHei-Bold-5149" transform="translate(400 0)"/>
     <use xlink:href="#MicrosoftYaHei-Bold-4f0f" transform="translate(500 0)"/>
     <use xlink:href="#MicrosoftYaHei-Bold-5145" transform="translate(600 0)"/>
     <use xlink:href="#MicrosoftYaHei-Bold-8db3" transform="translate(700 0)"/>
    </g>
   </g>
   <g id="text_2">
    <!-- 光伏可用 -->
    <g style="fill: #243038" transform="translate(78.384 97.972812) scale(0.082 -0.082)">
     <defs>
      <path id="MicrosoftYaHei-Bold-53ef" d="M 156 4934 
L 6256 4934 
L 6256 4097 
L 5556 4097 
L 5556 241 
Q 5556 -156 5382 -390 
Q 5209 -625 4878 -697 
Q 4547 -769 3300 -778 
Q 3206 -322 3063 184 
Q 3781 147 4088 147 
Q 4606 147 4606 628 
L 4606 4097 
L 156 4097 
L 156 4934 
z
M 825 3466 
L 3750 3466 
L 3750 791 
L 1700 791 
L 1700 428 
L 825 428 
L 825 3466 
z
M 2875 1534 
L 2875 2722 
L 1700 2722 
L 1700 1534 
L 2875 1534 
z
" transform="scale(0.015625)"/>
      <path id="MicrosoftYaHei-Bold-7528" d="M 5925 134 
Q 5925 -263 5744 -480 
Q 5563 -697 5189 -736 
Q 4816 -775 4206 -766 
Q 4100 -284 3956 141 
Q 4600 103 4656 103 
Q 5050 103 5050 484 
L 5050 1053 
L 3750 1053 
L 3750 -697 
L 2869 -697 
L 2869 1053 
L 1516 1053 
Q 1419 -325 988 -872 
Q 588 -584 181 -347 
Q 688 341 669 2097 
L 669 5041 
L 5925 5041 
L 5925 134 
z
M 1544 3441 
L 2869 3441 
L 2869 4216 
L 1544 4216 
L 1544 3441 
z
M 5050 4216 
L 3750 4216 
L 3750 3441 
L 5050 3441 
L 5050 4216 
z
M 1544 1859 
L 2869 1859 
L 2869 2634 
L 1544 2634 
L 1544 1859 
z
M 3750 1859 
L 5050 1859 
L 5050 2634 
L 3750 2634 
L 3750 1859 
z
" transform="scale(0.015625)"/>
     </defs>
     <use xlink:href="#MicrosoftYaHei-Bold-5149"/>
     <use xlink:href="#MicrosoftYaHei-Bold-4f0f" transform="translate(100 0)"/>
     <use xlink:href="#MicrosoftYaHei-Bold-53ef" transform="translate(200 0)"/>
     <use xlink:href="#MicrosoftYaHei-Bold-7528" transform="translate(300 0)"/>
    </g>
   </g>
   <g id="text_3">
    <!-- 总需求 -->
    <g style="fill: #243038" transform="translate(250.782667 93.184524) scale(0.082 -0.082)">
     <defs>
      <path id="MicrosoftYaHei-603b" d="M 900 4253 
L 3631 4253 
Q 4022 4822 4331 5353 
L 4813 5103 
Q 4500 4675 4175 4253 
L 5500 4253 
L 5500 1703 
L 5000 1703 
L 5000 1978 
L 1400 1978 
L 1400 1703 
L 900 1703 
L 900 4253 
z
M 5000 3803 
L 1400 3803 
L 1400 2428 
L 5000 2428 
L 5000 3803 
z
M 1694 1378 
L 2181 1378 
L 2181 284 
Q 2181 -203 2619 -203 
L 3875 -203 
Q 4244 -203 4338 172 
Q 4394 366 4450 872 
Q 4631 791 4931 684 
Q 4850 209 4750 -97 
Q 4556 -641 3900 -641 
L 2519 -641 
Q 1694 -641 1694 197 
L 1694 1378 
z
M 719 1422 
L 1188 1272 
Q 931 491 538 -334 
Q 338 -247 81 -134 
Q 444 597 719 1422 
z
M 4881 1203 
L 5238 1478 
Q 5813 841 6319 197 
L 5900 -134 
Q 5456 491 4881 1203 
z
M 2663 1591 
L 3044 1841 
Q 3488 1372 3863 841 
L 3444 547 
Q 3069 1109 2663 1591 
z
M 1594 5109 
L 1975 5353 
Q 2350 4959 2650 4541 
L 2225 4266 
Q 1956 4653 1594 5109 
z
" transform="scale(0.015625)"/>
      <path id="MicrosoftYaHei-9700" d="M 1188 -822 
L 713 -822 
L 713 1228 
L 2750 1228 
L 2853 1716 
L 125 1716 
L 125 2103 
L 6275 2103 
L 6275 1716 
L 3338 1716 
L 3213 1228 
L 5719 1228 
L 5719 -172 
Q 5719 -791 5100 -791 
Q 4800 -791 4444 -778 
Q 4425 -572 4356 -297 
Q 4725 -334 4963 -334 
Q 5244 -334 5244 -84 
L 5244 841 
L 4169 841 
L 4169 -647 
L 3725 -647 
L 3725 841 
L 2688 841 
L 2688 -647 
L 2244 -647 
L 2244 841 
L 1188 841 
L 1188 -822 
z
M 338 4266 
L 2975 4266 
L 2975 4628 
L 650 4628 
L 650 5016 
L 5700 5016 
L 5700 4628 
L 3419 4628 
L 3419 4266 
L 6063 4266 
L 6063 3103 
L 5581 3103 
L 5581 3878 
L 3419 3878 
L 3419 2391 
L 2975 2391 
L 2975 3878 
L 819 3878 
L 819 3103 
L 338 3103 
L 338 4266 
z
M 3750 2816 
L 5219 2816 
L 5219 2478 
L 3750 2478 
L 3750 2816 
z
M 1175 3516 
L 2644 3516 
L 2644 3178 
L 1175 3178 
L 1175 3516 
z
M 1175 2816 
L 2644 2816 
L 2644 2478 
L 1175 2478 
L 1175 2816 
z
M 3750 3516 
L 5219 3516 
L 5219 3178 
L 3750 3178 
L 3750 3516 
z
" transform="scale(0.015625)"/>
      <path id="MicrosoftYaHei-6c42" d="M 225 4178 
L 2969 4178 
L 2969 5309 
L 3494 5309 
L 3494 4178 
L 6225 4178 
L 6225 3728 
L 3494 3728 
L 3494 3341 
Q 3800 2641 4219 2066 
Q 4869 2628 5444 3316 
L 5888 2947 
Q 5119 2184 4525 1684 
Q 5275 809 6319 284 
Q 6088 16 5944 -203 
Q 4331 741 3494 2322 
L 3494 28 
Q 3494 -778 2650 -778 
Q 2200 -778 1819 -766 
Q 1781 -509 1719 -209 
Q 2213 -266 2525 -266 
Q 2969 -266 2969 191 
L 2969 1372 
Q 1494 616 400 -3 
L 131 509 
Q 1438 1116 2969 1953 
L 2969 3728 
L 225 3728 
L 225 4178 
z
M 1144 3353 
Q 1644 2859 2163 2247 
Q 1969 2084 1731 1897 
Q 1294 2466 769 3047 
L 1144 3353 
z
M 4069 4978 
L 4369 5309 
Q 4963 4934 5313 4628 
L 4975 4253 
Q 4606 4578 4069 4978 
z
" transform="scale(0.015625)"/>
     </defs>
     <use xlink:href="#MicrosoftYaHei-603b"/>
     <use xlink:href="#MicrosoftYaHei-9700" transform="translate(100 0)"/>
     <use xlink:href="#MicrosoftYaHei-6c42" transform="translate(200 0)"/>
    </g>
    <!-- 建筑与EV -->
    <g style="fill: #243038" transform="translate(245.755682 102.761099) scale(0.082 -0.082)">
     <defs>
      <path id="MicrosoftYaHei-5efa" d="M 2075 1009 
L 3675 1009 
L 3675 1553 
L 2288 1553 
L 2288 1928 
L 3675 1928 
L 3675 2472 
L 2375 2472 
L 2375 2847 
L 3675 2847 
L 3675 3391 
L 2050 3391 
L 2050 3778 
L 3675 3778 
L 3675 4322 
L 2375 4322 
L 2375 4697 
L 3675 4697 
L 3675 5309 
L 4138 5309 
L 4138 4697 
L 5588 4697 
L 5588 3778 
L 6244 3778 
L 6244 3391 
L 5588 3391 
L 5588 2303 
L 5138 2303 
L 5138 2472 
L 4138 2472 
L 4138 1928 
L 5713 1928 
L 5713 1553 
L 4138 1553 
L 4138 1009 
L 6000 1009 
L 6000 634 
L 4138 634 
L 4138 -9 
L 3675 -9 
L 3675 634 
L 2075 634 
L 2075 1009 
z
M 600 2066 
Q 788 1303 1125 813 
Q 1459 1500 1544 2397 
L 294 2397 
L 294 2853 
L 1444 4272 
L 169 4272 
L 169 4697 
L 2019 4697 
L 2019 4272 
L 844 2822 
L 2013 2822 
L 2013 2453 
Q 1897 1294 1447 444 
Q 2128 -147 3563 -153 
Q 4750 -178 6319 -122 
Q 6213 -378 6113 -616 
Q 4681 -609 3344 -603 
Q 1950 -603 1206 47 
Q 853 -466 350 -847 
Q 250 -666 94 -441 
Q 563 -84 881 391 
Q 463 922 188 1909 
L 600 2066 
z
M 4138 2847 
L 5138 2847 
L 5138 3391 
L 4138 3391 
L 4138 2847 
z
M 5138 4322 
L 4138 4322 
L 4138 3778 
L 5138 3778 
L 5138 4322 
z
" transform="scale(0.015625)"/>
      <path id="MicrosoftYaHei-7b51" d="M 4875 2609 
L 3188 2609 
L 3188 1641 
Q 3188 153 2288 -834 
Q 2119 -684 1888 -509 
Q 2725 391 2725 1666 
L 2725 3047 
L 5338 3047 
L 5338 91 
Q 5338 -159 5488 -159 
L 5631 -159 
Q 5756 -159 5794 109 
Q 5831 428 5869 1166 
Q 6075 1059 6319 972 
Q 6269 297 6225 -22 
Q 6163 -609 5694 -609 
L 5413 -609 
Q 4875 -609 4875 91 
L 4875 2609 
z
M 206 497 
Q 666 588 1200 700 
L 1200 2528 
L 331 2528 
L 331 2953 
L 2475 2953 
L 2475 2528 
L 1656 2528 
L 1656 800 
Q 2047 888 2475 984 
Q 2444 753 2425 522 
Q 1406 278 281 -3 
L 206 497 
z
M 4319 5322 
Q 4209 5034 4091 4766 
L 6138 4766 
L 6138 4328 
L 3878 4328 
Q 3569 3738 3188 3259 
Q 2969 3453 2806 3584 
Q 3419 4322 3788 5322 
L 4319 5322 
z
M 1763 5328 
Q 1650 5038 1516 4766 
L 3213 4766 
L 3213 4328 
L 1278 4328 
Q 919 3722 431 3216 
Q 231 3428 81 3566 
Q 813 4291 1231 5328 
L 1763 5328 
z
M 3331 1747 
L 3669 2053 
Q 4219 1522 4744 997 
L 4369 634 
Q 3838 1259 3331 1747 
z
M 2019 3203 
Q 1769 3597 1494 3984 
L 1863 4209 
Q 2138 3897 2431 3478 
L 2019 3203 
z
M 4850 3253 
Q 4588 3672 4344 4009 
L 4706 4234 
Q 4944 3966 5275 3509 
L 4850 3253 
z
" transform="scale(0.015625)"/>
      <path id="MicrosoftYaHei-4e0e" d="M 1163 2384 
L 1163 2859 
L 1413 5328 
L 1931 5328 
L 1834 4334 
L 6269 4334 
L 6269 3859 
L 1791 3859 
L 1694 2859 
L 5813 2859 
Q 5738 1547 5644 416 
Q 5556 -247 5263 -478 
Q 4981 -703 4322 -703 
Q 3706 -697 2900 -678 
Q 2863 -466 2794 -134 
Q 3744 -203 4213 -209 
Q 5050 -266 5125 447 
Q 5206 1278 5263 2384 
L 1163 2384 
z
M 106 1409 
L 4738 1409 
L 4738 934 
L 106 934 
L 106 1409 
z
" transform="scale(0.015625)"/>
      <path id="MicrosoftYaHei-45" d="M 3228 0 
L 625 0 
L 625 4841 
L 3119 4841 
L 3119 4284 
L 1250 4284 
L 1250 2734 
L 2981 2734 
L 2981 2181 
L 1250 2181 
L 1250 553 
L 3228 553 
L 3228 0 
z
" transform="scale(0.015625)"/>
      <path id="MicrosoftYaHei-56" d="M 4272 4841 
L 2494 0 
L 1800 0 
L 56 4841 
L 750 4841 
L 2053 1056 
Q 2119 869 2150 622 
L 2166 622 
Q 2191 838 2275 1063 
L 3603 4841 
L 4272 4841 
z
" transform="scale(0.015625)"/>
     </defs>
     <use xlink:href="#MicrosoftYaHei-5efa"/>
     <use xlink:href="#MicrosoftYaHei-7b51" transform="translate(100 0)"/>
     <use xlink:href="#MicrosoftYaHei-4e0e" transform="translate(200 0)"/>
     <use xlink:href="#MicrosoftYaHei-45" transform="translate(300 0)"/>
     <use xlink:href="#MicrosoftYaHei-56" transform="translate(354.980469 0)"/>
    </g>
   </g>
   <g id="text_4">
    <!-- ① 就地 -->
    <g style="fill: #dfeaf3" transform="translate(167.39099 87.925474) scale(0.07 -0.07)">
     <defs>
      <path id="MicrosoftYaHei-Bold-2460" d="M 3200 4781 
Q 4453 4781 5353 3881 
Q 6253 2981 6253 1728 
Q 6253 475 5353 -425 
Q 4453 -1325 3200 -1325 
Q 1947 -1325 1047 -425 
Q 147 475 147 1728 
Q 147 2981 1047 3881 
Q 1947 4781 3200 4781 
z
M 3200 -800 
Q 4238 -800 4983 -59 
Q 5728 681 5728 1728 
Q 5728 2769 4984 3512 
Q 4241 4256 3200 4256 
Q 2156 4256 1414 3512 
Q 672 2769 672 1728 
Q 672 684 1417 -58 
Q 2163 -800 3200 -800 
z
M 2234 197 
L 2234 884 
L 2919 884 
L 2919 2731 
L 2216 2566 
L 2216 3278 
L 3719 3584 
L 3719 884 
L 4391 884 
L 4391 197 
L 2234 197 
z
" transform="scale(0.015625)"/>
      <path id="MicrosoftYaHei-Bold-20" transform="scale(0.015625)"/>
      <path id="MicrosoftYaHei-Bold-5c31" d="M 156 4697 
L 1366 4697 
L 1213 5253 
L 2131 5347 
Q 2197 5081 2278 4697 
L 3363 4697 
L 3363 3966 
L 156 3966 
L 156 4697 
z
M 6219 3009 
L 4638 3009 
Q 4628 2772 4616 2584 
L 5219 2584 
L 5219 184 
Q 5219 34 5369 34 
Q 5481 34 5517 167 
Q 5553 300 5600 1197 
L 6306 972 
Q 6188 -200 6098 -378 
Q 6009 -556 5840 -645 
Q 5672 -734 5406 -734 
L 5181 -734 
Q 4481 -734 4481 41 
L 4481 2041 
Q 4247 275 3363 -853 
Q 3038 -547 2700 -272 
Q 3084 147 3341 681 
L 2825 297 
Q 2563 688 2269 1059 
L 2269 -59 
Q 2269 -353 2117 -537 
Q 1966 -722 1606 -737 
Q 1247 -753 888 -759 
Q 841 -481 788 -238 
Q 397 -100 100 -9 
Q 375 766 550 1584 
L 1269 1409 
Q 1084 631 906 63 
Q 1359 41 1423 120 
Q 1488 200 1481 316 
L 1481 1741 
L 425 1741 
L 425 3622 
L 3075 3622 
L 3075 1741 
L 2269 1741 
L 2269 1197 
L 2756 1547 
Q 3084 1163 3388 791 
Q 3800 1728 3828 3009 
L 3306 3009 
L 3306 3784 
L 3847 3784 
Q 3863 4488 3863 5322 
L 4681 5322 
L 4663 3784 
L 6219 3784 
L 6219 3009 
z
M 2319 2391 
L 2319 2972 
L 1181 2972 
L 1181 2391 
L 2319 2391 
z
M 5269 5172 
Q 5675 4784 6081 4353 
L 5519 3853 
Q 5169 4291 4744 4741 
L 5269 5172 
z
" transform="scale(0.015625)"/>
      <path id="MicrosoftYaHei-Bold-5730" d="M 3706 5341 
L 4538 5341 
L 4538 4041 
L 5994 4378 
L 5966 3200 
Q 5928 1759 5848 1584 
Q 5769 1409 5637 1289 
Q 5506 1169 4775 1103 
Q 4688 1516 4569 1934 
Q 4706 1922 4816 1922 
Q 5006 1922 5064 1955 
Q 5122 1988 5142 2048 
Q 5163 2109 5178 2440 
Q 5194 2772 5194 3397 
L 4538 3234 
L 4538 422 
L 3706 422 
L 3706 3028 
L 3125 2884 
L 3125 409 
Q 3125 59 3538 59 
L 4763 59 
Q 4994 59 5144 121 
Q 5294 184 5341 337 
Q 5388 491 5469 1078 
Q 5975 859 6313 728 
Q 6144 -41 6023 -247 
Q 5903 -453 5695 -565 
Q 5488 -678 5206 -678 
L 3363 -678 
Q 2294 -678 2294 291 
L 2294 2681 
L 1875 2578 
L 1828 2784 
L 1544 2784 
L 1544 894 
L 2088 1066 
Q 2069 803 2088 184 
L 256 -459 
L 94 472 
L 713 647 
L 713 2784 
L 225 2784 
L 225 3641 
L 713 3641 
L 713 5328 
L 1544 5328 
L 1544 3641 
L 1906 3641 
L 1906 3431 
L 2294 3522 
L 2294 4784 
L 3125 4784 
L 3125 3713 
L 3706 3847 
L 3706 5341 
z
" transform="scale(0.015625)"/>
     </defs>
     <use xlink:href="#MicrosoftYaHei-Bold-2460"/>
     <use xlink:href="#MicrosoftYaHei-Bold-20" transform="translate(100 0)"/>
     <use xlink:href="#MicrosoftYaHei-Bold-5c31" transform="translate(129.785156 0)"/>
     <use xlink:href="#MicrosoftYaHei-Bold-5730" transform="translate(229.785156 0)"/>
    </g>
   </g>
   <g id="text_5">
    <!-- 剩余光伏 -->
    <g style="fill: #243038" transform="translate(162.533333 158.703247) scale(0.082 -0.082)">
     <defs>
      <path id="MicrosoftYaHei-5269" d="M 106 -84 
Q 1356 809 1931 1966 
L 1931 3472 
L 144 3472 
L 144 3922 
L 1931 3922 
L 1931 4528 
Q 1225 4503 506 4478 
Q 469 4691 419 4928 
Q 2869 4997 3956 5072 
L 4044 4622 
Q 3225 4584 2388 4547 
L 2388 3922 
L 4200 3922 
L 4200 3472 
L 2388 3472 
L 2388 1672 
Q 3156 1047 4075 247 
L 3738 -109 
Q 3044 547 2388 1147 
L 2388 -834 
L 1931 -834 
L 1931 1184 
Q 1375 322 456 -484 
Q 319 -316 106 -84 
z
M 5575 5278 
L 6031 5278 
L 6031 59 
Q 6031 -747 5356 -759 
Q 5094 -766 4544 -747 
Q 4519 -491 4456 -228 
Q 4925 -278 5188 -278 
Q 5575 -278 5575 209 
L 5575 5278 
z
M 5000 628 
L 4563 628 
L 4563 4684 
L 5000 4684 
L 5000 628 
z
M 2844 3197 
L 3269 3197 
L 3269 2816 
Q 3794 2966 4106 3072 
L 4263 2684 
Q 4088 2641 3269 2428 
L 3269 2053 
Q 3269 1816 3444 1816 
L 3569 1816 
Q 3781 1816 3831 2022 
Q 3875 2222 3919 2509 
Q 4138 2409 4331 2334 
Q 4275 2084 4225 1897 
Q 4094 1391 3638 1391 
L 3344 1391 
Q 2844 1391 2844 1991 
L 2844 3197 
z
M 75 1866 
Q 600 1941 1063 2022 
L 1063 2472 
L 163 2472 
L 163 2872 
L 1063 2872 
L 1063 3197 
L 1488 3197 
L 1488 1347 
L 1063 1347 
L 1063 1634 
Q 625 1547 194 1459 
L 75 1866 
z
" transform="scale(0.015625)"/>
      <path id="MicrosoftYaHei-4f59" d="M 325 1972 
L 2994 1972 
L 2994 2841 
L 1463 2841 
L 1463 3153 
Q 969 2816 394 2509 
Q 263 2722 81 2966 
Q 2013 3928 2994 5278 
L 3656 5278 
L 3531 5122 
Q 4575 3772 6313 3078 
Q 6119 2809 5981 2591 
Q 5425 2859 4931 3191 
L 4931 2841 
L 3500 2841 
L 3500 1972 
L 6075 1972 
L 6075 1503 
L 3500 1503 
L 3500 59 
Q 3500 -803 2656 -803 
Q 2363 -803 1869 -791 
Q 1838 -553 1788 -272 
Q 2256 -322 2563 -328 
Q 2994 -341 2994 109 
L 2994 1503 
L 325 1503 
L 325 1972 
z
M 3219 4741 
Q 2619 3978 1681 3309 
L 4756 3309 
Q 3894 3922 3219 4741 
z
M 4481 1234 
Q 5469 472 6156 -134 
L 5769 -534 
Q 5000 203 4138 897 
L 4481 1234 
z
M 1644 1241 
L 2094 941 
Q 1331 28 656 -572 
Q 481 -416 238 -228 
Q 1031 397 1644 1241 
z
" transform="scale(0.015625)"/>
      <path id="MicrosoftYaHei-5149" d="M 169 2691 
L 2931 2691 
L 2931 5309 
L 3444 5309 
L 3444 2691 
L 6256 2691 
L 6256 2228 
L 4206 2228 
L 4206 216 
Q 4206 -22 4269 -116 
Q 4356 -241 4638 -241 
L 5256 -241 
Q 5706 -241 5750 91 
Q 5794 428 5819 984 
Q 6056 884 6344 797 
Q 6288 153 6231 -122 
Q 6175 -441 5963 -559 
Q 5763 -678 5281 -678 
L 4538 -678 
Q 4056 -678 3863 -466 
Q 3700 -284 3700 141 
L 3700 2228 
L 2491 2228 
Q 2466 931 1988 266 
Q 1469 -459 369 -841 
Q 244 -647 50 -397 
Q 1150 -16 1569 603 
Q 1966 1134 1991 2228 
L 169 2228 
L 169 2691 
z
M 4094 3397 
Q 4813 4084 5369 4828 
L 5825 4503 
Q 5200 3766 4481 3059 
L 4094 3397 
z
M 619 4528 
L 1000 4828 
Q 1631 4134 2213 3434 
L 1756 3084 
Q 1188 3866 619 4528 
z
" transform="scale(0.015625)"/>
      <path id="MicrosoftYaHei-4f0f" d="M 1844 3416 
L 3691 3416 
Q 3719 4347 3719 5316 
L 4225 5316 
Q 4219 4578 4197 3416 
L 6269 3416 
L 6269 2959 
L 4209 2959 
Q 4597 781 6313 -316 
Q 6063 -584 5888 -791 
Q 4441 331 4000 2022 
Q 3625 378 1956 -847 
Q 1806 -641 1613 -403 
Q 3503 894 3669 2959 
L 1844 2959 
L 1844 3416 
z
M 88 2328 
Q 1056 3634 1556 5284 
L 2063 5116 
Q 1753 4247 1388 3516 
L 1388 -809 
L 913 -809 
L 913 2659 
Q 616 2178 288 1772 
Q 194 2041 88 2328 
z
M 5006 5028 
Q 5519 4522 5913 4116 
Q 5719 3947 5531 3766 
Q 5106 4272 4675 4728 
L 5006 5028 
z
" transform="scale(0.015625)"/>
     </defs>
     <use xlink:href="#MicrosoftYaHei-5269"/>
     <use xlink:href="#MicrosoftYaHei-4f59" transform="translate(100 0)"/>
     <use xlink:href="#MicrosoftYaHei-5149" transform="translate(200 0)"/>
     <use xlink:href="#MicrosoftYaHei-4f0f" transform="translate(300 0)"/>
    </g>
   </g>
   <g id="text_6">
    <!-- ② 充储能 -->
    <g style="fill: #243038" transform="translate(77.170656 220.718437) scale(0.082 -0.082)">
     <defs>
      <path id="MicrosoftYaHei-2461" d="M 3200 4684 
Q 4416 4684 5286 3814 
Q 6156 2944 6156 1728 
Q 6156 513 5286 -357 
Q 4416 -1228 3200 -1228 
Q 1984 -1228 1114 -357 
Q 244 513 244 1728 
Q 244 2944 1114 3814 
Q 1984 4684 3200 4684 
z
M 3200 -844 
Q 4259 -844 5015 -87 
Q 5772 669 5772 1728 
Q 5772 2788 5015 3544 
Q 4259 4300 3200 4300 
Q 2141 4300 1384 3544 
Q 628 2788 628 1728 
Q 628 669 1384 -87 
Q 2141 -844 3200 -844 
z
M 2009 91 
L 2009 519 
L 3138 1622 
Q 3447 1925 3608 2164 
Q 3769 2403 3769 2663 
Q 3769 3225 3138 3225 
Q 2697 3225 2188 2828 
L 2188 3353 
Q 2659 3675 3213 3675 
Q 3719 3675 4003 3415 
Q 4288 3156 4288 2713 
Q 4288 2456 4170 2200 
Q 4053 1944 3828 1700 
Q 3603 1456 3025 900 
L 2656 538 
L 4263 538 
L 4263 91 
L 2009 91 
z
" transform="scale(0.015625)"/>
      <path id="MicrosoftYaHei-20" transform="scale(0.015625)"/>
      <path id="MicrosoftYaHei-5145" d="M 4381 3653 
Q 5344 2684 5925 1941 
L 5488 1622 
Q 5294 1875 5094 2122 
Q 4631 2109 4219 2097 
L 4219 241 
Q 4219 -41 4288 -116 
Q 4369 -228 4619 -228 
L 5213 -228 
Q 5625 -228 5675 84 
Q 5719 347 5744 903 
Q 5969 816 6294 716 
Q 6250 278 6188 -78 
Q 6088 -659 5319 -659 
L 4531 -659 
Q 4063 -659 3888 -459 
Q 3713 -291 3713 159 
L 3713 2078 
Q 3094 2056 2600 2038 
Q 2566 1025 2200 447 
Q 1706 -347 406 -797 
Q 281 -591 94 -334 
Q 1338 53 1769 747 
Q 2078 1238 2109 2016 
Q 1697 1997 1400 1978 
Q 1219 1966 900 1878 
L 644 2416 
Q 975 2491 1225 2716 
Q 1838 3294 2384 3978 
L 213 3978 
L 213 4441 
L 3156 4441 
Q 2938 4828 2750 5091 
L 3194 5341 
Q 3419 5034 3669 4622 
L 3338 4441 
L 6206 4441 
L 6206 3978 
L 3063 3978 
Q 2466 3275 1650 2478 
Q 3591 2519 4741 2550 
Q 4388 2975 4019 3384 
L 4381 3653 
z
" transform="scale(0.015625)"/>
      <path id="MicrosoftYaHei-50a8" d="M 2850 3216 
L 3956 3216 
L 3956 4097 
L 3063 4097 
L 3063 4497 
L 3956 4497 
L 3956 5303 
L 4406 5303 
L 4406 4497 
L 5281 4497 
L 5281 4097 
L 4406 4097 
L 4406 3216 
L 4581 3216 
Q 5250 3928 5719 4816 
L 6125 4609 
Q 5722 3869 5150 3216 
L 6294 3216 
L 6294 2816 
L 4778 2816 
Q 4481 2519 4147 2241 
L 5825 2241 
L 5825 -791 
L 5400 -791 
L 5400 -366 
L 3938 -366 
L 3938 -797 
L 3513 -797 
L 3513 1756 
Q 3200 1538 2863 1334 
Q 2756 1528 2625 1722 
Q 3491 2191 4175 2816 
L 2850 2816 
L 2850 3216 
z
M 44 2266 
Q 856 3697 1169 5328 
L 1631 5241 
Q 1466 4541 1250 3906 
L 1250 -816 
L 813 -816 
L 813 2806 
Q 556 2247 250 1753 
Q 163 1997 44 2266 
z
M 3125 897 
Q 3144 584 3169 372 
Q 2613 9 2094 -409 
L 1825 -9 
Q 2019 172 2019 472 
L 2019 2816 
L 1425 2816 
L 1425 3247 
L 2463 3247 
L 2463 403 
Q 2869 691 3125 897 
z
M 3938 3 
L 5400 3 
L 5400 784 
L 3938 784 
L 3938 3 
z
M 5400 1859 
L 3938 1859 
L 3938 1153 
L 5400 1153 
L 5400 1859 
z
M 2181 5103 
Q 2550 4447 2781 3984 
L 2356 3747 
Q 2144 4234 1794 4903 
L 2181 5103 
z
" transform="scale(0.015625)"/>
      <path id="MicrosoftYaHei-80fd" d="M 950 -759 
L 463 -759 
L 463 2928 
L 3000 2928 
L 3000 -28 
Q 3000 -703 2375 -703 
Q 2100 -709 1669 -709 
Q 1638 -516 1575 -234 
Q 1969 -266 2206 -266 
Q 2513 -266 2513 53 
L 2513 572 
L 950 572 
L 950 -759 
z
M 3606 2253 
L 4094 2253 
L 4094 1222 
Q 4981 1553 5950 2091 
L 6231 1659 
Q 5209 1122 4094 706 
L 4094 166 
Q 4094 -228 4400 -228 
L 5319 -228 
Q 5638 -228 5688 78 
Q 5731 353 5763 897 
Q 6000 803 6250 722 
Q 6200 172 6144 -109 
Q 6063 -659 5363 -659 
L 4319 -659 
Q 3606 -659 3606 72 
L 3606 2253 
z
M 3619 5303 
L 4106 5303 
L 4106 4231 
Q 4966 4572 5813 5053 
L 6094 4622 
Q 5119 4128 4106 3719 
L 4106 3359 
Q 4106 2941 4438 2941 
L 5231 2941 
Q 5625 2941 5675 3266 
Q 5719 3534 5750 4047 
Q 5988 3953 6238 3866 
Q 6188 3366 6131 3053 
Q 6038 2509 5288 2509 
L 4375 2509 
Q 3619 2509 3619 3259 
L 3619 5303 
z
M 2463 4772 
Q 3031 4034 3450 3353 
Q 3213 3191 3019 3066 
Q 2897 3281 2759 3506 
Q 1231 3394 313 3303 
L 113 3828 
Q 388 3978 719 4391 
Q 1063 4841 1394 5397 
L 1888 5216 
Q 1369 4466 794 3797 
Q 1731 3856 2497 3919 
Q 2300 4216 2075 4528 
L 2463 4772 
z
M 950 947 
L 2513 947 
L 2513 1553 
L 950 1553 
L 950 947 
z
M 2513 2528 
L 950 2528 
L 950 1928 
L 2513 1928 
L 2513 2528 
z
" transform="scale(0.015625)"/>
     </defs>
     <use xlink:href="#MicrosoftYaHei-2461"/>
     <use xlink:href="#MicrosoftYaHei-20" transform="translate(100 0)"/>
     <use xlink:href="#MicrosoftYaHei-5145" transform="translate(129.589844 0)"/>
     <use xlink:href="#MicrosoftYaHei-50a8" transform="translate(229.589844 0)"/>
     <use xlink:href="#MicrosoftYaHei-80fd" transform="translate(329.589844 0)"/>
    </g>
    <!-- 光伏余电 -->
    <g style="fill: #243038" transform="translate(78.384 230.295012) scale(0.082 -0.082)">
     <defs>
      <path id="MicrosoftYaHei-7535" d="M 406 4497 
L 2713 4497 
L 2713 5297 
L 3231 5297 
L 3231 4497 
L 5544 4497 
L 5544 984 
L 3231 984 
L 3231 253 
Q 3231 -128 3631 -128 
L 5094 -128 
Q 5519 -128 5613 153 
Q 5713 459 5756 1034 
Q 5938 953 6275 841 
Q 6200 341 6106 -16 
Q 5950 -603 5256 -603 
L 3594 -603 
Q 2713 -603 2713 259 
L 2713 984 
L 925 984 
L 925 553 
L 406 553 
L 406 4497 
z
M 5025 1453 
L 5025 2522 
L 3231 2522 
L 3231 1453 
L 5025 1453 
z
M 925 1453 
L 2713 1453 
L 2713 2522 
L 925 2522 
L 925 1453 
z
M 5025 4028 
L 3231 4028 
L 3231 2966 
L 5025 2966 
L 5025 4028 
z
M 925 2966 
L 2713 2966 
L 2713 4028 
L 925 4028 
L 925 2966 
z
" transform="scale(0.015625)"/>
     </defs>
     <use xlink:href="#MicrosoftYaHei-5149"/>
     <use xlink:href="#MicrosoftYaHei-4f0f" transform="translate(100 0)"/>
     <use xlink:href="#MicrosoftYaHei-4f59" transform="translate(200 0)"/>
     <use xlink:href="#MicrosoftYaHei-7535" transform="translate(300 0)"/>
    </g>
   </g>
   <g id="text_7">
    <!-- ③ 上网 -->
    <g style="fill: #243038" transform="translate(165.41999 220.718437) scale(0.082 -0.082)">
     <defs>
      <path id="MicrosoftYaHei-2462" d="M 3200 4684 
Q 4416 4684 5286 3814 
Q 6156 2944 6156 1728 
Q 6156 513 5286 -357 
Q 4416 -1228 3200 -1228 
Q 1984 -1228 1114 -357 
Q 244 513 244 1728 
Q 244 2944 1114 3814 
Q 1984 4684 3200 4684 
z
M 3200 -844 
Q 4259 -844 5015 -87 
Q 5772 669 5772 1728 
Q 5772 2788 5015 3544 
Q 4259 4300 3200 4300 
Q 2141 4300 1384 3544 
Q 628 2788 628 1728 
Q 628 669 1384 -87 
Q 2141 -844 3200 -844 
z
M 2125 231 
L 2125 722 
Q 2541 469 2972 469 
Q 3756 469 3756 1069 
Q 3756 1366 3507 1525 
Q 3259 1684 2809 1684 
L 2478 1684 
L 2478 2119 
L 2784 2119 
Q 3203 2119 3420 2278 
Q 3638 2438 3638 2706 
Q 3638 2944 3478 3084 
Q 3319 3225 3009 3225 
Q 2609 3225 2259 3009 
L 2259 3488 
Q 2678 3659 3100 3659 
Q 3594 3659 3873 3421 
Q 4153 3184 4153 2791 
Q 4153 2200 3597 1931 
Q 4275 1753 4275 1088 
Q 4275 584 3936 304 
Q 3597 25 2978 25 
Q 2484 25 2125 231 
z
" transform="scale(0.015625)"/>
      <path id="MicrosoftYaHei-4e0a" d="M 163 47 
L 2613 47 
L 2613 5209 
L 3181 5209 
L 3181 3328 
L 5750 3328 
L 5750 2828 
L 3181 2828 
L 3181 47 
L 6244 47 
L 6244 -453 
L 163 -453 
L 163 47 
z
" transform="scale(0.015625)"/>
      <path id="MicrosoftYaHei-7f51" d="M 1075 3641 
L 1444 3834 
Q 1816 3244 2184 2628 
Q 2488 3281 2706 3928 
L 3131 3772 
Q 2822 2931 2450 2175 
Q 2809 1563 3163 922 
L 2738 697 
Q 2478 1191 2203 1691 
Q 1819 969 1375 328 
L 1000 544 
L 1000 -759 
L 531 -759 
L 531 4953 
L 5856 4953 
L 5856 -59 
Q 5856 -728 5138 -728 
Q 4738 -728 4181 -716 
Q 4150 -516 4094 -228 
Q 4619 -272 4988 -272 
Q 5388 -272 5388 72 
L 5388 4503 
L 1000 4503 
L 1000 572 
Q 1538 1363 1947 2150 
Q 1531 2891 1075 3641 
z
M 3156 3341 
L 3519 3553 
Q 3831 3047 4166 2481 
Q 4525 3197 4775 3891 
L 5200 3728 
Q 4847 2838 4428 2028 
Q 4822 1353 5244 597 
L 4825 359 
Q 4513 953 4175 1559 
Q 3788 866 3350 241 
L 2969 484 
Q 3506 1263 3919 2016 
Q 3553 2672 3156 3341 
z
" transform="scale(0.015625)"/>
     </defs>
     <use xlink:href="#MicrosoftYaHei-2462"/>
     <use xlink:href="#MicrosoftYaHei-20" transform="translate(100 0)"/>
     <use xlink:href="#MicrosoftYaHei-4e0a" transform="translate(129.589844 0)"/>
     <use xlink:href="#MicrosoftYaHei-7f51" transform="translate(229.589844 0)"/>
    </g>
    <!-- ≤出口上限 -->
    <g style="fill: #243038" transform="translate(159.492286 230.295012) scale(0.082 -0.082)">
     <defs>
      <path id="MicrosoftYaHei-2264" d="M 3844 853 
L 909 2306 
L 909 2547 
L 3844 4144 
L 3844 3606 
L 1663 2447 
L 1663 2434 
L 3844 1400 
L 3844 853 
z
M 3969 0 
L 784 0 
L 784 475 
L 3969 475 
L 3969 0 
z
" transform="scale(0.015625)"/>
      <path id="MicrosoftYaHei-51fa" d="M 5100 2172 
L 5100 2403 
L 3456 2403 
L 3456 -47 
L 5288 -47 
L 5288 1734 
L 5813 1734 
L 5813 -747 
L 5288 -747 
L 5288 -522 
L 588 -522 
L 588 1734 
L 1119 1734 
L 1119 -47 
L 2913 -47 
L 2913 2403 
L 756 2403 
L 756 4647 
L 1288 4647 
L 1288 2878 
L 2913 2878 
L 2913 5222 
L 3456 5222 
L 3456 2878 
L 5100 2878 
L 5100 4647 
L 5631 4647 
L 5631 2172 
L 5100 2172 
z
" transform="scale(0.015625)"/>
      <path id="MicrosoftYaHei-53e3" d="M 713 4684 
L 5675 4684 
L 5675 -578 
L 5138 -578 
L 5138 28 
L 1250 28 
L 1250 -578 
L 713 -578 
L 713 4684 
z
M 5138 497 
L 5138 4216 
L 1250 4216 
L 1250 497 
L 5138 497 
z
" transform="scale(0.015625)"/>
      <path id="MicrosoftYaHei-9650" d="M 2675 4984 
L 5638 4984 
L 5638 1872 
L 5175 1872 
L 5175 2041 
L 4119 2041 
Q 4313 1478 4650 1028 
Q 5213 1384 5838 1909 
L 6169 1516 
Q 5481 1034 4944 691 
Q 5488 141 6313 -191 
Q 6081 -416 5913 -647 
Q 4175 266 3675 2041 
L 3138 2041 
L 3138 -84 
Q 3556 103 4231 466 
Q 4238 178 4263 -28 
Q 3706 -297 3181 -609 
Q 3056 -678 2844 -872 
L 2488 -403 
Q 2675 -241 2675 9 
L 2675 4984 
z
M 2275 1603 
Q 2456 409 1681 266 
Q 1400 209 1050 253 
Q 1000 509 913 778 
Q 1244 697 1488 728 
Q 1913 809 1775 1622 
Q 1688 2122 1206 2747 
Q 1431 3428 1794 4566 
L 869 4566 
L 869 -891 
L 400 -891 
L 400 5003 
L 2294 5003 
L 2294 4566 
Q 1988 3684 1706 2828 
Q 2206 2147 2275 1603 
z
M 5175 2466 
L 5175 3309 
L 3138 3309 
L 3138 2466 
L 5175 2466 
z
M 5175 4559 
L 3138 4559 
L 3138 3728 
L 5175 3728 
L 5175 4559 
z
" transform="scale(0.015625)"/>
     </defs>
     <use xlink:href="#MicrosoftYaHei-2264"/>
     <use xlink:href="#MicrosoftYaHei-51fa" transform="translate(74.169922 0)"/>
     <use xlink:href="#MicrosoftYaHei-53e3" transform="translate(174.169922 0)"/>
     <use xlink:href="#MicrosoftYaHei-4e0a" transform="translate(274.169922 0)"/>
     <use xlink:href="#MicrosoftYaHei-9650" transform="translate(374.169922 0)"/>
    </g>
   </g>
   <g id="text_8">
    <!-- ④ 弃光 -->
    <g style="fill: #243038" transform="translate(249.569323 225.506725) scale(0.082 -0.082)">
     <defs>
      <path id="MicrosoftYaHei-2463" d="M 3200 4684 
Q 4416 4684 5286 3814 
Q 6156 2944 6156 1728 
Q 6156 513 5286 -357 
Q 4416 -1228 3200 -1228 
Q 1984 -1228 1114 -357 
Q 244 513 244 1728 
Q 244 2944 1114 3814 
Q 1984 4684 3200 4684 
z
M 3200 -844 
Q 4259 -844 5015 -87 
Q 5772 669 5772 1728 
Q 5772 2788 5015 3544 
Q 4259 4300 3200 4300 
Q 2141 4300 1384 3544 
Q 628 2788 628 1728 
Q 628 669 1384 -87 
Q 2141 -844 3200 -844 
z
M 3831 959 
L 3831 91 
L 3353 91 
L 3353 959 
L 1713 959 
L 1713 1319 
L 3344 3603 
L 3831 3603 
L 3831 1388 
L 4294 1388 
L 4294 959 
L 3831 959 
z
M 3353 2706 
Q 3353 2928 3366 2988 
Q 3313 2841 3253 2759 
L 2269 1388 
L 3353 1388 
L 3353 2706 
z
" transform="scale(0.015625)"/>
      <path id="MicrosoftYaHei-5f03" d="M 200 4534 
L 3072 4534 
Q 2884 4841 2700 5103 
L 3125 5353 
Q 3369 5047 3613 4653 
L 3391 4534 
L 6206 4534 
L 6206 4084 
L 2869 4084 
Q 2366 3528 1725 2934 
Q 3225 2941 4516 2978 
Q 4231 3269 3938 3547 
L 4281 3841 
Q 5056 3159 5763 2416 
L 5363 2059 
Q 5141 2313 4916 2556 
Q 2978 2528 1575 2447 
Q 1388 2434 1038 2372 
L 806 2878 
Q 1088 2978 1319 3178 
Q 1806 3606 2206 4084 
L 200 4084 
L 200 4534 
z
M 138 1459 
L 1725 1459 
Q 1759 1794 1756 2209 
L 2250 2209 
Q 2256 1800 2231 1459 
L 4188 1459 
L 4188 2222 
L 4688 2222 
L 4688 1459 
L 6281 1459 
L 6281 1009 
L 4688 1009 
L 4688 -809 
L 4188 -809 
L 4188 1009 
L 2175 1009 
Q 2013 -184 675 -872 
Q 531 -678 300 -459 
Q 1500 116 1653 1009 
L 138 1009 
L 138 1459 
z
" transform="scale(0.015625)"/>
     </defs>
     <use xlink:href="#MicrosoftYaHei-2463"/>
     <use xlink:href="#MicrosoftYaHei-20" transform="translate(100 0)"/>
     <use xlink:href="#MicrosoftYaHei-5f03" transform="translate(129.589844 0)"/>
     <use xlink:href="#MicrosoftYaHei-5149" transform="translate(229.589844 0)"/>
    </g>
   </g>
  </g>
  <g id="axes_2">
   <g id="patch_17">
    <path d="M 532.987532 95.714609 
Q 577.3541 95.714609 620.602634 95.714609 
" clip-path="url(#p77f6b3113a)" style="fill: none; stroke: #e6f0fc; stroke-opacity: 0.88; stroke-linecap: round"/>
    <path d="M 616.602634 93.714609 
L 620.602634 95.714609 
L 616.602634 97.714609 
z
" clip-path="url(#p77f6b3113a)" style="fill: #e6f0fc; fill-opacity: 0.88; stroke: #e6f0fc; stroke-opacity: 0.88; stroke-linecap: round"/>
   </g>
   <g id="patch_18">
    <path d="M 577.354667 108.645847 
Q 577.354667 126.383811 577.354667 143.003741 
" clip-path="url(#p77f6b3113a)" style="fill: none; stroke: #e6f0fc; stroke-opacity: 0.88; stroke-linecap: round"/>
    <path d="M 579.354667 139.003741 
L 577.354667 143.003741 
L 575.354667 139.003741 
z
" clip-path="url(#p77f6b3113a)" style="fill: #e6f0fc; fill-opacity: 0.88; stroke: #e6f0fc; stroke-opacity: 0.88; stroke-linecap: round"/>
   </g>
   <g id="patch_19">
    <path d="M 577.354667 168.768607 
Q 577.354667 171.173158 577.354667 172.459674 
" clip-path="url(#p77f6b3113a)" style="fill: none; stroke: #e6f0fc; stroke-opacity: 0.88; stroke-linecap: round"/>
    <path d="M 579.354667 168.459674 
L 577.354667 172.459674 
L 575.354667 168.459674 
z
" clip-path="url(#p77f6b3113a)" style="fill: #e6f0fc; fill-opacity: 0.88; stroke: #e6f0fc; stroke-opacity: 0.88; stroke-linecap: round"/>
   </g>
   <g id="patch_20">
    <path d="M 575.420845 176.095741 
Q 553.369421 181.919361 531.695953 182.752611 
" clip-path="url(#p77f6b3113a)" style="fill: none; stroke: #e6f0fc; stroke-opacity: 0.88; stroke-linecap: round"/>
    <path d="M 535.769835 184.597466 
L 531.695953 182.752611 
L 535.616166 180.600419 
z
" clip-path="url(#p77f6b3113a)" style="fill: #e6f0fc; fill-opacity: 0.88; stroke: #e6f0fc; stroke-opacity: 0.88; stroke-linecap: round"/>
   </g>
   <g id="patch_21">
    <path d="M 493.205333 204.907219 
Q 493.205333 210.194113 493.205333 214.362973 
" clip-path="url(#p77f6b3113a)" style="fill: none; stroke: #e6f0fc; stroke-opacity: 0.88; stroke-linecap: round"/>
    <path d="M 495.205333 210.362973 
L 493.205333 214.362973 
L 491.205333 210.362973 
z
" clip-path="url(#p77f6b3113a)" style="fill: #e6f0fc; fill-opacity: 0.88; stroke: #e6f0fc; stroke-opacity: 0.88; stroke-linecap: round"/>
   </g>
   <g id="patch_22">
    <path d="M 530.579848 192.883304 
Q 552.966612 192.883304 574.235342 192.883304 
" clip-path="url(#p77f6b3113a)" style="fill: none; stroke: #e6f0fc; stroke-opacity: 0.88; stroke-linecap: round"/>
    <path d="M 570.235342 190.883304 
L 574.235342 192.883304 
L 570.235342 194.883304 
z
" clip-path="url(#p77f6b3113a)" style="fill: #e6f0fc; fill-opacity: 0.88; stroke: #e6f0fc; stroke-opacity: 0.88; stroke-linecap: round"/>
   </g>
   <g id="patch_23">
    <path d="M 577.354667 197.313412 
Q 577.354667 219.45196 577.354667 240.472475 
" clip-path="url(#p77f6b3113a)" style="fill: none; stroke: #e6f0fc; stroke-opacity: 0.88; stroke-linecap: round"/>
    <path d="M 579.354667 236.472475 
L 577.354667 240.472475 
L 575.354667 236.472475 
z
" clip-path="url(#p77f6b3113a)" style="fill: #e6f0fc; fill-opacity: 0.88; stroke: #e6f0fc; stroke-opacity: 0.88; stroke-linecap: round"/>
   </g>
   <g id="patch_24">
    <path d="M 495.098266 235.741461 
Q 534.305423 248.98532 574.259972 243.990671 
" clip-path="url(#p77f6b3113a)" style="fill: none; stroke: #e6f0fc; stroke-opacity: 0.88; stroke-linecap: round"/>
    <path d="M 570.042778 242.502289 
L 574.259972 243.990671 
L 570.53895 246.471396 
z
" clip-path="url(#p77f6b3113a)" style="fill: #e6f0fc; fill-opacity: 0.88; stroke: #e6f0fc; stroke-opacity: 0.88; stroke-linecap: round"/>
   </g>
   <g id="patch_25">
    <path d="M 577.354667 265.634169 
Q 577.354667 271.681435 577.354667 276.610667 
" clip-path="url(#p77f6b3113a)" style="fill: none; stroke: #e6f0fc; stroke-opacity: 0.88; stroke-linecap: round"/>
    <path d="M 579.354667 272.610667 
L 577.354667 276.610667 
L 575.354667 272.610667 
z
" clip-path="url(#p77f6b3113a)" style="fill: #e6f0fc; fill-opacity: 0.88; stroke: #e6f0fc; stroke-opacity: 0.88; stroke-linecap: round"/>
   </g>
   <g id="patch_26">
    <path d="M 458.068693 107.192661 
L 528.341973 107.192661 
Q 530.74624 107.192661 530.74624 105.067096 
L 530.74624 86.362122 
Q 530.74624 84.236557 528.341973 84.236557 
L 458.068693 84.236557 
Q 455.664427 84.236557 455.664427 86.362122 
L 455.664427 105.067096 
Q 455.664427 107.192661 458.068693 107.192661 
z
" clip-path="url(#p77f6b3113a)" style="fill: #9dd3af; stroke: #5d7a8c; stroke-linejoin: miter"/>
   </g>
   <g id="patch_27">
    <path d="M 626.36736 107.192661 
L 696.64064 107.192661 
Q 699.044907 107.192661 699.044907 105.067096 
L 699.044907 86.362122 
Q 699.044907 84.236557 696.64064 84.236557 
L 626.36736 84.236557 
Q 623.963093 84.236557 623.963093 86.362122 
L 623.963093 105.067096 
Q 623.963093 107.192661 626.36736 107.192661 
z
" clip-path="url(#p77f6b3113a)" style="fill: #d9eedf; stroke: #5d7a8c; stroke-linejoin: miter"/>
   </g>
   <g id="patch_28">
    <path d="M 535.348693 167.315791 
L 619.36064 167.315791 
Q 621.764907 167.315791 621.764907 165.190226 
L 621.764907 147.699861 
Q 621.764907 145.574296 619.36064 145.574296 
L 535.348693 145.574296 
Q 532.944427 145.574296 532.944427 147.699861 
L 532.944427 165.190226 
Q 532.944427 167.315791 535.348693 167.315791 
z
" clip-path="url(#p77f6b3113a)" style="fill: #f1debd; stroke: #5d7a8c; stroke-linejoin: miter"/>
   </g>
   <g id="patch_29">
    <path d="M 459.786027 203.4504 
L 526.62464 203.4504 
Q 529.028907 203.4504 529.028907 201.324835 
L 529.028907 184.441774 
Q 529.028907 182.316209 526.62464 182.316209 
L 459.786027 182.316209 
Q 457.38176 182.316209 457.38176 184.441774 
L 457.38176 201.324835 
Q 457.38176 203.4504 459.786027 203.4504 
z
" clip-path="url(#p77f6b3113a)" style="fill: #d1b494; stroke: #5d7a8c; stroke-linejoin: miter"/>
   </g>
   <g id="patch_30">
    <path d="M 459.786027 235.63753 
L 526.62464 235.63753 
Q 529.028907 235.63753 529.028907 233.511965 
L 529.028907 219.058122 
Q 529.028907 216.932557 526.62464 216.932557 
L 459.786027 216.932557 
Q 457.38176 216.932557 457.38176 219.058122 
L 457.38176 233.511965 
Q 457.38176 235.63753 459.786027 235.63753 
z
" clip-path="url(#p77f6b3113a)" style="fill: #c0e2ca; stroke: #5d7a8c; stroke-linejoin: miter"/>
   </g>
   <g id="patch_31">
    <path d="M 536.20736 264.180835 
L 618.501973 264.180835 
Q 620.90624 264.180835 620.90624 262.05527 
L 620.90624 245.172209 
Q 620.90624 243.046643 618.501973 243.046643 
L 536.20736 243.046643 
Q 533.803093 243.046643 533.803093 245.172209 
L 533.803093 262.05527 
Q 533.803093 264.180835 536.20736 264.180835 
z
" clip-path="url(#p77f6b3113a)" style="fill: #e0c79f; stroke: #5d7a8c; stroke-linejoin: miter"/>
   </g>
   <g id="patch_32">
    <path d="M 536.20736 297.886226 
L 618.501973 297.886226 
Q 620.90624 297.886226 620.90624 295.760661 
L 620.90624 281.306817 
Q 620.90624 279.181252 618.501973 279.181252 
L 536.20736 279.181252 
Q 533.803093 279.181252 533.803093 281.306817 
L 533.803093 295.760661 
Q 533.803093 297.886226 536.20736 297.886226 
z
" clip-path="url(#p77f6b3113a)" style="fill: #f1debd; stroke: #5d7a8c; stroke-linejoin: miter"/>
   </g>
   <g id="text_9">
    <!-- 情形二：光伏不足 -->
    <g style="fill: #f4f8fb" transform="translate(535.354667 64.633264) scale(0.105 -0.105)">
     <defs>
      <path id="MicrosoftYaHei-Bold-4e8c" d="M 650 4641 
L 5750 4641 
L 5750 3703 
L 650 3703 
L 650 4641 
z
M 200 778 
L 6213 778 
L 6213 -172 
L 200 -172 
L 200 778 
z
" transform="scale(0.015625)"/>
      <path id="MicrosoftYaHei-Bold-4e0d" d="M 350 4928 
L 6088 4928 
L 6088 4078 
L 3866 4078 
Q 3659 3556 3375 3072 
L 3675 3072 
L 3675 2341 
L 4300 2928 
Q 5144 2178 6338 1078 
L 5606 359 
Q 4809 1284 3675 2316 
L 3675 -853 
L 2731 -853 
L 2731 2141 
Q 1925 1138 725 303 
Q 525 591 88 1128 
Q 2069 2419 2813 4078 
L 350 4078 
L 350 4928 
z
" transform="scale(0.015625)"/>
     </defs>
     <use xlink:href="#MicrosoftYaHei-Bold-60c5"/>
     <use xlink:href="#MicrosoftYaHei-Bold-5f62" transform="translate(100 0)"/>
     <use xlink:href="#MicrosoftYaHei-Bold-4e8c" transform="translate(200 0)"/>
     <use xlink:href="#MicrosoftYaHei-Bold-ff1a" transform="translate(300 0)"/>
     <use xlink:href="#MicrosoftYaHei-Bold-5149" transform="translate(400 0)"/>
     <use xlink:href="#MicrosoftYaHei-Bold-4f0f" transform="translate(500 0)"/>
     <use xlink:href="#MicrosoftYaHei-Bold-4e0d" transform="translate(600 0)"/>
     <use xlink:href="#MicrosoftYaHei-Bold-8db3" transform="translate(700 0)"/>
    </g>
   </g>
   <g id="text_10">
    <!-- 光伏可用 -->
    <g style="fill: #243038" transform="translate(476.805333 97.972812) scale(0.082 -0.082)">
     <use xlink:href="#MicrosoftYaHei-Bold-5149"/>
     <use xlink:href="#MicrosoftYaHei-Bold-4f0f" transform="translate(100 0)"/>
     <use xlink:href="#MicrosoftYaHei-Bold-53ef" transform="translate(200 0)"/>
     <use xlink:href="#MicrosoftYaHei-Bold-7528" transform="translate(300 0)"/>
    </g>
   </g>
   <g id="text_11">
    <!-- 总需求 -->
    <g style="fill: #243038" transform="translate(649.204 93.184524) scale(0.082 -0.082)">
     <use xlink:href="#MicrosoftYaHei-603b"/>
     <use xlink:href="#MicrosoftYaHei-9700" transform="translate(100 0)"/>
     <use xlink:href="#MicrosoftYaHei-6c42" transform="translate(200 0)"/>
    </g>
    <!-- 建筑与EV -->
    <g style="fill: #243038" transform="translate(644.177016 102.761099) scale(0.082 -0.082)">
     <use xlink:href="#MicrosoftYaHei-5efa"/>
     <use xlink:href="#MicrosoftYaHei-7b51" transform="translate(100 0)"/>
     <use xlink:href="#MicrosoftYaHei-4e0e" transform="translate(200 0)"/>
     <use xlink:href="#MicrosoftYaHei-45" transform="translate(300 0)"/>
     <use xlink:href="#MicrosoftYaHei-56" transform="translate(354.980469 0)"/>
    </g>
   </g>
   <g id="text_12">
    <!-- ① 就地 -->
    <g style="fill: #dfeaf3" transform="translate(565.812323 87.925474) scale(0.07 -0.07)">
     <use xlink:href="#MicrosoftYaHei-Bold-2460"/>
     <use xlink:href="#MicrosoftYaHei-Bold-20" transform="translate(100 0)"/>
     <use xlink:href="#MicrosoftYaHei-Bold-5c31" transform="translate(129.785156 0)"/>
     <use xlink:href="#MicrosoftYaHei-Bold-5730" transform="translate(229.785156 0)"/>
    </g>
   </g>
   <g id="text_13">
    <!-- 净需求 -->
    <g style="fill: #243038" transform="translate(565.054667 153.914959) scale(0.082 -0.082)">
     <defs>
      <path id="MicrosoftYaHei-51c0" d="M 2013 1278 
L 3575 1278 
L 3575 1947 
L 1706 1947 
L 1706 2397 
L 3575 2397 
L 3575 3059 
L 2125 3059 
L 2125 3297 
Q 2009 3178 1894 3066 
Q 1788 3178 1556 3416 
Q 2350 4166 3050 5353 
L 3525 5228 
Q 3400 5000 3266 4784 
L 5144 4784 
L 5144 4366 
L 4419 3497 
L 5700 3497 
L 5700 2397 
L 6269 2397 
L 6269 1947 
L 5700 1947 
L 5700 584 
L 5225 584 
L 5225 841 
L 4063 841 
L 4063 3 
Q 4063 -766 3275 -772 
Q 2863 -772 2488 -772 
Q 2444 -503 2388 -253 
Q 2781 -297 3163 -297 
Q 3575 -297 3575 116 
L 3575 841 
L 2013 841 
L 2013 1278 
z
M 4538 4353 
L 2984 4353 
Q 2669 3897 2309 3497 
L 3847 3497 
L 4538 4353 
z
M 925 2334 
Q 1150 2222 1394 2122 
Q 1063 991 713 -241 
L 206 -47 
Q 638 1159 925 2334 
z
M 4063 1278 
L 5225 1278 
L 5225 1947 
L 4063 1947 
L 4063 1278 
z
M 663 4891 
Q 1063 4203 1406 3509 
Q 1150 3372 938 3272 
Q 619 3991 256 4678 
L 663 4891 
z
M 5225 3059 
L 4063 3059 
L 4063 2397 
L 5225 2397 
L 5225 3059 
z
" transform="scale(0.015625)"/>
     </defs>
     <use xlink:href="#MicrosoftYaHei-51c0"/>
     <use xlink:href="#MicrosoftYaHei-9700" transform="translate(100 0)"/>
     <use xlink:href="#MicrosoftYaHei-6c42" transform="translate(200 0)"/>
    </g>
    <!-- （储能前） -->
    <g style="fill: #243038" transform="translate(556.854667 163.491534) scale(0.082 -0.082)">
     <defs>
      <path id="MicrosoftYaHei-ff08" d="M 5288 -1100 
Q 4172 119 4172 1850 
Q 4172 3603 5288 4838 
L 5825 4838 
Q 4716 3572 4716 1856 
Q 4716 166 5819 -1100 
L 5288 -1100 
z
" transform="scale(0.015625)"/>
      <path id="MicrosoftYaHei-524d" d="M 1038 -841 
L 563 -841 
L 563 3322 
L 3300 3322 
L 3300 -172 
Q 3300 -784 2669 -772 
Q 2406 -772 1950 -759 
Q 1913 -516 1856 -297 
Q 2238 -328 2563 -328 
Q 2825 -334 2825 -72 
L 2825 722 
L 1038 722 
L 1038 -841 
z
M 150 4372 
L 2169 4372 
Q 1963 4697 1644 5078 
L 2038 5347 
Q 2425 4916 2663 4578 
L 2353 4372 
L 4063 4372 
L 3813 4509 
Q 4144 4916 4388 5359 
L 4863 5084 
Q 4575 4691 4284 4372 
L 6263 4372 
L 6263 3934 
L 150 3934 
L 150 4372 
z
M 5331 3522 
L 5819 3522 
L 5819 28 
Q 5819 -741 5094 -747 
Q 4763 -753 4269 -741 
Q 4238 -484 4181 -216 
Q 4644 -266 4931 -266 
Q 5331 -266 5331 141 
L 5331 3522 
z
M 4044 3222 
L 4519 3222 
L 4519 409 
L 4044 409 
L 4044 3222 
z
M 2825 2897 
L 1038 2897 
L 1038 2228 
L 2825 2228 
L 2825 2897 
z
M 1038 1141 
L 2825 1141 
L 2825 1809 
L 1038 1809 
L 1038 1141 
z
" transform="scale(0.015625)"/>
      <path id="MicrosoftYaHei-ff09" d="M 1113 -1100 
L 575 -1100 
Q 1684 163 1684 1888 
Q 1684 3581 581 4838 
L 1113 4838 
Q 2222 3628 2222 1888 
Q 2222 128 1113 -1100 
z
" transform="scale(0.015625)"/>
     </defs>
     <use xlink:href="#MicrosoftYaHei-ff08"/>
     <use xlink:href="#MicrosoftYaHei-50a8" transform="translate(100 0)"/>
     <use xlink:href="#MicrosoftYaHei-80fd" transform="translate(200 0)"/>
     <use xlink:href="#MicrosoftYaHei-524d" transform="translate(300 0)"/>
     <use xlink:href="#MicrosoftYaHei-ff09" transform="translate(400 0)"/>
    </g>
   </g>
   <g id="text_14">
    <!-- ② 高价？ -->
    <g style="fill: #243038" transform="translate(475.59199 190.35322) scale(0.082 -0.082)">
     <defs>
      <path id="MicrosoftYaHei-9ad8" d="M 1194 3922 
L 5250 3922 
L 5250 2397 
L 4775 2397 
L 4775 2597 
L 1669 2597 
L 1669 2403 
L 1194 2403 
L 1194 3922 
z
M 969 -784 
L 494 -784 
L 494 2147 
L 5956 2147 
L 5956 22 
Q 5956 -747 5231 -747 
Q 4825 -747 4319 -734 
Q 4281 -522 4219 -241 
Q 4794 -284 5100 -284 
Q 5481 -284 5481 97 
L 5481 1747 
L 969 1747 
L 969 -784 
z
M 1813 1334 
L 4638 1334 
L 4638 28 
L 2263 28 
L 2263 -241 
L 1813 -241 
L 1813 1334 
z
M 125 4747 
L 2988 4747 
Q 2850 5013 2725 5216 
L 3194 5403 
Q 3372 5094 3541 4747 
L 6275 4747 
L 6275 4334 
L 125 4334 
L 125 4747 
z
M 4775 3534 
L 1669 3534 
L 1669 2984 
L 4775 2984 
L 4775 3534 
z
M 4188 416 
L 4188 947 
L 2263 947 
L 2263 416 
L 4188 416 
z
" transform="scale(0.015625)"/>
      <path id="MicrosoftYaHei-4ef7" d="M 69 2166 
Q 913 3484 1388 5259 
L 1875 5109 
Q 1650 4391 1400 3766 
L 1400 -853 
L 931 -853 
L 931 2722 
Q 619 2109 281 1622 
Q 163 1959 69 2166 
z
M 4319 5272 
L 4231 5116 
Q 5006 3747 6319 3141 
Q 6156 2953 5975 2703 
Q 4706 3434 3975 4703 
Q 3275 3497 2000 2603 
Q 1850 2822 1675 2997 
Q 3088 3884 3756 5272 
L 4319 5272 
z
M 3313 2828 
L 3313 1941 
Q 3313 134 2275 -891 
Q 2094 -709 1856 -541 
Q 2825 347 2825 1897 
L 2825 2828 
L 3313 2828 
z
M 4631 2828 
L 5119 2828 
L 5119 -828 
L 4631 -828 
L 4631 2828 
z
" transform="scale(0.015625)"/>
      <path id="MicrosoftYaHei-ff1f" d="M 1722 1369 
L 1178 1369 
L 1178 1638 
Q 1178 1966 1309 2202 
Q 1441 2438 1778 2700 
Q 2109 2956 2251 3179 
Q 2394 3403 2394 3694 
Q 2394 4003 2173 4203 
Q 1953 4403 1575 4403 
Q 978 4403 525 3950 
L 525 4588 
Q 1050 4916 1663 4916 
Q 2272 4916 2633 4595 
Q 2994 4275 2994 3756 
Q 2994 3394 2825 3097 
Q 2656 2800 2259 2472 
Q 1941 2206 1831 2050 
Q 1722 1894 1722 1613 
L 1722 1369 
z
M 1447 716 
Q 1613 716 1731 600 
Q 1850 484 1850 319 
Q 1850 150 1731 36 
Q 1613 -78 1447 -78 
Q 1288 -78 1169 34 
Q 1050 147 1050 319 
Q 1050 488 1167 602 
Q 1284 716 1447 716 
z
" transform="scale(0.015625)"/>
     </defs>
     <use xlink:href="#MicrosoftYaHei-2461"/>
     <use xlink:href="#MicrosoftYaHei-20" transform="translate(100 0)"/>
     <use xlink:href="#MicrosoftYaHei-9ad8" transform="translate(129.589844 0)"/>
     <use xlink:href="#MicrosoftYaHei-4ef7" transform="translate(229.589844 0)"/>
     <use xlink:href="#MicrosoftYaHei-ff1f" transform="translate(329.589844 0)"/>
    </g>
    <!-- 净需求&gt;0 -->
    <g style="fill: #243038" transform="translate(475.460021 199.929795) scale(0.082 -0.082)">
     <defs>
      <path id="MicrosoftYaHei-3e" d="M 3844 1866 
L 913 409 
L 913 947 
L 3094 1981 
L 3094 2003 
L 913 3175 
L 913 3716 
L 3844 2103 
L 3844 1866 
z
" transform="scale(0.015625)"/>
      <path id="MicrosoftYaHei-30" d="M 284 2325 
Q 284 3606 709 4264 
Q 1134 4922 1941 4922 
Q 3478 4922 3478 2441 
Q 3478 1216 3045 567 
Q 2613 -81 1831 -81 
Q 1094 -81 689 534 
Q 284 1150 284 2325 
z
M 909 2353 
Q 909 425 1888 425 
Q 2850 425 2850 2384 
Q 2850 4413 1906 4413 
Q 909 4413 909 2353 
z
" transform="scale(0.015625)"/>
     </defs>
     <use xlink:href="#MicrosoftYaHei-51c0"/>
     <use xlink:href="#MicrosoftYaHei-9700" transform="translate(100 0)"/>
     <use xlink:href="#MicrosoftYaHei-6c42" transform="translate(200 0)"/>
     <use xlink:href="#MicrosoftYaHei-3e" transform="translate(300 0)"/>
     <use xlink:href="#MicrosoftYaHei-30" transform="translate(374.169922 0)"/>
    </g>
   </g>
   <g id="text_15">
    <!-- 储能放电 -->
    <g style="fill: #243038" transform="translate(476.805333 228.543247) scale(0.082 -0.082)">
     <defs>
      <path id="MicrosoftYaHei-653e" d="M 3956 5359 
L 4456 5272 
Q 4322 4681 4106 4128 
L 6281 4128 
L 6281 3666 
L 5759 3666 
Q 5638 1816 4884 725 
Q 5447 25 6338 -353 
Q 6131 -628 5994 -847 
Q 5153 -394 4559 322 
Q 3947 -356 3094 -903 
Q 2950 -722 2738 -509 
Q 3669 56 4259 731 
Q 3713 1625 3563 2988 
Q 3378 2669 3163 2366 
Q 3031 2553 2850 2766 
Q 3663 3884 3956 5359 
z
M 156 4184 
L 3169 4184 
L 3169 3722 
L 1400 3722 
Q 1394 3166 1378 2703 
L 2813 2703 
Q 2750 1166 2694 241 
Q 2638 -584 1981 -616 
Q 1600 -622 1263 -609 
Q 1225 -378 1156 -84 
Q 1569 -128 1794 -128 
Q 2175 -128 2206 347 
Q 2269 1078 2306 2241 
L 1359 2241 
Q 1338 216 369 -853 
Q 225 -641 38 -416 
Q 625 247 750 1003 
Q 909 1713 906 3722 
L 156 3722 
L 156 4184 
z
M 5263 3666 
L 3934 3666 
Q 4034 2134 4584 1166 
Q 5188 2131 5263 3666 
z
M 1206 5141 
L 1631 5366 
Q 1900 4966 2144 4503 
L 1706 4272 
Q 1456 4753 1206 5141 
z
" transform="scale(0.015625)"/>
     </defs>
     <use xlink:href="#MicrosoftYaHei-50a8"/>
     <use xlink:href="#MicrosoftYaHei-80fd" transform="translate(100 0)"/>
     <use xlink:href="#MicrosoftYaHei-653e" transform="translate(200 0)"/>
     <use xlink:href="#MicrosoftYaHei-7535" transform="translate(300 0)"/>
    </g>
   </g>
   <g id="text_16">
    <!-- 是 -->
    <g style="fill: #dfeaf3" transform="translate(476.6536 212.119213) scale(0.07 -0.07)">
     <defs>
      <path id="MicrosoftYaHei-Bold-662f" d="M 838 5134 
L 5569 5134 
L 5569 2522 
L 838 2522 
L 838 5134 
z
M 4700 4441 
L 1706 4441 
L 1706 4103 
L 4700 4103 
L 4700 4441 
z
M 4700 3216 
L 4700 3553 
L 1706 3553 
L 1706 3216 
L 4700 3216 
z
M 819 -866 
Q 494 -616 106 -353 
Q 806 316 1178 1503 
L 119 1503 
L 119 2222 
L 6294 2222 
L 6294 1503 
L 3688 1503 
L 3688 1122 
L 5813 1122 
L 5813 441 
L 3688 441 
L 3688 44 
Q 4097 34 4694 34 
Q 5375 34 6306 47 
Q 6150 -359 6063 -691 
Q 5606 -700 4463 -684 
L 3550 -672 
Q 2113 -672 1463 3 
Q 1175 -509 819 -866 
z
M 2844 113 
L 2844 1503 
L 1194 1503 
L 1981 1209 
Q 1891 931 1788 681 
Q 2194 253 2844 113 
z
" transform="scale(0.015625)"/>
     </defs>
     <use xlink:href="#MicrosoftYaHei-Bold-662f"/>
    </g>
   </g>
   <g id="text_17">
    <!-- 否 -->
    <g style="fill: #dfeaf3" transform="translate(549.468533 186.308778) scale(0.07 -0.07)">
     <defs>
      <path id="MicrosoftYaHei-Bold-5426" d="M 2763 2191 
L 2763 3338 
Q 1728 2613 363 2103 
Q 219 2584 81 2984 
Q 1659 3453 2800 4303 
L 306 4303 
L 306 5053 
L 6094 5053 
L 6094 4303 
L 3897 4303 
Q 3600 3994 3259 3716 
L 3638 3716 
L 3638 2191 
L 2763 2191 
z
M 4194 3891 
Q 5319 3403 6319 2903 
L 5913 2178 
Q 4794 2784 3769 3228 
L 4194 3891 
z
M 744 -841 
L 744 1953 
L 5656 1953 
L 5656 -841 
L 4806 -841 
L 4806 -541 
L 1594 -541 
L 1594 -841 
L 744 -841 
z
M 4806 1203 
L 1594 1203 
L 1594 209 
L 4806 209 
L 4806 1203 
z
" transform="scale(0.015625)"/>
     </defs>
     <use xlink:href="#MicrosoftYaHei-Bold-5426"/>
    </g>
   </g>
   <g id="text_18">
    <!-- ③ 电网购电 -->
    <g style="fill: #243038" transform="translate(555.641323 251.083655) scale(0.082 -0.082)">
     <defs>
      <path id="MicrosoftYaHei-8d2d" d="M 438 4953 
L 2550 4953 
L 2550 3159 
Q 3175 4116 3481 5316 
L 3975 5203 
Q 3825 4753 3663 4347 
L 6050 4347 
Q 6013 1309 5975 303 
Q 5919 -709 4938 -709 
Q 4400 -709 3794 -684 
Q 3756 -434 3694 -172 
Q 4300 -241 4806 -247 
Q 5463 -241 5500 403 
Q 5544 1466 5563 3891 
L 3475 3891 
Q 3244 3347 2994 2897 
Q 2813 3016 2550 3128 
L 2550 1078 
L 2100 1078 
L 2100 4497 
L 888 4497 
L 888 1041 
L 438 1041 
L 438 4953 
z
M 4213 2378 
L 4644 2503 
Q 4931 1603 5200 616 
L 4731 478 
Q 4681 666 4638 859 
Q 3975 816 3450 753 
Q 3175 722 2894 653 
L 2700 1059 
Q 2919 1197 3025 1434 
Q 3369 2266 3675 3434 
L 4150 3322 
Q 3775 2166 3406 1191 
Q 3938 1222 4531 1266 
Q 4381 1816 4213 2378 
z
M 1269 3953 
L 1719 3953 
L 1719 2697 
Q 1719 1484 1550 816 
L 1731 984 
Q 2369 322 2850 -222 
L 2456 -553 
Q 2013 16 1481 603 
Q 1256 -109 400 -853 
Q 263 -659 69 -472 
Q 800 72 1038 691 
Q 1269 1228 1269 2516 
L 1269 3953 
z
" transform="scale(0.015625)"/>
     </defs>
     <use xlink:href="#MicrosoftYaHei-2462"/>
     <use xlink:href="#MicrosoftYaHei-20" transform="translate(100 0)"/>
     <use xlink:href="#MicrosoftYaHei-7535" transform="translate(129.589844 0)"/>
     <use xlink:href="#MicrosoftYaHei-7f51" transform="translate(229.589844 0)"/>
     <use xlink:href="#MicrosoftYaHei-8d2d" transform="translate(329.589844 0)"/>
     <use xlink:href="#MicrosoftYaHei-7535" transform="translate(429.589844 0)"/>
    </g>
    <!-- ≤进口上限 -->
    <g style="fill: #243038" transform="translate(557.91362 260.66023) scale(0.082 -0.082)">
     <defs>
      <path id="MicrosoftYaHei-8fdb" d="M 1756 2416 
L 2828 2416 
Q 2838 2903 2838 3741 
L 2050 3741 
L 2050 4191 
L 2838 4191 
L 2838 5291 
L 3338 5291 
L 3338 4191 
L 4575 4191 
L 4575 5291 
L 5075 5291 
L 5075 4191 
L 6000 4191 
L 6000 3741 
L 5075 3741 
L 5075 2416 
L 6244 2416 
L 6244 1966 
L 5075 1966 
L 5075 66 
L 4575 66 
L 4575 1966 
L 3291 1966 
Q 3106 691 2213 66 
Q 2050 247 1831 447 
Q 2597 931 2778 1966 
L 1756 1966 
L 1756 2416 
z
M 2606 -191 
L 4088 -222 
L 6300 -166 
Q 6231 -372 6125 -659 
L 4050 -666 
L 2544 -634 
Q 1513 -616 1081 91 
Q 825 -147 331 -747 
L 75 -228 
Q 628 306 875 538 
L 875 2641 
L 131 2641 
L 131 3103 
L 1356 3103 
L 1356 438 
Q 1744 -175 2606 -191 
z
M 3331 2416 
L 4575 2416 
L 4575 3741 
L 3338 3741 
Q 3338 2666 3331 2416 
z
M 813 5216 
Q 1288 4622 1688 4034 
Q 1425 3866 1225 3722 
Q 881 4322 413 4947 
L 813 5216 
z
" transform="scale(0.015625)"/>
     </defs>
     <use xlink:href="#MicrosoftYaHei-2264"/>
     <use xlink:href="#MicrosoftYaHei-8fdb" transform="translate(74.169922 0)"/>
     <use xlink:href="#MicrosoftYaHei-53e3" transform="translate(174.169922 0)"/>
     <use xlink:href="#MicrosoftYaHei-4e0a" transform="translate(274.169922 0)"/>
     <use xlink:href="#MicrosoftYaHei-9650" transform="translate(374.169922 0)"/>
    </g>
   </g>
   <g id="text_19">
    <!-- ④ 未满足负荷 -->
    <g style="fill: #243038" transform="translate(551.541323 290.791942) scale(0.082 -0.082)">
     <defs>
      <path id="MicrosoftYaHei-672a" d="M 6325 128 
Q 6150 -84 5975 -334 
Q 4328 488 3444 1791 
L 3444 -822 
L 2956 -822 
L 2956 1784 
Q 2006 525 419 -409 
Q 300 -241 81 9 
Q 1778 900 2763 2153 
L 181 2153 
L 181 2616 
L 2956 2616 
L 2956 3791 
L 550 3791 
L 550 4253 
L 2956 4253 
L 2956 5322 
L 3444 5322 
L 3444 4253 
L 5875 4253 
L 5875 3791 
L 3444 3791 
L 3444 2616 
L 6219 2616 
L 6219 2153 
L 3619 2153 
Q 4625 809 6325 128 
z
" transform="scale(0.015625)"/>
      <path id="MicrosoftYaHei-6ee1" d="M 1594 3516 
L 6263 3516 
L 6263 3091 
L 4881 3091 
Q 4881 2769 4875 2459 
L 6075 2459 
L 6075 -28 
Q 6075 -759 5369 -759 
Q 5063 -759 4688 -741 
Q 4656 -503 4594 -259 
Q 5000 -309 5256 -309 
Q 5619 -309 5619 53 
L 5619 488 
Q 5497 375 5306 197 
Q 4969 631 4653 988 
Q 4406 278 3881 -191 
Q 3744 -22 3563 153 
Q 4309 797 4409 2034 
L 3384 2034 
Q 3372 1784 3328 1556 
Q 3678 1241 4013 891 
Q 3956 841 3675 559 
Q 3438 834 3206 1084 
Q 2975 403 2456 -66 
Q 2350 63 2225 209 
L 2225 -809 
L 1769 -809 
L 1769 2459 
L 2956 2459 
Q 2963 2784 2963 3091 
L 1594 3091 
L 1594 3516 
z
M 1600 4622 
L 2794 4622 
L 2794 5316 
L 3269 5316 
L 3269 4622 
L 4594 4622 
L 4594 5322 
L 5069 5322 
L 5069 4622 
L 6275 4622 
L 6275 4197 
L 5069 4197 
L 5069 3659 
L 4594 3659 
L 4594 4197 
L 3269 4197 
L 3269 3653 
L 2794 3653 
L 2794 4197 
L 1600 4197 
L 1600 4622 
z
M 788 1772 
Q 1050 1647 1294 1566 
Q 1019 453 738 -784 
L 188 -622 
Q 500 366 788 1772 
z
M 2225 350 
Q 2869 953 2941 2034 
L 2225 2034 
L 2225 350 
z
M 5619 2034 
L 4856 2034 
Q 4838 1738 4781 1469 
Q 5284 953 5619 578 
L 5619 2034 
z
M 356 3578 
Q 925 3147 1381 2741 
Q 1150 2484 1019 2341 
Q 525 2816 44 3222 
L 356 3578 
z
M 3397 2459 
L 4428 2459 
Q 4434 2753 4438 3091 
L 3406 3091 
Q 3403 2819 3397 2459 
z
M 575 5216 
Q 1006 4878 1469 4466 
Q 1275 4266 1113 4084 
Q 700 4516 263 4878 
L 575 5216 
z
" transform="scale(0.015625)"/>
      <path id="MicrosoftYaHei-8db3" d="M 31 -384 
Q 1081 503 1238 2241 
L 1769 2159 
Q 1694 1559 1531 1041 
Q 2041 63 3050 -100 
L 3050 2822 
L 1400 2822 
L 1400 2553 
L 894 2553 
L 894 5059 
L 5538 5059 
L 5538 2553 
L 5031 2553 
L 5031 2822 
L 3569 2822 
L 3569 1641 
L 5913 1641 
L 5913 1184 
L 3569 1184 
L 3569 -138 
Q 4763 -169 6325 -109 
Q 6225 -359 6144 -628 
Q 4538 -641 3438 -616 
Q 1984 -597 1331 503 
Q 975 -306 363 -872 
Q 219 -628 31 -384 
z
M 5031 4603 
L 1400 4603 
L 1400 3278 
L 5031 3278 
L 5031 4603 
z
" transform="scale(0.015625)"/>
      <path id="MicrosoftYaHei-8d1f" d="M 963 3353 
L 3250 3353 
Q 3556 3659 4031 4216 
L 1819 4216 
Q 1163 3503 463 3009 
Q 325 3172 94 3384 
Q 1356 4303 2094 5334 
L 2600 5147 
Q 2406 4891 2213 4659 
L 4700 4659 
L 4700 4241 
Q 4294 3778 3881 3353 
L 5600 3353 
L 5600 641 
L 5100 641 
L 5100 2909 
L 1463 2909 
L 1463 603 
L 963 603 
L 963 3353 
z
M 188 -403 
Q 1806 -97 2550 422 
Q 3019 728 3019 1603 
L 3019 2609 
L 3525 2609 
L 3525 1716 
Q 3525 1297 3469 997 
Q 4906 334 6163 -416 
L 5831 -878 
Q 4513 -53 3325 534 
Q 2863 -391 475 -891 
Q 344 -653 188 -403 
z
" transform="scale(0.015625)"/>
      <path id="MicrosoftYaHei-8377" d="M 2175 3503 
L 6231 3503 
L 6231 3066 
L 5556 3066 
L 5556 116 
Q 5556 -716 4744 -716 
L 3856 -716 
Q 3831 -528 3744 -197 
Q 4238 -241 4619 -241 
Q 5069 -241 5069 241 
L 5069 3066 
L 2175 3066 
L 2175 3503 
z
M 2350 2422 
L 4350 2422 
L 4350 541 
L 2813 541 
L 2813 209 
L 2350 209 
L 2350 2422 
z
M 219 4728 
L 1975 4728 
L 1975 5328 
L 2463 5328 
L 2463 4728 
L 4013 4728 
L 4013 5328 
L 4500 5328 
L 4500 4728 
L 6275 4728 
L 6275 4278 
L 4500 4278 
L 4500 3828 
L 4013 3828 
L 4013 4278 
L 2463 4278 
L 2463 3859 
L 1975 3859 
L 1975 4278 
L 219 4278 
L 219 4728 
z
M 69 1653 
Q 1006 2628 1538 3847 
L 2006 3659 
Q 1759 3169 1506 2744 
L 1506 -797 
L 1019 -797 
L 1019 2006 
Q 688 1553 344 1209 
Q 225 1409 69 1653 
z
M 3888 966 
L 3888 1997 
L 2813 1997 
L 2813 966 
L 3888 966 
z
" transform="scale(0.015625)"/>
     </defs>
     <use xlink:href="#MicrosoftYaHei-2463"/>
     <use xlink:href="#MicrosoftYaHei-20" transform="translate(100 0)"/>
     <use xlink:href="#MicrosoftYaHei-672a" transform="translate(129.589844 0)"/>
     <use xlink:href="#MicrosoftYaHei-6ee1" transform="translate(229.589844 0)"/>
     <use xlink:href="#MicrosoftYaHei-8db3" transform="translate(329.589844 0)"/>
     <use xlink:href="#MicrosoftYaHei-8d1f" transform="translate(429.589844 0)"/>
     <use xlink:href="#MicrosoftYaHei-8377" transform="translate(529.589844 0)"/>
    </g>
   </g>
  </g>
  <g id="text_20">
   <!-- 问题一 baseline 单时段能量分配逻辑 -->
   <g style="fill: #f4f8fb" transform="translate(273.608844 17.192187) scale(0.125 -0.125)">
    <defs>
     <path id="MicrosoftYaHei-Bold-95ee" d="M 1213 5072 
L 1969 5359 
Q 2338 4747 2663 4047 
L 1831 3734 
Q 1544 4409 1213 5072 
z
M 6019 422 
Q 6019 -153 5800 -429 
Q 5581 -706 5178 -757 
Q 4775 -809 3675 -809 
Q 3569 -316 3450 91 
Q 4247 59 4506 59 
Q 5113 59 5113 609 
L 5113 4084 
L 2844 4084 
L 2844 4922 
L 6019 4922 
L 6019 422 
z
M 369 4453 
L 1275 4453 
L 1275 -766 
L 369 -766 
L 369 4453 
z
M 1863 3416 
L 4525 3416 
L 4525 716 
L 2663 716 
L 2663 328 
L 1863 328 
L 1863 3416 
z
M 3725 1528 
L 3725 2603 
L 2663 2603 
L 2663 1528 
L 3725 1528 
z
" transform="scale(0.015625)"/>
     <path id="MicrosoftYaHei-Bold-9898" d="M 406 5091 
L 2856 5091 
L 2856 2666 
L 406 2666 
L 406 5091 
z
M 2131 4503 
L 1131 4503 
L 1131 4141 
L 2131 4141 
L 2131 4503 
z
M 2131 3253 
L 2131 3616 
L 1131 3616 
L 1131 3253 
L 2131 3253 
z
M 3213 3966 
L 4041 3966 
Q 4084 4219 4116 4453 
L 3100 4453 
L 3100 5078 
L 6169 5078 
L 6169 4453 
L 4906 4453 
Q 4866 4206 4819 3966 
L 5981 3966 
L 5981 1341 
L 5269 1341 
L 5269 3341 
L 3925 3341 
L 3925 1347 
L 3213 1347 
L 3213 3966 
z
M 425 1491 
L 1106 1491 
Q 1109 1134 1094 822 
Q 1238 688 1394 575 
L 1394 1753 
L 138 1753 
L 138 2378 
L 3000 2378 
L 3000 1753 
L 2163 1753 
L 2163 1353 
L 2906 1353 
L 2906 741 
L 2163 741 
L 2163 178 
Q 2594 28 3172 19 
Q 2953 347 2713 609 
Q 3400 797 3831 1211 
Q 4263 1625 4263 2509 
L 4263 3072 
L 4938 3072 
L 4938 2472 
Q 4938 1956 4825 1541 
Q 5659 1050 6306 591 
L 5828 25 
L 6319 34 
Q 6175 -303 6094 -691 
Q 4706 -691 3689 -680 
Q 2672 -669 2331 -597 
Q 1991 -525 1653 -358 
Q 1316 -191 1013 66 
Q 909 -544 688 -909 
Q 463 -628 75 -266 
Q 431 278 425 1491 
z
M 3428 16 
L 5744 25 
Q 5163 506 4544 909 
Q 4166 369 3428 16 
z
" transform="scale(0.015625)"/>
     <path id="MicrosoftYaHei-Bold-62" d="M 1469 416 
L 1469 0 
L 459 0 
L 459 5116 
L 1469 5116 
L 1469 2928 
L 1481 2928 
Q 1878 3541 2613 3541 
Q 3266 3541 3636 3084 
Q 4006 2628 4006 1825 
Q 4006 966 3581 441 
Q 3156 -84 2453 -84 
Q 1809 -84 1481 416 
L 1469 416 
z
M 1453 1494 
Q 1453 1153 1656 922 
Q 1859 691 2172 691 
Q 2550 691 2761 984 
Q 2972 1278 2972 1816 
Q 2972 2263 2780 2514 
Q 2588 2766 2231 2766 
Q 1894 2766 1673 2512 
Q 1453 2259 1453 1863 
L 1453 1494 
z
" transform="scale(0.015625)"/>
     <path id="MicrosoftYaHei-Bold-61" d="M 544 3247 
Q 778 3378 1170 3459 
Q 1563 3541 1841 3541 
Q 3291 3541 3291 2088 
L 3291 0 
L 2331 0 
L 2331 503 
L 2319 503 
Q 1966 -84 1284 -84 
Q 794 -84 498 195 
Q 203 475 203 956 
Q 203 1950 1388 2113 
L 2338 2241 
Q 2338 2844 1709 2844 
Q 1091 2844 544 2469 
L 544 3247 
z
M 1684 1566 
Q 1138 1494 1138 1072 
Q 1138 878 1270 759 
Q 1403 641 1628 641 
Q 1938 641 2138 859 
Q 2338 1078 2338 1403 
L 2338 1650 
L 1684 1566 
z
" transform="scale(0.015625)"/>
     <path id="MicrosoftYaHei-Bold-73" d="M 369 928 
Q 888 613 1384 613 
Q 2009 613 2009 947 
Q 2009 1184 1494 1344 
Q 850 1544 609 1789 
Q 369 2034 369 2453 
Q 369 2963 781 3252 
Q 1194 3541 1863 3541 
Q 2338 3541 2778 3400 
L 2778 2606 
Q 2375 2844 1891 2844 
Q 1650 2844 1503 2758 
Q 1356 2672 1356 2531 
Q 1356 2294 1794 2147 
Q 2263 1991 2498 1862 
Q 2734 1734 2857 1525 
Q 2981 1316 2981 1041 
Q 2981 506 2553 211 
Q 2125 -84 1409 -84 
Q 847 -84 369 94 
L 369 928 
z
" transform="scale(0.015625)"/>
     <path id="MicrosoftYaHei-Bold-65" d="M 3528 1444 
L 1253 1444 
Q 1306 641 2222 641 
Q 2794 641 3231 922 
L 3231 181 
Q 2759 -84 1994 -84 
Q 1169 -84 711 381 
Q 253 847 253 1678 
Q 253 2506 740 3023 
Q 1228 3541 1966 3541 
Q 2700 3541 3114 3095 
Q 3528 2650 3528 1872 
L 3528 1444 
z
M 2588 2075 
Q 2588 2850 1959 2850 
Q 1700 2850 1500 2637 
Q 1300 2425 1250 2075 
L 2588 2075 
z
" transform="scale(0.015625)"/>
     <path id="MicrosoftYaHei-Bold-6c" d="M 444 0 
L 444 5116 
L 1450 5116 
L 1450 0 
L 444 0 
z
" transform="scale(0.015625)"/>
     <path id="MicrosoftYaHei-Bold-69" d="M 369 4572 
Q 369 4803 533 4948 
Q 697 5094 953 5094 
Q 1216 5094 1378 4945 
Q 1541 4797 1541 4572 
Q 1541 4344 1375 4192 
Q 1209 4041 953 4041 
Q 700 4041 534 4194 
Q 369 4347 369 4572 
z
M 444 0 
L 444 3456 
L 1450 3456 
L 1450 0 
L 444 0 
z
" transform="scale(0.015625)"/>
     <path id="MicrosoftYaHei-Bold-6e" d="M 3744 0 
L 2741 0 
L 2741 1928 
Q 2741 2766 2138 2766 
Q 1850 2766 1659 2542 
Q 1469 2319 1469 1972 
L 1469 0 
L 459 0 
L 459 3456 
L 1469 3456 
L 1469 2906 
L 1481 2906 
Q 1859 3541 2594 3541 
Q 3744 3541 3744 2116 
L 3744 0 
z
" transform="scale(0.015625)"/>
     <path id="MicrosoftYaHei-Bold-5355" d="M 606 4403 
L 1750 4403 
Q 1534 4713 1306 5003 
L 2056 5341 
L 2706 4578 
L 2313 4403 
L 3569 4403 
Q 3944 4884 4244 5353 
L 5188 5016 
Q 4969 4781 4628 4403 
L 5806 4403 
L 5806 1297 
L 3644 1297 
L 3644 866 
L 6288 866 
L 6288 97 
L 3644 97 
L 3644 -834 
L 2769 -834 
L 2769 97 
L 113 97 
L 113 866 
L 2769 866 
L 2769 1297 
L 606 1297 
L 606 4403 
z
M 4981 3678 
L 3644 3678 
L 3644 3172 
L 4981 3172 
L 4981 3678 
z
M 1431 3172 
L 2769 3172 
L 2769 3678 
L 1431 3678 
L 1431 3172 
z
M 4981 2022 
L 4981 2528 
L 3644 2528 
L 3644 2022 
L 4981 2022 
z
M 1431 2022 
L 2769 2022 
L 2769 2528 
L 1431 2528 
L 1431 2022 
z
" transform="scale(0.015625)"/>
     <path id="MicrosoftYaHei-Bold-65f6" d="M 3038 4241 
L 4888 4241 
L 4888 5291 
L 5781 5291 
L 5781 4241 
L 6306 4241 
L 6306 3409 
L 5781 3409 
L 5781 316 
Q 5781 -209 5547 -478 
Q 5313 -747 4898 -762 
Q 4484 -778 3669 -778 
Q 3569 -209 3456 134 
Q 4344 109 4431 109 
Q 4888 109 4888 584 
L 4888 3409 
L 3038 3409 
L 3038 4241 
z
M 394 -497 
L 394 4897 
L 2856 4897 
L 2856 -459 
L 2031 -459 
L 2031 -28 
L 1219 -28 
L 1219 -497 
L 394 -497 
z
M 2031 4072 
L 1219 4072 
L 1219 2834 
L 2031 2834 
L 2031 4072 
z
M 1219 797 
L 2031 797 
L 2031 2034 
L 1219 2034 
L 1219 797 
z
M 3588 3072 
Q 4013 2541 4713 1559 
L 3956 1066 
Q 3388 2009 2938 2641 
L 3588 3072 
z
" transform="scale(0.015625)"/>
     <path id="MicrosoftYaHei-Bold-6bb5" d="M 113 22 
L 94 859 
L 525 897 
L 525 4947 
Q 1238 4978 2713 5228 
L 2988 4447 
Q 2094 4303 1356 4241 
L 1356 3716 
L 2625 3716 
L 2625 2953 
L 1356 2953 
L 1356 2397 
L 2625 2397 
L 2625 1634 
L 1356 1634 
L 1356 981 
L 2775 1141 
Q 2750 766 2750 347 
L 1356 178 
L 1356 -822 
L 525 -822 
L 525 75 
L 113 22 
z
M 5900 3816 
L 6319 3816 
Q 6231 3422 6169 3047 
L 5519 3047 
Q 4844 3047 4844 3734 
L 4844 4303 
L 3956 4303 
Q 3956 3672 3806 3372 
Q 3656 3072 3319 2791 
Q 3038 3047 2688 3322 
Q 3181 3628 3181 4278 
L 3181 5078 
L 5638 5078 
L 5638 4109 
Q 5638 3816 5900 3816 
z
M 6038 2728 
L 6038 1978 
Q 5703 1163 5119 541 
Q 5684 209 6356 16 
Q 6138 -378 5906 -816 
Q 5088 -503 4438 -53 
Q 3775 -538 2894 -853 
Q 2731 -578 2350 -66 
Q 3138 163 3731 525 
Q 3284 959 2950 1484 
L 3581 1941 
Q 3953 1431 4413 1041 
Q 4834 1447 5100 1959 
L 2788 1959 
L 2788 2728 
L 6038 2728 
z
" transform="scale(0.015625)"/>
     <path id="MicrosoftYaHei-Bold-80fd" d="M 2644 4797 
Q 3100 4172 3569 3447 
Q 3188 3222 2906 3066 
L 2731 3369 
L 319 3197 
L 100 3897 
Q 519 4116 1331 5353 
L 2125 5053 
L 1213 3947 
L 2353 3994 
Q 2200 4238 2044 4472 
L 2644 4797 
z
M 5513 3916 
Q 5981 3697 6288 3597 
Q 6200 3228 6114 2942 
Q 6028 2656 5798 2520 
Q 5569 2384 5200 2384 
L 4556 2384 
Q 3594 2384 3588 3322 
L 3588 5291 
L 4381 5291 
L 4381 4347 
Q 5153 4700 5681 5003 
L 6231 4366 
Q 5553 4056 4381 3616 
L 4381 3422 
Q 4381 3072 4800 3072 
L 5000 3072 
Q 5341 3072 5392 3269 
Q 5444 3466 5513 3916 
z
M 1213 -797 
L 431 -797 
L 431 2978 
L 3106 2978 
L 3106 41 
Q 3106 -325 2972 -525 
Q 2838 -725 2566 -759 
Q 2294 -794 1681 -784 
Q 1594 -422 1481 -41 
Q 1791 -59 1969 -59 
Q 2213 -59 2269 28 
Q 2325 116 2325 228 
L 2325 378 
L 1213 378 
L 1213 -797 
z
M 2325 2303 
L 1213 2303 
L 1213 1947 
L 2325 1947 
L 2325 2303 
z
M 1213 984 
L 2325 984 
L 2325 1341 
L 1213 1341 
L 1213 984 
z
M 5531 953 
Q 5913 797 6313 647 
Q 6194 -78 6081 -287 
Q 5969 -497 5750 -605 
Q 5531 -713 5206 -716 
L 4550 -716 
Q 3588 -716 3588 228 
L 3588 2216 
L 4381 2216 
L 4381 1438 
Q 5072 1781 5675 2147 
L 6225 1491 
Q 5372 1084 4381 672 
L 4381 353 
Q 4381 -28 4738 -28 
L 5000 -28 
Q 5275 -28 5365 90 
Q 5456 209 5531 953 
z
" transform="scale(0.015625)"/>
     <path id="MicrosoftYaHei-Bold-91cf" d="M 725 5103 
L 5675 5103 
L 5675 3416 
L 725 3416 
L 725 5103 
z
M 4825 4666 
L 1575 4666 
L 1575 4447 
L 4825 4447 
L 4825 4666 
z
M 4825 3853 
L 4825 4072 
L 1575 4072 
L 1575 3853 
L 4825 3853 
z
M 138 3209 
L 6288 3209 
L 6288 2747 
L 138 2747 
L 138 3209 
z
M 113 -184 
L 2781 -184 
L 2781 53 
L 506 53 
L 506 491 
L 2781 491 
L 2781 716 
L 713 716 
L 713 2534 
L 5681 2534 
L 5681 716 
L 3606 716 
L 3606 491 
L 5925 491 
L 5925 53 
L 3606 53 
L 3606 -184 
L 6300 -184 
L 6300 -647 
L 113 -647 
L 113 -184 
z
M 4881 2097 
L 3606 2097 
L 3606 1816 
L 4881 1816 
L 4881 2097 
z
M 1513 1816 
L 2781 1816 
L 2781 2097 
L 1513 2097 
L 1513 1816 
z
M 4881 1153 
L 4881 1434 
L 3606 1434 
L 3606 1153 
L 4881 1153 
z
M 1513 1153 
L 2781 1153 
L 2781 1434 
L 1513 1434 
L 1513 1153 
z
" transform="scale(0.015625)"/>
     <path id="MicrosoftYaHei-Bold-5206" d="M 6350 3028 
Q 6088 2703 5750 2228 
Q 5519 2409 5303 2603 
Q 5219 606 5172 190 
Q 5125 -225 4862 -451 
Q 4600 -678 4128 -678 
Q 3484 -678 2913 -659 
Q 2856 -141 2781 284 
Q 3594 216 3956 216 
Q 4172 216 4230 408 
Q 4288 600 4325 1978 
L 2781 1978 
Q 2728 1100 2529 631 
Q 2331 163 1907 -215 
Q 1484 -594 844 -872 
Q 456 -353 194 -78 
Q 750 144 1111 414 
Q 1472 684 1630 989 
Q 1788 1294 1841 1978 
L 950 1978 
L 950 2475 
Q 794 2356 631 2247 
Q 344 2653 63 2953 
Q 1475 3947 2194 5316 
L 3031 4953 
Q 2378 3722 1391 2841 
L 5047 2841 
Q 4088 3766 3463 4903 
L 4238 5303 
Q 5038 3922 6350 3028 
z
" transform="scale(0.015625)"/>
     <path id="MicrosoftYaHei-Bold-914d" d="M 163 5009 
L 3406 5009 
L 3406 4297 
L 2519 4297 
L 2519 3753 
L 3325 3753 
L 3325 -797 
L 2663 -797 
L 2663 -391 
L 994 -391 
L 994 -784 
L 331 -784 
L 331 3753 
L 1138 3753 
L 1138 4297 
L 163 4297 
L 163 5009 
z
M 1700 3753 
L 1981 3753 
L 1981 4297 
L 1700 4297 
L 1700 3753 
z
M 1350 1397 
Q 1166 1556 994 1694 
L 994 1266 
L 2663 1266 
L 2663 1634 
L 2531 1634 
Q 1981 1634 1981 2197 
L 1981 3097 
L 1697 3097 
Q 1672 1950 1350 1397 
z
M 2738 2159 
L 2781 2159 
L 2781 3097 
L 2519 3097 
L 2519 2397 
Q 2519 2159 2738 2159 
z
M 888 1941 
Q 1131 2303 1131 3097 
L 888 3097 
L 888 1941 
z
M 994 259 
L 2663 259 
L 2663 647 
L 994 647 
L 994 259 
z
M 5538 1334 
Q 5819 1209 6331 1047 
Q 6209 119 6125 -164 
Q 6041 -447 5842 -578 
Q 5644 -709 5325 -709 
L 4513 -709 
Q 3713 -709 3713 153 
L 3713 3003 
L 5188 3003 
L 5188 4184 
L 3619 4184 
L 3619 4984 
L 6000 4984 
L 6000 2203 
L 4519 2203 
L 4519 359 
Q 4519 78 4788 78 
L 5081 78 
Q 5316 78 5394 250 
Q 5472 422 5538 1334 
z
" transform="scale(0.015625)"/>
     <path id="MicrosoftYaHei-Bold-903b" d="M 913 5328 
Q 1450 4678 1781 4184 
Q 1319 3891 1044 3697 
Q 625 4366 238 4884 
L 913 5328 
z
M 5825 2609 
L 5825 1941 
Q 5003 703 3522 47 
Q 4906 31 6306 72 
L 6006 -741 
Q 3428 -741 2537 -709 
Q 1647 -678 1138 -103 
L 456 -884 
L 100 78 
Q 359 309 694 594 
L 694 2309 
L 138 2309 
L 138 3134 
L 1475 3134 
L 1475 581 
Q 1694 288 2106 159 
Q 2825 450 3381 759 
Q 3088 972 2688 1241 
L 3144 1753 
Q 3650 1472 4081 1206 
Q 4553 1553 4844 1922 
L 3022 1922 
Q 2641 1497 2175 1103 
Q 1888 1366 1594 1591 
Q 2472 2303 2909 3016 
L 1963 3016 
L 1963 5116 
L 6038 5116 
L 6038 3016 
L 3825 3016 
Q 3703 2809 3566 2609 
L 5825 2609 
z
M 5300 3666 
L 5300 4472 
L 4875 4472 
L 4875 3666 
L 5300 3666 
z
M 2700 3666 
L 3125 3666 
L 3125 4472 
L 2700 4472 
L 2700 3666 
z
M 3788 3666 
L 4213 3666 
L 4213 4472 
L 3788 4472 
L 3788 3666 
z
" transform="scale(0.015625)"/>
     <path id="MicrosoftYaHei-Bold-8f91" d="M 2363 3153 
L 6275 3153 
L 6275 2534 
L 5900 2534 
L 5900 434 
L 6319 453 
Q 6288 53 6281 -234 
Q 6100 -234 5900 -241 
L 5900 -841 
L 5094 -841 
L 5094 -259 
L 2325 -366 
L 2300 316 
L 1931 291 
L 1931 -847 
L 1188 -847 
L 1188 247 
L 125 172 
L 106 959 
L 1188 1003 
L 1188 1578 
L 125 1578 
L 125 2434 
Q 319 3009 503 3766 
L 106 3766 
L 106 4528 
L 672 4528 
Q 750 4894 825 5297 
L 1625 5241 
L 1444 4528 
L 2475 4528 
L 2475 3766 
L 1247 3766 
Q 1038 2969 850 2316 
L 1188 2316 
L 1188 3366 
L 1931 3366 
L 1931 2316 
L 2431 2316 
L 2431 1578 
L 1931 1578 
L 1931 1038 
L 2513 1066 
Q 2506 675 2513 338 
Q 2638 341 2763 341 
L 2763 2534 
L 2363 2534 
L 2363 3153 
z
M 3569 2172 
L 5094 2172 
L 5094 2534 
L 3569 2534 
L 3569 2172 
z
M 3569 1272 
L 5094 1272 
L 5094 1634 
L 3569 1634 
L 3569 1272 
z
M 5094 403 
L 5094 734 
L 3569 734 
L 3569 359 
L 5094 403 
z
M 2706 5066 
L 6006 5066 
L 6006 3428 
L 2706 3428 
L 2706 5066 
z
M 5238 4434 
L 3475 4434 
L 3475 4059 
L 5238 4059 
L 5238 4434 
z
" transform="scale(0.015625)"/>
    </defs>
    <use xlink:href="#MicrosoftYaHei-Bold-95ee"/>
    <use xlink:href="#MicrosoftYaHei-Bold-9898" transform="translate(100 0)"/>
    <use xlink:href="#MicrosoftYaHei-Bold-4e00" transform="translate(200 0)"/>
    <use xlink:href="#MicrosoftYaHei-Bold-20" transform="translate(300 0)"/>
    <use xlink:href="#MicrosoftYaHei-Bold-62" transform="translate(329.785156 0)"/>
    <use xlink:href="#MicrosoftYaHei-Bold-61" transform="translate(395.261719 0)"/>
    <use xlink:href="#MicrosoftYaHei-Bold-73" transform="translate(453.025391 0)"/>
    <use xlink:href="#MicrosoftYaHei-Bold-65" transform="translate(502.390625 0)"/>
    <use xlink:href="#MicrosoftYaHei-Bold-6c" transform="translate(560.59375 0)"/>
    <use xlink:href="#MicrosoftYaHei-Bold-69" transform="translate(590.183594 0)"/>
    <use xlink:href="#MicrosoftYaHei-Bold-6e" transform="translate(619.773438 0)"/>
    <use xlink:href="#MicrosoftYaHei-Bold-65" transform="translate(684.568359 0)"/>
    <use xlink:href="#MicrosoftYaHei-Bold-20" transform="translate(742.771484 0)"/>
    <use xlink:href="#MicrosoftYaHei-Bold-5355" transform="translate(772.556641 0)"/>
    <use xlink:href="#MicrosoftYaHei-Bold-65f6" transform="translate(872.556641 0)"/>
    <use xlink:href="#MicrosoftYaHei-Bold-6bb5" transform="translate(972.556641 0)"/>
    <use xlink:href="#MicrosoftYaHei-Bold-80fd" transform="translate(1072.556641 0)"/>
    <use xlink:href="#MicrosoftYaHei-Bold-91cf" transform="translate(1172.556641 0)"/>
    <use xlink:href="#MicrosoftYaHei-Bold-5206" transform="translate(1272.556641 0)"/>
    <use xlink:href="#MicrosoftYaHei-Bold-914d" transform="translate(1372.556641 0)"/>
    <use xlink:href="#MicrosoftYaHei-Bold-903b" transform="translate(1472.556641 0)"/>
    <use xlink:href="#MicrosoftYaHei-Bold-8f91" transform="translate(1572.556641 0)"/>
   </g>
  </g>
 </g>
 <defs>
  <clipPath id="p2ad9b84914">
   <rect x="7.2" y="45.612" width="343.466667" height="279.36"/>
  </clipPath>
  <clipPath id="p77f6b3113a">
   <rect x="405.621333" y="45.612" width="343.466667" height="279.36"/>
  </clipPath>
 </defs>
</svg>
