<?xml version="1.0" encoding="utf-8" standalone="no"?>
<!DOCTYPE svg PUBLIC "-//W3C//DTD SVG 1.1//EN"
  "http://www.w3.org/Graphics/SVG/1.1/DTD/svg11.dtd">
<svg xmlns:xlink="http://www.w3.org/1999/xlink" width="785.99952pt" height="296.39952pt" viewBox="0 0 785.99952 296.39952" xmlns="http://www.w3.org/2000/svg" version="1.1">
 <metadata>
  <rdf:RDF xmlns:dc="http://purl.org/dc/elements/1.1/" xmlns:cc="http://creativecommons.org/ns#" xmlns:rdf="http://www.w3.org/1999/02/22-rdf-syntax-ns#">
   <cc:Work>
    <dc:type rdf:resource="http://purl.org/dc/dcmitype/StillImage"/>
    <dc:date>2026-04-11T12:44:02.892653</dc:date>
    <dc:format>image/svg+xml</dc:format>
    <dc:creator>
     <cc:Agent>
      <dc:title>Matplotlib v3.10.0, https://matplotlib.org/</dc:title>
     </cc:Agent>
    </dc:creator>
   </cc:Work>
  </rdf:RDF>
 </metadata>
 <defs>
  <style type="text/css">*{stroke-linejoin: round; stroke-linecap: butt}</style>
 </defs>
 <g id="figure_1">
  <g id="patch_1">
   <path d="M 0 296.39952 
L 785.99952 296.39952 
L 785.99952 0 
L 0 0 
z
" style="fill: #ffffff"/>
  </g>
  <g id="axes_1">
   <g id="patch_2">
    <path d="M 40.931797 256.716161 
L 384.483309 256.716161 
L 384.483309 21.993125 
L 40.931797 21.993125 
z
" style="fill: #ffffff"/>
   </g>
   <g id="matplotlib.axis_1">
    <g id="xtick_1">
     <g id="line2d_1">
      <defs>
       <path id="m388dbc95cc" d="M 0 0 
L 0 3.5 
" style="stroke: #000000; stroke-width: 0.8"/>
      </defs>
      <g>
       <use xlink:href="#m388dbc95cc" x="86.772248" y="256.716161" style="stroke: #000000; stroke-width: 0.8"/>
      </g>
     </g>
     <g id="text_1">
      <!-- 紧凑型 -->
      <g transform="translate(71.772248 271.709911) scale(0.1 -0.1)">
       <defs>
        <path id="MicrosoftYaHei-7d27" d="M 4688 1934 
Q 5388 1347 5994 759 
L 5631 428 
Q 5391 675 5150 913 
Q 4381 875 3606 838 
L 3606 -3 
Q 3606 -747 2875 -747 
Q 2531 -747 2088 -734 
Q 2063 -522 2013 -241 
Q 2481 -291 2775 -291 
Q 3131 -291 3131 59 
L 3131 816 
Q 2409 778 1688 741 
Q 1269 716 963 659 
L 706 1153 
Q 1188 1247 1538 1378 
Q 2350 1672 3131 1997 
Q 2366 1947 1656 1897 
Q 1406 1878 1181 1834 
L 975 2309 
Q 1300 2391 1575 2484 
Q 2291 2778 2725 3022 
Q 2644 3206 2525 3378 
Q 3172 3453 3722 3669 
Q 3231 4056 2944 4616 
L 2663 4616 
L 2663 5003 
L 5656 5003 
L 5656 4603 
Q 5231 4044 4578 3647 
Q 5256 3366 6219 3328 
Q 6088 3103 5969 2859 
Q 4869 2981 4122 3403 
Q 3631 3172 3038 3016 
L 3250 2859 
Q 2450 2503 1813 2259 
Q 2756 2284 3922 2334 
Q 4316 2509 4700 2691 
L 5044 2391 
Q 3663 1766 1800 1109 
Q 3184 1166 4788 1266 
Q 4575 1469 4363 1666 
L 4688 1934 
z
M 1769 5228 
L 2219 5228 
L 2219 2916 
L 1769 2916 
L 1769 5228 
z
M 556 5066 
L 1006 5066 
L 1006 2984 
L 556 2984 
L 556 5066 
z
M 4138 191 
L 4375 566 
Q 5281 184 6094 -203 
L 5825 -641 
Q 5056 -228 4138 191 
z
M 1925 591 
L 2231 228 
Q 1381 -272 525 -684 
Q 431 -528 275 -272 
Q 1119 59 1925 591 
z
M 5138 4616 
L 3406 4616 
Q 3688 4163 4153 3869 
Q 4703 4159 5138 4616 
z
" transform="scale(0.015625)"/>
        <path id="MicrosoftYaHei-51d1" d="M 2000 947 
L 3469 947 
Q 3500 1197 3506 1522 
L 2750 1522 
L 2750 1797 
Q 2294 1322 1650 897 
Q 1431 1159 1306 1272 
Q 2200 1797 2719 2484 
L 1581 2484 
L 1581 2897 
L 2981 2897 
Q 3113 3122 3200 3372 
L 1994 3372 
L 1994 3772 
L 3325 3772 
Q 3388 3991 3431 4247 
L 1800 4247 
L 1800 4659 
L 3500 4659 
Q 3544 4966 3575 5316 
L 4050 5316 
Q 4019 4966 3975 4659 
L 5963 4659 
L 5963 4247 
L 3906 4247 
Q 3863 3991 3806 3772 
L 5775 3772 
L 5775 3372 
L 3700 3372 
Q 3625 3128 3513 2897 
L 6200 2897 
L 6200 2484 
L 4788 2484 
Q 5344 1772 6325 1422 
Q 6150 1178 6025 978 
Q 5325 1297 4813 1809 
L 4813 1522 
L 3963 1522 
Q 3956 1191 3925 947 
L 5538 947 
L 5538 534 
L 3856 534 
Q 3844 491 3825 441 
Q 4588 184 5963 -472 
L 5731 -897 
Q 4725 -347 3631 84 
Q 3131 -572 1794 -903 
Q 1694 -709 1519 -472 
Q 3019 -134 3363 534 
L 2000 534 
L 2000 947 
z
M 906 2484 
Q 1213 2359 1425 2297 
Q 1069 1072 669 -397 
L 156 -147 
Q 569 991 906 2484 
z
M 638 5022 
Q 1156 4309 1525 3672 
L 1063 3366 
Q 656 4128 231 4772 
L 638 5022 
z
M 4275 2484 
L 3288 2484 
Q 3100 2191 2863 1922 
L 4706 1922 
Q 4469 2178 4275 2484 
z
" transform="scale(0.015625)"/>
        <path id="MicrosoftYaHei-578b" d="M 150 3503 
L 1100 3503 
Q 1106 3638 1106 4547 
L 413 4547 
L 413 4959 
L 3675 4959 
L 3675 4547 
L 2994 4547 
L 2994 3503 
L 3881 3503 
L 3881 3091 
L 2994 3091 
L 2994 1747 
L 2538 1747 
L 2538 3091 
L 1528 3091 
Q 1450 2191 638 1534 
Q 475 1716 294 1897 
Q 1013 2453 1066 3091 
L 150 3091 
L 150 3503 
z
M 138 -103 
L 2938 -103 
L 2938 741 
L 706 741 
L 706 1172 
L 2938 1172 
L 2938 1659 
L 3425 1659 
L 3425 1172 
L 5713 1172 
L 5713 741 
L 3425 741 
L 3425 -103 
L 6256 -103 
L 6256 -534 
L 138 -534 
L 138 -103 
z
M 5856 5209 
L 5856 2334 
Q 5856 1672 5200 1659 
Q 4825 1647 4331 1659 
Q 4306 1897 4256 2153 
Q 4781 2122 5044 2122 
Q 5400 2122 5400 2516 
L 5400 5209 
L 5856 5209 
z
M 1556 3503 
L 2538 3503 
L 2538 4547 
L 1563 4547 
Q 1563 3791 1556 3503 
z
M 4138 4859 
L 4588 4859 
L 4588 2697 
L 4138 2697 
L 4138 4859 
z
" transform="scale(0.015625)"/>
       </defs>
       <use xlink:href="#MicrosoftYaHei-7d27"/>
       <use xlink:href="#MicrosoftYaHei-51d1" transform="translate(100 0)"/>
       <use xlink:href="#MicrosoftYaHei-578b" transform="translate(200 0)"/>
      </g>
     </g>
    </g>
    <g id="xtick_2">
     <g id="line2d_2">
      <g>
       <use xlink:href="#m388dbc95cc" x="212.707553" y="256.716161" style="stroke: #000000; stroke-width: 0.8"/>
      </g>
     </g>
     <g id="text_2">
      <!-- 轿车 -->
      <g transform="translate(202.707553 271.709911) scale(0.1 -0.1)">
       <defs>
        <path id="MicrosoftYaHei-8f7f" d="M 694 2372 
L 1388 2372 
L 1388 3522 
L 1831 3522 
L 1831 2372 
L 2569 2372 
L 2569 1959 
L 1831 1959 
L 1831 1028 
Q 2231 1072 2669 1128 
Q 2638 872 2625 678 
Q 2281 641 1831 591 
L 1831 -859 
L 1388 -859 
L 1388 534 
Q 831 472 144 384 
L 94 841 
Q 681 897 1388 972 
L 1388 1959 
L 238 1959 
L 238 2372 
Q 531 3153 781 3947 
L 156 3947 
L 156 4359 
L 913 4359 
Q 1063 4841 1194 5328 
L 1669 5234 
Q 1531 4797 1388 4359 
L 2613 4359 
L 2613 3947 
L 1256 3947 
Q 988 3166 694 2372 
z
M 2419 1741 
Q 3469 2366 3794 3053 
L 2575 3053 
L 2575 3497 
L 3944 3497 
Q 4050 3916 4063 4497 
Q 3456 4472 2788 4453 
Q 2750 4703 2694 4897 
Q 4231 4934 5900 5072 
L 6019 4622 
Q 5331 4566 4525 4522 
Q 4500 3941 4413 3497 
L 6238 3497 
L 6238 3053 
L 4869 3053 
Q 5331 2253 6350 1859 
Q 6169 1591 6069 1422 
Q 4900 1959 4425 3053 
L 4288 3053 
Q 3975 2166 2744 1353 
Q 2638 1497 2419 1741 
z
M 3231 653 
Q 3288 978 3281 1697 
L 3744 1697 
Q 3744 972 3694 603 
Q 3563 -353 2575 -884 
Q 2431 -684 2275 -509 
Q 3119 -47 3231 653 
z
M 4913 1697 
L 5375 1697 
L 5375 -803 
L 4913 -803 
L 4913 1697 
z
" transform="scale(0.015625)"/>
        <path id="MicrosoftYaHei-8f66" d="M 163 922 
L 3206 922 
L 3206 1991 
L 913 1991 
L 913 2447 
Q 1334 3200 1688 3909 
L 400 3909 
L 400 4372 
L 1913 4372 
Q 2156 4878 2363 5359 
L 2831 5216 
Q 2625 4772 2434 4372 
L 5950 4372 
L 5950 3909 
L 2209 3909 
Q 1797 3063 1456 2441 
L 3206 2441 
L 3206 3647 
L 3694 3647 
L 3694 2441 
L 5500 2441 
L 5500 1991 
L 3694 1991 
L 3694 922 
L 6188 922 
L 6188 459 
L 3694 459 
L 3694 -853 
L 3206 -853 
L 3206 459 
L 163 459 
L 163 922 
z
" transform="scale(0.015625)"/>
       </defs>
       <use xlink:href="#MicrosoftYaHei-8f7f"/>
       <use xlink:href="#MicrosoftYaHei-8f66" transform="translate(100 0)"/>
      </g>
     </g>
    </g>
    <g id="xtick_3">
     <g id="line2d_3">
      <g>
       <use xlink:href="#m388dbc95cc" x="338.642858" y="256.716161" style="stroke: #000000; stroke-width: 0.8"/>
      </g>
     </g>
     <g id="text_3">
      <!-- SUV -->
      <g transform="translate(328.642858 271.709911) scale(0.1 -0.1)">
       <defs>
        <path id="MicrosoftYaHei-53" d="M 400 909 
Q 622 716 994 591 
Q 1366 466 1700 466 
Q 2719 466 2719 1191 
Q 2719 1394 2609 1556 
Q 2500 1719 2309 1844 
Q 2119 1969 1594 2228 
Q 866 2591 634 2902 
Q 403 3213 403 3613 
Q 403 4216 887 4569 
Q 1372 4922 2109 4922 
Q 2831 4922 3169 4747 
L 3169 4066 
Q 2731 4369 2063 4369 
Q 1619 4369 1339 4183 
Q 1059 3997 1059 3666 
Q 1059 3372 1253 3187 
Q 1447 3003 2094 2684 
Q 2806 2344 3090 2003 
Q 3375 1663 3375 1238 
Q 3375 600 2912 259 
Q 2450 -81 1628 -81 
Q 1341 -81 958 -1 
Q 575 78 400 197 
L 400 909 
z
" transform="scale(0.015625)"/>
        <path id="MicrosoftYaHei-55" d="M 4213 1972 
Q 4213 -81 2350 -81 
Q 566 -81 566 1900 
L 566 4841 
L 1191 4841 
L 1191 1928 
Q 1191 475 2409 475 
Q 3588 475 3588 1881 
L 3588 4841 
L 4213 4841 
L 4213 1972 
z
" transform="scale(0.015625)"/>
        <path id="MicrosoftYaHei-56" d="M 4272 4841 
L 2494 0 
L 1800 0 
L 56 4841 
L 750 4841 
L 2053 1056 
Q 2119 869 2150 622 
L 2166 622 
Q 2191 838 2275 1063 
L 3603 4841 
L 4272 4841 
z
" transform="scale(0.015625)"/>
       </defs>
       <use xlink:href="#MicrosoftYaHei-53"/>
       <use xlink:href="#MicrosoftYaHei-55" transform="translate(57.714844 0)"/>
       <use xlink:href="#MicrosoftYaHei-56" transform="translate(132.373047 0)"/>
      </g>
     </g>
    </g>
    <g id="text_4">
     <!-- 车型 -->
     <g transform="translate(202.207553 286.589286) scale(0.105 -0.105)">
      <use xlink:href="#MicrosoftYaHei-8f66"/>
      <use xlink:href="#MicrosoftYaHei-578b" transform="translate(100 0)"/>
     </g>
    </g>
   </g>
   <g id="matplotlib.axis_2">
    <g id="ytick_1">
     <g id="line2d_4">
      <path d="M 40.931797 256.716161 
L 384.483309 256.716161 
" clip-path="url(#p9293fead09)" style="fill: none; stroke-dasharray: 0.85,2.55; stroke-dashoffset: 0; stroke: #d8dde2; stroke-opacity: 0.35; stroke-width: 0.85"/>
     </g>
     <g id="line2d_5">
      <defs>
       <path id="m15ae09066f" d="M 0 0 
L -3.5 0 
" style="stroke: #4a4f55; stroke-width: 0.8"/>
      </defs>
      <g>
       <use xlink:href="#m15ae09066f" x="40.931797" y="256.716161" style="fill: #4a4f55; stroke: #4a4f55; stroke-width: 0.8"/>
      </g>
     </g>
     <g id="text_5">
      <!-- 0 -->
      <g style="fill: #4a4f55" transform="translate(28.067734 260.713036) scale(0.1 -0.1)">
       <defs>
        <path id="MicrosoftYaHei-30" d="M 284 2325 
Q 284 3606 709 4264 
Q 1134 4922 1941 4922 
Q 3478 4922 3478 2441 
Q 3478 1216 3045 567 
Q 2613 -81 1831 -81 
Q 1094 -81 689 534 
Q 284 1150 284 2325 
z
M 909 2353 
Q 909 425 1888 425 
Q 2850 425 2850 2384 
Q 2850 4413 1906 4413 
Q 909 4413 909 2353 
z
" transform="scale(0.015625)"/>
       </defs>
       <use xlink:href="#MicrosoftYaHei-30"/>
      </g>
     </g>
    </g>
    <g id="ytick_2">
     <g id="line2d_6">
      <path d="M 40.931797 230.635823 
L 384.483309 230.635823 
" clip-path="url(#p9293fead09)" style="fill: none; stroke-dasharray: 0.85,2.55; stroke-dashoffset: 0; stroke: #d8dde2; stroke-opacity: 0.35; stroke-width: 0.85"/>
     </g>
     <g id="line2d_7">
      <g>
       <use xlink:href="#m15ae09066f" x="40.931797" y="230.635823" style="fill: #4a4f55; stroke: #4a4f55; stroke-width: 0.8"/>
      </g>
     </g>
     <g id="text_6">
      <!-- 10 -->
      <g style="fill: #4a4f55" transform="translate(22.203672 234.632698) scale(0.1 -0.1)">
       <defs>
        <path id="MicrosoftYaHei-31" d="M 1781 0 
L 1781 4141 
Q 1638 3997 1295 3819 
Q 953 3641 663 3569 
L 663 4169 
Q 1047 4275 1484 4508 
Q 1922 4741 2156 4947 
L 2388 4947 
L 2388 0 
L 1781 0 
z
" transform="scale(0.015625)"/>
       </defs>
       <use xlink:href="#MicrosoftYaHei-31"/>
       <use xlink:href="#MicrosoftYaHei-30" transform="translate(58.642578 0)"/>
      </g>
     </g>
    </g>
    <g id="ytick_3">
     <g id="line2d_8">
      <path d="M 40.931797 204.555486 
L 384.483309 204.555486 
" clip-path="url(#p9293fead09)" style="fill: none; stroke-dasharray: 0.85,2.55; stroke-dashoffset: 0; stroke: #d8dde2; stroke-opacity: 0.35; stroke-width: 0.85"/>
     </g>
     <g id="line2d_9">
      <g>
       <use xlink:href="#m15ae09066f" x="40.931797" y="204.555486" style="fill: #4a4f55; stroke: #4a4f55; stroke-width: 0.8"/>
      </g>
     </g>
     <g id="text_7">
      <!-- 20 -->
      <g style="fill: #4a4f55" transform="translate(22.203672 208.552361) scale(0.1 -0.1)">
       <defs>
        <path id="MicrosoftYaHei-32" d="M 2666 3572 
Q 2666 3963 2419 4186 
Q 2172 4409 1747 4409 
Q 1447 4409 1140 4256 
Q 834 4103 569 3819 
L 569 4413 
Q 806 4659 1107 4790 
Q 1409 4922 1816 4922 
Q 2472 4922 2872 4570 
Q 3272 4219 3272 3619 
Q 3272 3084 3026 2693 
Q 2781 2303 2188 1894 
Q 1581 1475 1376 1294 
Q 1172 1113 1090 947 
Q 1009 781 1009 544 
L 3416 544 
L 3416 0 
L 372 0 
L 372 241 
Q 372 659 486 951 
Q 600 1244 862 1520 
Q 1125 1797 1681 2184 
Q 2250 2584 2458 2886 
Q 2666 3188 2666 3572 
z
" transform="scale(0.015625)"/>
       </defs>
       <use xlink:href="#MicrosoftYaHei-32"/>
       <use xlink:href="#MicrosoftYaHei-30" transform="translate(58.642578 0)"/>
      </g>
     </g>
    </g>
    <g id="ytick_4">
     <g id="line2d_10">
      <path d="M 40.931797 178.475149 
L 384.483309 178.475149 
" clip-path="url(#p9293fead09)" style="fill: none; stroke-dasharray: 0.85,2.55; stroke-dashoffset: 0; stroke: #d8dde2; stroke-opacity: 0.35; stroke-width: 0.85"/>
     </g>
     <g id="line2d_11">
      <g>
       <use xlink:href="#m15ae09066f" x="40.931797" y="178.475149" style="fill: #4a4f55; stroke: #4a4f55; stroke-width: 0.8"/>
      </g>
     </g>
     <g id="text_8">
      <!-- 30 -->
      <g style="fill: #4a4f55" transform="translate(22.203672 182.472024) scale(0.1 -0.1)">
       <defs>
        <path id="MicrosoftYaHei-33" d="M 447 809 
Q 944 425 1569 425 
Q 2069 425 2361 670 
Q 2653 916 2653 1328 
Q 2653 2247 1338 2247 
L 934 2247 
L 934 2753 
L 1319 2753 
Q 2484 2753 2484 3616 
Q 2484 4413 1594 4413 
Q 1084 4413 634 4069 
L 634 4647 
Q 1109 4922 1744 4922 
Q 2363 4922 2738 4598 
Q 3113 4275 3113 3759 
Q 3113 2809 2144 2538 
L 2144 2525 
Q 2669 2469 2973 2155 
Q 3278 1841 3278 1372 
Q 3278 719 2808 319 
Q 2338 -81 1556 -81 
Q 869 -81 447 175 
L 447 809 
z
" transform="scale(0.015625)"/>
       </defs>
       <use xlink:href="#MicrosoftYaHei-33"/>
       <use xlink:href="#MicrosoftYaHei-30" transform="translate(58.642578 0)"/>
      </g>
     </g>
    </g>
    <g id="ytick_5">
     <g id="line2d_12">
      <path d="M 40.931797 152.394811 
L 384.483309 152.394811 
" clip-path="url(#p9293fead09)" style="fill: none; stroke-dasharray: 0.85,2.55; stroke-dashoffset: 0; stroke: #d8dde2; stroke-opacity: 0.35; stroke-width: 0.85"/>
     </g>
     <g id="line2d_13">
      <g>
       <use xlink:href="#m15ae09066f" x="40.931797" y="152.394811" style="fill: #4a4f55; stroke: #4a4f55; stroke-width: 0.8"/>
      </g>
     </g>
     <g id="text_9">
      <!-- 40 -->
      <g style="fill: #4a4f55" transform="translate(22.203672 156.391686) scale(0.1 -0.1)">
       <defs>
        <path id="MicrosoftYaHei-34" d="M 2906 4841 
L 2906 1644 
L 3631 1644 
L 3631 1138 
L 2906 1138 
L 2906 0 
L 2313 0 
L 2313 1138 
L 53 1138 
L 53 1616 
Q 656 2294 1265 3178 
Q 1875 4063 2272 4841 
L 2906 4841 
z
M 741 1644 
L 2313 1644 
L 2313 3950 
Q 1988 3366 1616 2817 
Q 1244 2269 741 1644 
z
" transform="scale(0.015625)"/>
       </defs>
       <use xlink:href="#MicrosoftYaHei-34"/>
       <use xlink:href="#MicrosoftYaHei-30" transform="translate(58.642578 0)"/>
      </g>
     </g>
    </g>
    <g id="ytick_6">
     <g id="line2d_14">
      <path d="M 40.931797 126.314474 
L 384.483309 126.314474 
" clip-path="url(#p9293fead09)" style="fill: none; stroke-dasharray: 0.85,2.55; stroke-dashoffset: 0; stroke: #d8dde2; stroke-opacity: 0.35; stroke-width: 0.85"/>
     </g>
     <g id="line2d_15">
      <g>
       <use xlink:href="#m15ae09066f" x="40.931797" y="126.314474" style="fill: #4a4f55; stroke: #4a4f55; stroke-width: 0.8"/>
      </g>
     </g>
     <g id="text_10">
      <!-- 50 -->
      <g style="fill: #4a4f55" transform="translate(22.203672 130.311349) scale(0.1 -0.1)">
       <defs>
        <path id="MicrosoftYaHei-35" d="M 3294 1494 
Q 3294 784 2823 350 
Q 2353 -84 1559 -84 
Q 878 -84 544 119 
L 544 744 
Q 1034 425 1544 425 
Q 2050 425 2361 704 
Q 2672 984 2672 1447 
Q 2672 1909 2348 2167 
Q 2025 2425 1434 2425 
Q 978 2425 613 2384 
L 791 4841 
L 3053 4841 
L 3053 4303 
L 1306 4303 
L 1206 2931 
L 1647 2950 
Q 2416 2950 2855 2567 
Q 3294 2184 3294 1494 
z
" transform="scale(0.015625)"/>
       </defs>
       <use xlink:href="#MicrosoftYaHei-35"/>
       <use xlink:href="#MicrosoftYaHei-30" transform="translate(58.642578 0)"/>
      </g>
     </g>
    </g>
    <g id="ytick_7">
     <g id="line2d_16">
      <path d="M 40.931797 100.234137 
L 384.483309 100.234137 
" clip-path="url(#p9293fead09)" style="fill: none; stroke-dasharray: 0.85,2.55; stroke-dashoffset: 0; stroke: #d8dde2; stroke-opacity: 0.35; stroke-width: 0.85"/>
     </g>
     <g id="line2d_17">
      <g>
       <use xlink:href="#m15ae09066f" x="40.931797" y="100.234137" style="fill: #4a4f55; stroke: #4a4f55; stroke-width: 0.8"/>
      </g>
     </g>
     <g id="text_11">
      <!-- 60 -->
      <g style="fill: #4a4f55" transform="translate(22.203672 104.231012) scale(0.1 -0.1)">
       <defs>
        <path id="MicrosoftYaHei-36" d="M 3181 4219 
Q 2803 4413 2391 4413 
Q 1763 4413 1381 3866 
Q 1000 3319 994 2372 
L 1009 2372 
Q 1353 3038 2106 3038 
Q 2734 3038 3109 2628 
Q 3484 2219 3484 1541 
Q 3484 831 3051 375 
Q 2619 -81 1947 -81 
Q 1209 -81 789 495 
Q 369 1072 369 2131 
Q 369 3413 920 4167 
Q 1472 4922 2372 4922 
Q 2888 4922 3181 4781 
L 3181 4219 
z
M 1031 1584 
Q 1031 1106 1286 765 
Q 1541 425 1963 425 
Q 2363 425 2613 719 
Q 2863 1013 2863 1475 
Q 2863 1975 2627 2253 
Q 2391 2531 1956 2531 
Q 1544 2531 1287 2250 
Q 1031 1969 1031 1584 
z
" transform="scale(0.015625)"/>
       </defs>
       <use xlink:href="#MicrosoftYaHei-36"/>
       <use xlink:href="#MicrosoftYaHei-30" transform="translate(58.642578 0)"/>
      </g>
     </g>
    </g>
    <g id="ytick_8">
     <g id="line2d_18">
      <path d="M 40.931797 74.1538 
L 384.483309 74.1538 
" clip-path="url(#p9293fead09)" style="fill: none; stroke-dasharray: 0.85,2.55; stroke-dashoffset: 0; stroke: #d8dde2; stroke-opacity: 0.35; stroke-width: 0.85"/>
     </g>
     <g id="line2d_19">
      <g>
       <use xlink:href="#m15ae09066f" x="40.931797" y="74.1538" style="fill: #4a4f55; stroke: #4a4f55; stroke-width: 0.8"/>
      </g>
     </g>
     <g id="text_12">
      <!-- 70 -->
      <g style="fill: #4a4f55" transform="translate(22.203672 78.150675) scale(0.1 -0.1)">
       <defs>
        <path id="MicrosoftYaHei-37" d="M 3422 4463 
Q 2659 3131 2223 1998 
Q 1788 866 1684 0 
L 1047 0 
Q 1163 853 1594 1947 
Q 2025 3041 2747 4300 
L 347 4300 
L 347 4841 
L 3422 4841 
L 3422 4463 
z
" transform="scale(0.015625)"/>
       </defs>
       <use xlink:href="#MicrosoftYaHei-37"/>
       <use xlink:href="#MicrosoftYaHei-30" transform="translate(58.642578 0)"/>
      </g>
     </g>
    </g>
    <g id="ytick_9">
     <g id="line2d_20">
      <path d="M 40.931797 48.073462 
L 384.483309 48.073462 
" clip-path="url(#p9293fead09)" style="fill: none; stroke-dasharray: 0.85,2.55; stroke-dashoffset: 0; stroke: #d8dde2; stroke-opacity: 0.35; stroke-width: 0.85"/>
     </g>
     <g id="line2d_21">
      <g>
       <use xlink:href="#m15ae09066f" x="40.931797" y="48.073462" style="fill: #4a4f55; stroke: #4a4f55; stroke-width: 0.8"/>
      </g>
     </g>
     <g id="text_13">
      <!-- 80 -->
      <g style="fill: #4a4f55" transform="translate(22.203672 52.070337) scale(0.1 -0.1)">
       <defs>
        <path id="MicrosoftYaHei-38" d="M 306 1350 
Q 306 1769 556 2122 
Q 806 2475 1200 2625 
Q 884 2803 700 3081 
Q 516 3359 516 3684 
Q 516 4028 692 4312 
Q 869 4597 1183 4759 
Q 1497 4922 1875 4922 
Q 2256 4922 2572 4761 
Q 2888 4600 3063 4315 
Q 3238 4031 3238 3684 
Q 3238 3366 3058 3086 
Q 2878 2806 2559 2625 
Q 2953 2472 3200 2119 
Q 3447 1766 3447 1350 
Q 3447 938 3250 611 
Q 3053 284 2690 103 
Q 2328 -78 1875 -78 
Q 1425 -78 1065 103 
Q 706 284 506 612 
Q 306 941 306 1350 
z
M 906 1378 
Q 906 947 1172 687 
Q 1438 428 1878 428 
Q 2309 428 2582 692 
Q 2856 956 2856 1378 
Q 2856 1778 2579 2051 
Q 2303 2325 1878 2325 
Q 1456 2325 1181 2058 
Q 906 1791 906 1378 
z
M 1081 3634 
Q 1081 3309 1312 3076 
Q 1544 2844 1878 2844 
Q 2206 2844 2445 3078 
Q 2684 3313 2684 3634 
Q 2684 3963 2454 4191 
Q 2225 4419 1878 4419 
Q 1534 4419 1307 4195 
Q 1081 3972 1081 3634 
z
" transform="scale(0.015625)"/>
       </defs>
       <use xlink:href="#MicrosoftYaHei-38"/>
       <use xlink:href="#MicrosoftYaHei-30" transform="translate(58.642578 0)"/>
      </g>
     </g>
    </g>
    <g id="ytick_10">
     <g id="line2d_22">
      <path d="M 40.931797 21.993125 
L 384.483309 21.993125 
" clip-path="url(#p9293fead09)" style="fill: none; stroke-dasharray: 0.85,2.55; stroke-dashoffset: 0; stroke: #d8dde2; stroke-opacity: 0.35; stroke-width: 0.85"/>
     </g>
     <g id="line2d_23">
      <g>
       <use xlink:href="#m15ae09066f" x="40.931797" y="21.993125" style="fill: #4a4f55; stroke: #4a4f55; stroke-width: 0.8"/>
      </g>
     </g>
     <g id="text_14">
      <!-- 90 -->
      <g style="fill: #4a4f55" transform="translate(22.203672 25.99) scale(0.1 -0.1)">
       <defs>
        <path id="MicrosoftYaHei-39" d="M 578 656 
Q 978 425 1441 425 
Q 2091 425 2448 937 
Q 2806 1450 2806 2394 
Q 2800 2388 2794 2394 
Q 2475 1788 1722 1788 
Q 1113 1788 713 2206 
Q 313 2625 313 3294 
Q 313 4006 750 4464 
Q 1188 4922 1884 4922 
Q 2606 4922 3012 4355 
Q 3419 3788 3419 2703 
Q 3419 1363 2894 641 
Q 2369 -81 1441 -81 
Q 931 -81 578 84 
L 578 656 
z
M 931 3372 
Q 931 2884 1181 2598 
Q 1431 2313 1872 2313 
Q 2253 2313 2512 2573 
Q 2772 2834 2772 3206 
Q 2772 3728 2514 4070 
Q 2256 4413 1834 4413 
Q 1444 4413 1187 4116 
Q 931 3819 931 3372 
z
" transform="scale(0.015625)"/>
       </defs>
       <use xlink:href="#MicrosoftYaHei-39"/>
       <use xlink:href="#MicrosoftYaHei-30" transform="translate(58.642578 0)"/>
      </g>
     </g>
    </g>
    <g id="text_15">
     <!-- 平均电池容量（kWh） -->
     <g style="fill: #4a4f55" transform="translate(15.593438 192.788158) rotate(-90) scale(0.105 -0.105)">
      <defs>
       <path id="MicrosoftYaHei-5e73" d="M 169 1934 
L 2938 1934 
L 2938 4547 
L 450 4547 
L 450 5028 
L 5975 5028 
L 5975 4547 
L 3463 4547 
L 3463 1934 
L 6250 1934 
L 6250 1453 
L 3463 1453 
L 3463 -847 
L 2938 -847 
L 2938 1453 
L 169 1453 
L 169 1934 
z
M 3950 2559 
Q 4638 3284 5188 4159 
L 5656 3859 
Q 4950 2891 4338 2234 
L 3950 2559 
z
M 769 3859 
L 1163 4134 
Q 1863 3316 2369 2553 
L 1925 2222 
Q 1444 3003 769 3859 
z
" transform="scale(0.015625)"/>
       <path id="MicrosoftYaHei-5747" d="M 2244 2803 
Q 2931 3953 3338 5322 
L 3838 5172 
Q 3691 4744 3531 4347 
L 6013 4347 
Q 5925 1053 5875 297 
Q 5831 -697 4806 -697 
Q 4188 -697 3706 -672 
Q 3669 -422 3606 -141 
L 3625 -141 
Q 4250 -209 4775 -209 
Q 5350 -209 5394 378 
Q 5456 1447 5513 3891 
L 3341 3891 
Q 3028 3172 2675 2572 
Q 2481 2691 2244 2803 
z
M 81 428 
Q 559 600 1006 769 
L 1006 3253 
L 169 3253 
L 169 3697 
L 1006 3697 
L 1006 5259 
L 1469 5259 
L 1469 3697 
L 2281 3697 
L 2281 3253 
L 1469 3253 
L 1469 947 
Q 1922 1125 2338 1303 
Q 2350 991 2369 784 
Q 1363 403 250 -53 
L 81 428 
z
M 2513 853 
Q 3769 1353 5119 1934 
Q 5150 1641 5188 1434 
Q 4031 947 2706 359 
L 2513 853 
z
M 3138 2909 
L 3481 3216 
Q 4025 2716 4531 2216 
L 4125 1859 
Q 3644 2409 3138 2909 
z
" transform="scale(0.015625)"/>
       <path id="MicrosoftYaHei-7535" d="M 406 4497 
L 2713 4497 
L 2713 5297 
L 3231 5297 
L 3231 4497 
L 5544 4497 
L 5544 984 
L 3231 984 
L 3231 253 
Q 3231 -128 3631 -128 
L 5094 -128 
Q 5519 -128 5613 153 
Q 5713 459 5756 1034 
Q 5938 953 6275 841 
Q 6200 341 6106 -16 
Q 5950 -603 5256 -603 
L 3594 -603 
Q 2713 -603 2713 259 
L 2713 984 
L 925 984 
L 925 553 
L 406 553 
L 406 4497 
z
M 5025 1453 
L 5025 2522 
L 3231 2522 
L 3231 1453 
L 5025 1453 
z
M 925 1453 
L 2713 1453 
L 2713 2522 
L 925 2522 
L 925 1453 
z
M 5025 4028 
L 3231 4028 
L 3231 2966 
L 5025 2966 
L 5025 4028 
z
M 925 2966 
L 2713 2966 
L 2713 4028 
L 925 4028 
L 925 2966 
z
" transform="scale(0.015625)"/>
       <path id="MicrosoftYaHei-6c60" d="M 3763 5303 
L 4250 5303 
L 4250 3769 
L 5919 4147 
Q 5875 2766 5850 2228 
Q 5825 1697 5656 1484 
Q 5494 1284 5069 1284 
Q 4875 1284 4575 1291 
Q 4538 1534 4481 1809 
Q 4788 1766 5050 1766 
Q 5344 1766 5369 2234 
Q 5394 2566 5413 3566 
L 4250 3297 
L 4250 509 
L 3763 509 
L 3763 3184 
L 2688 2938 
L 2688 353 
Q 2688 -128 3169 -128 
L 5125 -128 
Q 5588 -128 5663 291 
Q 5731 628 5794 1266 
Q 6044 1166 6319 1084 
Q 6244 509 6138 72 
Q 5975 -603 5244 -603 
L 3075 -603 
Q 2200 -603 2200 272 
L 2200 2825 
L 1694 2709 
L 1613 3172 
L 2200 3303 
L 2200 4572 
L 2688 4572 
L 2688 3416 
L 3763 3659 
L 3763 5303 
z
M 994 1784 
Q 1313 1616 1525 1534 
Q 1194 472 819 -753 
L 256 -503 
Q 713 641 994 1784 
z
M 700 5209 
Q 1319 4728 1781 4328 
Q 1563 4091 1406 3928 
Q 938 4384 375 4866 
L 700 5209 
z
M 400 3603 
Q 975 3191 1481 2759 
Q 1250 2484 1119 2347 
Q 650 2778 88 3241 
L 400 3603 
z
" transform="scale(0.015625)"/>
       <path id="MicrosoftYaHei-5bb9" d="M 3550 3147 
Q 3500 3091 3444 3022 
Q 4644 1872 6313 1447 
Q 6106 1134 6006 916 
Q 5594 1066 5225 1247 
L 5225 -859 
L 4725 -859 
L 4725 -578 
L 1669 -578 
L 1669 -859 
L 1169 -859 
L 1169 1191 
Q 763 972 338 797 
Q 225 1028 63 1241 
Q 2000 2059 3025 3228 
L 3550 3147 
z
M 363 4572 
L 3038 4572 
Q 2900 4822 2725 5109 
L 3206 5328 
Q 3438 4972 3644 4572 
L 6031 4572 
L 6031 3522 
L 5525 3522 
L 5525 4122 
L 863 4122 
L 863 3497 
L 363 3497 
L 363 4572 
z
M 4725 934 
L 1669 934 
L 1669 -128 
L 4725 -128 
L 4725 934 
z
M 3163 2684 
Q 2394 1928 1494 1384 
L 4950 1384 
Q 3869 1953 3163 2684 
z
M 2338 3847 
L 2638 3441 
Q 1488 2734 706 2359 
Q 594 2566 419 2791 
Q 1494 3259 2338 3847 
z
M 4006 3841 
Q 4944 3409 5938 2859 
L 5650 2416 
Q 4875 2891 3744 3453 
L 4006 3841 
z
" transform="scale(0.015625)"/>
       <path id="MicrosoftYaHei-91cf" d="M 113 -278 
L 2981 -278 
L 2981 78 
L 475 78 
L 475 403 
L 2981 403 
L 2981 759 
L 1494 759 
L 1494 597 
L 1069 597 
L 1069 2516 
L 5350 2516 
L 5350 597 
L 4925 597 
L 4925 759 
L 3419 759 
L 3419 403 
L 5931 403 
L 5931 78 
L 3419 78 
L 3419 -278 
L 6288 -278 
L 6288 -616 
L 113 -616 
L 113 -278 
z
M 1119 5072 
L 5306 5072 
L 5306 3284 
L 4881 3284 
L 4881 3453 
L 1544 3453 
L 1544 3284 
L 1119 3284 
L 1119 5072 
z
M 163 3153 
L 6263 3153 
L 6263 2816 
L 163 2816 
L 163 3153 
z
M 1544 3778 
L 4881 3778 
L 4881 4116 
L 1544 4116 
L 1544 3778 
z
M 4881 4747 
L 1544 4747 
L 1544 4416 
L 4881 4416 
L 4881 4747 
z
M 3419 1084 
L 4925 1084 
L 4925 1491 
L 3419 1491 
L 3419 1084 
z
M 1494 1084 
L 2981 1084 
L 2981 1491 
L 1494 1491 
L 1494 1084 
z
M 4925 2191 
L 3419 2191 
L 3419 1791 
L 4925 1791 
L 4925 2191 
z
M 1494 1791 
L 2981 1791 
L 2981 2191 
L 1494 2191 
L 1494 1791 
z
" transform="scale(0.015625)"/>
       <path id="MicrosoftYaHei-ff08" d="M 5288 -1100 
Q 4172 119 4172 1850 
Q 4172 3603 5288 4838 
L 5825 4838 
Q 4716 3572 4716 1856 
Q 4716 166 5819 -1100 
L 5288 -1100 
z
" transform="scale(0.015625)"/>
       <path id="MicrosoftYaHei-6b" d="M 3484 0 
L 2650 0 
L 1172 1666 
L 1159 1666 
L 1159 0 
L 547 0 
L 547 5116 
L 1159 5116 
L 1159 1872 
L 1172 1872 
L 2575 3456 
L 3363 3456 
L 1800 1794 
L 3484 0 
z
" transform="scale(0.015625)"/>
       <path id="MicrosoftYaHei-57" d="M 6431 4841 
L 5075 0 
L 4347 0 
L 3372 3488 
Q 3306 3725 3294 3988 
L 3281 3988 
Q 3263 3728 3194 3494 
L 2209 0 
L 1488 0 
L 84 4841 
L 775 4841 
L 1763 1184 
Q 1828 938 1841 688 
L 1859 688 
Q 1875 875 1963 1184 
L 3009 4841 
L 3625 4841 
L 4625 1156 
Q 4675 975 4706 694 
L 4719 694 
Q 4734 897 4809 1169 
L 5759 4841 
L 6431 4841 
z
" transform="scale(0.015625)"/>
       <path id="MicrosoftYaHei-68" d="M 3466 0 
L 2856 0 
L 2856 1988 
Q 2856 3031 2081 3031 
Q 1684 3031 1421 2726 
Q 1159 2422 1159 1959 
L 1159 0 
L 547 0 
L 547 5116 
L 1159 5116 
L 1159 2888 
L 1172 2888 
Q 1569 3538 2300 3538 
Q 3466 3538 3466 2128 
L 3466 0 
z
" transform="scale(0.015625)"/>
       <path id="MicrosoftYaHei-ff09" d="M 1113 -1100 
L 575 -1100 
Q 1684 163 1684 1888 
Q 1684 3581 581 4838 
L 1113 4838 
Q 2222 3628 2222 1888 
Q 2222 128 1113 -1100 
z
" transform="scale(0.015625)"/>
      </defs>
      <use xlink:href="#MicrosoftYaHei-5e73"/>
      <use xlink:href="#MicrosoftYaHei-5747" transform="translate(100 0)"/>
      <use xlink:href="#MicrosoftYaHei-7535" transform="translate(200 0)"/>
      <use xlink:href="#MicrosoftYaHei-6c60" transform="translate(300 0)"/>
      <use xlink:href="#MicrosoftYaHei-5bb9" transform="translate(400 0)"/>
      <use xlink:href="#MicrosoftYaHei-91cf" transform="translate(500 0)"/>
      <use xlink:href="#MicrosoftYaHei-ff08" transform="translate(600 0)"/>
      <use xlink:href="#MicrosoftYaHei-6b" transform="translate(700 0)"/>
      <use xlink:href="#MicrosoftYaHei-57" transform="translate(754.443359 0)"/>
      <use xlink:href="#MicrosoftYaHei-68" transform="translate(856.201172 0)"/>
      <use xlink:href="#MicrosoftYaHei-ff09" transform="translate(917.773438 0)"/>
     </g>
    </g>
   </g>
   <g id="patch_3">
    <path d="M 56.547775 256.716161 
L 116.996721 256.716161 
L 116.996721 126.314474 
L 56.547775 126.314474 
z
" clip-path="url(#p9293fead09)" style="fill: #8faab8; stroke: #5f7380; stroke-width: 0.55; stroke-linejoin: miter"/>
   </g>
   <g id="patch_4">
    <path d="M 182.48308 256.716161 
L 242.932026 256.716161 
L 242.932026 100.234137 
L 182.48308 100.234137 
z
" clip-path="url(#p9293fead09)" style="fill: #8faab8; stroke: #5f7380; stroke-width: 0.55; stroke-linejoin: miter"/>
   </g>
   <g id="patch_5">
    <path d="M 308.418385 256.716161 
L 368.867331 256.716161 
L 368.867331 61.113631 
L 308.418385 61.113631 
z
" clip-path="url(#p9293fead09)" style="fill: #8faab8; stroke: #5f7380; stroke-width: 0.55; stroke-linejoin: miter"/>
   </g>
   <g id="patch_6">
    <path d="M 40.931797 256.716161 
L 40.931797 21.993125 
" style="fill: none; stroke: #3a3f45; stroke-width: 0.9; stroke-linejoin: miter; stroke-linecap: square"/>
   </g>
   <g id="patch_7">
    <path d="M 384.483309 256.716161 
L 384.483309 21.993125 
" style="fill: none; stroke: #3a3f45; stroke-width: 0.9; stroke-linejoin: miter; stroke-linecap: square"/>
   </g>
   <g id="patch_8">
    <path d="M 40.931797 256.716161 
L 384.483309 256.716161 
" style="fill: none; stroke: #3a3f45; stroke-width: 0.9; stroke-linejoin: miter; stroke-linecap: square"/>
   </g>
   <g id="text_16">
    <!-- 50.0 -->
    <g style="fill: #4a4f55" transform="translate(77.772248 120.16508) scale(0.09 -0.09)">
     <defs>
      <path id="MicrosoftYaHei-2e" d="M 372 322 
Q 372 491 487 606 
Q 603 722 775 722 
Q 950 722 1065 605 
Q 1181 488 1181 322 
Q 1181 159 1065 42 
Q 950 -75 772 -75 
Q 600 -75 486 42 
Q 372 159 372 322 
z
" transform="scale(0.015625)"/>
     </defs>
     <use xlink:href="#MicrosoftYaHei-35"/>
     <use xlink:href="#MicrosoftYaHei-30" transform="translate(58.642578 0)"/>
     <use xlink:href="#MicrosoftYaHei-2e" transform="translate(117.285156 0)"/>
     <use xlink:href="#MicrosoftYaHei-30" transform="translate(141.357422 0)"/>
    </g>
   </g>
   <g id="text_17">
    <!-- 60.0 -->
    <g style="fill: #4a4f55" transform="translate(203.707553 94.084743) scale(0.09 -0.09)">
     <use xlink:href="#MicrosoftYaHei-36"/>
     <use xlink:href="#MicrosoftYaHei-30" transform="translate(58.642578 0)"/>
     <use xlink:href="#MicrosoftYaHei-2e" transform="translate(117.285156 0)"/>
     <use xlink:href="#MicrosoftYaHei-30" transform="translate(141.357422 0)"/>
    </g>
   </g>
   <g id="text_18">
    <!-- 75.0 -->
    <g style="fill: #4a4f55" transform="translate(329.642858 54.964237) scale(0.09 -0.09)">
     <use xlink:href="#MicrosoftYaHei-37"/>
     <use xlink:href="#MicrosoftYaHei-35" transform="translate(58.642578 0)"/>
     <use xlink:href="#MicrosoftYaHei-2e" transform="translate(117.285156 0)"/>
     <use xlink:href="#MicrosoftYaHei-30" transform="translate(141.357422 0)"/>
    </g>
   </g>
   <g id="text_19">
    <!-- （a）平均电池容量与单位吞吐退化成本 -->
    <g style="fill: #4a4f55" transform="translate(40.931797 15.993125) scale(0.11 -0.11)">
     <defs>
      <path id="MicrosoftYaHei-61" d="M 628 3216 
Q 1144 3538 1819 3538 
Q 3069 3538 3069 2225 
L 3069 0 
L 2463 0 
L 2463 534 
L 2447 534 
Q 2088 -81 1388 -81 
Q 884 -81 587 191 
Q 291 463 291 925 
Q 291 1894 1438 2053 
L 2463 2197 
Q 2463 3044 1763 3044 
Q 1141 3044 628 2625 
L 628 3216 
z
M 1653 1625 
Q 1228 1569 1067 1412 
Q 906 1256 906 975 
Q 906 728 1081 572 
Q 1256 416 1544 416 
Q 1944 416 2203 697 
Q 2463 978 2463 1403 
L 2463 1734 
L 1653 1625 
z
" transform="scale(0.015625)"/>
      <path id="MicrosoftYaHei-4e0e" d="M 1163 2384 
L 1163 2859 
L 1413 5328 
L 1931 5328 
L 1834 4334 
L 6269 4334 
L 6269 3859 
L 1791 3859 
L 1694 2859 
L 5813 2859 
Q 5738 1547 5644 416 
Q 5556 -247 5263 -478 
Q 4981 -703 4322 -703 
Q 3706 -697 2900 -678 
Q 2863 -466 2794 -134 
Q 3744 -203 4213 -209 
Q 5050 -266 5125 447 
Q 5206 1278 5263 2384 
L 1163 2384 
z
M 106 1409 
L 4738 1409 
L 4738 934 
L 106 934 
L 106 1409 
z
" transform="scale(0.015625)"/>
      <path id="MicrosoftYaHei-5355" d="M 125 909 
L 2956 909 
L 2956 1616 
L 1225 1616 
L 1225 1322 
L 750 1322 
L 750 4353 
L 2047 4353 
Q 1747 4703 1400 5072 
L 1756 5366 
Q 2219 4922 2569 4547 
L 2338 4353 
L 3803 4353 
Q 4147 4809 4500 5347 
L 5000 5078 
Q 4678 4688 4378 4353 
L 5656 4353 
L 5656 1322 
L 5181 1322 
L 5181 1616 
L 3444 1616 
L 3444 909 
L 6275 909 
L 6275 459 
L 3444 459 
L 3444 -859 
L 2956 -859 
L 2956 459 
L 125 459 
L 125 909 
z
M 3444 2053 
L 5181 2053 
L 5181 2778 
L 3444 2778 
L 3444 2053 
z
M 1225 2053 
L 2956 2053 
L 2956 2778 
L 1225 2778 
L 1225 2053 
z
M 5181 3916 
L 3444 3916 
L 3444 3203 
L 5181 3203 
L 5181 3916 
z
M 1225 3203 
L 2956 3203 
L 2956 3916 
L 1225 3916 
L 1225 3203 
z
" transform="scale(0.015625)"/>
      <path id="MicrosoftYaHei-4f4d" d="M 1788 -59 
L 4228 -59 
Q 4678 1144 5269 3372 
L 5831 3203 
Q 5453 2044 4756 -59 
L 6319 -59 
L 6319 -522 
L 1788 -522 
L 1788 -59 
z
M 81 2291 
Q 975 3641 1431 5322 
L 1963 5191 
Q 1703 4397 1406 3709 
L 1406 -853 
L 938 -853 
L 938 2731 
Q 644 2181 319 1716 
Q 231 1953 81 2291 
z
M 1919 4191 
L 4122 4191 
Q 3844 4659 3506 5059 
L 3931 5353 
Q 4206 5034 4613 4497 
L 4150 4191 
L 6206 4191 
L 6206 3728 
L 1919 3728 
L 1919 4191 
z
M 2769 3309 
Q 3181 2184 3669 584 
L 3150 434 
Q 2725 1966 2294 3147 
L 2769 3309 
z
" transform="scale(0.015625)"/>
      <path id="MicrosoftYaHei-541e" d="M 238 3522 
L 2547 3522 
Q 2781 3972 2925 4522 
L 706 4522 
L 706 4959 
L 5719 4959 
L 5719 4522 
L 3459 4522 
Q 3294 3963 3097 3522 
L 6169 3522 
L 6169 3084 
L 4028 3084 
Q 4844 2038 6331 1753 
Q 6150 1503 6006 1259 
Q 5569 1391 5194 1572 
L 5194 -841 
L 4706 -841 
L 4706 -428 
L 1750 -428 
L 1750 -853 
L 1263 -853 
L 1263 1594 
Q 875 1363 413 1147 
Q 256 1366 75 1572 
Q 1575 2166 2269 3084 
L 238 3084 
L 238 3522 
z
M 4706 1322 
L 1750 1322 
L 1750 -9 
L 4706 -9 
L 4706 1322 
z
M 1509 1747 
L 4869 1747 
Q 4006 2256 3522 3084 
L 2875 3084 
Q 2453 2363 1509 1747 
z
" transform="scale(0.015625)"/>
      <path id="MicrosoftYaHei-5410" d="M 519 4528 
L 2375 4528 
L 2375 503 
L 994 503 
L 994 59 
L 519 59 
L 519 4528 
z
M 2363 16 
L 4200 16 
L 4200 2878 
L 2838 2878 
L 2838 3353 
L 4200 3353 
L 4200 5247 
L 4731 5247 
L 4731 3353 
L 6069 3353 
L 6069 2878 
L 4731 2878 
L 4731 16 
L 6306 16 
L 6306 -453 
L 2363 -453 
L 2363 16 
z
M 1900 4072 
L 994 4072 
L 994 959 
L 1900 959 
L 1900 4072 
z
" transform="scale(0.015625)"/>
      <path id="MicrosoftYaHei-9000" d="M 4094 1216 
Q 4100 959 4125 722 
Q 3531 497 2925 203 
Q 2750 109 2575 -16 
L 2219 453 
Q 2400 628 2400 878 
L 2400 5028 
L 5544 5028 
L 5544 2178 
L 5075 2178 
L 5075 2341 
L 2875 2341 
L 2875 709 
Q 3375 903 4094 1216 
z
M 2644 -222 
Q 4419 -247 6300 -197 
Q 6231 -403 6125 -691 
Q 4306 -703 2569 -666 
Q 1519 -647 1081 66 
Q 825 -172 331 -772 
L 75 -253 
Q 625 278 875 509 
L 875 2616 
L 131 2616 
L 131 3078 
L 1356 3078 
L 1356 409 
Q 1744 -197 2644 -222 
z
M 5794 2209 
L 6113 1778 
Q 5506 1534 4931 1297 
Q 5606 878 6056 584 
L 5744 147 
Q 4719 891 3319 1778 
L 3575 2122 
Q 4081 1816 4513 1553 
Q 5138 1853 5794 2209 
z
M 5075 4603 
L 2875 4603 
L 2875 3891 
L 5075 3891 
L 5075 4603 
z
M 5075 2766 
L 5075 3478 
L 2875 3478 
L 2875 2766 
L 5075 2766 
z
M 856 5178 
Q 1175 4791 1731 3997 
L 1288 3684 
Q 781 4478 456 4909 
L 856 5178 
z
" transform="scale(0.015625)"/>
      <path id="MicrosoftYaHei-5316" d="M 1844 1453 
Q 2663 1834 3375 2331 
L 3375 5197 
L 3913 5197 
L 3913 2734 
Q 4869 3506 5613 4516 
L 6069 4184 
Q 5159 2975 3913 2069 
L 3913 303 
Q 3913 -122 4363 -122 
L 5156 -122 
Q 5581 -122 5650 284 
Q 5738 709 5763 1266 
Q 6025 1166 6313 1084 
Q 6263 559 6181 122 
Q 6063 -597 5281 -597 
L 4225 -597 
Q 3375 -597 3375 241 
L 3375 1703 
Q 2791 1328 2144 1016 
Q 2013 1222 1844 1453 
z
M 88 2222 
Q 1175 3666 1688 5291 
L 2231 5134 
Q 1934 4359 1588 3675 
L 1588 -797 
L 1063 -797 
L 1063 2734 
Q 716 2172 325 1678 
Q 219 1947 88 2222 
z
" transform="scale(0.015625)"/>
      <path id="MicrosoftYaHei-6210" d="M 2750 -347 
Q 3472 138 4038 781 
Q 3675 1703 3609 3759 
L 1250 3759 
L 1250 2809 
L 3050 2809 
Q 3013 1616 2950 803 
Q 2875 -59 2113 -59 
Q 1856 -59 1431 -34 
Q 1394 197 1331 484 
Q 1769 422 2063 422 
Q 2425 422 2469 922 
Q 2519 1497 2544 2347 
L 1247 2347 
Q 1197 175 369 -866 
Q 213 -653 44 -434 
Q 750 503 750 2528 
L 750 4222 
L 3591 4222 
Q 3569 4716 3550 5291 
L 4069 5291 
Q 4066 4850 4084 4222 
L 6238 4222 
L 6238 3759 
L 4100 3759 
Q 4163 2078 4409 1247 
Q 5016 2069 5406 3109 
L 5900 2903 
Q 5363 1631 4609 691 
Q 5069 -244 5506 -244 
Q 5666 -244 5750 47 
Q 5838 503 5888 984 
Q 6156 878 6363 809 
Q 6269 141 6156 -284 
Q 6038 -741 5631 -778 
Q 5250 -803 4900 -522 
Q 4522 -231 4256 278 
Q 3728 -291 3106 -722 
Q 2944 -534 2750 -347 
z
M 4544 4984 
L 4806 5309 
Q 5331 5009 5788 4684 
L 5488 4309 
Q 5038 4666 4544 4984 
z
" transform="scale(0.015625)"/>
      <path id="MicrosoftYaHei-672c" d="M 6281 803 
Q 6119 641 5856 366 
Q 4344 1531 3444 3353 
L 3444 878 
L 4875 878 
L 4875 441 
L 3444 441 
L 3444 -841 
L 2956 -841 
L 2956 441 
L 1475 441 
L 1475 878 
L 2956 878 
L 2956 3353 
Q 2159 1766 513 291 
Q 269 522 100 666 
Q 1878 2125 2759 3753 
L 238 3753 
L 238 4216 
L 2956 4216 
L 2956 5341 
L 3444 5341 
L 3444 4216 
L 6163 4216 
L 6163 3753 
L 3622 3753 
Q 4616 1884 6281 803 
z
" transform="scale(0.015625)"/>
     </defs>
     <use xlink:href="#MicrosoftYaHei-ff08"/>
     <use xlink:href="#MicrosoftYaHei-61" transform="translate(100 0)"/>
     <use xlink:href="#MicrosoftYaHei-ff09" transform="translate(155.273438 0)"/>
     <use xlink:href="#MicrosoftYaHei-5e73" transform="translate(255.273438 0)"/>
     <use xlink:href="#MicrosoftYaHei-5747" transform="translate(355.273438 0)"/>
     <use xlink:href="#MicrosoftYaHei-7535" transform="translate(455.273438 0)"/>
     <use xlink:href="#MicrosoftYaHei-6c60" transform="translate(555.273438 0)"/>
     <use xlink:href="#MicrosoftYaHei-5bb9" transform="translate(655.273438 0)"/>
     <use xlink:href="#MicrosoftYaHei-91cf" transform="translate(755.273438 0)"/>
     <use xlink:href="#MicrosoftYaHei-4e0e" transform="translate(855.273438 0)"/>
     <use xlink:href="#MicrosoftYaHei-5355" transform="translate(955.273438 0)"/>
     <use xlink:href="#MicrosoftYaHei-4f4d" transform="translate(1055.273438 0)"/>
     <use xlink:href="#MicrosoftYaHei-541e" transform="translate(1155.273438 0)"/>
     <use xlink:href="#MicrosoftYaHei-5410" transform="translate(1255.273438 0)"/>
     <use xlink:href="#MicrosoftYaHei-9000" transform="translate(1355.273438 0)"/>
     <use xlink:href="#MicrosoftYaHei-5316" transform="translate(1455.273438 0)"/>
     <use xlink:href="#MicrosoftYaHei-6210" transform="translate(1555.273438 0)"/>
     <use xlink:href="#MicrosoftYaHei-672c" transform="translate(1655.273438 0)"/>
    </g>
   </g>
   <g id="legend_1">
    <g id="patch_9">
     <path d="M 45.181797 55.108594 
L 143.781797 55.108594 
L 143.781797 26.243125 
L 45.181797 26.243125 
z
" style="fill: #ffffff; opacity: 0.8; stroke: #d0d4d8; stroke-linejoin: miter"/>
    </g>
    <g id="patch_10">
     <path d="M 48.581797 36.437812 
L 65.581797 36.437812 
L 65.581797 30.487812 
L 48.581797 30.487812 
z
" style="fill: #8faab8; stroke: #5f7380; stroke-width: 0.55; stroke-linejoin: miter"/>
    </g>
    <g id="text_20">
     <!-- 平均电池容量 -->
     <g transform="translate(72.381797 36.437812) scale(0.085 -0.085)">
      <use xlink:href="#MicrosoftYaHei-5e73"/>
      <use xlink:href="#MicrosoftYaHei-5747" transform="translate(100 0)"/>
      <use xlink:href="#MicrosoftYaHei-7535" transform="translate(200 0)"/>
      <use xlink:href="#MicrosoftYaHei-6c60" transform="translate(300 0)"/>
      <use xlink:href="#MicrosoftYaHei-5bb9" transform="translate(400 0)"/>
      <use xlink:href="#MicrosoftYaHei-91cf" transform="translate(500 0)"/>
     </g>
    </g>
    <g id="line2d_24">
     <path d="M 48.581797 46.620547 
L 57.081797 46.620547 
L 65.581797 46.620547 
" style="fill: none; stroke: #b87d6f; stroke-width: 1.85; stroke-linecap: square"/>
     <defs>
      <path id="m3750fe5f83" d="M 0 3.25 
C 0.86191 3.25 1.688635 2.907559 2.298097 2.298097 
C 2.907559 1.688635 3.25 0.86191 3.25 0 
C 3.25 -0.86191 2.907559 -1.688635 2.298097 -2.298097 
C 1.688635 -2.907559 0.86191 -3.25 0 -3.25 
C -0.86191 -3.25 -1.688635 -2.907559 -2.298097 -2.298097 
C -2.907559 -1.688635 -3.25 -0.86191 -3.25 0 
C -3.25 0.86191 -2.907559 1.688635 -2.298097 2.298097 
C -1.688635 2.907559 -0.86191 3.25 0 3.25 
z
" style="stroke: #9e5e52"/>
     </defs>
     <g>
      <use xlink:href="#m3750fe5f83" x="57.081797" y="46.620547" style="fill: #ffffff; stroke: #9e5e52"/>
     </g>
    </g>
    <g id="text_21">
     <!-- 平均吞吐退化成本 -->
     <g transform="translate(72.381797 49.595547) scale(0.085 -0.085)">
      <use xlink:href="#MicrosoftYaHei-5e73"/>
      <use xlink:href="#MicrosoftYaHei-5747" transform="translate(100 0)"/>
      <use xlink:href="#MicrosoftYaHei-541e" transform="translate(200 0)"/>
      <use xlink:href="#MicrosoftYaHei-5410" transform="translate(300 0)"/>
      <use xlink:href="#MicrosoftYaHei-9000" transform="translate(400 0)"/>
      <use xlink:href="#MicrosoftYaHei-5316" transform="translate(500 0)"/>
      <use xlink:href="#MicrosoftYaHei-6210" transform="translate(600 0)"/>
      <use xlink:href="#MicrosoftYaHei-672c" transform="translate(700 0)"/>
     </g>
    </g>
   </g>
  </g>
  <g id="axes_2">
   <g id="patch_11">
    <path d="M 471.262981 256.716161 
L 770.003426 256.716161 
L 770.003426 21.993125 
L 471.262981 21.993125 
z
" style="fill: #ffffff"/>
   </g>
   <g id="matplotlib.axis_3">
    <g id="xtick_4">
     <g id="line2d_25">
      <path d="M 471.262981 256.716161 
L 471.262981 21.993125 
" clip-path="url(#pe442d4ca2c)" style="fill: none; stroke-dasharray: 0.85,2.55; stroke-dashoffset: 0; stroke: #d8dde2; stroke-opacity: 0.35; stroke-width: 0.85"/>
     </g>
     <g id="line2d_26">
      <g>
       <use xlink:href="#m388dbc95cc" x="471.262981" y="256.716161" style="stroke: #000000; stroke-width: 0.8"/>
      </g>
     </g>
     <g id="text_22">
      <!-- 0 -->
      <g transform="translate(468.33095 271.709911) scale(0.1 -0.1)">
       <use xlink:href="#MicrosoftYaHei-30"/>
      </g>
     </g>
    </g>
    <g id="xtick_5">
     <g id="line2d_27">
      <path d="M 531.01107 256.716161 
L 531.01107 21.993125 
" clip-path="url(#pe442d4ca2c)" style="fill: none; stroke-dasharray: 0.85,2.55; stroke-dashoffset: 0; stroke: #d8dde2; stroke-opacity: 0.35; stroke-width: 0.85"/>
     </g>
     <g id="line2d_28">
      <g>
       <use xlink:href="#m388dbc95cc" x="531.01107" y="256.716161" style="stroke: #000000; stroke-width: 0.8"/>
      </g>
     </g>
     <g id="text_23">
      <!-- 20 -->
      <g transform="translate(525.147007 271.709911) scale(0.1 -0.1)">
       <use xlink:href="#MicrosoftYaHei-32"/>
       <use xlink:href="#MicrosoftYaHei-30" transform="translate(58.642578 0)"/>
      </g>
     </g>
    </g>
    <g id="xtick_6">
     <g id="line2d_29">
      <path d="M 590.759159 256.716161 
L 590.759159 21.993125 
" clip-path="url(#pe442d4ca2c)" style="fill: none; stroke-dasharray: 0.85,2.55; stroke-dashoffset: 0; stroke: #d8dde2; stroke-opacity: 0.35; stroke-width: 0.85"/>
     </g>
     <g id="line2d_30">
      <g>
       <use xlink:href="#m388dbc95cc" x="590.759159" y="256.716161" style="stroke: #000000; stroke-width: 0.8"/>
      </g>
     </g>
     <g id="text_24">
      <!-- 40 -->
      <g transform="translate(584.895097 271.709911) scale(0.1 -0.1)">
       <use xlink:href="#MicrosoftYaHei-34"/>
       <use xlink:href="#MicrosoftYaHei-30" transform="translate(58.642578 0)"/>
      </g>
     </g>
    </g>
    <g id="xtick_7">
     <g id="line2d_31">
      <path d="M 650.507248 256.716161 
L 650.507248 21.993125 
" clip-path="url(#pe442d4ca2c)" style="fill: none; stroke-dasharray: 0.85,2.55; stroke-dashoffset: 0; stroke: #d8dde2; stroke-opacity: 0.35; stroke-width: 0.85"/>
     </g>
     <g id="line2d_32">
      <g>
       <use xlink:href="#m388dbc95cc" x="650.507248" y="256.716161" style="stroke: #000000; stroke-width: 0.8"/>
      </g>
     </g>
     <g id="text_25">
      <!-- 60 -->
      <g transform="translate(644.643186 271.709911) scale(0.1 -0.1)">
       <use xlink:href="#MicrosoftYaHei-36"/>
       <use xlink:href="#MicrosoftYaHei-30" transform="translate(58.642578 0)"/>
      </g>
     </g>
    </g>
    <g id="xtick_8">
     <g id="line2d_33">
      <path d="M 710.255337 256.716161 
L 710.255337 21.993125 
" clip-path="url(#pe442d4ca2c)" style="fill: none; stroke-dasharray: 0.85,2.55; stroke-dashoffset: 0; stroke: #d8dde2; stroke-opacity: 0.35; stroke-width: 0.85"/>
     </g>
     <g id="line2d_34">
      <g>
       <use xlink:href="#m388dbc95cc" x="710.255337" y="256.716161" style="stroke: #000000; stroke-width: 0.8"/>
      </g>
     </g>
     <g id="text_26">
      <!-- 80 -->
      <g transform="translate(704.391275 271.709911) scale(0.1 -0.1)">
       <use xlink:href="#MicrosoftYaHei-38"/>
       <use xlink:href="#MicrosoftYaHei-30" transform="translate(58.642578 0)"/>
      </g>
     </g>
    </g>
    <g id="xtick_9">
     <g id="line2d_35">
      <path d="M 770.003426 256.716161 
L 770.003426 21.993125 
" clip-path="url(#pe442d4ca2c)" style="fill: none; stroke-dasharray: 0.85,2.55; stroke-dashoffset: 0; stroke: #d8dde2; stroke-opacity: 0.35; stroke-width: 0.85"/>
     </g>
     <g id="line2d_36">
      <g>
       <use xlink:href="#m388dbc95cc" x="770.003426" y="256.716161" style="stroke: #000000; stroke-width: 0.8"/>
      </g>
     </g>
     <g id="text_27">
      <!-- 100 -->
      <g transform="translate(761.207333 271.709911) scale(0.1 -0.1)">
       <use xlink:href="#MicrosoftYaHei-31"/>
       <use xlink:href="#MicrosoftYaHei-30" transform="translate(58.642578 0)"/>
       <use xlink:href="#MicrosoftYaHei-30" transform="translate(117.285156 0)"/>
      </g>
     </g>
    </g>
    <g id="text_28">
     <!-- V2B 允许比例（%） -->
     <g transform="translate(572.985352 286.589286) scale(0.105 -0.105)">
      <defs>
       <path id="MicrosoftYaHei-42" d="M 625 0 
L 625 4841 
L 2047 4841 
Q 2684 4841 3065 4536 
Q 3447 4231 3447 3728 
Q 3447 3328 3220 3022 
Q 2994 2716 2597 2588 
L 2597 2575 
Q 3091 2519 3386 2201 
Q 3681 1884 3681 1397 
Q 3681 772 3232 386 
Q 2784 0 2084 0 
L 625 0 
z
M 1250 4294 
L 1250 2778 
L 1819 2778 
Q 2272 2778 2530 2998 
Q 2788 3219 2788 3609 
Q 2788 4294 1875 4294 
L 1250 4294 
z
M 1250 2234 
L 1250 547 
L 2000 547 
Q 2491 547 2758 773 
Q 3025 1000 3025 1403 
Q 3025 2234 1897 2234 
L 1250 2234 
z
" transform="scale(0.015625)"/>
       <path id="MicrosoftYaHei-20" transform="scale(0.015625)"/>
       <path id="MicrosoftYaHei-5141" d="M 4450 4428 
Q 5350 3516 6194 2547 
L 5756 2178 
Q 5519 2475 5281 2759 
Q 4697 2734 4119 2709 
L 4119 197 
Q 4119 -203 4494 -203 
L 5206 -203 
Q 5631 -203 5681 128 
Q 5725 466 5750 1053 
Q 5975 966 6288 872 
Q 6238 291 6181 -47 
Q 6075 -659 5306 -659 
L 4375 -659 
Q 3613 -659 3613 109 
L 3613 2684 
Q 3075 2659 2538 2634 
Q 2503 1194 2100 528 
Q 1569 -428 388 -828 
Q 263 -622 75 -359 
Q 1219 53 1619 759 
Q 2003 1369 2044 2606 
Q 1634 2588 1225 2566 
Q 888 2547 575 2466 
L 363 3003 
Q 669 3122 888 3309 
Q 1869 4166 2756 5391 
L 3225 5103 
Q 2481 4159 1344 3066 
Q 3075 3119 4909 3200 
Q 4500 3678 4088 4122 
L 4450 4428 
z
" transform="scale(0.015625)"/>
       <path id="MicrosoftYaHei-8bb8" d="M 1913 2291 
L 3888 2291 
L 3888 3903 
L 2906 3903 
Q 2628 3275 2325 2759 
Q 2150 2916 1906 3072 
Q 2494 4003 2906 5334 
L 3406 5197 
Q 3256 4753 3094 4353 
L 6000 4353 
L 6000 3903 
L 4413 3903 
L 4413 2291 
L 6275 2291 
L 6275 1841 
L 4413 1841 
L 4413 -803 
L 3888 -803 
L 3888 1841 
L 1913 1841 
L 1913 2291 
z
M 2450 1028 
Q 2513 709 2575 478 
Q 1981 66 1444 -372 
Q 1250 -534 1094 -741 
L 675 -322 
Q 919 -84 919 328 
L 919 2697 
L 81 2697 
L 81 3172 
L 1425 3172 
L 1425 253 
Q 1925 591 2450 1028 
z
M 738 5222 
Q 1419 4522 1725 4184 
L 1288 3816 
Q 894 4334 356 4891 
L 738 5222 
z
" transform="scale(0.015625)"/>
       <path id="MicrosoftYaHei-6bd4" d="M 3225 5316 
L 3744 5316 
L 3744 2672 
Q 4959 3550 5744 4509 
L 6188 4178 
Q 5175 3063 3744 2056 
L 3744 247 
Q 3744 -166 4106 -166 
L 5175 -166 
Q 5588 -166 5650 203 
Q 5725 678 5763 1247 
Q 6025 1147 6300 1066 
Q 6244 484 6150 22 
Q 6019 -622 5319 -622 
L 3944 -622 
Q 3225 -622 3225 159 
L 3225 5316 
z
M 1063 5153 
L 1063 3278 
L 2825 3278 
L 2825 2809 
L 1063 2809 
L 1063 153 
Q 1713 428 2763 928 
Q 2763 634 2788 366 
Q 1869 -3 1231 -328 
Q 956 -472 725 -672 
L 344 -184 
Q 544 -34 544 272 
L 544 5153 
L 1063 5153 
z
" transform="scale(0.015625)"/>
       <path id="MicrosoftYaHei-4f8b" d="M 2381 1841 
L 2631 2191 
Q 2916 1997 3247 1738 
Q 3488 2378 3581 3128 
L 2703 3128 
Q 2350 1984 1831 1291 
Q 1700 1491 1531 1678 
Q 2238 2694 2578 4522 
L 1900 4522 
L 1900 4959 
L 4319 4959 
L 4319 4522 
L 3044 4522 
Q 2947 4009 2828 3559 
L 4044 3559 
L 4044 3128 
Q 3788 666 2038 -822 
Q 1900 -634 1694 -416 
Q 2578 297 3063 1303 
Q 2753 1556 2381 1841 
z
M 88 2291 
Q 894 3659 1281 5322 
L 1744 5234 
Q 1578 4534 1325 3853 
L 1325 -809 
L 900 -809 
L 900 2847 
Q 625 2275 288 1716 
Q 213 1966 88 2291 
z
M 5575 5303 
L 6031 5303 
L 6031 84 
Q 6031 -391 5881 -566 
Q 5750 -728 5356 -734 
Q 5088 -741 4488 -722 
Q 4463 -466 4400 -203 
Q 4881 -253 5188 -253 
Q 5431 -259 5500 -166 
Q 5575 -84 5575 234 
L 5575 5303 
z
M 4913 653 
L 4469 653 
L 4469 4322 
L 4913 4322 
L 4913 653 
z
" transform="scale(0.015625)"/>
       <path id="MicrosoftYaHei-25" d="M 272 3619 
Q 272 4213 589 4563 
Q 906 4913 1444 4913 
Q 1959 4913 2248 4591 
Q 2538 4269 2538 3694 
Q 2538 3122 2219 2765 
Q 1900 2409 1372 2409 
Q 872 2409 572 2740 
Q 272 3072 272 3619 
z
M 753 3650 
Q 753 3247 928 3028 
Q 1103 2809 1406 2809 
Q 1719 2809 1889 3036 
Q 2059 3263 2059 3675 
Q 2059 4078 1892 4298 
Q 1725 4519 1422 4519 
Q 1113 4519 933 4289 
Q 753 4059 753 3650 
z
M 4647 4841 
L 1538 -31 
L 1016 -31 
L 4125 4841 
L 4647 4841 
z
M 3172 1134 
Q 3172 1728 3489 2083 
Q 3806 2438 4341 2438 
Q 4853 2438 5143 2114 
Q 5434 1791 5434 1203 
Q 5434 634 5112 279 
Q 4791 -75 4272 -75 
Q 3769 -75 3470 261 
Q 3172 597 3172 1134 
z
M 3650 1163 
Q 3650 769 3825 548 
Q 4000 328 4303 328 
Q 4616 328 4786 556 
Q 4956 784 4956 1194 
Q 4956 1600 4786 1815 
Q 4616 2031 4319 2031 
Q 4000 2031 3825 1801 
Q 3650 1572 3650 1163 
z
" transform="scale(0.015625)"/>
      </defs>
      <use xlink:href="#MicrosoftYaHei-56"/>
      <use xlink:href="#MicrosoftYaHei-32" transform="translate(67.626953 0)"/>
      <use xlink:href="#MicrosoftYaHei-42" transform="translate(126.269531 0)"/>
      <use xlink:href="#MicrosoftYaHei-20" transform="translate(189.013672 0)"/>
      <use xlink:href="#MicrosoftYaHei-5141" transform="translate(218.603516 0)"/>
      <use xlink:href="#MicrosoftYaHei-8bb8" transform="translate(318.603516 0)"/>
      <use xlink:href="#MicrosoftYaHei-6bd4" transform="translate(418.603516 0)"/>
      <use xlink:href="#MicrosoftYaHei-4f8b" transform="translate(518.603516 0)"/>
      <use xlink:href="#MicrosoftYaHei-ff08" transform="translate(618.603516 0)"/>
      <use xlink:href="#MicrosoftYaHei-25" transform="translate(718.603516 0)"/>
      <use xlink:href="#MicrosoftYaHei-ff09" transform="translate(807.568359 0)"/>
     </g>
    </g>
   </g>
   <g id="matplotlib.axis_4">
    <g id="ytick_11">
     <g id="line2d_37">
      <defs>
       <path id="mdffc55307e" d="M 0 0 
L -3.5 0 
" style="stroke: #000000; stroke-width: 0.8"/>
      </defs>
      <g>
       <use xlink:href="#mdffc55307e" x="471.262981" y="54.678223" style="stroke: #000000; stroke-width: 0.8"/>
      </g>
     </g>
     <g id="text_29">
      <!-- 紧凑型 -->
      <g transform="translate(434.262981 58.675098) scale(0.1 -0.1)">
       <use xlink:href="#MicrosoftYaHei-7d27"/>
       <use xlink:href="#MicrosoftYaHei-51d1" transform="translate(100 0)"/>
       <use xlink:href="#MicrosoftYaHei-578b" transform="translate(200 0)"/>
      </g>
     </g>
    </g>
    <g id="ytick_12">
     <g id="line2d_38">
      <g>
       <use xlink:href="#mdffc55307e" x="471.262981" y="139.354643" style="stroke: #000000; stroke-width: 0.8"/>
      </g>
     </g>
     <g id="text_30">
      <!-- 轿车 -->
      <g transform="translate(444.262981 143.351518) scale(0.1 -0.1)">
       <use xlink:href="#MicrosoftYaHei-8f7f"/>
       <use xlink:href="#MicrosoftYaHei-8f66" transform="translate(100 0)"/>
      </g>
     </g>
    </g>
    <g id="ytick_13">
     <g id="line2d_39">
      <g>
       <use xlink:href="#mdffc55307e" x="471.262981" y="224.031063" style="stroke: #000000; stroke-width: 0.8"/>
      </g>
     </g>
     <g id="text_31">
      <!-- SUV -->
      <g transform="translate(444.262981 228.027938) scale(0.1 -0.1)">
       <use xlink:href="#MicrosoftYaHei-53"/>
       <use xlink:href="#MicrosoftYaHei-55" transform="translate(57.714844 0)"/>
       <use xlink:href="#MicrosoftYaHei-56" transform="translate(132.373047 0)"/>
      </g>
     </g>
    </g>
   </g>
   <g id="patch_12">
    <path d="M 471.262981 32.662354 
L 672.912782 32.662354 
L 672.912782 76.694092 
L 471.262981 76.694092 
z
" clip-path="url(#pe442d4ca2c)" style="fill: #9aafa0; stroke: #6e7f72; stroke-width: 0.5; stroke-linejoin: miter"/>
   </g>
   <g id="patch_13">
    <path d="M 471.262981 117.338774 
L 690.339307 117.338774 
L 690.339307 161.370512 
L 471.262981 161.370512 
z
" clip-path="url(#pe442d4ca2c)" style="fill: #9aafa0; stroke: #6e7f72; stroke-width: 0.5; stroke-linejoin: miter"/>
   </g>
   <g id="patch_14">
    <path d="M 471.262981 202.015193 
L 648.64012 202.015193 
L 648.64012 246.046932 
L 471.262981 246.046932 
z
" clip-path="url(#pe442d4ca2c)" style="fill: #9aafa0; stroke: #6e7f72; stroke-width: 0.5; stroke-linejoin: miter"/>
   </g>
   <g id="patch_15">
    <path d="M 471.262981 256.716161 
L 471.262981 21.993125 
" style="fill: none; stroke: #3a3f45; stroke-width: 0.9; stroke-linejoin: miter; stroke-linecap: square"/>
   </g>
   <g id="patch_16">
    <path d="M 471.262981 256.716161 
L 770.003426 256.716161 
" style="fill: none; stroke: #3a3f45; stroke-width: 0.9; stroke-linejoin: miter; stroke-linecap: square"/>
   </g>
   <g id="text_32">
    <!-- 67.5% -->
    <g style="fill: #4a4f55" transform="translate(675.900186 57.156739) scale(0.09 -0.09)">
     <use xlink:href="#MicrosoftYaHei-36"/>
     <use xlink:href="#MicrosoftYaHei-37" transform="translate(58.642578 0)"/>
     <use xlink:href="#MicrosoftYaHei-2e" transform="translate(117.285156 0)"/>
     <use xlink:href="#MicrosoftYaHei-35" transform="translate(141.357422 0)"/>
     <use xlink:href="#MicrosoftYaHei-25" transform="translate(200 0)"/>
    </g>
   </g>
   <g id="text_33">
    <!-- 73.3% -->
    <g style="fill: #4a4f55" transform="translate(693.326712 141.833158) scale(0.09 -0.09)">
     <use xlink:href="#MicrosoftYaHei-37"/>
     <use xlink:href="#MicrosoftYaHei-33" transform="translate(58.642578 0)"/>
     <use xlink:href="#MicrosoftYaHei-2e" transform="translate(117.285156 0)"/>
     <use xlink:href="#MicrosoftYaHei-33" transform="translate(141.357422 0)"/>
     <use xlink:href="#MicrosoftYaHei-25" transform="translate(200 0)"/>
    </g>
   </g>
   <g id="text_34">
    <!-- 59.4% -->
    <g style="fill: #4a4f55" transform="translate(651.627525 226.509578) scale(0.09 -0.09)">
     <use xlink:href="#MicrosoftYaHei-35"/>
     <use xlink:href="#MicrosoftYaHei-39" transform="translate(58.642578 0)"/>
     <use xlink:href="#MicrosoftYaHei-2e" transform="translate(117.285156 0)"/>
     <use xlink:href="#MicrosoftYaHei-34" transform="translate(141.357422 0)"/>
     <use xlink:href="#MicrosoftYaHei-25" transform="translate(200 0)"/>
    </g>
   </g>
   <g id="text_35">
    <!-- （b）V2B 允许比例 -->
    <g style="fill: #4a4f55" transform="translate(471.262981 15.993125) scale(0.11 -0.11)">
     <defs>
      <path id="MicrosoftYaHei-62" d="M 1159 488 
L 1159 0 
L 547 0 
L 547 5116 
L 1159 5116 
L 1159 2859 
L 1172 2859 
Q 1578 3538 2359 3538 
Q 3009 3538 3392 3080 
Q 3775 2622 3775 1828 
Q 3775 953 3345 436 
Q 2916 -81 2200 -81 
Q 1525 -81 1172 488 
L 1159 488 
z
M 1156 1422 
Q 1156 1003 1428 714 
Q 1700 425 2109 425 
Q 2597 425 2872 800 
Q 3147 1175 3147 1838 
Q 3147 2384 2890 2707 
Q 2634 3031 2191 3031 
Q 1741 3031 1448 2709 
Q 1156 2388 1156 1891 
L 1156 1422 
z
" transform="scale(0.015625)"/>
     </defs>
     <use xlink:href="#MicrosoftYaHei-ff08"/>
     <use xlink:href="#MicrosoftYaHei-62" transform="translate(100 0)"/>
     <use xlink:href="#MicrosoftYaHei-ff09" transform="translate(163.867188 0)"/>
     <use xlink:href="#MicrosoftYaHei-56" transform="translate(263.867188 0)"/>
     <use xlink:href="#MicrosoftYaHei-32" transform="translate(331.494141 0)"/>
     <use xlink:href="#MicrosoftYaHei-42" transform="translate(390.136719 0)"/>
     <use xlink:href="#MicrosoftYaHei-20" transform="translate(452.880859 0)"/>
     <use xlink:href="#MicrosoftYaHei-5141" transform="translate(482.470703 0)"/>
     <use xlink:href="#MicrosoftYaHei-8bb8" transform="translate(582.470703 0)"/>
     <use xlink:href="#MicrosoftYaHei-6bd4" transform="translate(682.470703 0)"/>
     <use xlink:href="#MicrosoftYaHei-4f8b" transform="translate(782.470703 0)"/>
    </g>
   </g>
  </g>
  <g id="axes_3">
   <g id="matplotlib.axis_5">
    <g id="ytick_14">
     <g id="line2d_40">
      <defs>
       <path id="mb1ebac3d92" d="M 0 0 
L 3.5 0 
" style="stroke: #b87d6f; stroke-width: 0.8"/>
      </defs>
      <g>
       <use xlink:href="#mb1ebac3d92" x="384.483309" y="211.281792" style="fill: #b87d6f; stroke: #b87d6f; stroke-width: 0.8"/>
      </g>
     </g>
     <g id="text_36">
      <!-- 0.07 -->
      <g style="fill: #b87d6f" transform="translate(391.483309 215.278667) scale(0.1 -0.1)">
       <use xlink:href="#MicrosoftYaHei-30"/>
       <use xlink:href="#MicrosoftYaHei-2e" transform="translate(58.642578 0)"/>
       <use xlink:href="#MicrosoftYaHei-30" transform="translate(82.714844 0)"/>
       <use xlink:href="#MicrosoftYaHei-37" transform="translate(141.357422 0)"/>
      </g>
     </g>
    </g>
    <g id="ytick_15">
     <g id="line2d_41">
      <g>
       <use xlink:href="#mb1ebac3d92" x="384.483309" y="165.026391" style="fill: #b87d6f; stroke: #b87d6f; stroke-width: 0.8"/>
      </g>
     </g>
     <g id="text_37">
      <!-- 0.08 -->
      <g style="fill: #b87d6f" transform="translate(391.483309 169.023266) scale(0.1 -0.1)">
       <use xlink:href="#MicrosoftYaHei-30"/>
       <use xlink:href="#MicrosoftYaHei-2e" transform="translate(58.642578 0)"/>
       <use xlink:href="#MicrosoftYaHei-30" transform="translate(82.714844 0)"/>
       <use xlink:href="#MicrosoftYaHei-38" transform="translate(141.357422 0)"/>
      </g>
     </g>
    </g>
    <g id="ytick_16">
     <g id="line2d_42">
      <g>
       <use xlink:href="#mb1ebac3d92" x="384.483309" y="118.770989" style="fill: #b87d6f; stroke: #b87d6f; stroke-width: 0.8"/>
      </g>
     </g>
     <g id="text_38">
      <!-- 0.09 -->
      <g style="fill: #b87d6f" transform="translate(391.483309 122.767864) scale(0.1 -0.1)">
       <use xlink:href="#MicrosoftYaHei-30"/>
       <use xlink:href="#MicrosoftYaHei-2e" transform="translate(58.642578 0)"/>
       <use xlink:href="#MicrosoftYaHei-30" transform="translate(82.714844 0)"/>
       <use xlink:href="#MicrosoftYaHei-39" transform="translate(141.357422 0)"/>
      </g>
     </g>
    </g>
    <g id="ytick_17">
     <g id="line2d_43">
      <g>
       <use xlink:href="#mb1ebac3d92" x="384.483309" y="72.515587" style="fill: #b87d6f; stroke: #b87d6f; stroke-width: 0.8"/>
      </g>
     </g>
     <g id="text_39">
      <!-- 0.10 -->
      <g style="fill: #b87d6f" transform="translate(391.483309 76.512462) scale(0.1 -0.1)">
       <use xlink:href="#MicrosoftYaHei-30"/>
       <use xlink:href="#MicrosoftYaHei-2e" transform="translate(58.642578 0)"/>
       <use xlink:href="#MicrosoftYaHei-31" transform="translate(82.714844 0)"/>
       <use xlink:href="#MicrosoftYaHei-30" transform="translate(141.357422 0)"/>
      </g>
     </g>
    </g>
    <g id="ytick_18">
     <g id="line2d_44">
      <g>
       <use xlink:href="#mb1ebac3d92" x="384.483309" y="26.260186" style="fill: #b87d6f; stroke: #b87d6f; stroke-width: 0.8"/>
      </g>
     </g>
     <g id="text_40">
      <!-- 0.11 -->
      <g style="fill: #b87d6f" transform="translate(391.483309 30.257061) scale(0.1 -0.1)">
       <use xlink:href="#MicrosoftYaHei-30"/>
       <use xlink:href="#MicrosoftYaHei-2e" transform="translate(58.642578 0)"/>
       <use xlink:href="#MicrosoftYaHei-31" transform="translate(82.714844 0)"/>
       <use xlink:href="#MicrosoftYaHei-31" transform="translate(141.357422 0)"/>
      </g>
     </g>
    </g>
    <g id="text_41">
     <!-- 平均吞吐退化成本（元/kWh） -->
     <g style="fill: #b87d6f" transform="translate(423.876747 210.780893) rotate(-90) scale(0.105 -0.105)">
      <defs>
       <path id="MicrosoftYaHei-5143" d="M 188 3084 
L 6225 3084 
L 6225 2609 
L 4250 2609 
L 4250 172 
Q 4250 -197 4625 -197 
L 5163 -197 
Q 5613 -197 5675 216 
Q 5731 566 5769 1103 
Q 6019 1016 6313 947 
Q 6250 409 6181 47 
Q 6056 -641 5275 -641 
L 4513 -641 
Q 3725 -641 3725 128 
L 3725 2609 
L 2450 2609 
L 2450 2409 
Q 2450 1084 2050 447 
Q 1650 -247 469 -847 
Q 244 -572 100 -428 
Q 1181 103 1556 691 
Q 1925 1253 1925 2384 
L 1925 2609 
L 188 2609 
L 188 3084 
z
M 788 4903 
L 5638 4903 
L 5638 4428 
L 788 4428 
L 788 4903 
z
" transform="scale(0.015625)"/>
       <path id="MicrosoftYaHei-2f" d="M 2791 4841 
L 469 -803 
L -103 -803 
L 2219 4841 
L 2791 4841 
z
" transform="scale(0.015625)"/>
      </defs>
      <use xlink:href="#MicrosoftYaHei-5e73"/>
      <use xlink:href="#MicrosoftYaHei-5747" transform="translate(100 0)"/>
      <use xlink:href="#MicrosoftYaHei-541e" transform="translate(200 0)"/>
      <use xlink:href="#MicrosoftYaHei-5410" transform="translate(300 0)"/>
      <use xlink:href="#MicrosoftYaHei-9000" transform="translate(400 0)"/>
      <use xlink:href="#MicrosoftYaHei-5316" transform="translate(500 0)"/>
      <use xlink:href="#MicrosoftYaHei-6210" transform="translate(600 0)"/>
      <use xlink:href="#MicrosoftYaHei-672c" transform="translate(700 0)"/>
      <use xlink:href="#MicrosoftYaHei-ff08" transform="translate(800 0)"/>
      <use xlink:href="#MicrosoftYaHei-5143" transform="translate(900 0)"/>
      <use xlink:href="#MicrosoftYaHei-2f" transform="translate(1000 0)"/>
      <use xlink:href="#MicrosoftYaHei-6b" transform="translate(1042.724609 0)"/>
      <use xlink:href="#MicrosoftYaHei-57" transform="translate(1097.167969 0)"/>
      <use xlink:href="#MicrosoftYaHei-68" transform="translate(1198.925781 0)"/>
      <use xlink:href="#MicrosoftYaHei-ff09" transform="translate(1260.498047 0)"/>
     </g>
    </g>
   </g>
   <g id="patch_17">
    <path d="M 40.931797 256.716161 
L 40.931797 21.993125 
" style="fill: none; stroke: #3a3f45; stroke-width: 0.9; stroke-linejoin: miter; stroke-linecap: square"/>
   </g>
   <g id="patch_18">
    <path d="M 384.483309 256.716161 
L 384.483309 21.993125 
" style="fill: none; stroke: #3a3f45; stroke-width: 0.9; stroke-linejoin: miter; stroke-linecap: square"/>
   </g>
   <g id="patch_19">
    <path d="M 40.931797 256.716161 
L 384.483309 256.716161 
" style="fill: none; stroke: #3a3f45; stroke-width: 0.9; stroke-linejoin: miter; stroke-linecap: square"/>
   </g>
   <g id="patch_20">
    <path d="M 40.931797 21.993125 
L 384.483309 21.993125 
" style="fill: none; stroke: #3a3f45; stroke-width: 0.9; stroke-linejoin: miter; stroke-linecap: square"/>
   </g>
   <g id="line2d_45">
    <path d="M 86.772248 70.318456 
L 212.707553 126.326038 
L 338.642858 208.39083 
" clip-path="url(#p9293fead09)" style="fill: none; stroke: #b87d6f; stroke-width: 1.85; stroke-linecap: square"/>
    <g clip-path="url(#p9293fead09)">
     <use xlink:href="#m3750fe5f83" x="86.772248" y="70.318456" style="fill: #ffffff; stroke: #9e5e52"/>
     <use xlink:href="#m3750fe5f83" x="212.707553" y="126.326038" style="fill: #ffffff; stroke: #9e5e52"/>
     <use xlink:href="#m3750fe5f83" x="338.642858" y="208.39083" style="fill: #ffffff; stroke: #9e5e52"/>
    </g>
   </g>
   <g id="text_42">
    <!-- 0.1005 -->
    <g style="fill: #9e5e52" transform="translate(74.080998 63.497173) scale(0.08 -0.08)">
     <use xlink:href="#MicrosoftYaHei-30"/>
     <use xlink:href="#MicrosoftYaHei-2e" transform="translate(58.642578 0)"/>
     <use xlink:href="#MicrosoftYaHei-31" transform="translate(82.714844 0)"/>
     <use xlink:href="#MicrosoftYaHei-30" transform="translate(141.357422 0)"/>
     <use xlink:href="#MicrosoftYaHei-30" transform="translate(200 0)"/>
     <use xlink:href="#MicrosoftYaHei-35" transform="translate(258.642578 0)"/>
    </g>
   </g>
   <g id="text_43">
    <!-- 0.0884 -->
    <g style="fill: #9e5e52" transform="translate(200.016303 119.504755) scale(0.08 -0.08)">
     <use xlink:href="#MicrosoftYaHei-30"/>
     <use xlink:href="#MicrosoftYaHei-2e" transform="translate(58.642578 0)"/>
     <use xlink:href="#MicrosoftYaHei-30" transform="translate(82.714844 0)"/>
     <use xlink:href="#MicrosoftYaHei-38" transform="translate(141.357422 0)"/>
     <use xlink:href="#MicrosoftYaHei-38" transform="translate(200 0)"/>
     <use xlink:href="#MicrosoftYaHei-34" transform="translate(258.642578 0)"/>
    </g>
   </g>
   <g id="text_44">
    <!-- 0.0706 -->
    <g style="fill: #9e5e52" transform="translate(325.951608 201.569547) scale(0.08 -0.08)">
     <use xlink:href="#MicrosoftYaHei-30"/>
     <use xlink:href="#MicrosoftYaHei-2e" transform="translate(58.642578 0)"/>
     <use xlink:href="#MicrosoftYaHei-30" transform="translate(82.714844 0)"/>
     <use xlink:href="#MicrosoftYaHei-37" transform="translate(141.357422 0)"/>
     <use xlink:href="#MicrosoftYaHei-30" transform="translate(200 0)"/>
     <use xlink:href="#MicrosoftYaHei-36" transform="translate(258.642578 0)"/>
    </g>
   </g>
  </g>
 </g>
 <defs>
  <clipPath id="p9293fead09">
   <rect x="40.931797" y="21.993125" width="343.551512" height="234.723036"/>
  </clipPath>
  <clipPath id="pe442d4ca2c">
   <rect x="471.262981" y="21.993125" width="298.740445" height="234.723036"/>
  </clipPath>
 </defs>
</svg>
