<?xml version="1.0" encoding="utf-8" standalone="no"?>
<!DOCTYPE svg PUBLIC "-//W3C//DTD SVG 1.1//EN"
  "http://www.w3.org/Graphics/SVG/1.1/DTD/svg11.dtd">
<svg xmlns:xlink="http://www.w3.org/1999/xlink" width="425.99952pt" height="267.59952pt" viewBox="0 0 425.99952 267.59952" xmlns="http://www.w3.org/2000/svg" version="1.1">
 <metadata>
  <rdf:RDF xmlns:dc="http://purl.org/dc/elements/1.1/" xmlns:cc="http://creativecommons.org/ns#" xmlns:rdf="http://www.w3.org/1999/02/22-rdf-syntax-ns#">
   <cc:Work>
    <dc:type rdf:resource="http://purl.org/dc/dcmitype/StillImage"/>
    <dc:date>2026-04-11T12:21:50.994548</dc:date>
    <dc:format>image/svg+xml</dc:format>
    <dc:creator>
     <cc:Agent>
      <dc:title>Matplotlib v3.10.0, https://matplotlib.org/</dc:title>
     </cc:Agent>
    </dc:creator>
   </cc:Work>
  </rdf:RDF>
 </metadata>
 <defs>
  <style type="text/css">*{stroke-linejoin: round; stroke-linecap: butt}</style>
 </defs>
 <g id="figure_1">
  <g id="patch_1">
   <path d="M 0 267.59952 
L 425.99952 267.59952 
L 425.99952 0 
L 0 0 
z
" style="fill: #ffffff"/>
  </g>
  <g id="axes_1">
   <g id="patch_2">
    <path d="M 44.2 227.916161 
L 410.003426 227.916161 
L 410.003426 26.7925 
L 44.2 26.7925 
z
" style="fill: #ffffff"/>
   </g>
   <g id="matplotlib.axis_1">
    <g id="xtick_1">
     <g id="line2d_1">
      <path d="M 44.2 227.916161 
L 44.2 26.7925 
" clip-path="url(#p7d6b52f212)" style="fill: none; stroke-dasharray: 0.85,2.55; stroke-dashoffset: 0; stroke: #d8dde2; stroke-opacity: 0.35; stroke-width: 0.85"/>
     </g>
     <g id="line2d_2">
      <defs>
       <path id="mba0d9143b6" d="M 0 0 
L 0 3.5 
" style="stroke: #000000; stroke-width: 0.8"/>
      </defs>
      <g>
       <use xlink:href="#mba0d9143b6" x="44.2" y="227.916161" style="stroke: #000000; stroke-width: 0.8"/>
      </g>
     </g>
     <g id="text_1">
      <!-- 0 -->
      <g transform="translate(41.267969 242.909911) scale(0.1 -0.1)">
       <defs>
        <path id="MicrosoftYaHei-30" d="M 284 2325 
Q 284 3606 709 4264 
Q 1134 4922 1941 4922 
Q 3478 4922 3478 2441 
Q 3478 1216 3045 567 
Q 2613 -81 1831 -81 
Q 1094 -81 689 534 
Q 284 1150 284 2325 
z
M 909 2353 
Q 909 425 1888 425 
Q 2850 425 2850 2384 
Q 2850 4413 1906 4413 
Q 909 4413 909 2353 
z
" transform="scale(0.015625)"/>
       </defs>
       <use xlink:href="#MicrosoftYaHei-30"/>
      </g>
     </g>
    </g>
    <g id="xtick_2">
     <g id="line2d_3">
      <path d="M 117.360685 227.916161 
L 117.360685 26.7925 
" clip-path="url(#p7d6b52f212)" style="fill: none; stroke-dasharray: 0.85,2.55; stroke-dashoffset: 0; stroke: #d8dde2; stroke-opacity: 0.35; stroke-width: 0.85"/>
     </g>
     <g id="line2d_4">
      <g>
       <use xlink:href="#mba0d9143b6" x="117.360685" y="227.916161" style="stroke: #000000; stroke-width: 0.8"/>
      </g>
     </g>
     <g id="text_2">
      <!-- 20 -->
      <g transform="translate(111.496623 242.909911) scale(0.1 -0.1)">
       <defs>
        <path id="MicrosoftYaHei-32" d="M 2666 3572 
Q 2666 3963 2419 4186 
Q 2172 4409 1747 4409 
Q 1447 4409 1140 4256 
Q 834 4103 569 3819 
L 569 4413 
Q 806 4659 1107 4790 
Q 1409 4922 1816 4922 
Q 2472 4922 2872 4570 
Q 3272 4219 3272 3619 
Q 3272 3084 3026 2693 
Q 2781 2303 2188 1894 
Q 1581 1475 1376 1294 
Q 1172 1113 1090 947 
Q 1009 781 1009 544 
L 3416 544 
L 3416 0 
L 372 0 
L 372 241 
Q 372 659 486 951 
Q 600 1244 862 1520 
Q 1125 1797 1681 2184 
Q 2250 2584 2458 2886 
Q 2666 3188 2666 3572 
z
" transform="scale(0.015625)"/>
       </defs>
       <use xlink:href="#MicrosoftYaHei-32"/>
       <use xlink:href="#MicrosoftYaHei-30" transform="translate(58.642578 0)"/>
      </g>
     </g>
    </g>
    <g id="xtick_3">
     <g id="line2d_5">
      <path d="M 190.52137 227.916161 
L 190.52137 26.7925 
" clip-path="url(#p7d6b52f212)" style="fill: none; stroke-dasharray: 0.85,2.55; stroke-dashoffset: 0; stroke: #d8dde2; stroke-opacity: 0.35; stroke-width: 0.85"/>
     </g>
     <g id="line2d_6">
      <g>
       <use xlink:href="#mba0d9143b6" x="190.52137" y="227.916161" style="stroke: #000000; stroke-width: 0.8"/>
      </g>
     </g>
     <g id="text_3">
      <!-- 40 -->
      <g transform="translate(184.657308 242.909911) scale(0.1 -0.1)">
       <defs>
        <path id="MicrosoftYaHei-34" d="M 2906 4841 
L 2906 1644 
L 3631 1644 
L 3631 1138 
L 2906 1138 
L 2906 0 
L 2313 0 
L 2313 1138 
L 53 1138 
L 53 1616 
Q 656 2294 1265 3178 
Q 1875 4063 2272 4841 
L 2906 4841 
z
M 741 1644 
L 2313 1644 
L 2313 3950 
Q 1988 3366 1616 2817 
Q 1244 2269 741 1644 
z
" transform="scale(0.015625)"/>
       </defs>
       <use xlink:href="#MicrosoftYaHei-34"/>
       <use xlink:href="#MicrosoftYaHei-30" transform="translate(58.642578 0)"/>
      </g>
     </g>
    </g>
    <g id="xtick_4">
     <g id="line2d_7">
      <path d="M 263.682056 227.916161 
L 263.682056 26.7925 
" clip-path="url(#p7d6b52f212)" style="fill: none; stroke-dasharray: 0.85,2.55; stroke-dashoffset: 0; stroke: #d8dde2; stroke-opacity: 0.35; stroke-width: 0.85"/>
     </g>
     <g id="line2d_8">
      <g>
       <use xlink:href="#mba0d9143b6" x="263.682056" y="227.916161" style="stroke: #000000; stroke-width: 0.8"/>
      </g>
     </g>
     <g id="text_4">
      <!-- 60 -->
      <g transform="translate(257.817993 242.909911) scale(0.1 -0.1)">
       <defs>
        <path id="MicrosoftYaHei-36" d="M 3181 4219 
Q 2803 4413 2391 4413 
Q 1763 4413 1381 3866 
Q 1000 3319 994 2372 
L 1009 2372 
Q 1353 3038 2106 3038 
Q 2734 3038 3109 2628 
Q 3484 2219 3484 1541 
Q 3484 831 3051 375 
Q 2619 -81 1947 -81 
Q 1209 -81 789 495 
Q 369 1072 369 2131 
Q 369 3413 920 4167 
Q 1472 4922 2372 4922 
Q 2888 4922 3181 4781 
L 3181 4219 
z
M 1031 1584 
Q 1031 1106 1286 765 
Q 1541 425 1963 425 
Q 2363 425 2613 719 
Q 2863 1013 2863 1475 
Q 2863 1975 2627 2253 
Q 2391 2531 1956 2531 
Q 1544 2531 1287 2250 
Q 1031 1969 1031 1584 
z
" transform="scale(0.015625)"/>
       </defs>
       <use xlink:href="#MicrosoftYaHei-36"/>
       <use xlink:href="#MicrosoftYaHei-30" transform="translate(58.642578 0)"/>
      </g>
     </g>
    </g>
    <g id="xtick_5">
     <g id="line2d_9">
      <path d="M 336.842741 227.916161 
L 336.842741 26.7925 
" clip-path="url(#p7d6b52f212)" style="fill: none; stroke-dasharray: 0.85,2.55; stroke-dashoffset: 0; stroke: #d8dde2; stroke-opacity: 0.35; stroke-width: 0.85"/>
     </g>
     <g id="line2d_10">
      <g>
       <use xlink:href="#mba0d9143b6" x="336.842741" y="227.916161" style="stroke: #000000; stroke-width: 0.8"/>
      </g>
     </g>
     <g id="text_5">
      <!-- 80 -->
      <g transform="translate(330.978679 242.909911) scale(0.1 -0.1)">
       <defs>
        <path id="MicrosoftYaHei-38" d="M 306 1350 
Q 306 1769 556 2122 
Q 806 2475 1200 2625 
Q 884 2803 700 3081 
Q 516 3359 516 3684 
Q 516 4028 692 4312 
Q 869 4597 1183 4759 
Q 1497 4922 1875 4922 
Q 2256 4922 2572 4761 
Q 2888 4600 3063 4315 
Q 3238 4031 3238 3684 
Q 3238 3366 3058 3086 
Q 2878 2806 2559 2625 
Q 2953 2472 3200 2119 
Q 3447 1766 3447 1350 
Q 3447 938 3250 611 
Q 3053 284 2690 103 
Q 2328 -78 1875 -78 
Q 1425 -78 1065 103 
Q 706 284 506 612 
Q 306 941 306 1350 
z
M 906 1378 
Q 906 947 1172 687 
Q 1438 428 1878 428 
Q 2309 428 2582 692 
Q 2856 956 2856 1378 
Q 2856 1778 2579 2051 
Q 2303 2325 1878 2325 
Q 1456 2325 1181 2058 
Q 906 1791 906 1378 
z
M 1081 3634 
Q 1081 3309 1312 3076 
Q 1544 2844 1878 2844 
Q 2206 2844 2445 3078 
Q 2684 3313 2684 3634 
Q 2684 3963 2454 4191 
Q 2225 4419 1878 4419 
Q 1534 4419 1307 4195 
Q 1081 3972 1081 3634 
z
" transform="scale(0.015625)"/>
       </defs>
       <use xlink:href="#MicrosoftYaHei-38"/>
       <use xlink:href="#MicrosoftYaHei-30" transform="translate(58.642578 0)"/>
      </g>
     </g>
    </g>
    <g id="xtick_6">
     <g id="line2d_11">
      <path d="M 410.003426 227.916161 
L 410.003426 26.7925 
" clip-path="url(#p7d6b52f212)" style="fill: none; stroke-dasharray: 0.85,2.55; stroke-dashoffset: 0; stroke: #d8dde2; stroke-opacity: 0.35; stroke-width: 0.85"/>
     </g>
     <g id="line2d_12">
      <g>
       <use xlink:href="#mba0d9143b6" x="410.003426" y="227.916161" style="stroke: #000000; stroke-width: 0.8"/>
      </g>
     </g>
     <g id="text_6">
      <!-- 100 -->
      <g transform="translate(401.207332 242.909911) scale(0.1 -0.1)">
       <defs>
        <path id="MicrosoftYaHei-31" d="M 1781 0 
L 1781 4141 
Q 1638 3997 1295 3819 
Q 953 3641 663 3569 
L 663 4169 
Q 1047 4275 1484 4508 
Q 1922 4741 2156 4947 
L 2388 4947 
L 2388 0 
L 1781 0 
z
" transform="scale(0.015625)"/>
       </defs>
       <use xlink:href="#MicrosoftYaHei-31"/>
       <use xlink:href="#MicrosoftYaHei-30" transform="translate(58.642578 0)"/>
       <use xlink:href="#MicrosoftYaHei-30" transform="translate(117.285156 0)"/>
      </g>
     </g>
    </g>
    <g id="text_7">
     <!-- V2B 允许比例（%） -->
     <g transform="translate(179.453862 257.789286) scale(0.105 -0.105)">
      <defs>
       <path id="MicrosoftYaHei-56" d="M 4272 4841 
L 2494 0 
L 1800 0 
L 56 4841 
L 750 4841 
L 2053 1056 
Q 2119 869 2150 622 
L 2166 622 
Q 2191 838 2275 1063 
L 3603 4841 
L 4272 4841 
z
" transform="scale(0.015625)"/>
       <path id="MicrosoftYaHei-42" d="M 625 0 
L 625 4841 
L 2047 4841 
Q 2684 4841 3065 4536 
Q 3447 4231 3447 3728 
Q 3447 3328 3220 3022 
Q 2994 2716 2597 2588 
L 2597 2575 
Q 3091 2519 3386 2201 
Q 3681 1884 3681 1397 
Q 3681 772 3232 386 
Q 2784 0 2084 0 
L 625 0 
z
M 1250 4294 
L 1250 2778 
L 1819 2778 
Q 2272 2778 2530 2998 
Q 2788 3219 2788 3609 
Q 2788 4294 1875 4294 
L 1250 4294 
z
M 1250 2234 
L 1250 547 
L 2000 547 
Q 2491 547 2758 773 
Q 3025 1000 3025 1403 
Q 3025 2234 1897 2234 
L 1250 2234 
z
" transform="scale(0.015625)"/>
       <path id="MicrosoftYaHei-20" transform="scale(0.015625)"/>
       <path id="MicrosoftYaHei-5141" d="M 4450 4428 
Q 5350 3516 6194 2547 
L 5756 2178 
Q 5519 2475 5281 2759 
Q 4697 2734 4119 2709 
L 4119 197 
Q 4119 -203 4494 -203 
L 5206 -203 
Q 5631 -203 5681 128 
Q 5725 466 5750 1053 
Q 5975 966 6288 872 
Q 6238 291 6181 -47 
Q 6075 -659 5306 -659 
L 4375 -659 
Q 3613 -659 3613 109 
L 3613 2684 
Q 3075 2659 2538 2634 
Q 2503 1194 2100 528 
Q 1569 -428 388 -828 
Q 263 -622 75 -359 
Q 1219 53 1619 759 
Q 2003 1369 2044 2606 
Q 1634 2588 1225 2566 
Q 888 2547 575 2466 
L 363 3003 
Q 669 3122 888 3309 
Q 1869 4166 2756 5391 
L 3225 5103 
Q 2481 4159 1344 3066 
Q 3075 3119 4909 3200 
Q 4500 3678 4088 4122 
L 4450 4428 
z
" transform="scale(0.015625)"/>
       <path id="MicrosoftYaHei-8bb8" d="M 1913 2291 
L 3888 2291 
L 3888 3903 
L 2906 3903 
Q 2628 3275 2325 2759 
Q 2150 2916 1906 3072 
Q 2494 4003 2906 5334 
L 3406 5197 
Q 3256 4753 3094 4353 
L 6000 4353 
L 6000 3903 
L 4413 3903 
L 4413 2291 
L 6275 2291 
L 6275 1841 
L 4413 1841 
L 4413 -803 
L 3888 -803 
L 3888 1841 
L 1913 1841 
L 1913 2291 
z
M 2450 1028 
Q 2513 709 2575 478 
Q 1981 66 1444 -372 
Q 1250 -534 1094 -741 
L 675 -322 
Q 919 -84 919 328 
L 919 2697 
L 81 2697 
L 81 3172 
L 1425 3172 
L 1425 253 
Q 1925 591 2450 1028 
z
M 738 5222 
Q 1419 4522 1725 4184 
L 1288 3816 
Q 894 4334 356 4891 
L 738 5222 
z
" transform="scale(0.015625)"/>
       <path id="MicrosoftYaHei-6bd4" d="M 3225 5316 
L 3744 5316 
L 3744 2672 
Q 4959 3550 5744 4509 
L 6188 4178 
Q 5175 3063 3744 2056 
L 3744 247 
Q 3744 -166 4106 -166 
L 5175 -166 
Q 5588 -166 5650 203 
Q 5725 678 5763 1247 
Q 6025 1147 6300 1066 
Q 6244 484 6150 22 
Q 6019 -622 5319 -622 
L 3944 -622 
Q 3225 -622 3225 159 
L 3225 5316 
z
M 1063 5153 
L 1063 3278 
L 2825 3278 
L 2825 2809 
L 1063 2809 
L 1063 153 
Q 1713 428 2763 928 
Q 2763 634 2788 366 
Q 1869 -3 1231 -328 
Q 956 -472 725 -672 
L 344 -184 
Q 544 -34 544 272 
L 544 5153 
L 1063 5153 
z
" transform="scale(0.015625)"/>
       <path id="MicrosoftYaHei-4f8b" d="M 2381 1841 
L 2631 2191 
Q 2916 1997 3247 1738 
Q 3488 2378 3581 3128 
L 2703 3128 
Q 2350 1984 1831 1291 
Q 1700 1491 1531 1678 
Q 2238 2694 2578 4522 
L 1900 4522 
L 1900 4959 
L 4319 4959 
L 4319 4522 
L 3044 4522 
Q 2947 4009 2828 3559 
L 4044 3559 
L 4044 3128 
Q 3788 666 2038 -822 
Q 1900 -634 1694 -416 
Q 2578 297 3063 1303 
Q 2753 1556 2381 1841 
z
M 88 2291 
Q 894 3659 1281 5322 
L 1744 5234 
Q 1578 4534 1325 3853 
L 1325 -809 
L 900 -809 
L 900 2847 
Q 625 2275 288 1716 
Q 213 1966 88 2291 
z
M 5575 5303 
L 6031 5303 
L 6031 84 
Q 6031 -391 5881 -566 
Q 5750 -728 5356 -734 
Q 5088 -741 4488 -722 
Q 4463 -466 4400 -203 
Q 4881 -253 5188 -253 
Q 5431 -259 5500 -166 
Q 5575 -84 5575 234 
L 5575 5303 
z
M 4913 653 
L 4469 653 
L 4469 4322 
L 4913 4322 
L 4913 653 
z
" transform="scale(0.015625)"/>
       <path id="MicrosoftYaHei-ff08" d="M 5288 -1100 
Q 4172 119 4172 1850 
Q 4172 3603 5288 4838 
L 5825 4838 
Q 4716 3572 4716 1856 
Q 4716 166 5819 -1100 
L 5288 -1100 
z
" transform="scale(0.015625)"/>
       <path id="MicrosoftYaHei-25" d="M 272 3619 
Q 272 4213 589 4563 
Q 906 4913 1444 4913 
Q 1959 4913 2248 4591 
Q 2538 4269 2538 3694 
Q 2538 3122 2219 2765 
Q 1900 2409 1372 2409 
Q 872 2409 572 2740 
Q 272 3072 272 3619 
z
M 753 3650 
Q 753 3247 928 3028 
Q 1103 2809 1406 2809 
Q 1719 2809 1889 3036 
Q 2059 3263 2059 3675 
Q 2059 4078 1892 4298 
Q 1725 4519 1422 4519 
Q 1113 4519 933 4289 
Q 753 4059 753 3650 
z
M 4647 4841 
L 1538 -31 
L 1016 -31 
L 4125 4841 
L 4647 4841 
z
M 3172 1134 
Q 3172 1728 3489 2083 
Q 3806 2438 4341 2438 
Q 4853 2438 5143 2114 
Q 5434 1791 5434 1203 
Q 5434 634 5112 279 
Q 4791 -75 4272 -75 
Q 3769 -75 3470 261 
Q 3172 597 3172 1134 
z
M 3650 1163 
Q 3650 769 3825 548 
Q 4000 328 4303 328 
Q 4616 328 4786 556 
Q 4956 784 4956 1194 
Q 4956 1600 4786 1815 
Q 4616 2031 4319 2031 
Q 4000 2031 3825 1801 
Q 3650 1572 3650 1163 
z
" transform="scale(0.015625)"/>
       <path id="MicrosoftYaHei-ff09" d="M 1113 -1100 
L 575 -1100 
Q 1684 163 1684 1888 
Q 1684 3581 581 4838 
L 1113 4838 
Q 2222 3628 2222 1888 
Q 2222 128 1113 -1100 
z
" transform="scale(0.015625)"/>
      </defs>
      <use xlink:href="#MicrosoftYaHei-56"/>
      <use xlink:href="#MicrosoftYaHei-32" transform="translate(67.626953 0)"/>
      <use xlink:href="#MicrosoftYaHei-42" transform="translate(126.269531 0)"/>
      <use xlink:href="#MicrosoftYaHei-20" transform="translate(189.013672 0)"/>
      <use xlink:href="#MicrosoftYaHei-5141" transform="translate(218.603516 0)"/>
      <use xlink:href="#MicrosoftYaHei-8bb8" transform="translate(318.603516 0)"/>
      <use xlink:href="#MicrosoftYaHei-6bd4" transform="translate(418.603516 0)"/>
      <use xlink:href="#MicrosoftYaHei-4f8b" transform="translate(518.603516 0)"/>
      <use xlink:href="#MicrosoftYaHei-ff08" transform="translate(618.603516 0)"/>
      <use xlink:href="#MicrosoftYaHei-25" transform="translate(718.603516 0)"/>
      <use xlink:href="#MicrosoftYaHei-ff09" transform="translate(807.568359 0)"/>
     </g>
    </g>
   </g>
   <g id="matplotlib.axis_2">
    <g id="ytick_1">
     <g id="line2d_13">
      <defs>
       <path id="m6962d994b7" d="M 0 0 
L -3.5 0 
" style="stroke: #000000; stroke-width: 0.8"/>
      </defs>
      <g>
       <use xlink:href="#m6962d994b7" x="44.2" y="55.652491" style="stroke: #000000; stroke-width: 0.8"/>
      </g>
     </g>
     <g id="text_8">
      <!-- 紧凑型 -->
      <g transform="translate(7.2 59.649366) scale(0.1 -0.1)">
       <defs>
        <path id="MicrosoftYaHei-7d27" d="M 4688 1934 
Q 5388 1347 5994 759 
L 5631 428 
Q 5391 675 5150 913 
Q 4381 875 3606 838 
L 3606 -3 
Q 3606 -747 2875 -747 
Q 2531 -747 2088 -734 
Q 2063 -522 2013 -241 
Q 2481 -291 2775 -291 
Q 3131 -291 3131 59 
L 3131 816 
Q 2409 778 1688 741 
Q 1269 716 963 659 
L 706 1153 
Q 1188 1247 1538 1378 
Q 2350 1672 3131 1997 
Q 2366 1947 1656 1897 
Q 1406 1878 1181 1834 
L 975 2309 
Q 1300 2391 1575 2484 
Q 2291 2778 2725 3022 
Q 2644 3206 2525 3378 
Q 3172 3453 3722 3669 
Q 3231 4056 2944 4616 
L 2663 4616 
L 2663 5003 
L 5656 5003 
L 5656 4603 
Q 5231 4044 4578 3647 
Q 5256 3366 6219 3328 
Q 6088 3103 5969 2859 
Q 4869 2981 4122 3403 
Q 3631 3172 3038 3016 
L 3250 2859 
Q 2450 2503 1813 2259 
Q 2756 2284 3922 2334 
Q 4316 2509 4700 2691 
L 5044 2391 
Q 3663 1766 1800 1109 
Q 3184 1166 4788 1266 
Q 4575 1469 4363 1666 
L 4688 1934 
z
M 1769 5228 
L 2219 5228 
L 2219 2916 
L 1769 2916 
L 1769 5228 
z
M 556 5066 
L 1006 5066 
L 1006 2984 
L 556 2984 
L 556 5066 
z
M 4138 191 
L 4375 566 
Q 5281 184 6094 -203 
L 5825 -641 
Q 5056 -228 4138 191 
z
M 1925 591 
L 2231 228 
Q 1381 -272 525 -684 
Q 431 -528 275 -272 
Q 1119 59 1925 591 
z
M 5138 4616 
L 3406 4616 
Q 3688 4163 4153 3869 
Q 4703 4159 5138 4616 
z
" transform="scale(0.015625)"/>
        <path id="MicrosoftYaHei-51d1" d="M 2000 947 
L 3469 947 
Q 3500 1197 3506 1522 
L 2750 1522 
L 2750 1797 
Q 2294 1322 1650 897 
Q 1431 1159 1306 1272 
Q 2200 1797 2719 2484 
L 1581 2484 
L 1581 2897 
L 2981 2897 
Q 3113 3122 3200 3372 
L 1994 3372 
L 1994 3772 
L 3325 3772 
Q 3388 3991 3431 4247 
L 1800 4247 
L 1800 4659 
L 3500 4659 
Q 3544 4966 3575 5316 
L 4050 5316 
Q 4019 4966 3975 4659 
L 5963 4659 
L 5963 4247 
L 3906 4247 
Q 3863 3991 3806 3772 
L 5775 3772 
L 5775 3372 
L 3700 3372 
Q 3625 3128 3513 2897 
L 6200 2897 
L 6200 2484 
L 4788 2484 
Q 5344 1772 6325 1422 
Q 6150 1178 6025 978 
Q 5325 1297 4813 1809 
L 4813 1522 
L 3963 1522 
Q 3956 1191 3925 947 
L 5538 947 
L 5538 534 
L 3856 534 
Q 3844 491 3825 441 
Q 4588 184 5963 -472 
L 5731 -897 
Q 4725 -347 3631 84 
Q 3131 -572 1794 -903 
Q 1694 -709 1519 -472 
Q 3019 -134 3363 534 
L 2000 534 
L 2000 947 
z
M 906 2484 
Q 1213 2359 1425 2297 
Q 1069 1072 669 -397 
L 156 -147 
Q 569 991 906 2484 
z
M 638 5022 
Q 1156 4309 1525 3672 
L 1063 3366 
Q 656 4128 231 4772 
L 638 5022 
z
M 4275 2484 
L 3288 2484 
Q 3100 2191 2863 1922 
L 4706 1922 
Q 4469 2178 4275 2484 
z
" transform="scale(0.015625)"/>
        <path id="MicrosoftYaHei-578b" d="M 150 3503 
L 1100 3503 
Q 1106 3638 1106 4547 
L 413 4547 
L 413 4959 
L 3675 4959 
L 3675 4547 
L 2994 4547 
L 2994 3503 
L 3881 3503 
L 3881 3091 
L 2994 3091 
L 2994 1747 
L 2538 1747 
L 2538 3091 
L 1528 3091 
Q 1450 2191 638 1534 
Q 475 1716 294 1897 
Q 1013 2453 1066 3091 
L 150 3091 
L 150 3503 
z
M 138 -103 
L 2938 -103 
L 2938 741 
L 706 741 
L 706 1172 
L 2938 1172 
L 2938 1659 
L 3425 1659 
L 3425 1172 
L 5713 1172 
L 5713 741 
L 3425 741 
L 3425 -103 
L 6256 -103 
L 6256 -534 
L 138 -534 
L 138 -103 
z
M 5856 5209 
L 5856 2334 
Q 5856 1672 5200 1659 
Q 4825 1647 4331 1659 
Q 4306 1897 4256 2153 
Q 4781 2122 5044 2122 
Q 5400 2122 5400 2516 
L 5400 5209 
L 5856 5209 
z
M 1556 3503 
L 2538 3503 
L 2538 4547 
L 1563 4547 
Q 1563 3791 1556 3503 
z
M 4138 4859 
L 4588 4859 
L 4588 2697 
L 4138 2697 
L 4138 4859 
z
" transform="scale(0.015625)"/>
       </defs>
       <use xlink:href="#MicrosoftYaHei-7d27"/>
       <use xlink:href="#MicrosoftYaHei-51d1" transform="translate(100 0)"/>
       <use xlink:href="#MicrosoftYaHei-578b" transform="translate(200 0)"/>
      </g>
     </g>
    </g>
    <g id="ytick_2">
     <g id="line2d_14">
      <g>
       <use xlink:href="#m6962d994b7" x="44.2" y="127.35433" style="stroke: #000000; stroke-width: 0.8"/>
      </g>
     </g>
     <g id="text_9">
      <!-- 轿车 -->
      <g transform="translate(17.2 131.351205) scale(0.1 -0.1)">
       <defs>
        <path id="MicrosoftYaHei-8f7f" d="M 694 2372 
L 1388 2372 
L 1388 3522 
L 1831 3522 
L 1831 2372 
L 2569 2372 
L 2569 1959 
L 1831 1959 
L 1831 1028 
Q 2231 1072 2669 1128 
Q 2638 872 2625 678 
Q 2281 641 1831 591 
L 1831 -859 
L 1388 -859 
L 1388 534 
Q 831 472 144 384 
L 94 841 
Q 681 897 1388 972 
L 1388 1959 
L 238 1959 
L 238 2372 
Q 531 3153 781 3947 
L 156 3947 
L 156 4359 
L 913 4359 
Q 1063 4841 1194 5328 
L 1669 5234 
Q 1531 4797 1388 4359 
L 2613 4359 
L 2613 3947 
L 1256 3947 
Q 988 3166 694 2372 
z
M 2419 1741 
Q 3469 2366 3794 3053 
L 2575 3053 
L 2575 3497 
L 3944 3497 
Q 4050 3916 4063 4497 
Q 3456 4472 2788 4453 
Q 2750 4703 2694 4897 
Q 4231 4934 5900 5072 
L 6019 4622 
Q 5331 4566 4525 4522 
Q 4500 3941 4413 3497 
L 6238 3497 
L 6238 3053 
L 4869 3053 
Q 5331 2253 6350 1859 
Q 6169 1591 6069 1422 
Q 4900 1959 4425 3053 
L 4288 3053 
Q 3975 2166 2744 1353 
Q 2638 1497 2419 1741 
z
M 3231 653 
Q 3288 978 3281 1697 
L 3744 1697 
Q 3744 972 3694 603 
Q 3563 -353 2575 -884 
Q 2431 -684 2275 -509 
Q 3119 -47 3231 653 
z
M 4913 1697 
L 5375 1697 
L 5375 -803 
L 4913 -803 
L 4913 1697 
z
" transform="scale(0.015625)"/>
        <path id="MicrosoftYaHei-8f66" d="M 163 922 
L 3206 922 
L 3206 1991 
L 913 1991 
L 913 2447 
Q 1334 3200 1688 3909 
L 400 3909 
L 400 4372 
L 1913 4372 
Q 2156 4878 2363 5359 
L 2831 5216 
Q 2625 4772 2434 4372 
L 5950 4372 
L 5950 3909 
L 2209 3909 
Q 1797 3063 1456 2441 
L 3206 2441 
L 3206 3647 
L 3694 3647 
L 3694 2441 
L 5500 2441 
L 5500 1991 
L 3694 1991 
L 3694 922 
L 6188 922 
L 6188 459 
L 3694 459 
L 3694 -853 
L 3206 -853 
L 3206 459 
L 163 459 
L 163 922 
z
" transform="scale(0.015625)"/>
       </defs>
       <use xlink:href="#MicrosoftYaHei-8f7f"/>
       <use xlink:href="#MicrosoftYaHei-8f66" transform="translate(100 0)"/>
      </g>
     </g>
    </g>
    <g id="ytick_3">
     <g id="line2d_15">
      <g>
       <use xlink:href="#m6962d994b7" x="44.2" y="199.05617" style="stroke: #000000; stroke-width: 0.8"/>
      </g>
     </g>
     <g id="text_10">
      <!-- SUV -->
      <g transform="translate(17.2 203.053045) scale(0.1 -0.1)">
       <defs>
        <path id="MicrosoftYaHei-53" d="M 400 909 
Q 622 716 994 591 
Q 1366 466 1700 466 
Q 2719 466 2719 1191 
Q 2719 1394 2609 1556 
Q 2500 1719 2309 1844 
Q 2119 1969 1594 2228 
Q 866 2591 634 2902 
Q 403 3213 403 3613 
Q 403 4216 887 4569 
Q 1372 4922 2109 4922 
Q 2831 4922 3169 4747 
L 3169 4066 
Q 2731 4369 2063 4369 
Q 1619 4369 1339 4183 
Q 1059 3997 1059 3666 
Q 1059 3372 1253 3187 
Q 1447 3003 2094 2684 
Q 2806 2344 3090 2003 
Q 3375 1663 3375 1238 
Q 3375 600 2912 259 
Q 2450 -81 1628 -81 
Q 1341 -81 958 -1 
Q 575 78 400 197 
L 400 909 
z
" transform="scale(0.015625)"/>
        <path id="MicrosoftYaHei-55" d="M 4213 1972 
Q 4213 -81 2350 -81 
Q 566 -81 566 1900 
L 566 4841 
L 1191 4841 
L 1191 1928 
Q 1191 475 2409 475 
Q 3588 475 3588 1881 
L 3588 4841 
L 4213 4841 
L 4213 1972 
z
" transform="scale(0.015625)"/>
       </defs>
       <use xlink:href="#MicrosoftYaHei-53"/>
       <use xlink:href="#MicrosoftYaHei-55" transform="translate(57.714844 0)"/>
       <use xlink:href="#MicrosoftYaHei-56" transform="translate(132.373047 0)"/>
      </g>
     </g>
    </g>
   </g>
   <g id="patch_3">
    <path d="M 44.2 35.934485 
L 291.117313 35.934485 
L 291.117313 75.370496 
L 44.2 75.370496 
z
" clip-path="url(#p7d6b52f212)" style="fill: #9aafa0; stroke: #6e7f72; stroke-width: 0.55; stroke-linejoin: miter"/>
   </g>
   <g id="patch_4">
    <path d="M 44.2 107.636324 
L 312.455846 107.636324 
L 312.455846 147.072336 
L 44.2 147.072336 
z
" clip-path="url(#p7d6b52f212)" style="fill: #9aafa0; stroke: #6e7f72; stroke-width: 0.55; stroke-linejoin: miter"/>
   </g>
   <g id="patch_5">
    <path d="M 44.2 179.338164 
L 261.395784 179.338164 
L 261.395784 218.774176 
L 44.2 218.774176 
z
" clip-path="url(#p7d6b52f212)" style="fill: #9aafa0; stroke: #6e7f72; stroke-width: 0.55; stroke-linejoin: miter"/>
   </g>
   <g id="patch_6">
    <path d="M 44.2 227.916161 
L 44.2 26.7925 
" style="fill: none; stroke: #3a3f45; stroke-width: 0.9; stroke-linejoin: miter; stroke-linecap: square"/>
   </g>
   <g id="patch_7">
    <path d="M 44.2 227.916161 
L 410.003426 227.916161 
" style="fill: none; stroke: #3a3f45; stroke-width: 0.9; stroke-linejoin: miter; stroke-linecap: square"/>
   </g>
   <g id="text_11">
    <!-- 67.5% -->
    <g style="fill: #4a4f55" transform="translate(295.506954 58.268701) scale(0.095 -0.095)">
     <defs>
      <path id="MicrosoftYaHei-37" d="M 3422 4463 
Q 2659 3131 2223 1998 
Q 1788 866 1684 0 
L 1047 0 
Q 1163 853 1594 1947 
Q 2025 3041 2747 4300 
L 347 4300 
L 347 4841 
L 3422 4841 
L 3422 4463 
z
" transform="scale(0.015625)"/>
      <path id="MicrosoftYaHei-2e" d="M 372 322 
Q 372 491 487 606 
Q 603 722 775 722 
Q 950 722 1065 605 
Q 1181 488 1181 322 
Q 1181 159 1065 42 
Q 950 -75 772 -75 
Q 600 -75 486 42 
Q 372 159 372 322 
z
" transform="scale(0.015625)"/>
      <path id="MicrosoftYaHei-35" d="M 3294 1494 
Q 3294 784 2823 350 
Q 2353 -84 1559 -84 
Q 878 -84 544 119 
L 544 744 
Q 1034 425 1544 425 
Q 2050 425 2361 704 
Q 2672 984 2672 1447 
Q 2672 1909 2348 2167 
Q 2025 2425 1434 2425 
Q 978 2425 613 2384 
L 791 4841 
L 3053 4841 
L 3053 4303 
L 1306 4303 
L 1206 2931 
L 1647 2950 
Q 2416 2950 2855 2567 
Q 3294 2184 3294 1494 
z
" transform="scale(0.015625)"/>
     </defs>
     <use xlink:href="#MicrosoftYaHei-36"/>
     <use xlink:href="#MicrosoftYaHei-37" transform="translate(58.642578 0)"/>
     <use xlink:href="#MicrosoftYaHei-2e" transform="translate(117.285156 0)"/>
     <use xlink:href="#MicrosoftYaHei-35" transform="translate(141.357422 0)"/>
     <use xlink:href="#MicrosoftYaHei-25" transform="translate(200 0)"/>
    </g>
   </g>
   <g id="text_12">
    <!-- 73.3% -->
    <g style="fill: #4a4f55" transform="translate(316.845487 129.970541) scale(0.095 -0.095)">
     <defs>
      <path id="MicrosoftYaHei-33" d="M 447 809 
Q 944 425 1569 425 
Q 2069 425 2361 670 
Q 2653 916 2653 1328 
Q 2653 2247 1338 2247 
L 934 2247 
L 934 2753 
L 1319 2753 
Q 2484 2753 2484 3616 
Q 2484 4413 1594 4413 
Q 1084 4413 634 4069 
L 634 4647 
Q 1109 4922 1744 4922 
Q 2363 4922 2738 4598 
Q 3113 4275 3113 3759 
Q 3113 2809 2144 2538 
L 2144 2525 
Q 2669 2469 2973 2155 
Q 3278 1841 3278 1372 
Q 3278 719 2808 319 
Q 2338 -81 1556 -81 
Q 869 -81 447 175 
L 447 809 
z
" transform="scale(0.015625)"/>
     </defs>
     <use xlink:href="#MicrosoftYaHei-37"/>
     <use xlink:href="#MicrosoftYaHei-33" transform="translate(58.642578 0)"/>
     <use xlink:href="#MicrosoftYaHei-2e" transform="translate(117.285156 0)"/>
     <use xlink:href="#MicrosoftYaHei-33" transform="translate(141.357422 0)"/>
     <use xlink:href="#MicrosoftYaHei-25" transform="translate(200 0)"/>
    </g>
   </g>
   <g id="text_13">
    <!-- 59.4% -->
    <g style="fill: #4a4f55" transform="translate(265.785425 201.672381) scale(0.095 -0.095)">
     <defs>
      <path id="MicrosoftYaHei-39" d="M 578 656 
Q 978 425 1441 425 
Q 2091 425 2448 937 
Q 2806 1450 2806 2394 
Q 2800 2388 2794 2394 
Q 2475 1788 1722 1788 
Q 1113 1788 713 2206 
Q 313 2625 313 3294 
Q 313 4006 750 4464 
Q 1188 4922 1884 4922 
Q 2606 4922 3012 4355 
Q 3419 3788 3419 2703 
Q 3419 1363 2894 641 
Q 2369 -81 1441 -81 
Q 931 -81 578 84 
L 578 656 
z
M 931 3372 
Q 931 2884 1181 2598 
Q 1431 2313 1872 2313 
Q 2253 2313 2512 2573 
Q 2772 2834 2772 3206 
Q 2772 3728 2514 4070 
Q 2256 4413 1834 4413 
Q 1444 4413 1187 4116 
Q 931 3819 931 3372 
z
" transform="scale(0.015625)"/>
     </defs>
     <use xlink:href="#MicrosoftYaHei-35"/>
     <use xlink:href="#MicrosoftYaHei-39" transform="translate(58.642578 0)"/>
     <use xlink:href="#MicrosoftYaHei-2e" transform="translate(117.285156 0)"/>
     <use xlink:href="#MicrosoftYaHei-34" transform="translate(141.357422 0)"/>
     <use xlink:href="#MicrosoftYaHei-25" transform="translate(200 0)"/>
    </g>
   </g>
   <g id="text_14">
    <!-- 不同车型 EV 的 V2B 允许比例 -->
    <g transform="translate(147.301713 16.7925) scale(0.12 -0.12)">
     <defs>
      <path id="MicrosoftYaHei-4e0d" d="M 225 4772 
L 6181 4772 
L 6181 4284 
L 3881 4284 
Q 3581 3766 3081 3053 
L 3444 3053 
L 3444 -866 
L 2906 -866 
L 2906 2859 
Q 1838 1541 388 609 
Q 231 834 38 1059 
Q 2006 2291 3213 4284 
L 225 4284 
L 225 4772 
z
M 4069 2859 
Q 5238 2147 6325 1409 
L 5969 916 
Q 4681 1872 3763 2434 
L 4069 2859 
z
" transform="scale(0.015625)"/>
      <path id="MicrosoftYaHei-540c" d="M 1013 -772 
L 531 -772 
L 531 4959 
L 5856 4959 
L 5856 -47 
Q 5856 -741 5125 -741 
Q 4669 -741 4088 -716 
Q 4056 -497 4000 -216 
Q 4619 -272 5025 -272 
Q 5375 -272 5375 78 
L 5375 4497 
L 1013 4497 
L 1013 -772 
z
M 1875 2566 
L 4506 2566 
L 4506 597 
L 2338 597 
L 2338 272 
L 1875 272 
L 1875 2566 
z
M 4044 2116 
L 2338 2116 
L 2338 1047 
L 4044 1047 
L 4044 2116 
z
M 1363 3734 
L 5025 3734 
L 5025 3284 
L 1363 3284 
L 1363 3734 
z
" transform="scale(0.015625)"/>
      <path id="MicrosoftYaHei-45" d="M 3228 0 
L 625 0 
L 625 4841 
L 3119 4841 
L 3119 4284 
L 1250 4284 
L 1250 2734 
L 2981 2734 
L 2981 2181 
L 1250 2181 
L 1250 553 
L 3228 553 
L 3228 0 
z
" transform="scale(0.015625)"/>
      <path id="MicrosoftYaHei-7684" d="M 356 4284 
L 988 4284 
Q 1219 4853 1369 5322 
L 1894 5172 
Q 1697 4694 1513 4284 
L 2763 4284 
L 2763 -691 
L 2263 -691 
L 2263 -203 
L 856 -203 
L 856 -734 
L 356 -734 
L 356 4284 
z
M 2856 3003 
Q 3444 3934 3850 5322 
L 4375 5191 
Q 4216 4719 4050 4303 
L 6063 4303 
Q 5988 1091 5938 259 
Q 5894 -722 4906 -722 
Q 4338 -722 3750 -684 
Q 3713 -372 3650 -128 
L 3669 -128 
Q 4294 -216 4813 -216 
Q 5381 -216 5425 384 
Q 5494 1316 5525 3834 
L 3850 3834 
Q 3578 3231 3288 2772 
Q 3119 2891 2856 3003 
z
M 856 266 
L 2263 266 
L 2263 1847 
L 856 1847 
L 856 266 
z
M 2263 3816 
L 856 3816 
L 856 2297 
L 2263 2297 
L 2263 3816 
z
M 3406 2578 
L 3788 2859 
Q 4481 2041 4894 1441 
L 4431 1116 
Q 3988 1841 3406 2578 
z
" transform="scale(0.015625)"/>
     </defs>
     <use xlink:href="#MicrosoftYaHei-4e0d"/>
     <use xlink:href="#MicrosoftYaHei-540c" transform="translate(100 0)"/>
     <use xlink:href="#MicrosoftYaHei-8f66" transform="translate(200 0)"/>
     <use xlink:href="#MicrosoftYaHei-578b" transform="translate(300 0)"/>
     <use xlink:href="#MicrosoftYaHei-20" transform="translate(400 0)"/>
     <use xlink:href="#MicrosoftYaHei-45" transform="translate(429.589844 0)"/>
     <use xlink:href="#MicrosoftYaHei-56" transform="translate(484.570312 0)"/>
     <use xlink:href="#MicrosoftYaHei-20" transform="translate(552.197266 0)"/>
     <use xlink:href="#MicrosoftYaHei-7684" transform="translate(581.787109 0)"/>
     <use xlink:href="#MicrosoftYaHei-20" transform="translate(681.787109 0)"/>
     <use xlink:href="#MicrosoftYaHei-56" transform="translate(711.376953 0)"/>
     <use xlink:href="#MicrosoftYaHei-32" transform="translate(779.003906 0)"/>
     <use xlink:href="#MicrosoftYaHei-42" transform="translate(837.646484 0)"/>
     <use xlink:href="#MicrosoftYaHei-20" transform="translate(900.390625 0)"/>
     <use xlink:href="#MicrosoftYaHei-5141" transform="translate(929.980469 0)"/>
     <use xlink:href="#MicrosoftYaHei-8bb8" transform="translate(1029.980469 0)"/>
     <use xlink:href="#MicrosoftYaHei-6bd4" transform="translate(1129.980469 0)"/>
     <use xlink:href="#MicrosoftYaHei-4f8b" transform="translate(1229.980469 0)"/>
    </g>
   </g>
  </g>
 </g>
 <defs>
  <clipPath id="p7d6b52f212">
   <rect x="44.2" y="26.7925" width="365.803426" height="201.123661"/>
  </clipPath>
 </defs>
</svg>
