<?xml version="1.0" encoding="utf-8" standalone="no"?>
<!DOCTYPE svg PUBLIC "-//W3C//DTD SVG 1.1//EN"
  "http://www.w3.org/Graphics/SVG/1.1/DTD/svg11.dtd">
<svg xmlns:xlink="http://www.w3.org/1999/xlink" width="469.19952pt" height="310.79952pt" viewBox="0 0 469.19952 310.79952" xmlns="http://www.w3.org/2000/svg" version="1.1">
 <metadata>
  <rdf:RDF xmlns:dc="http://purl.org/dc/elements/1.1/" xmlns:cc="http://creativecommons.org/ns#" xmlns:rdf="http://www.w3.org/1999/02/22-rdf-syntax-ns#">
   <cc:Work>
    <dc:type rdf:resource="http://purl.org/dc/dcmitype/StillImage"/>
    <dc:date>2026-04-11T12:44:01.954311</dc:date>
    <dc:format>image/svg+xml</dc:format>
    <dc:creator>
     <cc:Agent>
      <dc:title>Matplotlib v3.10.0, https://matplotlib.org/</dc:title>
     </cc:Agent>
    </dc:creator>
   </cc:Work>
  </rdf:RDF>
 </metadata>
 <defs>
  <style type="text/css">*{stroke-linejoin: round; stroke-linecap: butt}</style>
 </defs>
 <g id="figure_1">
  <g id="patch_1">
   <path d="M 0 310.79952 
L 469.19952 310.79952 
L 469.19952 0 
L 0 0 
z
" style="fill: #ffffff"/>
  </g>
  <g id="axes_1">
   <g id="patch_2">
    <path d="M 40.931797 271.116161 
L 419.995848 271.116161 
L 419.995848 26.7925 
L 40.931797 26.7925 
z
" style="fill: #ffffff"/>
   </g>
   <g id="matplotlib.axis_1">
    <g id="xtick_1">
     <g id="line2d_1">
      <defs>
       <path id="md02144fe30" d="M 0 0 
L 0 3.5 
" style="stroke: #000000; stroke-width: 0.8"/>
      </defs>
      <g>
       <use xlink:href="#md02144fe30" x="93.716329" y="271.116161" style="stroke: #000000; stroke-width: 0.8"/>
      </g>
     </g>
     <g id="text_1">
      <!-- 紧凑型 -->
      <g transform="translate(78.716329 286.109911) scale(0.1 -0.1)">
       <defs>
        <path id="MicrosoftYaHei-7d27" d="M 4688 1934 
Q 5388 1347 5994 759 
L 5631 428 
Q 5391 675 5150 913 
Q 4381 875 3606 838 
L 3606 -3 
Q 3606 -747 2875 -747 
Q 2531 -747 2088 -734 
Q 2063 -522 2013 -241 
Q 2481 -291 2775 -291 
Q 3131 -291 3131 59 
L 3131 816 
Q 2409 778 1688 741 
Q 1269 716 963 659 
L 706 1153 
Q 1188 1247 1538 1378 
Q 2350 1672 3131 1997 
Q 2366 1947 1656 1897 
Q 1406 1878 1181 1834 
L 975 2309 
Q 1300 2391 1575 2484 
Q 2291 2778 2725 3022 
Q 2644 3206 2525 3378 
Q 3172 3453 3722 3669 
Q 3231 4056 2944 4616 
L 2663 4616 
L 2663 5003 
L 5656 5003 
L 5656 4603 
Q 5231 4044 4578 3647 
Q 5256 3366 6219 3328 
Q 6088 3103 5969 2859 
Q 4869 2981 4122 3403 
Q 3631 3172 3038 3016 
L 3250 2859 
Q 2450 2503 1813 2259 
Q 2756 2284 3922 2334 
Q 4316 2509 4700 2691 
L 5044 2391 
Q 3663 1766 1800 1109 
Q 3184 1166 4788 1266 
Q 4575 1469 4363 1666 
L 4688 1934 
z
M 1769 5228 
L 2219 5228 
L 2219 2916 
L 1769 2916 
L 1769 5228 
z
M 556 5066 
L 1006 5066 
L 1006 2984 
L 556 2984 
L 556 5066 
z
M 4138 191 
L 4375 566 
Q 5281 184 6094 -203 
L 5825 -641 
Q 5056 -228 4138 191 
z
M 1925 591 
L 2231 228 
Q 1381 -272 525 -684 
Q 431 -528 275 -272 
Q 1119 59 1925 591 
z
M 5138 4616 
L 3406 4616 
Q 3688 4163 4153 3869 
Q 4703 4159 5138 4616 
z
" transform="scale(0.015625)"/>
        <path id="MicrosoftYaHei-51d1" d="M 2000 947 
L 3469 947 
Q 3500 1197 3506 1522 
L 2750 1522 
L 2750 1797 
Q 2294 1322 1650 897 
Q 1431 1159 1306 1272 
Q 2200 1797 2719 2484 
L 1581 2484 
L 1581 2897 
L 2981 2897 
Q 3113 3122 3200 3372 
L 1994 3372 
L 1994 3772 
L 3325 3772 
Q 3388 3991 3431 4247 
L 1800 4247 
L 1800 4659 
L 3500 4659 
Q 3544 4966 3575 5316 
L 4050 5316 
Q 4019 4966 3975 4659 
L 5963 4659 
L 5963 4247 
L 3906 4247 
Q 3863 3991 3806 3772 
L 5775 3772 
L 5775 3372 
L 3700 3372 
Q 3625 3128 3513 2897 
L 6200 2897 
L 6200 2484 
L 4788 2484 
Q 5344 1772 6325 1422 
Q 6150 1178 6025 978 
Q 5325 1297 4813 1809 
L 4813 1522 
L 3963 1522 
Q 3956 1191 3925 947 
L 5538 947 
L 5538 534 
L 3856 534 
Q 3844 491 3825 441 
Q 4588 184 5963 -472 
L 5731 -897 
Q 4725 -347 3631 84 
Q 3131 -572 1794 -903 
Q 1694 -709 1519 -472 
Q 3019 -134 3363 534 
L 2000 534 
L 2000 947 
z
M 906 2484 
Q 1213 2359 1425 2297 
Q 1069 1072 669 -397 
L 156 -147 
Q 569 991 906 2484 
z
M 638 5022 
Q 1156 4309 1525 3672 
L 1063 3366 
Q 656 4128 231 4772 
L 638 5022 
z
M 4275 2484 
L 3288 2484 
Q 3100 2191 2863 1922 
L 4706 1922 
Q 4469 2178 4275 2484 
z
" transform="scale(0.015625)"/>
        <path id="MicrosoftYaHei-578b" d="M 150 3503 
L 1100 3503 
Q 1106 3638 1106 4547 
L 413 4547 
L 413 4959 
L 3675 4959 
L 3675 4547 
L 2994 4547 
L 2994 3503 
L 3881 3503 
L 3881 3091 
L 2994 3091 
L 2994 1747 
L 2538 1747 
L 2538 3091 
L 1528 3091 
Q 1450 2191 638 1534 
Q 475 1716 294 1897 
Q 1013 2453 1066 3091 
L 150 3091 
L 150 3503 
z
M 138 -103 
L 2938 -103 
L 2938 741 
L 706 741 
L 706 1172 
L 2938 1172 
L 2938 1659 
L 3425 1659 
L 3425 1172 
L 5713 1172 
L 5713 741 
L 3425 741 
L 3425 -103 
L 6256 -103 
L 6256 -534 
L 138 -534 
L 138 -103 
z
M 5856 5209 
L 5856 2334 
Q 5856 1672 5200 1659 
Q 4825 1647 4331 1659 
Q 4306 1897 4256 2153 
Q 4781 2122 5044 2122 
Q 5400 2122 5400 2516 
L 5400 5209 
L 5856 5209 
z
M 1556 3503 
L 2538 3503 
L 2538 4547 
L 1563 4547 
Q 1563 3791 1556 3503 
z
M 4138 4859 
L 4588 4859 
L 4588 2697 
L 4138 2697 
L 4138 4859 
z
" transform="scale(0.015625)"/>
       </defs>
       <use xlink:href="#MicrosoftYaHei-7d27"/>
       <use xlink:href="#MicrosoftYaHei-51d1" transform="translate(100 0)"/>
       <use xlink:href="#MicrosoftYaHei-578b" transform="translate(200 0)"/>
      </g>
     </g>
    </g>
    <g id="xtick_2">
     <g id="line2d_2">
      <g>
       <use xlink:href="#md02144fe30" x="230.463823" y="271.116161" style="stroke: #000000; stroke-width: 0.8"/>
      </g>
     </g>
     <g id="text_2">
      <!-- 轿车 -->
      <g transform="translate(220.463823 286.109911) scale(0.1 -0.1)">
       <defs>
        <path id="MicrosoftYaHei-8f7f" d="M 694 2372 
L 1388 2372 
L 1388 3522 
L 1831 3522 
L 1831 2372 
L 2569 2372 
L 2569 1959 
L 1831 1959 
L 1831 1028 
Q 2231 1072 2669 1128 
Q 2638 872 2625 678 
Q 2281 641 1831 591 
L 1831 -859 
L 1388 -859 
L 1388 534 
Q 831 472 144 384 
L 94 841 
Q 681 897 1388 972 
L 1388 1959 
L 238 1959 
L 238 2372 
Q 531 3153 781 3947 
L 156 3947 
L 156 4359 
L 913 4359 
Q 1063 4841 1194 5328 
L 1669 5234 
Q 1531 4797 1388 4359 
L 2613 4359 
L 2613 3947 
L 1256 3947 
Q 988 3166 694 2372 
z
M 2419 1741 
Q 3469 2366 3794 3053 
L 2575 3053 
L 2575 3497 
L 3944 3497 
Q 4050 3916 4063 4497 
Q 3456 4472 2788 4453 
Q 2750 4703 2694 4897 
Q 4231 4934 5900 5072 
L 6019 4622 
Q 5331 4566 4525 4522 
Q 4500 3941 4413 3497 
L 6238 3497 
L 6238 3053 
L 4869 3053 
Q 5331 2253 6350 1859 
Q 6169 1591 6069 1422 
Q 4900 1959 4425 3053 
L 4288 3053 
Q 3975 2166 2744 1353 
Q 2638 1497 2419 1741 
z
M 3231 653 
Q 3288 978 3281 1697 
L 3744 1697 
Q 3744 972 3694 603 
Q 3563 -353 2575 -884 
Q 2431 -684 2275 -509 
Q 3119 -47 3231 653 
z
M 4913 1697 
L 5375 1697 
L 5375 -803 
L 4913 -803 
L 4913 1697 
z
" transform="scale(0.015625)"/>
        <path id="MicrosoftYaHei-8f66" d="M 163 922 
L 3206 922 
L 3206 1991 
L 913 1991 
L 913 2447 
Q 1334 3200 1688 3909 
L 400 3909 
L 400 4372 
L 1913 4372 
Q 2156 4878 2363 5359 
L 2831 5216 
Q 2625 4772 2434 4372 
L 5950 4372 
L 5950 3909 
L 2209 3909 
Q 1797 3063 1456 2441 
L 3206 2441 
L 3206 3647 
L 3694 3647 
L 3694 2441 
L 5500 2441 
L 5500 1991 
L 3694 1991 
L 3694 922 
L 6188 922 
L 6188 459 
L 3694 459 
L 3694 -853 
L 3206 -853 
L 3206 459 
L 163 459 
L 163 922 
z
" transform="scale(0.015625)"/>
       </defs>
       <use xlink:href="#MicrosoftYaHei-8f7f"/>
       <use xlink:href="#MicrosoftYaHei-8f66" transform="translate(100 0)"/>
      </g>
     </g>
    </g>
    <g id="xtick_3">
     <g id="line2d_3">
      <g>
       <use xlink:href="#md02144fe30" x="367.211316" y="271.116161" style="stroke: #000000; stroke-width: 0.8"/>
      </g>
     </g>
     <g id="text_3">
      <!-- SUV -->
      <g transform="translate(357.211316 286.109911) scale(0.1 -0.1)">
       <defs>
        <path id="MicrosoftYaHei-53" d="M 400 909 
Q 622 716 994 591 
Q 1366 466 1700 466 
Q 2719 466 2719 1191 
Q 2719 1394 2609 1556 
Q 2500 1719 2309 1844 
Q 2119 1969 1594 2228 
Q 866 2591 634 2902 
Q 403 3213 403 3613 
Q 403 4216 887 4569 
Q 1372 4922 2109 4922 
Q 2831 4922 3169 4747 
L 3169 4066 
Q 2731 4369 2063 4369 
Q 1619 4369 1339 4183 
Q 1059 3997 1059 3666 
Q 1059 3372 1253 3187 
Q 1447 3003 2094 2684 
Q 2806 2344 3090 2003 
Q 3375 1663 3375 1238 
Q 3375 600 2912 259 
Q 2450 -81 1628 -81 
Q 1341 -81 958 -1 
Q 575 78 400 197 
L 400 909 
z
" transform="scale(0.015625)"/>
        <path id="MicrosoftYaHei-55" d="M 4213 1972 
Q 4213 -81 2350 -81 
Q 566 -81 566 1900 
L 566 4841 
L 1191 4841 
L 1191 1928 
Q 1191 475 2409 475 
Q 3588 475 3588 1881 
L 3588 4841 
L 4213 4841 
L 4213 1972 
z
" transform="scale(0.015625)"/>
        <path id="MicrosoftYaHei-56" d="M 4272 4841 
L 2494 0 
L 1800 0 
L 56 4841 
L 750 4841 
L 2053 1056 
Q 2119 869 2150 622 
L 2166 622 
Q 2191 838 2275 1063 
L 3603 4841 
L 4272 4841 
z
" transform="scale(0.015625)"/>
       </defs>
       <use xlink:href="#MicrosoftYaHei-53"/>
       <use xlink:href="#MicrosoftYaHei-55" transform="translate(57.714844 0)"/>
       <use xlink:href="#MicrosoftYaHei-56" transform="translate(132.373047 0)"/>
      </g>
     </g>
    </g>
    <g id="text_4">
     <!-- 车型 -->
     <g transform="translate(219.963823 300.989286) scale(0.105 -0.105)">
      <use xlink:href="#MicrosoftYaHei-8f66"/>
      <use xlink:href="#MicrosoftYaHei-578b" transform="translate(100 0)"/>
     </g>
    </g>
   </g>
   <g id="matplotlib.axis_2">
    <g id="ytick_1">
     <g id="line2d_4">
      <path d="M 40.931797 271.116161 
L 419.995848 271.116161 
" clip-path="url(#pe880865b92)" style="fill: none; stroke-dasharray: 0.85,2.55; stroke-dashoffset: 0; stroke: #d8dde2; stroke-width: 0.85"/>
     </g>
     <g id="line2d_5">
      <defs>
       <path id="mdfcb3c0c19" d="M 0 0 
L -3.5 0 
" style="stroke: #4a4f55; stroke-width: 0.8"/>
      </defs>
      <g>
       <use xlink:href="#mdfcb3c0c19" x="40.931797" y="271.116161" style="fill: #4a4f55; stroke: #4a4f55; stroke-width: 0.8"/>
      </g>
     </g>
     <g id="text_5">
      <!-- 0 -->
      <g style="fill: #4a4f55" transform="translate(28.067734 275.113036) scale(0.1 -0.1)">
       <defs>
        <path id="MicrosoftYaHei-30" d="M 284 2325 
Q 284 3606 709 4264 
Q 1134 4922 1941 4922 
Q 3478 4922 3478 2441 
Q 3478 1216 3045 567 
Q 2613 -81 1831 -81 
Q 1094 -81 689 534 
Q 284 1150 284 2325 
z
M 909 2353 
Q 909 425 1888 425 
Q 2850 425 2850 2384 
Q 2850 4413 1906 4413 
Q 909 4413 909 2353 
z
" transform="scale(0.015625)"/>
       </defs>
       <use xlink:href="#MicrosoftYaHei-30"/>
      </g>
     </g>
    </g>
    <g id="ytick_2">
     <g id="line2d_6">
      <path d="M 40.931797 217.712082 
L 419.995848 217.712082 
" clip-path="url(#pe880865b92)" style="fill: none; stroke-dasharray: 0.85,2.55; stroke-dashoffset: 0; stroke: #d8dde2; stroke-width: 0.85"/>
     </g>
     <g id="line2d_7">
      <g>
       <use xlink:href="#mdfcb3c0c19" x="40.931797" y="217.712082" style="fill: #4a4f55; stroke: #4a4f55; stroke-width: 0.8"/>
      </g>
     </g>
     <g id="text_6">
      <!-- 20 -->
      <g style="fill: #4a4f55" transform="translate(22.203672 221.708957) scale(0.1 -0.1)">
       <defs>
        <path id="MicrosoftYaHei-32" d="M 2666 3572 
Q 2666 3963 2419 4186 
Q 2172 4409 1747 4409 
Q 1447 4409 1140 4256 
Q 834 4103 569 3819 
L 569 4413 
Q 806 4659 1107 4790 
Q 1409 4922 1816 4922 
Q 2472 4922 2872 4570 
Q 3272 4219 3272 3619 
Q 3272 3084 3026 2693 
Q 2781 2303 2188 1894 
Q 1581 1475 1376 1294 
Q 1172 1113 1090 947 
Q 1009 781 1009 544 
L 3416 544 
L 3416 0 
L 372 0 
L 372 241 
Q 372 659 486 951 
Q 600 1244 862 1520 
Q 1125 1797 1681 2184 
Q 2250 2584 2458 2886 
Q 2666 3188 2666 3572 
z
" transform="scale(0.015625)"/>
       </defs>
       <use xlink:href="#MicrosoftYaHei-32"/>
       <use xlink:href="#MicrosoftYaHei-30" transform="translate(58.642578 0)"/>
      </g>
     </g>
    </g>
    <g id="ytick_3">
     <g id="line2d_8">
      <path d="M 40.931797 164.308003 
L 419.995848 164.308003 
" clip-path="url(#pe880865b92)" style="fill: none; stroke-dasharray: 0.85,2.55; stroke-dashoffset: 0; stroke: #d8dde2; stroke-width: 0.85"/>
     </g>
     <g id="line2d_9">
      <g>
       <use xlink:href="#mdfcb3c0c19" x="40.931797" y="164.308003" style="fill: #4a4f55; stroke: #4a4f55; stroke-width: 0.8"/>
      </g>
     </g>
     <g id="text_7">
      <!-- 40 -->
      <g style="fill: #4a4f55" transform="translate(22.203672 168.304878) scale(0.1 -0.1)">
       <defs>
        <path id="MicrosoftYaHei-34" d="M 2906 4841 
L 2906 1644 
L 3631 1644 
L 3631 1138 
L 2906 1138 
L 2906 0 
L 2313 0 
L 2313 1138 
L 53 1138 
L 53 1616 
Q 656 2294 1265 3178 
Q 1875 4063 2272 4841 
L 2906 4841 
z
M 741 1644 
L 2313 1644 
L 2313 3950 
Q 1988 3366 1616 2817 
Q 1244 2269 741 1644 
z
" transform="scale(0.015625)"/>
       </defs>
       <use xlink:href="#MicrosoftYaHei-34"/>
       <use xlink:href="#MicrosoftYaHei-30" transform="translate(58.642578 0)"/>
      </g>
     </g>
    </g>
    <g id="ytick_4">
     <g id="line2d_10">
      <path d="M 40.931797 110.903924 
L 419.995848 110.903924 
" clip-path="url(#pe880865b92)" style="fill: none; stroke-dasharray: 0.85,2.55; stroke-dashoffset: 0; stroke: #d8dde2; stroke-width: 0.85"/>
     </g>
     <g id="line2d_11">
      <g>
       <use xlink:href="#mdfcb3c0c19" x="40.931797" y="110.903924" style="fill: #4a4f55; stroke: #4a4f55; stroke-width: 0.8"/>
      </g>
     </g>
     <g id="text_8">
      <!-- 60 -->
      <g style="fill: #4a4f55" transform="translate(22.203672 114.900799) scale(0.1 -0.1)">
       <defs>
        <path id="MicrosoftYaHei-36" d="M 3181 4219 
Q 2803 4413 2391 4413 
Q 1763 4413 1381 3866 
Q 1000 3319 994 2372 
L 1009 2372 
Q 1353 3038 2106 3038 
Q 2734 3038 3109 2628 
Q 3484 2219 3484 1541 
Q 3484 831 3051 375 
Q 2619 -81 1947 -81 
Q 1209 -81 789 495 
Q 369 1072 369 2131 
Q 369 3413 920 4167 
Q 1472 4922 2372 4922 
Q 2888 4922 3181 4781 
L 3181 4219 
z
M 1031 1584 
Q 1031 1106 1286 765 
Q 1541 425 1963 425 
Q 2363 425 2613 719 
Q 2863 1013 2863 1475 
Q 2863 1975 2627 2253 
Q 2391 2531 1956 2531 
Q 1544 2531 1287 2250 
Q 1031 1969 1031 1584 
z
" transform="scale(0.015625)"/>
       </defs>
       <use xlink:href="#MicrosoftYaHei-36"/>
       <use xlink:href="#MicrosoftYaHei-30" transform="translate(58.642578 0)"/>
      </g>
     </g>
    </g>
    <g id="ytick_5">
     <g id="line2d_12">
      <path d="M 40.931797 57.499845 
L 419.995848 57.499845 
" clip-path="url(#pe880865b92)" style="fill: none; stroke-dasharray: 0.85,2.55; stroke-dashoffset: 0; stroke: #d8dde2; stroke-width: 0.85"/>
     </g>
     <g id="line2d_13">
      <g>
       <use xlink:href="#mdfcb3c0c19" x="40.931797" y="57.499845" style="fill: #4a4f55; stroke: #4a4f55; stroke-width: 0.8"/>
      </g>
     </g>
     <g id="text_9">
      <!-- 80 -->
      <g style="fill: #4a4f55" transform="translate(22.203672 61.49672) scale(0.1 -0.1)">
       <defs>
        <path id="MicrosoftYaHei-38" d="M 306 1350 
Q 306 1769 556 2122 
Q 806 2475 1200 2625 
Q 884 2803 700 3081 
Q 516 3359 516 3684 
Q 516 4028 692 4312 
Q 869 4597 1183 4759 
Q 1497 4922 1875 4922 
Q 2256 4922 2572 4761 
Q 2888 4600 3063 4315 
Q 3238 4031 3238 3684 
Q 3238 3366 3058 3086 
Q 2878 2806 2559 2625 
Q 2953 2472 3200 2119 
Q 3447 1766 3447 1350 
Q 3447 938 3250 611 
Q 3053 284 2690 103 
Q 2328 -78 1875 -78 
Q 1425 -78 1065 103 
Q 706 284 506 612 
Q 306 941 306 1350 
z
M 906 1378 
Q 906 947 1172 687 
Q 1438 428 1878 428 
Q 2309 428 2582 692 
Q 2856 956 2856 1378 
Q 2856 1778 2579 2051 
Q 2303 2325 1878 2325 
Q 1456 2325 1181 2058 
Q 906 1791 906 1378 
z
M 1081 3634 
Q 1081 3309 1312 3076 
Q 1544 2844 1878 2844 
Q 2206 2844 2445 3078 
Q 2684 3313 2684 3634 
Q 2684 3963 2454 4191 
Q 2225 4419 1878 4419 
Q 1534 4419 1307 4195 
Q 1081 3972 1081 3634 
z
" transform="scale(0.015625)"/>
       </defs>
       <use xlink:href="#MicrosoftYaHei-38"/>
       <use xlink:href="#MicrosoftYaHei-30" transform="translate(58.642578 0)"/>
      </g>
     </g>
    </g>
    <g id="text_10">
     <!-- 平均电池容量（kWh） -->
     <g style="fill: #4a4f55" transform="translate(15.593438 202.387846) rotate(-90) scale(0.105 -0.105)">
      <defs>
       <path id="MicrosoftYaHei-5e73" d="M 169 1934 
L 2938 1934 
L 2938 4547 
L 450 4547 
L 450 5028 
L 5975 5028 
L 5975 4547 
L 3463 4547 
L 3463 1934 
L 6250 1934 
L 6250 1453 
L 3463 1453 
L 3463 -847 
L 2938 -847 
L 2938 1453 
L 169 1453 
L 169 1934 
z
M 3950 2559 
Q 4638 3284 5188 4159 
L 5656 3859 
Q 4950 2891 4338 2234 
L 3950 2559 
z
M 769 3859 
L 1163 4134 
Q 1863 3316 2369 2553 
L 1925 2222 
Q 1444 3003 769 3859 
z
" transform="scale(0.015625)"/>
       <path id="MicrosoftYaHei-5747" d="M 2244 2803 
Q 2931 3953 3338 5322 
L 3838 5172 
Q 3691 4744 3531 4347 
L 6013 4347 
Q 5925 1053 5875 297 
Q 5831 -697 4806 -697 
Q 4188 -697 3706 -672 
Q 3669 -422 3606 -141 
L 3625 -141 
Q 4250 -209 4775 -209 
Q 5350 -209 5394 378 
Q 5456 1447 5513 3891 
L 3341 3891 
Q 3028 3172 2675 2572 
Q 2481 2691 2244 2803 
z
M 81 428 
Q 559 600 1006 769 
L 1006 3253 
L 169 3253 
L 169 3697 
L 1006 3697 
L 1006 5259 
L 1469 5259 
L 1469 3697 
L 2281 3697 
L 2281 3253 
L 1469 3253 
L 1469 947 
Q 1922 1125 2338 1303 
Q 2350 991 2369 784 
Q 1363 403 250 -53 
L 81 428 
z
M 2513 853 
Q 3769 1353 5119 1934 
Q 5150 1641 5188 1434 
Q 4031 947 2706 359 
L 2513 853 
z
M 3138 2909 
L 3481 3216 
Q 4025 2716 4531 2216 
L 4125 1859 
Q 3644 2409 3138 2909 
z
" transform="scale(0.015625)"/>
       <path id="MicrosoftYaHei-7535" d="M 406 4497 
L 2713 4497 
L 2713 5297 
L 3231 5297 
L 3231 4497 
L 5544 4497 
L 5544 984 
L 3231 984 
L 3231 253 
Q 3231 -128 3631 -128 
L 5094 -128 
Q 5519 -128 5613 153 
Q 5713 459 5756 1034 
Q 5938 953 6275 841 
Q 6200 341 6106 -16 
Q 5950 -603 5256 -603 
L 3594 -603 
Q 2713 -603 2713 259 
L 2713 984 
L 925 984 
L 925 553 
L 406 553 
L 406 4497 
z
M 5025 1453 
L 5025 2522 
L 3231 2522 
L 3231 1453 
L 5025 1453 
z
M 925 1453 
L 2713 1453 
L 2713 2522 
L 925 2522 
L 925 1453 
z
M 5025 4028 
L 3231 4028 
L 3231 2966 
L 5025 2966 
L 5025 4028 
z
M 925 2966 
L 2713 2966 
L 2713 4028 
L 925 4028 
L 925 2966 
z
" transform="scale(0.015625)"/>
       <path id="MicrosoftYaHei-6c60" d="M 3763 5303 
L 4250 5303 
L 4250 3769 
L 5919 4147 
Q 5875 2766 5850 2228 
Q 5825 1697 5656 1484 
Q 5494 1284 5069 1284 
Q 4875 1284 4575 1291 
Q 4538 1534 4481 1809 
Q 4788 1766 5050 1766 
Q 5344 1766 5369 2234 
Q 5394 2566 5413 3566 
L 4250 3297 
L 4250 509 
L 3763 509 
L 3763 3184 
L 2688 2938 
L 2688 353 
Q 2688 -128 3169 -128 
L 5125 -128 
Q 5588 -128 5663 291 
Q 5731 628 5794 1266 
Q 6044 1166 6319 1084 
Q 6244 509 6138 72 
Q 5975 -603 5244 -603 
L 3075 -603 
Q 2200 -603 2200 272 
L 2200 2825 
L 1694 2709 
L 1613 3172 
L 2200 3303 
L 2200 4572 
L 2688 4572 
L 2688 3416 
L 3763 3659 
L 3763 5303 
z
M 994 1784 
Q 1313 1616 1525 1534 
Q 1194 472 819 -753 
L 256 -503 
Q 713 641 994 1784 
z
M 700 5209 
Q 1319 4728 1781 4328 
Q 1563 4091 1406 3928 
Q 938 4384 375 4866 
L 700 5209 
z
M 400 3603 
Q 975 3191 1481 2759 
Q 1250 2484 1119 2347 
Q 650 2778 88 3241 
L 400 3603 
z
" transform="scale(0.015625)"/>
       <path id="MicrosoftYaHei-5bb9" d="M 3550 3147 
Q 3500 3091 3444 3022 
Q 4644 1872 6313 1447 
Q 6106 1134 6006 916 
Q 5594 1066 5225 1247 
L 5225 -859 
L 4725 -859 
L 4725 -578 
L 1669 -578 
L 1669 -859 
L 1169 -859 
L 1169 1191 
Q 763 972 338 797 
Q 225 1028 63 1241 
Q 2000 2059 3025 3228 
L 3550 3147 
z
M 363 4572 
L 3038 4572 
Q 2900 4822 2725 5109 
L 3206 5328 
Q 3438 4972 3644 4572 
L 6031 4572 
L 6031 3522 
L 5525 3522 
L 5525 4122 
L 863 4122 
L 863 3497 
L 363 3497 
L 363 4572 
z
M 4725 934 
L 1669 934 
L 1669 -128 
L 4725 -128 
L 4725 934 
z
M 3163 2684 
Q 2394 1928 1494 1384 
L 4950 1384 
Q 3869 1953 3163 2684 
z
M 2338 3847 
L 2638 3441 
Q 1488 2734 706 2359 
Q 594 2566 419 2791 
Q 1494 3259 2338 3847 
z
M 4006 3841 
Q 4944 3409 5938 2859 
L 5650 2416 
Q 4875 2891 3744 3453 
L 4006 3841 
z
" transform="scale(0.015625)"/>
       <path id="MicrosoftYaHei-91cf" d="M 113 -278 
L 2981 -278 
L 2981 78 
L 475 78 
L 475 403 
L 2981 403 
L 2981 759 
L 1494 759 
L 1494 597 
L 1069 597 
L 1069 2516 
L 5350 2516 
L 5350 597 
L 4925 597 
L 4925 759 
L 3419 759 
L 3419 403 
L 5931 403 
L 5931 78 
L 3419 78 
L 3419 -278 
L 6288 -278 
L 6288 -616 
L 113 -616 
L 113 -278 
z
M 1119 5072 
L 5306 5072 
L 5306 3284 
L 4881 3284 
L 4881 3453 
L 1544 3453 
L 1544 3284 
L 1119 3284 
L 1119 5072 
z
M 163 3153 
L 6263 3153 
L 6263 2816 
L 163 2816 
L 163 3153 
z
M 1544 3778 
L 4881 3778 
L 4881 4116 
L 1544 4116 
L 1544 3778 
z
M 4881 4747 
L 1544 4747 
L 1544 4416 
L 4881 4416 
L 4881 4747 
z
M 3419 1084 
L 4925 1084 
L 4925 1491 
L 3419 1491 
L 3419 1084 
z
M 1494 1084 
L 2981 1084 
L 2981 1491 
L 1494 1491 
L 1494 1084 
z
M 4925 2191 
L 3419 2191 
L 3419 1791 
L 4925 1791 
L 4925 2191 
z
M 1494 1791 
L 2981 1791 
L 2981 2191 
L 1494 2191 
L 1494 1791 
z
" transform="scale(0.015625)"/>
       <path id="MicrosoftYaHei-ff08" d="M 5288 -1100 
Q 4172 119 4172 1850 
Q 4172 3603 5288 4838 
L 5825 4838 
Q 4716 3572 4716 1856 
Q 4716 166 5819 -1100 
L 5288 -1100 
z
" transform="scale(0.015625)"/>
       <path id="MicrosoftYaHei-6b" d="M 3484 0 
L 2650 0 
L 1172 1666 
L 1159 1666 
L 1159 0 
L 547 0 
L 547 5116 
L 1159 5116 
L 1159 1872 
L 1172 1872 
L 2575 3456 
L 3363 3456 
L 1800 1794 
L 3484 0 
z
" transform="scale(0.015625)"/>
       <path id="MicrosoftYaHei-57" d="M 6431 4841 
L 5075 0 
L 4347 0 
L 3372 3488 
Q 3306 3725 3294 3988 
L 3281 3988 
Q 3263 3728 3194 3494 
L 2209 0 
L 1488 0 
L 84 4841 
L 775 4841 
L 1763 1184 
Q 1828 938 1841 688 
L 1859 688 
Q 1875 875 1963 1184 
L 3009 4841 
L 3625 4841 
L 4625 1156 
Q 4675 975 4706 694 
L 4719 694 
Q 4734 897 4809 1169 
L 5759 4841 
L 6431 4841 
z
" transform="scale(0.015625)"/>
       <path id="MicrosoftYaHei-68" d="M 3466 0 
L 2856 0 
L 2856 1988 
Q 2856 3031 2081 3031 
Q 1684 3031 1421 2726 
Q 1159 2422 1159 1959 
L 1159 0 
L 547 0 
L 547 5116 
L 1159 5116 
L 1159 2888 
L 1172 2888 
Q 1569 3538 2300 3538 
Q 3466 3538 3466 2128 
L 3466 0 
z
" transform="scale(0.015625)"/>
       <path id="MicrosoftYaHei-ff09" d="M 1113 -1100 
L 575 -1100 
Q 1684 163 1684 1888 
Q 1684 3581 581 4838 
L 1113 4838 
Q 2222 3628 2222 1888 
Q 2222 128 1113 -1100 
z
" transform="scale(0.015625)"/>
      </defs>
      <use xlink:href="#MicrosoftYaHei-5e73"/>
      <use xlink:href="#MicrosoftYaHei-5747" transform="translate(100 0)"/>
      <use xlink:href="#MicrosoftYaHei-7535" transform="translate(200 0)"/>
      <use xlink:href="#MicrosoftYaHei-6c60" transform="translate(300 0)"/>
      <use xlink:href="#MicrosoftYaHei-5bb9" transform="translate(400 0)"/>
      <use xlink:href="#MicrosoftYaHei-91cf" transform="translate(500 0)"/>
      <use xlink:href="#MicrosoftYaHei-ff08" transform="translate(600 0)"/>
      <use xlink:href="#MicrosoftYaHei-6b" transform="translate(700 0)"/>
      <use xlink:href="#MicrosoftYaHei-57" transform="translate(754.443359 0)"/>
      <use xlink:href="#MicrosoftYaHei-68" transform="translate(856.201172 0)"/>
      <use xlink:href="#MicrosoftYaHei-ff09" transform="translate(917.773438 0)"/>
     </g>
    </g>
   </g>
   <g id="patch_3">
    <path d="M 58.161981 271.116161 
L 129.270678 271.116161 
L 129.270678 137.605964 
L 58.161981 137.605964 
z
" clip-path="url(#pe880865b92)" style="fill: #8faab8; stroke: #5f7380; stroke-width: 0.6; stroke-linejoin: miter"/>
   </g>
   <g id="patch_4">
    <path d="M 194.909474 271.116161 
L 266.018171 271.116161 
L 266.018171 110.903924 
L 194.909474 110.903924 
z
" clip-path="url(#pe880865b92)" style="fill: #8faab8; stroke: #5f7380; stroke-width: 0.6; stroke-linejoin: miter"/>
   </g>
   <g id="patch_5">
    <path d="M 331.656967 271.116161 
L 402.765664 271.116161 
L 402.765664 70.850865 
L 331.656967 70.850865 
z
" clip-path="url(#pe880865b92)" style="fill: #8faab8; stroke: #5f7380; stroke-width: 0.6; stroke-linejoin: miter"/>
   </g>
   <g id="patch_6">
    <path d="M 40.931797 271.116161 
L 40.931797 26.7925 
" style="fill: none; stroke: #3a3f45; stroke-width: 0.9; stroke-linejoin: miter; stroke-linecap: square"/>
   </g>
   <g id="patch_7">
    <path d="M 419.995848 271.116161 
L 419.995848 26.7925 
" style="fill: none; stroke: #3a3f45; stroke-width: 0.9; stroke-linejoin: miter; stroke-linecap: square"/>
   </g>
   <g id="patch_8">
    <path d="M 40.931797 271.116161 
L 419.995848 271.116161 
" style="fill: none; stroke: #3a3f45; stroke-width: 0.9; stroke-linejoin: miter; stroke-linecap: square"/>
   </g>
   <g id="text_11">
    <!-- 50.0 -->
    <g style="fill: #4a4f55" transform="translate(84.216329 131.239017) scale(0.095 -0.095)">
     <defs>
      <path id="MicrosoftYaHei-35" d="M 3294 1494 
Q 3294 784 2823 350 
Q 2353 -84 1559 -84 
Q 878 -84 544 119 
L 544 744 
Q 1034 425 1544 425 
Q 2050 425 2361 704 
Q 2672 984 2672 1447 
Q 2672 1909 2348 2167 
Q 2025 2425 1434 2425 
Q 978 2425 613 2384 
L 791 4841 
L 3053 4841 
L 3053 4303 
L 1306 4303 
L 1206 2931 
L 1647 2950 
Q 2416 2950 2855 2567 
Q 3294 2184 3294 1494 
z
" transform="scale(0.015625)"/>
      <path id="MicrosoftYaHei-2e" d="M 372 322 
Q 372 491 487 606 
Q 603 722 775 722 
Q 950 722 1065 605 
Q 1181 488 1181 322 
Q 1181 159 1065 42 
Q 950 -75 772 -75 
Q 600 -75 486 42 
Q 372 159 372 322 
z
" transform="scale(0.015625)"/>
     </defs>
     <use xlink:href="#MicrosoftYaHei-35"/>
     <use xlink:href="#MicrosoftYaHei-30" transform="translate(58.642578 0)"/>
     <use xlink:href="#MicrosoftYaHei-2e" transform="translate(117.285156 0)"/>
     <use xlink:href="#MicrosoftYaHei-30" transform="translate(141.357422 0)"/>
    </g>
   </g>
   <g id="text_12">
    <!-- 60.0 -->
    <g style="fill: #4a4f55" transform="translate(220.963823 104.536978) scale(0.095 -0.095)">
     <use xlink:href="#MicrosoftYaHei-36"/>
     <use xlink:href="#MicrosoftYaHei-30" transform="translate(58.642578 0)"/>
     <use xlink:href="#MicrosoftYaHei-2e" transform="translate(117.285156 0)"/>
     <use xlink:href="#MicrosoftYaHei-30" transform="translate(141.357422 0)"/>
    </g>
   </g>
   <g id="text_13">
    <!-- 75.0 -->
    <g style="fill: #4a4f55" transform="translate(357.711316 64.483918) scale(0.095 -0.095)">
     <defs>
      <path id="MicrosoftYaHei-37" d="M 3422 4463 
Q 2659 3131 2223 1998 
Q 1788 866 1684 0 
L 1047 0 
Q 1163 853 1594 1947 
Q 2025 3041 2747 4300 
L 347 4300 
L 347 4841 
L 3422 4841 
L 3422 4463 
z
" transform="scale(0.015625)"/>
     </defs>
     <use xlink:href="#MicrosoftYaHei-37"/>
     <use xlink:href="#MicrosoftYaHei-35" transform="translate(58.642578 0)"/>
     <use xlink:href="#MicrosoftYaHei-2e" transform="translate(117.285156 0)"/>
     <use xlink:href="#MicrosoftYaHei-30" transform="translate(141.357422 0)"/>
    </g>
   </g>
   <g id="text_14">
    <!-- 不同车型 EV 的平均电池容量与单位吞吐退化成本 -->
    <g transform="translate(99.55601 16.7925) scale(0.12 -0.12)">
     <defs>
      <path id="MicrosoftYaHei-4e0d" d="M 225 4772 
L 6181 4772 
L 6181 4284 
L 3881 4284 
Q 3581 3766 3081 3053 
L 3444 3053 
L 3444 -866 
L 2906 -866 
L 2906 2859 
Q 1838 1541 388 609 
Q 231 834 38 1059 
Q 2006 2291 3213 4284 
L 225 4284 
L 225 4772 
z
M 4069 2859 
Q 5238 2147 6325 1409 
L 5969 916 
Q 4681 1872 3763 2434 
L 4069 2859 
z
" transform="scale(0.015625)"/>
      <path id="MicrosoftYaHei-540c" d="M 1013 -772 
L 531 -772 
L 531 4959 
L 5856 4959 
L 5856 -47 
Q 5856 -741 5125 -741 
Q 4669 -741 4088 -716 
Q 4056 -497 4000 -216 
Q 4619 -272 5025 -272 
Q 5375 -272 5375 78 
L 5375 4497 
L 1013 4497 
L 1013 -772 
z
M 1875 2566 
L 4506 2566 
L 4506 597 
L 2338 597 
L 2338 272 
L 1875 272 
L 1875 2566 
z
M 4044 2116 
L 2338 2116 
L 2338 1047 
L 4044 1047 
L 4044 2116 
z
M 1363 3734 
L 5025 3734 
L 5025 3284 
L 1363 3284 
L 1363 3734 
z
" transform="scale(0.015625)"/>
      <path id="MicrosoftYaHei-20" transform="scale(0.015625)"/>
      <path id="MicrosoftYaHei-45" d="M 3228 0 
L 625 0 
L 625 4841 
L 3119 4841 
L 3119 4284 
L 1250 4284 
L 1250 2734 
L 2981 2734 
L 2981 2181 
L 1250 2181 
L 1250 553 
L 3228 553 
L 3228 0 
z
" transform="scale(0.015625)"/>
      <path id="MicrosoftYaHei-7684" d="M 356 4284 
L 988 4284 
Q 1219 4853 1369 5322 
L 1894 5172 
Q 1697 4694 1513 4284 
L 2763 4284 
L 2763 -691 
L 2263 -691 
L 2263 -203 
L 856 -203 
L 856 -734 
L 356 -734 
L 356 4284 
z
M 2856 3003 
Q 3444 3934 3850 5322 
L 4375 5191 
Q 4216 4719 4050 4303 
L 6063 4303 
Q 5988 1091 5938 259 
Q 5894 -722 4906 -722 
Q 4338 -722 3750 -684 
Q 3713 -372 3650 -128 
L 3669 -128 
Q 4294 -216 4813 -216 
Q 5381 -216 5425 384 
Q 5494 1316 5525 3834 
L 3850 3834 
Q 3578 3231 3288 2772 
Q 3119 2891 2856 3003 
z
M 856 266 
L 2263 266 
L 2263 1847 
L 856 1847 
L 856 266 
z
M 2263 3816 
L 856 3816 
L 856 2297 
L 2263 2297 
L 2263 3816 
z
M 3406 2578 
L 3788 2859 
Q 4481 2041 4894 1441 
L 4431 1116 
Q 3988 1841 3406 2578 
z
" transform="scale(0.015625)"/>
      <path id="MicrosoftYaHei-4e0e" d="M 1163 2384 
L 1163 2859 
L 1413 5328 
L 1931 5328 
L 1834 4334 
L 6269 4334 
L 6269 3859 
L 1791 3859 
L 1694 2859 
L 5813 2859 
Q 5738 1547 5644 416 
Q 5556 -247 5263 -478 
Q 4981 -703 4322 -703 
Q 3706 -697 2900 -678 
Q 2863 -466 2794 -134 
Q 3744 -203 4213 -209 
Q 5050 -266 5125 447 
Q 5206 1278 5263 2384 
L 1163 2384 
z
M 106 1409 
L 4738 1409 
L 4738 934 
L 106 934 
L 106 1409 
z
" transform="scale(0.015625)"/>
      <path id="MicrosoftYaHei-5355" d="M 125 909 
L 2956 909 
L 2956 1616 
L 1225 1616 
L 1225 1322 
L 750 1322 
L 750 4353 
L 2047 4353 
Q 1747 4703 1400 5072 
L 1756 5366 
Q 2219 4922 2569 4547 
L 2338 4353 
L 3803 4353 
Q 4147 4809 4500 5347 
L 5000 5078 
Q 4678 4688 4378 4353 
L 5656 4353 
L 5656 1322 
L 5181 1322 
L 5181 1616 
L 3444 1616 
L 3444 909 
L 6275 909 
L 6275 459 
L 3444 459 
L 3444 -859 
L 2956 -859 
L 2956 459 
L 125 459 
L 125 909 
z
M 3444 2053 
L 5181 2053 
L 5181 2778 
L 3444 2778 
L 3444 2053 
z
M 1225 2053 
L 2956 2053 
L 2956 2778 
L 1225 2778 
L 1225 2053 
z
M 5181 3916 
L 3444 3916 
L 3444 3203 
L 5181 3203 
L 5181 3916 
z
M 1225 3203 
L 2956 3203 
L 2956 3916 
L 1225 3916 
L 1225 3203 
z
" transform="scale(0.015625)"/>
      <path id="MicrosoftYaHei-4f4d" d="M 1788 -59 
L 4228 -59 
Q 4678 1144 5269 3372 
L 5831 3203 
Q 5453 2044 4756 -59 
L 6319 -59 
L 6319 -522 
L 1788 -522 
L 1788 -59 
z
M 81 2291 
Q 975 3641 1431 5322 
L 1963 5191 
Q 1703 4397 1406 3709 
L 1406 -853 
L 938 -853 
L 938 2731 
Q 644 2181 319 1716 
Q 231 1953 81 2291 
z
M 1919 4191 
L 4122 4191 
Q 3844 4659 3506 5059 
L 3931 5353 
Q 4206 5034 4613 4497 
L 4150 4191 
L 6206 4191 
L 6206 3728 
L 1919 3728 
L 1919 4191 
z
M 2769 3309 
Q 3181 2184 3669 584 
L 3150 434 
Q 2725 1966 2294 3147 
L 2769 3309 
z
" transform="scale(0.015625)"/>
      <path id="MicrosoftYaHei-541e" d="M 238 3522 
L 2547 3522 
Q 2781 3972 2925 4522 
L 706 4522 
L 706 4959 
L 5719 4959 
L 5719 4522 
L 3459 4522 
Q 3294 3963 3097 3522 
L 6169 3522 
L 6169 3084 
L 4028 3084 
Q 4844 2038 6331 1753 
Q 6150 1503 6006 1259 
Q 5569 1391 5194 1572 
L 5194 -841 
L 4706 -841 
L 4706 -428 
L 1750 -428 
L 1750 -853 
L 1263 -853 
L 1263 1594 
Q 875 1363 413 1147 
Q 256 1366 75 1572 
Q 1575 2166 2269 3084 
L 238 3084 
L 238 3522 
z
M 4706 1322 
L 1750 1322 
L 1750 -9 
L 4706 -9 
L 4706 1322 
z
M 1509 1747 
L 4869 1747 
Q 4006 2256 3522 3084 
L 2875 3084 
Q 2453 2363 1509 1747 
z
" transform="scale(0.015625)"/>
      <path id="MicrosoftYaHei-5410" d="M 519 4528 
L 2375 4528 
L 2375 503 
L 994 503 
L 994 59 
L 519 59 
L 519 4528 
z
M 2363 16 
L 4200 16 
L 4200 2878 
L 2838 2878 
L 2838 3353 
L 4200 3353 
L 4200 5247 
L 4731 5247 
L 4731 3353 
L 6069 3353 
L 6069 2878 
L 4731 2878 
L 4731 16 
L 6306 16 
L 6306 -453 
L 2363 -453 
L 2363 16 
z
M 1900 4072 
L 994 4072 
L 994 959 
L 1900 959 
L 1900 4072 
z
" transform="scale(0.015625)"/>
      <path id="MicrosoftYaHei-9000" d="M 4094 1216 
Q 4100 959 4125 722 
Q 3531 497 2925 203 
Q 2750 109 2575 -16 
L 2219 453 
Q 2400 628 2400 878 
L 2400 5028 
L 5544 5028 
L 5544 2178 
L 5075 2178 
L 5075 2341 
L 2875 2341 
L 2875 709 
Q 3375 903 4094 1216 
z
M 2644 -222 
Q 4419 -247 6300 -197 
Q 6231 -403 6125 -691 
Q 4306 -703 2569 -666 
Q 1519 -647 1081 66 
Q 825 -172 331 -772 
L 75 -253 
Q 625 278 875 509 
L 875 2616 
L 131 2616 
L 131 3078 
L 1356 3078 
L 1356 409 
Q 1744 -197 2644 -222 
z
M 5794 2209 
L 6113 1778 
Q 5506 1534 4931 1297 
Q 5606 878 6056 584 
L 5744 147 
Q 4719 891 3319 1778 
L 3575 2122 
Q 4081 1816 4513 1553 
Q 5138 1853 5794 2209 
z
M 5075 4603 
L 2875 4603 
L 2875 3891 
L 5075 3891 
L 5075 4603 
z
M 5075 2766 
L 5075 3478 
L 2875 3478 
L 2875 2766 
L 5075 2766 
z
M 856 5178 
Q 1175 4791 1731 3997 
L 1288 3684 
Q 781 4478 456 4909 
L 856 5178 
z
" transform="scale(0.015625)"/>
      <path id="MicrosoftYaHei-5316" d="M 1844 1453 
Q 2663 1834 3375 2331 
L 3375 5197 
L 3913 5197 
L 3913 2734 
Q 4869 3506 5613 4516 
L 6069 4184 
Q 5159 2975 3913 2069 
L 3913 303 
Q 3913 -122 4363 -122 
L 5156 -122 
Q 5581 -122 5650 284 
Q 5738 709 5763 1266 
Q 6025 1166 6313 1084 
Q 6263 559 6181 122 
Q 6063 -597 5281 -597 
L 4225 -597 
Q 3375 -597 3375 241 
L 3375 1703 
Q 2791 1328 2144 1016 
Q 2013 1222 1844 1453 
z
M 88 2222 
Q 1175 3666 1688 5291 
L 2231 5134 
Q 1934 4359 1588 3675 
L 1588 -797 
L 1063 -797 
L 1063 2734 
Q 716 2172 325 1678 
Q 219 1947 88 2222 
z
" transform="scale(0.015625)"/>
      <path id="MicrosoftYaHei-6210" d="M 2750 -347 
Q 3472 138 4038 781 
Q 3675 1703 3609 3759 
L 1250 3759 
L 1250 2809 
L 3050 2809 
Q 3013 1616 2950 803 
Q 2875 -59 2113 -59 
Q 1856 -59 1431 -34 
Q 1394 197 1331 484 
Q 1769 422 2063 422 
Q 2425 422 2469 922 
Q 2519 1497 2544 2347 
L 1247 2347 
Q 1197 175 369 -866 
Q 213 -653 44 -434 
Q 750 503 750 2528 
L 750 4222 
L 3591 4222 
Q 3569 4716 3550 5291 
L 4069 5291 
Q 4066 4850 4084 4222 
L 6238 4222 
L 6238 3759 
L 4100 3759 
Q 4163 2078 4409 1247 
Q 5016 2069 5406 3109 
L 5900 2903 
Q 5363 1631 4609 691 
Q 5069 -244 5506 -244 
Q 5666 -244 5750 47 
Q 5838 503 5888 984 
Q 6156 878 6363 809 
Q 6269 141 6156 -284 
Q 6038 -741 5631 -778 
Q 5250 -803 4900 -522 
Q 4522 -231 4256 278 
Q 3728 -291 3106 -722 
Q 2944 -534 2750 -347 
z
M 4544 4984 
L 4806 5309 
Q 5331 5009 5788 4684 
L 5488 4309 
Q 5038 4666 4544 4984 
z
" transform="scale(0.015625)"/>
      <path id="MicrosoftYaHei-672c" d="M 6281 803 
Q 6119 641 5856 366 
Q 4344 1531 3444 3353 
L 3444 878 
L 4875 878 
L 4875 441 
L 3444 441 
L 3444 -841 
L 2956 -841 
L 2956 441 
L 1475 441 
L 1475 878 
L 2956 878 
L 2956 3353 
Q 2159 1766 513 291 
Q 269 522 100 666 
Q 1878 2125 2759 3753 
L 238 3753 
L 238 4216 
L 2956 4216 
L 2956 5341 
L 3444 5341 
L 3444 4216 
L 6163 4216 
L 6163 3753 
L 3622 3753 
Q 4616 1884 6281 803 
z
" transform="scale(0.015625)"/>
     </defs>
     <use xlink:href="#MicrosoftYaHei-4e0d"/>
     <use xlink:href="#MicrosoftYaHei-540c" transform="translate(100 0)"/>
     <use xlink:href="#MicrosoftYaHei-8f66" transform="translate(200 0)"/>
     <use xlink:href="#MicrosoftYaHei-578b" transform="translate(300 0)"/>
     <use xlink:href="#MicrosoftYaHei-20" transform="translate(400 0)"/>
     <use xlink:href="#MicrosoftYaHei-45" transform="translate(429.589844 0)"/>
     <use xlink:href="#MicrosoftYaHei-56" transform="translate(484.570312 0)"/>
     <use xlink:href="#MicrosoftYaHei-20" transform="translate(552.197266 0)"/>
     <use xlink:href="#MicrosoftYaHei-7684" transform="translate(581.787109 0)"/>
     <use xlink:href="#MicrosoftYaHei-5e73" transform="translate(681.787109 0)"/>
     <use xlink:href="#MicrosoftYaHei-5747" transform="translate(781.787109 0)"/>
     <use xlink:href="#MicrosoftYaHei-7535" transform="translate(881.787109 0)"/>
     <use xlink:href="#MicrosoftYaHei-6c60" transform="translate(981.787109 0)"/>
     <use xlink:href="#MicrosoftYaHei-5bb9" transform="translate(1081.787109 0)"/>
     <use xlink:href="#MicrosoftYaHei-91cf" transform="translate(1181.787109 0)"/>
     <use xlink:href="#MicrosoftYaHei-4e0e" transform="translate(1281.787109 0)"/>
     <use xlink:href="#MicrosoftYaHei-5355" transform="translate(1381.787109 0)"/>
     <use xlink:href="#MicrosoftYaHei-4f4d" transform="translate(1481.787109 0)"/>
     <use xlink:href="#MicrosoftYaHei-541e" transform="translate(1581.787109 0)"/>
     <use xlink:href="#MicrosoftYaHei-5410" transform="translate(1681.787109 0)"/>
     <use xlink:href="#MicrosoftYaHei-9000" transform="translate(1781.787109 0)"/>
     <use xlink:href="#MicrosoftYaHei-5316" transform="translate(1881.787109 0)"/>
     <use xlink:href="#MicrosoftYaHei-6210" transform="translate(1981.787109 0)"/>
     <use xlink:href="#MicrosoftYaHei-672c" transform="translate(2081.787109 0)"/>
    </g>
   </g>
   <g id="legend_1">
    <g id="patch_9">
     <path d="M 45.431797 61.855937 
L 149.831797 61.855937 
L 149.831797 31.2925 
L 45.431797 31.2925 
z
" style="fill: #fafbfc; opacity: 0.8; stroke: #d0d4d8; stroke-linejoin: miter"/>
    </g>
    <g id="patch_10">
     <path d="M 49.031797 42.086875 
L 67.031797 42.086875 
L 67.031797 35.786875 
L 49.031797 35.786875 
z
" style="fill: #8faab8; stroke: #5f7380; stroke-width: 0.6; stroke-linejoin: miter"/>
    </g>
    <g id="text_15">
     <!-- 平均电池容量 -->
     <g transform="translate(74.231797 42.086875) scale(0.09 -0.09)">
      <use xlink:href="#MicrosoftYaHei-5e73"/>
      <use xlink:href="#MicrosoftYaHei-5747" transform="translate(100 0)"/>
      <use xlink:href="#MicrosoftYaHei-7535" transform="translate(200 0)"/>
      <use xlink:href="#MicrosoftYaHei-6c60" transform="translate(300 0)"/>
      <use xlink:href="#MicrosoftYaHei-5bb9" transform="translate(400 0)"/>
      <use xlink:href="#MicrosoftYaHei-91cf" transform="translate(500 0)"/>
     </g>
    </g>
    <g id="line2d_14">
     <path d="M 49.031797 52.868594 
L 58.031797 52.868594 
L 67.031797 52.868594 
" style="fill: none; stroke: #b87d6f; stroke-width: 2; stroke-linecap: square"/>
     <defs>
      <path id="mde73693edf" d="M 0 3.5 
C 0.928211 3.5 1.81853 3.131218 2.474874 2.474874 
C 3.131218 1.81853 3.5 0.928211 3.5 0 
C 3.5 -0.928211 3.131218 -1.81853 2.474874 -2.474874 
C 1.81853 -3.131218 0.928211 -3.5 0 -3.5 
C -0.928211 -3.5 -1.81853 -3.131218 -2.474874 -2.474874 
C -3.131218 -1.81853 -3.5 -0.928211 -3.5 0 
C -3.5 0.928211 -3.131218 1.81853 -2.474874 2.474874 
C -1.81853 3.131218 -0.928211 3.5 0 3.5 
z
" style="stroke: #9e5e52; stroke-width: 1.2"/>
     </defs>
     <g>
      <use xlink:href="#mde73693edf" x="58.031797" y="52.868594" style="fill: #ffffff; stroke: #9e5e52; stroke-width: 1.2"/>
     </g>
    </g>
    <g id="text_16">
     <!-- 平均吞吐退化成本 -->
     <g transform="translate(74.231797 56.018594) scale(0.09 -0.09)">
      <use xlink:href="#MicrosoftYaHei-5e73"/>
      <use xlink:href="#MicrosoftYaHei-5747" transform="translate(100 0)"/>
      <use xlink:href="#MicrosoftYaHei-541e" transform="translate(200 0)"/>
      <use xlink:href="#MicrosoftYaHei-5410" transform="translate(300 0)"/>
      <use xlink:href="#MicrosoftYaHei-9000" transform="translate(400 0)"/>
      <use xlink:href="#MicrosoftYaHei-5316" transform="translate(500 0)"/>
      <use xlink:href="#MicrosoftYaHei-6210" transform="translate(600 0)"/>
      <use xlink:href="#MicrosoftYaHei-672c" transform="translate(700 0)"/>
     </g>
    </g>
   </g>
  </g>
  <g id="axes_2">
   <g id="matplotlib.axis_3">
    <g id="ytick_6">
     <g id="line2d_15">
      <defs>
       <path id="m6f2017be2c" d="M 0 0 
L 3.5 0 
" style="stroke: #b87d6f; stroke-width: 0.8"/>
      </defs>
      <g>
       <use xlink:href="#m6f2017be2c" x="419.995848" y="223.823439" style="fill: #b87d6f; stroke: #b87d6f; stroke-width: 0.8"/>
      </g>
     </g>
     <g id="text_17">
      <!-- 0.07 -->
      <g style="fill: #b87d6f" transform="translate(426.995848 227.820314) scale(0.1 -0.1)">
       <use xlink:href="#MicrosoftYaHei-30"/>
       <use xlink:href="#MicrosoftYaHei-2e" transform="translate(58.642578 0)"/>
       <use xlink:href="#MicrosoftYaHei-30" transform="translate(82.714844 0)"/>
       <use xlink:href="#MicrosoftYaHei-37" transform="translate(141.357422 0)"/>
      </g>
     </g>
    </g>
    <g id="ytick_7">
     <g id="line2d_16">
      <g>
       <use xlink:href="#m6f2017be2c" x="419.995848" y="175.676102" style="fill: #b87d6f; stroke: #b87d6f; stroke-width: 0.8"/>
      </g>
     </g>
     <g id="text_18">
      <!-- 0.08 -->
      <g style="fill: #b87d6f" transform="translate(426.995848 179.672977) scale(0.1 -0.1)">
       <use xlink:href="#MicrosoftYaHei-30"/>
       <use xlink:href="#MicrosoftYaHei-2e" transform="translate(58.642578 0)"/>
       <use xlink:href="#MicrosoftYaHei-30" transform="translate(82.714844 0)"/>
       <use xlink:href="#MicrosoftYaHei-38" transform="translate(141.357422 0)"/>
      </g>
     </g>
    </g>
    <g id="ytick_8">
     <g id="line2d_17">
      <g>
       <use xlink:href="#m6f2017be2c" x="419.995848" y="127.528765" style="fill: #b87d6f; stroke: #b87d6f; stroke-width: 0.8"/>
      </g>
     </g>
     <g id="text_19">
      <!-- 0.09 -->
      <g style="fill: #b87d6f" transform="translate(426.995848 131.52564) scale(0.1 -0.1)">
       <defs>
        <path id="MicrosoftYaHei-39" d="M 578 656 
Q 978 425 1441 425 
Q 2091 425 2448 937 
Q 2806 1450 2806 2394 
Q 2800 2388 2794 2394 
Q 2475 1788 1722 1788 
Q 1113 1788 713 2206 
Q 313 2625 313 3294 
Q 313 4006 750 4464 
Q 1188 4922 1884 4922 
Q 2606 4922 3012 4355 
Q 3419 3788 3419 2703 
Q 3419 1363 2894 641 
Q 2369 -81 1441 -81 
Q 931 -81 578 84 
L 578 656 
z
M 931 3372 
Q 931 2884 1181 2598 
Q 1431 2313 1872 2313 
Q 2253 2313 2512 2573 
Q 2772 2834 2772 3206 
Q 2772 3728 2514 4070 
Q 2256 4413 1834 4413 
Q 1444 4413 1187 4116 
Q 931 3819 931 3372 
z
" transform="scale(0.015625)"/>
       </defs>
       <use xlink:href="#MicrosoftYaHei-30"/>
       <use xlink:href="#MicrosoftYaHei-2e" transform="translate(58.642578 0)"/>
       <use xlink:href="#MicrosoftYaHei-30" transform="translate(82.714844 0)"/>
       <use xlink:href="#MicrosoftYaHei-39" transform="translate(141.357422 0)"/>
      </g>
     </g>
    </g>
    <g id="ytick_9">
     <g id="line2d_18">
      <g>
       <use xlink:href="#m6f2017be2c" x="419.995848" y="79.381429" style="fill: #b87d6f; stroke: #b87d6f; stroke-width: 0.8"/>
      </g>
     </g>
     <g id="text_20">
      <!-- 0.10 -->
      <g style="fill: #b87d6f" transform="translate(426.995848 83.378304) scale(0.1 -0.1)">
       <defs>
        <path id="MicrosoftYaHei-31" d="M 1781 0 
L 1781 4141 
Q 1638 3997 1295 3819 
Q 953 3641 663 3569 
L 663 4169 
Q 1047 4275 1484 4508 
Q 1922 4741 2156 4947 
L 2388 4947 
L 2388 0 
L 1781 0 
z
" transform="scale(0.015625)"/>
       </defs>
       <use xlink:href="#MicrosoftYaHei-30"/>
       <use xlink:href="#MicrosoftYaHei-2e" transform="translate(58.642578 0)"/>
       <use xlink:href="#MicrosoftYaHei-31" transform="translate(82.714844 0)"/>
       <use xlink:href="#MicrosoftYaHei-30" transform="translate(141.357422 0)"/>
      </g>
     </g>
    </g>
    <g id="ytick_10">
     <g id="line2d_19">
      <g>
       <use xlink:href="#m6f2017be2c" x="419.995848" y="31.234092" style="fill: #b87d6f; stroke: #b87d6f; stroke-width: 0.8"/>
      </g>
     </g>
     <g id="text_21">
      <!-- 0.11 -->
      <g style="fill: #b87d6f" transform="translate(426.995848 35.230967) scale(0.1 -0.1)">
       <use xlink:href="#MicrosoftYaHei-30"/>
       <use xlink:href="#MicrosoftYaHei-2e" transform="translate(58.642578 0)"/>
       <use xlink:href="#MicrosoftYaHei-31" transform="translate(82.714844 0)"/>
       <use xlink:href="#MicrosoftYaHei-31" transform="translate(141.357422 0)"/>
      </g>
     </g>
    </g>
    <g id="text_22">
     <!-- 平均吞吐退化成本（元/kWh） -->
     <g style="fill: #b87d6f" transform="translate(459.389286 220.38058) rotate(-90) scale(0.105 -0.105)">
      <defs>
       <path id="MicrosoftYaHei-5143" d="M 188 3084 
L 6225 3084 
L 6225 2609 
L 4250 2609 
L 4250 172 
Q 4250 -197 4625 -197 
L 5163 -197 
Q 5613 -197 5675 216 
Q 5731 566 5769 1103 
Q 6019 1016 6313 947 
Q 6250 409 6181 47 
Q 6056 -641 5275 -641 
L 4513 -641 
Q 3725 -641 3725 128 
L 3725 2609 
L 2450 2609 
L 2450 2409 
Q 2450 1084 2050 447 
Q 1650 -247 469 -847 
Q 244 -572 100 -428 
Q 1181 103 1556 691 
Q 1925 1253 1925 2384 
L 1925 2609 
L 188 2609 
L 188 3084 
z
M 788 4903 
L 5638 4903 
L 5638 4428 
L 788 4428 
L 788 4903 
z
" transform="scale(0.015625)"/>
       <path id="MicrosoftYaHei-2f" d="M 2791 4841 
L 469 -803 
L -103 -803 
L 2219 4841 
L 2791 4841 
z
" transform="scale(0.015625)"/>
      </defs>
      <use xlink:href="#MicrosoftYaHei-5e73"/>
      <use xlink:href="#MicrosoftYaHei-5747" transform="translate(100 0)"/>
      <use xlink:href="#MicrosoftYaHei-541e" transform="translate(200 0)"/>
      <use xlink:href="#MicrosoftYaHei-5410" transform="translate(300 0)"/>
      <use xlink:href="#MicrosoftYaHei-9000" transform="translate(400 0)"/>
      <use xlink:href="#MicrosoftYaHei-5316" transform="translate(500 0)"/>
      <use xlink:href="#MicrosoftYaHei-6210" transform="translate(600 0)"/>
      <use xlink:href="#MicrosoftYaHei-672c" transform="translate(700 0)"/>
      <use xlink:href="#MicrosoftYaHei-ff08" transform="translate(800 0)"/>
      <use xlink:href="#MicrosoftYaHei-5143" transform="translate(900 0)"/>
      <use xlink:href="#MicrosoftYaHei-2f" transform="translate(1000 0)"/>
      <use xlink:href="#MicrosoftYaHei-6b" transform="translate(1042.724609 0)"/>
      <use xlink:href="#MicrosoftYaHei-57" transform="translate(1097.167969 0)"/>
      <use xlink:href="#MicrosoftYaHei-68" transform="translate(1198.925781 0)"/>
      <use xlink:href="#MicrosoftYaHei-ff09" transform="translate(1260.498047 0)"/>
     </g>
    </g>
   </g>
   <g id="patch_11">
    <path d="M 40.931797 271.116161 
L 40.931797 26.7925 
" style="fill: none; stroke: #3a3f45; stroke-width: 0.9; stroke-linejoin: miter; stroke-linecap: square"/>
   </g>
   <g id="patch_12">
    <path d="M 419.995848 271.116161 
L 419.995848 26.7925 
" style="fill: none; stroke: #3a3f45; stroke-width: 0.9; stroke-linejoin: miter; stroke-linecap: square"/>
   </g>
   <g id="patch_13">
    <path d="M 40.931797 271.116161 
L 419.995848 271.116161 
" style="fill: none; stroke: #3a3f45; stroke-width: 0.9; stroke-linejoin: miter; stroke-linecap: square"/>
   </g>
   <g id="patch_14">
    <path d="M 40.931797 26.7925 
L 419.995848 26.7925 
" style="fill: none; stroke: #3a3f45; stroke-width: 0.9; stroke-linejoin: miter; stroke-linecap: square"/>
   </g>
   <g id="line2d_20">
    <path d="M 93.716329 77.09443 
L 230.463823 135.39283 
L 367.211316 220.81423 
" clip-path="url(#pe880865b92)" style="fill: none; stroke: #b87d6f; stroke-width: 2; stroke-linecap: square"/>
    <g clip-path="url(#pe880865b92)">
     <use xlink:href="#mde73693edf" x="93.716329" y="77.09443" style="fill: #ffffff; stroke: #9e5e52; stroke-width: 1.2"/>
     <use xlink:href="#mde73693edf" x="230.463823" y="135.39283" style="fill: #ffffff; stroke: #9e5e52; stroke-width: 1.2"/>
     <use xlink:href="#mde73693edf" x="367.211316" y="220.81423" style="fill: #ffffff; stroke: #9e5e52; stroke-width: 1.2"/>
    </g>
   </g>
   <g id="text_23">
    <!-- 0.1005 -->
    <g style="fill: #9e5e52" transform="translate(79.755954 68.870574) scale(0.088 -0.088)">
     <use xlink:href="#MicrosoftYaHei-30"/>
     <use xlink:href="#MicrosoftYaHei-2e" transform="translate(58.642578 0)"/>
     <use xlink:href="#MicrosoftYaHei-31" transform="translate(82.714844 0)"/>
     <use xlink:href="#MicrosoftYaHei-30" transform="translate(141.357422 0)"/>
     <use xlink:href="#MicrosoftYaHei-30" transform="translate(200 0)"/>
     <use xlink:href="#MicrosoftYaHei-35" transform="translate(258.642578 0)"/>
    </g>
   </g>
   <g id="text_24">
    <!-- 0.0884 -->
    <g style="fill: #9e5e52" transform="translate(216.503448 127.168974) scale(0.088 -0.088)">
     <use xlink:href="#MicrosoftYaHei-30"/>
     <use xlink:href="#MicrosoftYaHei-2e" transform="translate(58.642578 0)"/>
     <use xlink:href="#MicrosoftYaHei-30" transform="translate(82.714844 0)"/>
     <use xlink:href="#MicrosoftYaHei-38" transform="translate(141.357422 0)"/>
     <use xlink:href="#MicrosoftYaHei-38" transform="translate(200 0)"/>
     <use xlink:href="#MicrosoftYaHei-34" transform="translate(258.642578 0)"/>
    </g>
   </g>
   <g id="text_25">
    <!-- 0.0706 -->
    <g style="fill: #9e5e52" transform="translate(353.250941 212.590374) scale(0.088 -0.088)">
     <use xlink:href="#MicrosoftYaHei-30"/>
     <use xlink:href="#MicrosoftYaHei-2e" transform="translate(58.642578 0)"/>
     <use xlink:href="#MicrosoftYaHei-30" transform="translate(82.714844 0)"/>
     <use xlink:href="#MicrosoftYaHei-37" transform="translate(141.357422 0)"/>
     <use xlink:href="#MicrosoftYaHei-30" transform="translate(200 0)"/>
     <use xlink:href="#MicrosoftYaHei-36" transform="translate(258.642578 0)"/>
    </g>
   </g>
  </g>
 </g>
 <defs>
  <clipPath id="pe880865b92">
   <rect x="40.931797" y="26.7925" width="379.064051" height="244.323661"/>
  </clipPath>
 </defs>
</svg>
