<?xml version="1.0" encoding="utf-8" standalone="no"?>
<!DOCTYPE svg PUBLIC "-//W3C//DTD SVG 1.1//EN"
  "http://www.w3.org/Graphics/SVG/1.1/DTD/svg11.dtd">
<svg xmlns:xlink="http://www.w3.org/1999/xlink" width="629.471875pt" height="467.415375pt" viewBox="0 0 629.471875 467.415375" xmlns="http://www.w3.org/2000/svg" version="1.1">
 <metadata>
  <rdf:RDF xmlns:dc="http://purl.org/dc/elements/1.1/" xmlns:cc="http://creativecommons.org/ns#" xmlns:rdf="http://www.w3.org/1999/02/22-rdf-syntax-ns#">
   <cc:Work>
    <dc:type rdf:resource="http://purl.org/dc/dcmitype/StillImage"/>
    <dc:date>2026-04-12T09:29:05.857256</dc:date>
    <dc:format>image/svg+xml</dc:format>
    <dc:creator>
     <cc:Agent>
      <dc:title>Matplotlib v3.10.0, https://matplotlib.org/</dc:title>
     </cc:Agent>
    </dc:creator>
   </cc:Work>
  </rdf:RDF>
 </metadata>
 <defs>
  <style type="text/css">*{stroke-linejoin: round; stroke-linecap: butt}</style>
 </defs>
 <g id="figure_1">
  <g id="patch_1">
   <path d="M 0 467.415375 
L 629.471875 467.415375 
L 629.471875 0 
L 0 0 
z
" style="fill: #ffffff"/>
  </g>
  <g id="axes_1">
   <g id="patch_2">
    <path d="M 46.271875 219.768 
L 622.271875 219.768 
L 622.271875 70.848 
L 46.271875 70.848 
z
" style="fill: #ffffff"/>
   </g>
   <g id="FillBetweenPolyCollection_1">
    <path d="M 72.453693 127.138696 
L 72.453693 211.790143 
L 137.908239 211.790143 
L 203.362784 211.790143 
L 268.81733 211.790143 
L 334.271875 211.790143 
L 399.72642 211.790143 
L 465.180966 211.790143 
L 530.635511 211.790143 
L 596.090057 211.790143 
L 596.090057 211.790143 
L 596.090057 211.790143 
L 530.635511 127.138696 
L 465.180966 127.138696 
L 399.72642 127.138696 
L 334.271875 127.138696 
L 268.81733 127.138696 
L 203.362784 127.138696 
L 137.908239 127.138696 
L 72.453693 127.138696 
z
" clip-path="url(#p52cd575efd)" style="fill: #5ea0c7; fill-opacity: 0.82"/>
   </g>
   <g id="FillBetweenPolyCollection_2">
    <path d="M 72.453693 108.797549 
L 72.453693 127.138696 
L 137.908239 127.138696 
L 203.362784 127.138696 
L 268.81733 127.138696 
L 334.271875 127.138696 
L 399.72642 127.138696 
L 465.180966 127.138696 
L 530.635511 127.138696 
L 596.090057 211.790143 
L 596.090057 208.968428 
L 596.090057 208.968428 
L 530.635511 122.251485 
L 465.180966 118.391379 
L 399.72642 118.391379 
L 334.271875 118.391379 
L 268.81733 121.213094 
L 203.362784 117.83268 
L 137.908239 111.709558 
L 72.453693 108.797549 
z
" clip-path="url(#p52cd575efd)" style="fill: #b4d7e5; fill-opacity: 0.82"/>
   </g>
   <g id="matplotlib.axis_1">
    <g id="xtick_1">
     <g id="line2d_1">
      <path d="M 72.453693 219.768 
L 72.453693 70.848 
" clip-path="url(#p52cd575efd)" style="fill: none; stroke: #b0b0b0; stroke-opacity: 0.3; stroke-width: 0.8; stroke-linecap: square"/>
     </g>
     <g id="line2d_2">
      <defs>
       <path id="mc6b5730e10" d="M 0 0 
L 0 3.5 
" style="stroke: #000000; stroke-width: 0.8"/>
      </defs>
      <g>
       <use xlink:href="#mc6b5730e10" x="72.453693" y="219.768" style="stroke: #000000; stroke-width: 0.8"/>
      </g>
     </g>
    </g>
    <g id="xtick_2">
     <g id="line2d_3">
      <path d="M 203.362784 219.768 
L 203.362784 70.848 
" clip-path="url(#p52cd575efd)" style="fill: none; stroke: #b0b0b0; stroke-opacity: 0.3; stroke-width: 0.8; stroke-linecap: square"/>
     </g>
     <g id="line2d_4">
      <g>
       <use xlink:href="#mc6b5730e10" x="203.362784" y="219.768" style="stroke: #000000; stroke-width: 0.8"/>
      </g>
     </g>
    </g>
    <g id="xtick_3">
     <g id="line2d_5">
      <path d="M 334.271875 219.768 
L 334.271875 70.848 
" clip-path="url(#p52cd575efd)" style="fill: none; stroke: #b0b0b0; stroke-opacity: 0.3; stroke-width: 0.8; stroke-linecap: square"/>
     </g>
     <g id="line2d_6">
      <g>
       <use xlink:href="#mc6b5730e10" x="334.271875" y="219.768" style="stroke: #000000; stroke-width: 0.8"/>
      </g>
     </g>
    </g>
    <g id="xtick_4">
     <g id="line2d_7">
      <path d="M 465.180966 219.768 
L 465.180966 70.848 
" clip-path="url(#p52cd575efd)" style="fill: none; stroke: #b0b0b0; stroke-opacity: 0.3; stroke-width: 0.8; stroke-linecap: square"/>
     </g>
     <g id="line2d_8">
      <g>
       <use xlink:href="#mc6b5730e10" x="465.180966" y="219.768" style="stroke: #000000; stroke-width: 0.8"/>
      </g>
     </g>
    </g>
    <g id="xtick_5">
     <g id="line2d_9">
      <path d="M 596.090057 219.768 
L 596.090057 70.848 
" clip-path="url(#p52cd575efd)" style="fill: none; stroke: #b0b0b0; stroke-opacity: 0.3; stroke-width: 0.8; stroke-linecap: square"/>
     </g>
     <g id="line2d_10">
      <g>
       <use xlink:href="#mc6b5730e10" x="596.090057" y="219.768" style="stroke: #000000; stroke-width: 0.8"/>
      </g>
     </g>
    </g>
   </g>
   <g id="matplotlib.axis_2">
    <g id="ytick_1">
     <g id="line2d_11">
      <path d="M 46.271875 211.790143 
L 622.271875 211.790143 
" clip-path="url(#p52cd575efd)" style="fill: none; stroke: #b0b0b0; stroke-opacity: 0.3; stroke-width: 0.8; stroke-linecap: square"/>
     </g>
     <g id="line2d_12">
      <defs>
       <path id="m2e8b9458e3" d="M 0 0 
L -3.5 0 
" style="stroke: #000000; stroke-width: 0.8"/>
      </defs>
      <g>
       <use xlink:href="#m2e8b9458e3" x="46.271875" y="211.790143" style="stroke: #000000; stroke-width: 0.8"/>
      </g>
     </g>
     <g id="text_1">
      <!-- 0 -->
      <g transform="translate(33.407813 215.787018) scale(0.1 -0.1)">
       <defs>
        <path id="MicrosoftYaHei-30" d="M 284 2325 
Q 284 3606 709 4264 
Q 1134 4922 1941 4922 
Q 3478 4922 3478 2441 
Q 3478 1216 3045 567 
Q 2613 -81 1831 -81 
Q 1094 -81 689 534 
Q 284 1150 284 2325 
z
M 909 2353 
Q 909 425 1888 425 
Q 2850 425 2850 2384 
Q 2850 4413 1906 4413 
Q 909 4413 909 2353 
z
" transform="scale(0.015625)"/>
       </defs>
       <use xlink:href="#MicrosoftYaHei-30"/>
      </g>
     </g>
    </g>
    <g id="ytick_2">
     <g id="line2d_13">
      <path d="M 46.271875 183.572994 
L 622.271875 183.572994 
" clip-path="url(#p52cd575efd)" style="fill: none; stroke: #b0b0b0; stroke-opacity: 0.3; stroke-width: 0.8; stroke-linecap: square"/>
     </g>
     <g id="line2d_14">
      <g>
       <use xlink:href="#m2e8b9458e3" x="46.271875" y="183.572994" style="stroke: #000000; stroke-width: 0.8"/>
      </g>
     </g>
     <g id="text_2">
      <!-- 100 -->
      <g transform="translate(21.679688 187.569869) scale(0.1 -0.1)">
       <defs>
        <path id="MicrosoftYaHei-31" d="M 1781 0 
L 1781 4141 
Q 1638 3997 1295 3819 
Q 953 3641 663 3569 
L 663 4169 
Q 1047 4275 1484 4508 
Q 1922 4741 2156 4947 
L 2388 4947 
L 2388 0 
L 1781 0 
z
" transform="scale(0.015625)"/>
       </defs>
       <use xlink:href="#MicrosoftYaHei-31"/>
       <use xlink:href="#MicrosoftYaHei-30" transform="translate(58.642578 0)"/>
       <use xlink:href="#MicrosoftYaHei-30" transform="translate(117.285156 0)"/>
      </g>
     </g>
    </g>
    <g id="ytick_3">
     <g id="line2d_15">
      <path d="M 46.271875 155.355845 
L 622.271875 155.355845 
" clip-path="url(#p52cd575efd)" style="fill: none; stroke: #b0b0b0; stroke-opacity: 0.3; stroke-width: 0.8; stroke-linecap: square"/>
     </g>
     <g id="line2d_16">
      <g>
       <use xlink:href="#m2e8b9458e3" x="46.271875" y="155.355845" style="stroke: #000000; stroke-width: 0.8"/>
      </g>
     </g>
     <g id="text_3">
      <!-- 200 -->
      <g transform="translate(21.679688 159.35272) scale(0.1 -0.1)">
       <defs>
        <path id="MicrosoftYaHei-32" d="M 2666 3572 
Q 2666 3963 2419 4186 
Q 2172 4409 1747 4409 
Q 1447 4409 1140 4256 
Q 834 4103 569 3819 
L 569 4413 
Q 806 4659 1107 4790 
Q 1409 4922 1816 4922 
Q 2472 4922 2872 4570 
Q 3272 4219 3272 3619 
Q 3272 3084 3026 2693 
Q 2781 2303 2188 1894 
Q 1581 1475 1376 1294 
Q 1172 1113 1090 947 
Q 1009 781 1009 544 
L 3416 544 
L 3416 0 
L 372 0 
L 372 241 
Q 372 659 486 951 
Q 600 1244 862 1520 
Q 1125 1797 1681 2184 
Q 2250 2584 2458 2886 
Q 2666 3188 2666 3572 
z
" transform="scale(0.015625)"/>
       </defs>
       <use xlink:href="#MicrosoftYaHei-32"/>
       <use xlink:href="#MicrosoftYaHei-30" transform="translate(58.642578 0)"/>
       <use xlink:href="#MicrosoftYaHei-30" transform="translate(117.285156 0)"/>
      </g>
     </g>
    </g>
    <g id="ytick_4">
     <g id="line2d_17">
      <path d="M 46.271875 127.138696 
L 622.271875 127.138696 
" clip-path="url(#p52cd575efd)" style="fill: none; stroke: #b0b0b0; stroke-opacity: 0.3; stroke-width: 0.8; stroke-linecap: square"/>
     </g>
     <g id="line2d_18">
      <g>
       <use xlink:href="#m2e8b9458e3" x="46.271875" y="127.138696" style="stroke: #000000; stroke-width: 0.8"/>
      </g>
     </g>
     <g id="text_4">
      <!-- 300 -->
      <g transform="translate(21.679688 131.135571) scale(0.1 -0.1)">
       <defs>
        <path id="MicrosoftYaHei-33" d="M 447 809 
Q 944 425 1569 425 
Q 2069 425 2361 670 
Q 2653 916 2653 1328 
Q 2653 2247 1338 2247 
L 934 2247 
L 934 2753 
L 1319 2753 
Q 2484 2753 2484 3616 
Q 2484 4413 1594 4413 
Q 1084 4413 634 4069 
L 634 4647 
Q 1109 4922 1744 4922 
Q 2363 4922 2738 4598 
Q 3113 4275 3113 3759 
Q 3113 2809 2144 2538 
L 2144 2525 
Q 2669 2469 2973 2155 
Q 3278 1841 3278 1372 
Q 3278 719 2808 319 
Q 2338 -81 1556 -81 
Q 869 -81 447 175 
L 447 809 
z
" transform="scale(0.015625)"/>
       </defs>
       <use xlink:href="#MicrosoftYaHei-33"/>
       <use xlink:href="#MicrosoftYaHei-30" transform="translate(58.642578 0)"/>
       <use xlink:href="#MicrosoftYaHei-30" transform="translate(117.285156 0)"/>
      </g>
     </g>
    </g>
    <g id="ytick_5">
     <g id="line2d_19">
      <path d="M 46.271875 98.921546 
L 622.271875 98.921546 
" clip-path="url(#p52cd575efd)" style="fill: none; stroke: #b0b0b0; stroke-opacity: 0.3; stroke-width: 0.8; stroke-linecap: square"/>
     </g>
     <g id="line2d_20">
      <g>
       <use xlink:href="#m2e8b9458e3" x="46.271875" y="98.921546" style="stroke: #000000; stroke-width: 0.8"/>
      </g>
     </g>
     <g id="text_5">
      <!-- 400 -->
      <g transform="translate(21.679688 102.918421) scale(0.1 -0.1)">
       <defs>
        <path id="MicrosoftYaHei-34" d="M 2906 4841 
L 2906 1644 
L 3631 1644 
L 3631 1138 
L 2906 1138 
L 2906 0 
L 2313 0 
L 2313 1138 
L 53 1138 
L 53 1616 
Q 656 2294 1265 3178 
Q 1875 4063 2272 4841 
L 2906 4841 
z
M 741 1644 
L 2313 1644 
L 2313 3950 
Q 1988 3366 1616 2817 
Q 1244 2269 741 1644 
z
" transform="scale(0.015625)"/>
       </defs>
       <use xlink:href="#MicrosoftYaHei-34"/>
       <use xlink:href="#MicrosoftYaHei-30" transform="translate(58.642578 0)"/>
       <use xlink:href="#MicrosoftYaHei-30" transform="translate(117.285156 0)"/>
      </g>
     </g>
    </g>
    <g id="text_6">
     <!-- 功率 / kW -->
     <g transform="translate(15.19375 168.213469) rotate(-90) scale(0.1 -0.1)">
      <defs>
       <path id="MicrosoftYaHei-529f" d="M 2500 3978 
L 3475 3978 
Q 3488 4538 3494 5278 
L 4000 5278 
Q 3991 4531 3975 3978 
L 5969 3978 
Q 5913 1791 5844 291 
Q 5775 -691 4956 -709 
Q 4413 -716 3756 -684 
Q 3713 -397 3656 -122 
Q 4306 -197 4844 -191 
Q 5313 -178 5344 378 
Q 5425 1847 5450 3497 
L 3963 3497 
Q 3950 3003 3931 2734 
Q 3813 266 1938 -847 
Q 1800 -653 1575 -422 
Q 3325 553 3431 2772 
Q 3450 3063 3463 3497 
L 2500 3497 
L 2500 3978 
z
M 81 822 
Q 619 941 1119 1056 
L 1119 4134 
L 169 4134 
L 169 4622 
L 2675 4622 
L 2675 4134 
L 1625 4134 
L 1625 1178 
Q 2166 1313 2656 1447 
Q 2669 1122 2700 947 
Q 1594 672 225 291 
L 81 822 
z
" transform="scale(0.015625)"/>
       <path id="MicrosoftYaHei-7387" d="M 2525 2009 
Q 2622 2016 3928 2081 
Q 3772 2300 3625 2491 
L 3963 2703 
Q 4413 2203 4794 1653 
L 4394 1403 
Q 4284 1569 4178 1725 
Q 2991 1659 2213 1597 
Q 2075 1584 1881 1541 
L 1725 1966 
Q 1913 2028 2006 2084 
Q 2534 2441 3050 2913 
Q 2597 2894 2275 2866 
Q 2144 2847 1988 2809 
L 1800 3191 
Q 1956 3247 2088 3366 
Q 2509 3722 2875 4228 
L 231 4228 
L 231 4666 
L 3031 4666 
Q 2878 4944 2744 5153 
L 3194 5372 
Q 3438 5000 3616 4666 
L 6175 4666 
L 6175 4228 
L 3053 4228 
L 3350 4072 
Q 2844 3553 2494 3247 
Q 2850 3256 3425 3269 
Q 3675 3519 3925 3797 
L 4356 3547 
Q 3363 2603 2525 2009 
z
M 144 991 
L 2994 991 
L 2994 1541 
L 3488 1541 
L 3488 991 
L 6275 991 
L 6275 553 
L 3488 553 
L 3488 -853 
L 2994 -853 
L 2994 553 
L 144 553 
L 144 991 
z
M 1719 2672 
L 1944 2303 
Q 1200 1866 425 1409 
L 163 1828 
Q 813 2134 1719 2672 
z
M 4856 2678 
Q 5750 2172 6250 1816 
L 5975 1409 
Q 5331 1909 4600 2341 
L 4856 2678 
z
M 5994 3591 
Q 5519 3178 4963 2809 
L 4644 3141 
Q 5244 3534 5638 3928 
L 5994 3591 
z
M 363 3634 
L 681 3941 
Q 1200 3528 1588 3159 
L 1238 2816 
Q 875 3197 363 3634 
z
" transform="scale(0.015625)"/>
       <path id="MicrosoftYaHei-20" transform="scale(0.015625)"/>
       <path id="MicrosoftYaHei-2f" d="M 2791 4841 
L 469 -803 
L -103 -803 
L 2219 4841 
L 2791 4841 
z
" transform="scale(0.015625)"/>
       <path id="MicrosoftYaHei-6b" d="M 3484 0 
L 2650 0 
L 1172 1666 
L 1159 1666 
L 1159 0 
L 547 0 
L 547 5116 
L 1159 5116 
L 1159 1872 
L 1172 1872 
L 2575 3456 
L 3363 3456 
L 1800 1794 
L 3484 0 
z
" transform="scale(0.015625)"/>
       <path id="MicrosoftYaHei-57" d="M 6431 4841 
L 5075 0 
L 4347 0 
L 3372 3488 
Q 3306 3725 3294 3988 
L 3281 3988 
Q 3263 3728 3194 3494 
L 2209 0 
L 1488 0 
L 84 4841 
L 775 4841 
L 1763 1184 
Q 1828 938 1841 688 
L 1859 688 
Q 1875 875 1963 1184 
L 3009 4841 
L 3625 4841 
L 4625 1156 
Q 4675 975 4706 694 
L 4719 694 
Q 4734 897 4809 1169 
L 5759 4841 
L 6431 4841 
z
" transform="scale(0.015625)"/>
      </defs>
      <use xlink:href="#MicrosoftYaHei-529f"/>
      <use xlink:href="#MicrosoftYaHei-7387" transform="translate(100 0)"/>
      <use xlink:href="#MicrosoftYaHei-20" transform="translate(200 0)"/>
      <use xlink:href="#MicrosoftYaHei-2f" transform="translate(229.589844 0)"/>
      <use xlink:href="#MicrosoftYaHei-20" transform="translate(272.314453 0)"/>
      <use xlink:href="#MicrosoftYaHei-6b" transform="translate(301.904297 0)"/>
      <use xlink:href="#MicrosoftYaHei-57" transform="translate(356.347656 0)"/>
     </g>
    </g>
   </g>
   <g id="patch_3">
    <path d="M 46.271875 219.768 
L 46.271875 70.848 
" style="fill: none; stroke: #000000; stroke-width: 0.8; stroke-linejoin: miter; stroke-linecap: square"/>
   </g>
   <g id="patch_4">
    <path d="M 622.271875 219.768 
L 622.271875 70.848 
" style="fill: none; stroke: #000000; stroke-width: 0.8; stroke-linejoin: miter; stroke-linecap: square"/>
   </g>
   <g id="patch_5">
    <path d="M 46.271875 219.768 
L 622.271875 219.768 
" style="fill: none; stroke: #000000; stroke-width: 0.8; stroke-linejoin: miter; stroke-linecap: square"/>
   </g>
   <g id="patch_6">
    <path d="M 46.271875 70.848 
L 622.271875 70.848 
" style="fill: none; stroke: #000000; stroke-width: 0.8; stroke-linejoin: miter; stroke-linecap: square"/>
   </g>
   <g id="text_7">
    <!-- 问题一协同主场景（事件窗口） -->
    <g transform="translate(322.751875 65.135069) scale(0.11 -0.11)">
     <defs>
      <path id="MicrosoftYaHei-Bold-95ee" d="M 1213 5072 
L 1969 5359 
Q 2338 4747 2663 4047 
L 1831 3734 
Q 1544 4409 1213 5072 
z
M 6019 422 
Q 6019 -153 5800 -429 
Q 5581 -706 5178 -757 
Q 4775 -809 3675 -809 
Q 3569 -316 3450 91 
Q 4247 59 4506 59 
Q 5113 59 5113 609 
L 5113 4084 
L 2844 4084 
L 2844 4922 
L 6019 4922 
L 6019 422 
z
M 369 4453 
L 1275 4453 
L 1275 -766 
L 369 -766 
L 369 4453 
z
M 1863 3416 
L 4525 3416 
L 4525 716 
L 2663 716 
L 2663 328 
L 1863 328 
L 1863 3416 
z
M 3725 1528 
L 3725 2603 
L 2663 2603 
L 2663 1528 
L 3725 1528 
z
" transform="scale(0.015625)"/>
      <path id="MicrosoftYaHei-Bold-9898" d="M 406 5091 
L 2856 5091 
L 2856 2666 
L 406 2666 
L 406 5091 
z
M 2131 4503 
L 1131 4503 
L 1131 4141 
L 2131 4141 
L 2131 4503 
z
M 2131 3253 
L 2131 3616 
L 1131 3616 
L 1131 3253 
L 2131 3253 
z
M 3213 3966 
L 4041 3966 
Q 4084 4219 4116 4453 
L 3100 4453 
L 3100 5078 
L 6169 5078 
L 6169 4453 
L 4906 4453 
Q 4866 4206 4819 3966 
L 5981 3966 
L 5981 1341 
L 5269 1341 
L 5269 3341 
L 3925 3341 
L 3925 1347 
L 3213 1347 
L 3213 3966 
z
M 425 1491 
L 1106 1491 
Q 1109 1134 1094 822 
Q 1238 688 1394 575 
L 1394 1753 
L 138 1753 
L 138 2378 
L 3000 2378 
L 3000 1753 
L 2163 1753 
L 2163 1353 
L 2906 1353 
L 2906 741 
L 2163 741 
L 2163 178 
Q 2594 28 3172 19 
Q 2953 347 2713 609 
Q 3400 797 3831 1211 
Q 4263 1625 4263 2509 
L 4263 3072 
L 4938 3072 
L 4938 2472 
Q 4938 1956 4825 1541 
Q 5659 1050 6306 591 
L 5828 25 
L 6319 34 
Q 6175 -303 6094 -691 
Q 4706 -691 3689 -680 
Q 2672 -669 2331 -597 
Q 1991 -525 1653 -358 
Q 1316 -191 1013 66 
Q 909 -544 688 -909 
Q 463 -628 75 -266 
Q 431 278 425 1491 
z
M 3428 16 
L 5744 25 
Q 5163 506 4544 909 
Q 4166 369 3428 16 
z
" transform="scale(0.015625)"/>
      <path id="MicrosoftYaHei-Bold-4e00" d="M 188 2716 
L 6225 2716 
L 6225 1791 
L 188 1791 
L 188 2716 
z
" transform="scale(0.015625)"/>
      <path id="MicrosoftYaHei-Bold-534f" d="M 3725 -753 
Q 3638 -316 3500 103 
Q 3906 78 4131 78 
Q 4575 78 4673 290 
Q 4772 503 4781 3428 
L 4041 3428 
Q 3991 553 2388 -878 
Q 2100 -559 1700 -203 
Q 3150 956 3203 3428 
L 2175 3428 
L 2175 4241 
L 3213 4241 
L 3213 5303 
L 4063 5303 
Q 4063 4741 4056 4241 
L 5638 4241 
L 5613 2784 
Q 6006 2469 6325 2197 
L 6131 1178 
Q 5850 1497 5597 1769 
L 5569 363 
Q 5556 -141 5334 -408 
Q 5113 -675 4763 -711 
Q 4413 -747 3725 -753 
z
M 119 3653 
L 669 3653 
L 669 5272 
L 1456 5272 
L 1456 3653 
L 1975 3653 
L 1975 2903 
L 1456 2903 
L 1456 -822 
L 669 -822 
L 669 2903 
L 119 2903 
L 119 3653 
z
M 1650 1434 
Q 1988 2197 2219 3041 
L 2906 2872 
Q 2669 2009 2356 1172 
Q 2025 1316 1650 1434 
z
" transform="scale(0.015625)"/>
      <path id="MicrosoftYaHei-Bold-540c" d="M 381 5078 
L 6019 5078 
L 6019 291 
Q 6019 -253 5776 -523 
Q 5534 -794 5107 -801 
Q 4681 -809 4075 -809 
Q 3981 -309 3881 59 
Q 4272 19 4597 19 
Q 4847 19 4950 45 
Q 5053 72 5117 165 
Q 5181 259 5181 416 
L 5181 4297 
L 1219 4297 
L 1219 -797 
L 381 -797 
L 381 5078 
z
M 4875 3078 
L 1525 3078 
L 1525 3791 
L 4875 3791 
L 4875 3078 
z
M 1738 2591 
L 4638 2591 
L 4638 403 
L 2550 403 
L 2550 3 
L 1738 3 
L 1738 2591 
z
M 3825 1103 
L 3825 1891 
L 2550 1891 
L 2550 1103 
L 3825 1103 
z
" transform="scale(0.015625)"/>
      <path id="MicrosoftYaHei-Bold-4e3b" d="M 138 241 
L 2725 241 
L 2725 1409 
L 800 1409 
L 800 2222 
L 2725 2222 
L 2725 3353 
L 500 3353 
L 500 4178 
L 2922 4178 
Q 2713 4591 2450 4991 
L 3306 5378 
Q 3588 4966 3869 4459 
L 3266 4178 
L 5925 4178 
L 5925 3353 
L 3669 3353 
L 3669 2222 
L 5638 2222 
L 5638 1409 
L 3669 1409 
L 3669 241 
L 6263 241 
L 6263 -597 
L 138 -597 
L 138 241 
z
" transform="scale(0.015625)"/>
      <path id="MicrosoftYaHei-Bold-573a" d="M 3869 3053 
L 6113 3053 
Q 6113 1753 6038 378 
Q 5994 -659 5094 -722 
Q 4756 -747 4294 -759 
Q 4250 -391 4138 109 
Q 3781 -403 3300 -816 
Q 2944 -541 2544 -278 
Q 3906 759 4225 2303 
L 3719 2303 
Q 3375 1041 2550 284 
Q 2400 416 2256 534 
Q 2250 322 2256 72 
Q 1150 -153 244 -366 
L 81 528 
Q 444 591 813 659 
L 813 2866 
L 144 2866 
L 144 3722 
L 813 3722 
L 813 5303 
L 1644 5303 
L 1644 3722 
L 2238 3722 
L 2238 2866 
L 1644 2866 
L 1644 822 
Q 1794 853 1938 884 
Q 2631 1434 2925 2303 
L 2369 2303 
L 2369 3047 
L 4231 4253 
L 2363 4253 
L 2363 5003 
L 5700 5003 
L 5700 4284 
L 3869 3053 
z
M 4694 116 
Q 5213 116 5244 559 
Q 5300 1203 5325 2303 
L 5000 2303 
Q 4769 1047 4156 134 
Q 4450 116 4694 116 
z
" transform="scale(0.015625)"/>
      <path id="MicrosoftYaHei-Bold-666f" d="M 113 2853 
L 2734 2853 
L 2613 3134 
L 750 3134 
L 750 5109 
L 5650 5109 
L 5650 3134 
L 3675 3134 
L 3775 2853 
L 6306 2853 
L 6306 2241 
L 113 2241 
L 113 2853 
z
M 4788 4609 
L 1613 4609 
L 1613 4341 
L 4788 4341 
L 4788 4609 
z
M 4788 3634 
L 4788 3903 
L 1613 3903 
L 1613 3634 
L 4788 3634 
z
M 925 1978 
L 5500 1978 
L 5500 616 
L 3731 616 
L 3731 -153 
Q 3731 -469 3559 -634 
Q 3388 -800 3030 -811 
Q 2672 -822 2206 -822 
Q 2156 -522 2044 -128 
L 2063 -128 
L 2550 -150 
Q 2738 -150 2811 -92 
Q 2884 -34 2888 109 
L 2888 616 
L 925 616 
L 925 1978 
z
M 4650 1128 
L 4650 1466 
L 1775 1466 
L 1775 1128 
L 4650 1128 
z
M 1819 559 
L 2225 -9 
Q 1338 -434 513 -791 
Q 338 -478 94 -122 
Q 963 159 1819 559 
z
M 4488 509 
Q 5394 209 6256 -116 
L 5888 -772 
Q 5131 -453 4138 -78 
L 4488 509 
z
" transform="scale(0.015625)"/>
      <path id="MicrosoftYaHei-Bold-ff08" d="M 5197 -1088 
Q 4056 184 4056 1881 
Q 4056 3616 5203 4838 
L 6034 4838 
Q 4922 3503 4922 1888 
Q 4922 266 6028 -1088 
L 5197 -1088 
z
" transform="scale(0.015625)"/>
      <path id="MicrosoftYaHei-Bold-4e8b" d="M 506 791 
L 2775 791 
L 2775 1084 
L 119 1084 
L 119 1647 
L 2775 1647 
L 2775 1934 
L 519 1934 
L 519 2472 
L 2775 2472 
L 2775 2759 
L 700 2759 
L 700 4078 
L 2775 4078 
L 2775 4359 
L 163 4359 
L 163 4922 
L 2775 4922 
L 2775 5328 
L 3625 5328 
L 3625 4922 
L 6244 4922 
L 6244 4359 
L 3625 4359 
L 3625 4078 
L 5713 4078 
L 5713 2759 
L 3625 2759 
L 3625 2472 
L 5800 2472 
L 5800 1647 
L 6288 1647 
L 6288 1084 
L 5800 1084 
L 5800 -28 
L 4963 -28 
L 4963 253 
L 3625 253 
L 3625 72 
Q 3625 -216 3515 -411 
Q 3406 -606 3186 -697 
Q 2966 -788 2869 -789 
Q 2772 -791 1756 -791 
Q 1719 -416 1631 3 
Q 2225 -53 2438 -53 
Q 2769 -53 2775 253 
L 506 253 
L 506 791 
z
M 4900 3259 
L 4900 3578 
L 3625 3578 
L 3625 3259 
L 4900 3259 
z
M 1513 3259 
L 2775 3259 
L 2775 3578 
L 1513 3578 
L 1513 3259 
z
M 4963 1934 
L 3625 1934 
L 3625 1647 
L 4963 1647 
L 4963 1934 
z
M 3625 791 
L 4963 791 
L 4963 1084 
L 3625 1084 
L 3625 791 
z
" transform="scale(0.015625)"/>
      <path id="MicrosoftYaHei-Bold-4ef6" d="M 1944 1959 
L 3938 1959 
L 3938 3153 
L 3078 3153 
Q 2897 2563 2694 2097 
Q 2350 2284 1913 2466 
Q 2331 3472 2625 4903 
L 3469 4697 
Q 3388 4309 3300 3959 
L 3938 3959 
L 3938 5309 
L 4844 5309 
L 4844 3959 
L 6150 3959 
L 6150 3153 
L 4844 3153 
L 4844 1959 
L 6319 1959 
L 6319 1153 
L 4844 1153 
L 4844 -853 
L 3938 -853 
L 3938 1153 
L 1944 1153 
L 1944 1959 
z
M 1269 5303 
L 2131 5053 
Q 1906 4384 1669 3794 
L 1669 -847 
L 831 -847 
L 831 2000 
Q 578 1541 313 1153 
Q 200 1834 94 2322 
Q 750 3559 1269 5303 
z
" transform="scale(0.015625)"/>
      <path id="MicrosoftYaHei-Bold-7a97" d="M 606 -853 
L 606 2778 
L 375 2697 
Q 250 3003 75 3353 
Q 1488 3763 2450 4178 
L 1050 4178 
L 1050 3678 
L 250 3678 
L 250 4816 
L 2747 4816 
Q 2675 5031 2594 5247 
L 3531 5347 
Q 3634 5069 3719 4816 
L 6163 4816 
L 6163 3709 
L 5363 3709 
L 5363 4178 
L 3900 4178 
Q 4994 3841 6306 3347 
L 6044 2722 
L 5800 2828 
L 5800 -853 
L 5019 -853 
L 5019 -616 
L 1388 -616 
L 1388 -853 
L 606 -853 
z
M 2906 3703 
L 3675 3509 
Q 3588 3300 3488 3097 
L 5166 3097 
Q 4369 3419 3581 3678 
L 3878 4178 
L 2503 4178 
L 2813 3672 
Q 2259 3406 1459 3097 
L 2709 3097 
Q 2825 3381 2906 3703 
z
M 5019 2453 
L 1388 2453 
L 1388 34 
L 5019 34 
L 5019 2453 
z
M 4800 2134 
L 4800 1628 
Q 4506 1291 4113 1016 
L 4831 734 
L 4356 184 
L 3406 606 
Q 2772 303 1963 109 
Q 1806 341 1569 641 
Q 2163 763 2641 931 
L 2119 1147 
L 2631 1559 
L 3422 1278 
Q 3722 1444 3950 1641 
L 2553 1641 
Q 2216 1331 1819 1059 
Q 1656 1259 1400 1516 
Q 1969 1916 2375 2359 
L 3231 2359 
Q 3138 2244 3041 2134 
L 4800 2134 
z
" transform="scale(0.015625)"/>
      <path id="MicrosoftYaHei-Bold-53e3" d="M 538 -672 
L 538 4784 
L 5869 4784 
L 5869 -672 
L 4931 -672 
L 4931 -228 
L 1475 -228 
L 1475 -672 
L 538 -672 
z
M 4931 3928 
L 1475 3928 
L 1475 628 
L 4931 628 
L 4931 3928 
z
" transform="scale(0.015625)"/>
      <path id="MicrosoftYaHei-Bold-ff09" d="M 1191 -1088 
L 359 -1088 
Q 1472 238 1472 1863 
Q 1472 3478 366 4838 
L 1197 4838 
Q 2338 3572 2338 1863 
Q 2338 125 1191 -1088 
z
" transform="scale(0.015625)"/>
     </defs>
     <use xlink:href="#MicrosoftYaHei-Bold-95ee"/>
     <use xlink:href="#MicrosoftYaHei-Bold-9898" transform="translate(100 0)"/>
     <use xlink:href="#MicrosoftYaHei-Bold-4e00" transform="translate(200 0)"/>
     <use xlink:href="#MicrosoftYaHei-Bold-534f" transform="translate(300 0)"/>
     <use xlink:href="#MicrosoftYaHei-Bold-540c" transform="translate(400 0)"/>
     <use xlink:href="#MicrosoftYaHei-Bold-4e3b" transform="translate(500 0)"/>
     <use xlink:href="#MicrosoftYaHei-Bold-573a" transform="translate(600 0)"/>
     <use xlink:href="#MicrosoftYaHei-Bold-666f" transform="translate(700 0)"/>
     <use xlink:href="#MicrosoftYaHei-Bold-ff08" transform="translate(800 0)"/>
     <use xlink:href="#MicrosoftYaHei-Bold-4e8b" transform="translate(900 0)"/>
     <use xlink:href="#MicrosoftYaHei-Bold-4ef6" transform="translate(1000 0)"/>
     <use xlink:href="#MicrosoftYaHei-Bold-7a97" transform="translate(1100 0)"/>
     <use xlink:href="#MicrosoftYaHei-Bold-53e3" transform="translate(1200 0)"/>
     <use xlink:href="#MicrosoftYaHei-Bold-ff09" transform="translate(1300 0)"/>
    </g>
   </g>
   <g id="line2d_21">
    <path d="M 72.453693 196.727829 
L 137.908239 184.527862 
L 203.362784 184.702244 
L 268.81733 174.28278 
L 334.271875 174.912022 
L 399.72642 170.427188 
L 465.180966 168.301308 
L 530.635511 164.074379 
L 596.090057 78.825857 
" clip-path="url(#p52cd575efd)" style="fill: none; stroke: #6bc179; stroke-width: 2; stroke-linecap: square"/>
   </g>
   <g id="legend_1">
    <g id="patch_7">
     <path d="M 47.871875 67.8696 
L 207.873125 67.8696 
Q 209.473125 67.8696 209.473125 66.2696 
L 209.473125 42.3021 
Q 209.473125 40.7021 207.873125 40.7021 
L 47.871875 40.7021 
Q 46.271875 40.7021 46.271875 42.3021 
L 46.271875 66.2696 
Q 46.271875 67.8696 47.871875 67.8696 
z
" style="fill: #ffffff; opacity: 0.95; stroke: #cccccc; stroke-linejoin: miter"/>
    </g>
    <g id="patch_8">
     <path d="M 49.471875 50.2971 
L 65.471875 50.2971 
L 65.471875 44.6971 
L 49.471875 44.6971 
z
" style="fill: #5ea0c7; fill-opacity: 0.82"/>
    </g>
    <g id="text_8">
     <!-- ESS 放电功率 -->
     <g transform="translate(71.871875 50.2971) scale(0.08 -0.08)">
      <defs>
       <path id="MicrosoftYaHei-45" d="M 3228 0 
L 625 0 
L 625 4841 
L 3119 4841 
L 3119 4284 
L 1250 4284 
L 1250 2734 
L 2981 2734 
L 2981 2181 
L 1250 2181 
L 1250 553 
L 3228 553 
L 3228 0 
z
" transform="scale(0.015625)"/>
       <path id="MicrosoftYaHei-53" d="M 400 909 
Q 622 716 994 591 
Q 1366 466 1700 466 
Q 2719 466 2719 1191 
Q 2719 1394 2609 1556 
Q 2500 1719 2309 1844 
Q 2119 1969 1594 2228 
Q 866 2591 634 2902 
Q 403 3213 403 3613 
Q 403 4216 887 4569 
Q 1372 4922 2109 4922 
Q 2831 4922 3169 4747 
L 3169 4066 
Q 2731 4369 2063 4369 
Q 1619 4369 1339 4183 
Q 1059 3997 1059 3666 
Q 1059 3372 1253 3187 
Q 1447 3003 2094 2684 
Q 2806 2344 3090 2003 
Q 3375 1663 3375 1238 
Q 3375 600 2912 259 
Q 2450 -81 1628 -81 
Q 1341 -81 958 -1 
Q 575 78 400 197 
L 400 909 
z
" transform="scale(0.015625)"/>
       <path id="MicrosoftYaHei-653e" d="M 3956 5359 
L 4456 5272 
Q 4322 4681 4106 4128 
L 6281 4128 
L 6281 3666 
L 5759 3666 
Q 5638 1816 4884 725 
Q 5447 25 6338 -353 
Q 6131 -628 5994 -847 
Q 5153 -394 4559 322 
Q 3947 -356 3094 -903 
Q 2950 -722 2738 -509 
Q 3669 56 4259 731 
Q 3713 1625 3563 2988 
Q 3378 2669 3163 2366 
Q 3031 2553 2850 2766 
Q 3663 3884 3956 5359 
z
M 156 4184 
L 3169 4184 
L 3169 3722 
L 1400 3722 
Q 1394 3166 1378 2703 
L 2813 2703 
Q 2750 1166 2694 241 
Q 2638 -584 1981 -616 
Q 1600 -622 1263 -609 
Q 1225 -378 1156 -84 
Q 1569 -128 1794 -128 
Q 2175 -128 2206 347 
Q 2269 1078 2306 2241 
L 1359 2241 
Q 1338 216 369 -853 
Q 225 -641 38 -416 
Q 625 247 750 1003 
Q 909 1713 906 3722 
L 156 3722 
L 156 4184 
z
M 5263 3666 
L 3934 3666 
Q 4034 2134 4584 1166 
Q 5188 2131 5263 3666 
z
M 1206 5141 
L 1631 5366 
Q 1900 4966 2144 4503 
L 1706 4272 
Q 1456 4753 1206 5141 
z
" transform="scale(0.015625)"/>
       <path id="MicrosoftYaHei-7535" d="M 406 4497 
L 2713 4497 
L 2713 5297 
L 3231 5297 
L 3231 4497 
L 5544 4497 
L 5544 984 
L 3231 984 
L 3231 253 
Q 3231 -128 3631 -128 
L 5094 -128 
Q 5519 -128 5613 153 
Q 5713 459 5756 1034 
Q 5938 953 6275 841 
Q 6200 341 6106 -16 
Q 5950 -603 5256 -603 
L 3594 -603 
Q 2713 -603 2713 259 
L 2713 984 
L 925 984 
L 925 553 
L 406 553 
L 406 4497 
z
M 5025 1453 
L 5025 2522 
L 3231 2522 
L 3231 1453 
L 5025 1453 
z
M 925 1453 
L 2713 1453 
L 2713 2522 
L 925 2522 
L 925 1453 
z
M 5025 4028 
L 3231 4028 
L 3231 2966 
L 5025 2966 
L 5025 4028 
z
M 925 2966 
L 2713 2966 
L 2713 4028 
L 925 4028 
L 925 2966 
z
" transform="scale(0.015625)"/>
      </defs>
      <use xlink:href="#MicrosoftYaHei-45"/>
      <use xlink:href="#MicrosoftYaHei-53" transform="translate(54.980469 0)"/>
      <use xlink:href="#MicrosoftYaHei-53" transform="translate(112.695312 0)"/>
      <use xlink:href="#MicrosoftYaHei-20" transform="translate(170.410156 0)"/>
      <use xlink:href="#MicrosoftYaHei-653e" transform="translate(200 0)"/>
      <use xlink:href="#MicrosoftYaHei-7535" transform="translate(300 0)"/>
      <use xlink:href="#MicrosoftYaHei-529f" transform="translate(400 0)"/>
      <use xlink:href="#MicrosoftYaHei-7387" transform="translate(500 0)"/>
     </g>
    </g>
    <g id="patch_9">
     <path d="M 49.471875 62.68085 
L 65.471875 62.68085 
L 65.471875 57.08085 
L 49.471875 57.08085 
z
" style="fill: #b4d7e5; fill-opacity: 0.82"/>
    </g>
    <g id="text_9">
     <!-- EV 放电功率 -->
     <g transform="translate(71.871875 62.68085) scale(0.08 -0.08)">
      <defs>
       <path id="MicrosoftYaHei-56" d="M 4272 4841 
L 2494 0 
L 1800 0 
L 56 4841 
L 750 4841 
L 2053 1056 
Q 2119 869 2150 622 
L 2166 622 
Q 2191 838 2275 1063 
L 3603 4841 
L 4272 4841 
z
" transform="scale(0.015625)"/>
      </defs>
      <use xlink:href="#MicrosoftYaHei-45"/>
      <use xlink:href="#MicrosoftYaHei-56" transform="translate(54.980469 0)"/>
      <use xlink:href="#MicrosoftYaHei-20" transform="translate(122.607422 0)"/>
      <use xlink:href="#MicrosoftYaHei-653e" transform="translate(152.197266 0)"/>
      <use xlink:href="#MicrosoftYaHei-7535" transform="translate(252.197266 0)"/>
      <use xlink:href="#MicrosoftYaHei-529f" transform="translate(352.197266 0)"/>
      <use xlink:href="#MicrosoftYaHei-7387" transform="translate(452.197266 0)"/>
     </g>
    </g>
    <g id="line2d_22">
     <path d="M 135.873125 47.4971 
L 143.873125 47.4971 
L 151.873125 47.4971 
" style="fill: none; stroke: #6bc179; stroke-width: 2; stroke-linecap: square"/>
    </g>
    <g id="text_10">
     <!-- 外网购电功率 -->
     <g transform="translate(158.273125 50.2971) scale(0.08 -0.08)">
      <defs>
       <path id="MicrosoftYaHei-5916" d="M 38 2084 
Q 969 3503 1438 5316 
L 1950 5172 
Q 1800 4666 1638 4197 
L 3375 4197 
L 3375 3734 
Q 3044 628 569 -822 
Q 438 -616 244 -378 
Q 1456 341 2106 1422 
Q 1669 1791 1125 2172 
L 1444 2553 
Q 1975 2166 2350 1872 
Q 2738 2678 2850 3722 
L 1456 3722 
Q 1019 2616 325 1553 
Q 200 1809 38 2084 
z
M 3988 5266 
L 4513 5266 
L 4513 3116 
L 4763 3397 
Q 5656 2703 6356 2128 
L 6000 1666 
Q 5338 2278 4513 2972 
L 4513 -859 
L 3988 -859 
L 3988 5266 
z
" transform="scale(0.015625)"/>
       <path id="MicrosoftYaHei-7f51" d="M 1075 3641 
L 1444 3834 
Q 1816 3244 2184 2628 
Q 2488 3281 2706 3928 
L 3131 3772 
Q 2822 2931 2450 2175 
Q 2809 1563 3163 922 
L 2738 697 
Q 2478 1191 2203 1691 
Q 1819 969 1375 328 
L 1000 544 
L 1000 -759 
L 531 -759 
L 531 4953 
L 5856 4953 
L 5856 -59 
Q 5856 -728 5138 -728 
Q 4738 -728 4181 -716 
Q 4150 -516 4094 -228 
Q 4619 -272 4988 -272 
Q 5388 -272 5388 72 
L 5388 4503 
L 1000 4503 
L 1000 572 
Q 1538 1363 1947 2150 
Q 1531 2891 1075 3641 
z
M 3156 3341 
L 3519 3553 
Q 3831 3047 4166 2481 
Q 4525 3197 4775 3891 
L 5200 3728 
Q 4847 2838 4428 2028 
Q 4822 1353 5244 597 
L 4825 359 
Q 4513 953 4175 1559 
Q 3788 866 3350 241 
L 2969 484 
Q 3506 1263 3919 2016 
Q 3553 2672 3156 3341 
z
" transform="scale(0.015625)"/>
       <path id="MicrosoftYaHei-8d2d" d="M 438 4953 
L 2550 4953 
L 2550 3159 
Q 3175 4116 3481 5316 
L 3975 5203 
Q 3825 4753 3663 4347 
L 6050 4347 
Q 6013 1309 5975 303 
Q 5919 -709 4938 -709 
Q 4400 -709 3794 -684 
Q 3756 -434 3694 -172 
Q 4300 -241 4806 -247 
Q 5463 -241 5500 403 
Q 5544 1466 5563 3891 
L 3475 3891 
Q 3244 3347 2994 2897 
Q 2813 3016 2550 3128 
L 2550 1078 
L 2100 1078 
L 2100 4497 
L 888 4497 
L 888 1041 
L 438 1041 
L 438 4953 
z
M 4213 2378 
L 4644 2503 
Q 4931 1603 5200 616 
L 4731 478 
Q 4681 666 4638 859 
Q 3975 816 3450 753 
Q 3175 722 2894 653 
L 2700 1059 
Q 2919 1197 3025 1434 
Q 3369 2266 3675 3434 
L 4150 3322 
Q 3775 2166 3406 1191 
Q 3938 1222 4531 1266 
Q 4381 1816 4213 2378 
z
M 1269 3953 
L 1719 3953 
L 1719 2697 
Q 1719 1484 1550 816 
L 1731 984 
Q 2369 322 2850 -222 
L 2456 -553 
Q 2013 16 1481 603 
Q 1256 -109 400 -853 
Q 263 -659 69 -472 
Q 800 72 1038 691 
Q 1269 1228 1269 2516 
L 1269 3953 
z
" transform="scale(0.015625)"/>
      </defs>
      <use xlink:href="#MicrosoftYaHei-5916"/>
      <use xlink:href="#MicrosoftYaHei-7f51" transform="translate(100 0)"/>
      <use xlink:href="#MicrosoftYaHei-8d2d" transform="translate(200 0)"/>
      <use xlink:href="#MicrosoftYaHei-7535" transform="translate(300 0)"/>
      <use xlink:href="#MicrosoftYaHei-529f" transform="translate(400 0)"/>
      <use xlink:href="#MicrosoftYaHei-7387" transform="translate(500 0)"/>
     </g>
    </g>
    <g id="line2d_23">
     <path d="M 135.873125 59.88085 
L 143.873125 59.88085 
L 151.873125 59.88085 
" style="fill: none; stroke-dasharray: 6.66,2.88; stroke-dashoffset: 0; stroke: #bedeab; stroke-width: 1.8"/>
    </g>
    <g id="text_11">
     <!-- 建筑柔性功率 -->
     <g transform="translate(158.273125 62.68085) scale(0.08 -0.08)">
      <defs>
       <path id="MicrosoftYaHei-5efa" d="M 2075 1009 
L 3675 1009 
L 3675 1553 
L 2288 1553 
L 2288 1928 
L 3675 1928 
L 3675 2472 
L 2375 2472 
L 2375 2847 
L 3675 2847 
L 3675 3391 
L 2050 3391 
L 2050 3778 
L 3675 3778 
L 3675 4322 
L 2375 4322 
L 2375 4697 
L 3675 4697 
L 3675 5309 
L 4138 5309 
L 4138 4697 
L 5588 4697 
L 5588 3778 
L 6244 3778 
L 6244 3391 
L 5588 3391 
L 5588 2303 
L 5138 2303 
L 5138 2472 
L 4138 2472 
L 4138 1928 
L 5713 1928 
L 5713 1553 
L 4138 1553 
L 4138 1009 
L 6000 1009 
L 6000 634 
L 4138 634 
L 4138 -9 
L 3675 -9 
L 3675 634 
L 2075 634 
L 2075 1009 
z
M 600 2066 
Q 788 1303 1125 813 
Q 1459 1500 1544 2397 
L 294 2397 
L 294 2853 
L 1444 4272 
L 169 4272 
L 169 4697 
L 2019 4697 
L 2019 4272 
L 844 2822 
L 2013 2822 
L 2013 2453 
Q 1897 1294 1447 444 
Q 2128 -147 3563 -153 
Q 4750 -178 6319 -122 
Q 6213 -378 6113 -616 
Q 4681 -609 3344 -603 
Q 1950 -603 1206 47 
Q 853 -466 350 -847 
Q 250 -666 94 -441 
Q 563 -84 881 391 
Q 463 922 188 1909 
L 600 2066 
z
M 4138 2847 
L 5138 2847 
L 5138 3391 
L 4138 3391 
L 4138 2847 
z
M 5138 4322 
L 4138 4322 
L 4138 3778 
L 5138 3778 
L 5138 4322 
z
" transform="scale(0.015625)"/>
       <path id="MicrosoftYaHei-7b51" d="M 4875 2609 
L 3188 2609 
L 3188 1641 
Q 3188 153 2288 -834 
Q 2119 -684 1888 -509 
Q 2725 391 2725 1666 
L 2725 3047 
L 5338 3047 
L 5338 91 
Q 5338 -159 5488 -159 
L 5631 -159 
Q 5756 -159 5794 109 
Q 5831 428 5869 1166 
Q 6075 1059 6319 972 
Q 6269 297 6225 -22 
Q 6163 -609 5694 -609 
L 5413 -609 
Q 4875 -609 4875 91 
L 4875 2609 
z
M 206 497 
Q 666 588 1200 700 
L 1200 2528 
L 331 2528 
L 331 2953 
L 2475 2953 
L 2475 2528 
L 1656 2528 
L 1656 800 
Q 2047 888 2475 984 
Q 2444 753 2425 522 
Q 1406 278 281 -3 
L 206 497 
z
M 4319 5322 
Q 4209 5034 4091 4766 
L 6138 4766 
L 6138 4328 
L 3878 4328 
Q 3569 3738 3188 3259 
Q 2969 3453 2806 3584 
Q 3419 4322 3788 5322 
L 4319 5322 
z
M 1763 5328 
Q 1650 5038 1516 4766 
L 3213 4766 
L 3213 4328 
L 1278 4328 
Q 919 3722 431 3216 
Q 231 3428 81 3566 
Q 813 4291 1231 5328 
L 1763 5328 
z
M 3331 1747 
L 3669 2053 
Q 4219 1522 4744 997 
L 4369 634 
Q 3838 1259 3331 1747 
z
M 2019 3203 
Q 1769 3597 1494 3984 
L 1863 4209 
Q 2138 3897 2431 3478 
L 2019 3203 
z
M 4850 3253 
Q 4588 3672 4344 4009 
L 4706 4234 
Q 4944 3966 5275 3509 
L 4850 3253 
z
" transform="scale(0.015625)"/>
       <path id="MicrosoftYaHei-67d4" d="M 381 3228 
L 381 3641 
L 3494 3641 
Q 2613 3909 1763 4159 
L 1988 4528 
Q 2684 4306 3353 4075 
L 4694 4647 
L 825 4647 
L 825 5059 
L 5550 5059 
L 5550 4616 
L 3822 3909 
Q 3956 3863 4088 3816 
L 3950 3641 
L 5975 3641 
L 5975 3216 
L 5400 2141 
L 4956 2309 
L 5469 3228 
L 3925 3228 
L 3925 2678 
Q 3925 1928 3131 1928 
Q 2806 1928 2463 1941 
Q 2438 2191 2388 2416 
Q 2719 2378 3063 2378 
Q 3463 2378 3463 2703 
L 3463 3228 
L 3213 3228 
Q 2150 2366 588 1841 
Q 469 2078 338 2272 
Q 1578 2600 2600 3228 
L 381 3228 
z
M 6250 -147 
Q 6094 -353 5919 -634 
Q 4356 -122 3456 853 
L 3456 -872 
L 2981 -872 
L 2981 884 
Q 2047 -16 425 -672 
Q 263 -447 69 -241 
Q 1550 231 2600 1022 
L 213 1022 
L 213 1447 
L 2981 1447 
L 2981 1809 
L 3456 1809 
L 3456 1447 
L 6213 1447 
L 6213 1022 
L 3763 1022 
Q 4747 163 6250 -147 
z
" transform="scale(0.015625)"/>
       <path id="MicrosoftYaHei-6027" d="M 1963 -153 
L 3988 -153 
L 3988 1522 
L 2375 1522 
L 2375 1959 
L 3988 1959 
L 3988 3472 
L 2975 3472 
Q 2744 2878 2438 2291 
Q 2169 2509 2019 2578 
Q 2644 3709 2894 4891 
L 3388 4759 
Q 3281 4328 3138 3909 
L 3988 3909 
L 3988 5284 
L 4481 5284 
L 4481 3909 
L 6125 3909 
L 6125 3472 
L 4481 3472 
L 4481 1959 
L 6000 1959 
L 6000 1522 
L 4481 1522 
L 4481 -153 
L 6319 -153 
L 6319 -591 
L 1963 -591 
L 1963 -153 
z
M 988 5291 
L 1469 5291 
L 1469 4091 
L 1738 4241 
Q 2063 3734 2294 3291 
L 1906 3041 
Q 1688 3503 1469 3859 
L 1469 -872 
L 988 -872 
L 988 5291 
z
M 406 3878 
L 819 3784 
Q 706 3028 506 2178 
Q 338 2241 75 2297 
Q 263 2978 406 3878 
z
" transform="scale(0.015625)"/>
      </defs>
      <use xlink:href="#MicrosoftYaHei-5efa"/>
      <use xlink:href="#MicrosoftYaHei-7b51" transform="translate(100 0)"/>
      <use xlink:href="#MicrosoftYaHei-67d4" transform="translate(200 0)"/>
      <use xlink:href="#MicrosoftYaHei-6027" transform="translate(300 0)"/>
      <use xlink:href="#MicrosoftYaHei-529f" transform="translate(400 0)"/>
      <use xlink:href="#MicrosoftYaHei-7387" transform="translate(500 0)"/>
     </g>
    </g>
   </g>
   <g id="line2d_24">
    <path d="M 72.453693 174.791817 
L 137.908239 174.71168 
L 203.362784 178.600568 
L 268.81733 178.811068 
L 334.271875 179.338728 
L 399.72642 180.493938 
L 465.180966 181.265395 
L 530.635511 182.70447 
L 596.090057 183.916679 
" clip-path="url(#p52cd575efd)" style="fill: none; stroke-dasharray: 6.66,2.88; stroke-dashoffset: 0; stroke: #bedeab; stroke-width: 1.8"/>
   </g>
  </g>
  <g id="axes_2">
   <g id="patch_10">
    <path d="M 46.271875 428.256 
L 622.271875 428.256 
L 622.271875 279.336 
L 46.271875 279.336 
z
" style="fill: #ffffff"/>
   </g>
   <g id="FillBetweenPolyCollection_3">
    <path d="M 72.453693 335.626696 
L 72.453693 420.278143 
L 137.908239 420.278143 
L 203.362784 420.278143 
L 268.81733 420.278143 
L 334.271875 420.278143 
L 399.72642 420.278143 
L 465.180966 420.278143 
L 530.635511 420.278143 
L 596.090057 420.278143 
L 596.090057 335.626696 
L 596.090057 335.626696 
L 530.635511 335.626696 
L 465.180966 420.278143 
L 399.72642 335.626696 
L 334.271875 335.626696 
L 268.81733 335.626696 
L 203.362784 335.626696 
L 137.908239 335.626696 
L 72.453693 335.626696 
z
" clip-path="url(#p2baa0b9d37)" style="fill: #5ea0c7; fill-opacity: 0.82"/>
   </g>
   <g id="FillBetweenPolyCollection_4">
    <path d="M 72.453693 317.285549 
L 72.453693 335.626696 
L 137.908239 335.626696 
L 203.362784 335.626696 
L 268.81733 335.626696 
L 334.271875 335.626696 
L 399.72642 335.626696 
L 465.180966 420.278143 
L 530.635511 335.626696 
L 596.090057 335.626696 
L 596.090057 333.905449 
L 596.090057 333.905449 
L 530.635511 332.460731 
L 465.180966 414.352542 
L 399.72642 326.879379 
L 334.271875 326.879379 
L 268.81733 323.498965 
L 203.362784 324.994474 
L 137.908239 322.082464 
L 72.453693 317.285549 
z
" clip-path="url(#p2baa0b9d37)" style="fill: #b4d7e5; fill-opacity: 0.82"/>
   </g>
   <g id="matplotlib.axis_3">
    <g id="xtick_6">
     <g id="line2d_25">
      <path d="M 72.453693 428.256 
L 72.453693 279.336 
" clip-path="url(#p2baa0b9d37)" style="fill: none; stroke: #b0b0b0; stroke-opacity: 0.3; stroke-width: 0.8; stroke-linecap: square"/>
     </g>
     <g id="line2d_26">
      <g>
       <use xlink:href="#mc6b5730e10" x="72.453693" y="428.256" style="stroke: #000000; stroke-width: 0.8"/>
      </g>
     </g>
     <g id="text_12">
      <!-- 17:00 -->
      <g transform="translate(59.521662 443.24975) scale(0.1 -0.1)">
       <defs>
        <path id="MicrosoftYaHei-37" d="M 3422 4463 
Q 2659 3131 2223 1998 
Q 1788 866 1684 0 
L 1047 0 
Q 1163 853 1594 1947 
Q 2025 3041 2747 4300 
L 347 4300 
L 347 4841 
L 3422 4841 
L 3422 4463 
z
" transform="scale(0.015625)"/>
        <path id="MicrosoftYaHei-3a" d="M 372 3134 
Q 372 3303 490 3415 
Q 609 3528 775 3528 
Q 944 3528 1062 3414 
Q 1181 3300 1181 3134 
Q 1181 2969 1065 2853 
Q 950 2738 772 2738 
Q 603 2738 487 2853 
Q 372 2969 372 3134 
z
M 372 322 
Q 372 491 487 606 
Q 603 722 775 722 
Q 950 722 1065 605 
Q 1181 488 1181 322 
Q 1181 159 1065 42 
Q 950 -75 772 -75 
Q 600 -75 486 42 
Q 372 159 372 322 
z
" transform="scale(0.015625)"/>
       </defs>
       <use xlink:href="#MicrosoftYaHei-31"/>
       <use xlink:href="#MicrosoftYaHei-37" transform="translate(58.642578 0)"/>
       <use xlink:href="#MicrosoftYaHei-3a" transform="translate(117.285156 0)"/>
       <use xlink:href="#MicrosoftYaHei-30" transform="translate(141.357422 0)"/>
       <use xlink:href="#MicrosoftYaHei-30" transform="translate(200 0)"/>
      </g>
     </g>
    </g>
    <g id="xtick_7">
     <g id="line2d_27">
      <path d="M 203.362784 428.256 
L 203.362784 279.336 
" clip-path="url(#p2baa0b9d37)" style="fill: none; stroke: #b0b0b0; stroke-opacity: 0.3; stroke-width: 0.8; stroke-linecap: square"/>
     </g>
     <g id="line2d_28">
      <g>
       <use xlink:href="#mc6b5730e10" x="203.362784" y="428.256" style="stroke: #000000; stroke-width: 0.8"/>
      </g>
     </g>
     <g id="text_13">
      <!-- 17:30 -->
      <g transform="translate(190.430753 443.24975) scale(0.1 -0.1)">
       <use xlink:href="#MicrosoftYaHei-31"/>
       <use xlink:href="#MicrosoftYaHei-37" transform="translate(58.642578 0)"/>
       <use xlink:href="#MicrosoftYaHei-3a" transform="translate(117.285156 0)"/>
       <use xlink:href="#MicrosoftYaHei-33" transform="translate(141.357422 0)"/>
       <use xlink:href="#MicrosoftYaHei-30" transform="translate(200 0)"/>
      </g>
     </g>
    </g>
    <g id="xtick_8">
     <g id="line2d_29">
      <path d="M 334.271875 428.256 
L 334.271875 279.336 
" clip-path="url(#p2baa0b9d37)" style="fill: none; stroke: #b0b0b0; stroke-opacity: 0.3; stroke-width: 0.8; stroke-linecap: square"/>
     </g>
     <g id="line2d_30">
      <g>
       <use xlink:href="#mc6b5730e10" x="334.271875" y="428.256" style="stroke: #000000; stroke-width: 0.8"/>
      </g>
     </g>
     <g id="text_14">
      <!-- 18:00 -->
      <g transform="translate(321.339844 443.24975) scale(0.1 -0.1)">
       <defs>
        <path id="MicrosoftYaHei-38" d="M 306 1350 
Q 306 1769 556 2122 
Q 806 2475 1200 2625 
Q 884 2803 700 3081 
Q 516 3359 516 3684 
Q 516 4028 692 4312 
Q 869 4597 1183 4759 
Q 1497 4922 1875 4922 
Q 2256 4922 2572 4761 
Q 2888 4600 3063 4315 
Q 3238 4031 3238 3684 
Q 3238 3366 3058 3086 
Q 2878 2806 2559 2625 
Q 2953 2472 3200 2119 
Q 3447 1766 3447 1350 
Q 3447 938 3250 611 
Q 3053 284 2690 103 
Q 2328 -78 1875 -78 
Q 1425 -78 1065 103 
Q 706 284 506 612 
Q 306 941 306 1350 
z
M 906 1378 
Q 906 947 1172 687 
Q 1438 428 1878 428 
Q 2309 428 2582 692 
Q 2856 956 2856 1378 
Q 2856 1778 2579 2051 
Q 2303 2325 1878 2325 
Q 1456 2325 1181 2058 
Q 906 1791 906 1378 
z
M 1081 3634 
Q 1081 3309 1312 3076 
Q 1544 2844 1878 2844 
Q 2206 2844 2445 3078 
Q 2684 3313 2684 3634 
Q 2684 3963 2454 4191 
Q 2225 4419 1878 4419 
Q 1534 4419 1307 4195 
Q 1081 3972 1081 3634 
z
" transform="scale(0.015625)"/>
       </defs>
       <use xlink:href="#MicrosoftYaHei-31"/>
       <use xlink:href="#MicrosoftYaHei-38" transform="translate(58.642578 0)"/>
       <use xlink:href="#MicrosoftYaHei-3a" transform="translate(117.285156 0)"/>
       <use xlink:href="#MicrosoftYaHei-30" transform="translate(141.357422 0)"/>
       <use xlink:href="#MicrosoftYaHei-30" transform="translate(200 0)"/>
      </g>
     </g>
    </g>
    <g id="xtick_9">
     <g id="line2d_31">
      <path d="M 465.180966 428.256 
L 465.180966 279.336 
" clip-path="url(#p2baa0b9d37)" style="fill: none; stroke: #b0b0b0; stroke-opacity: 0.3; stroke-width: 0.8; stroke-linecap: square"/>
     </g>
     <g id="line2d_32">
      <g>
       <use xlink:href="#mc6b5730e10" x="465.180966" y="428.256" style="stroke: #000000; stroke-width: 0.8"/>
      </g>
     </g>
     <g id="text_15">
      <!-- 18:30 -->
      <g transform="translate(452.248935 443.24975) scale(0.1 -0.1)">
       <use xlink:href="#MicrosoftYaHei-31"/>
       <use xlink:href="#MicrosoftYaHei-38" transform="translate(58.642578 0)"/>
       <use xlink:href="#MicrosoftYaHei-3a" transform="translate(117.285156 0)"/>
       <use xlink:href="#MicrosoftYaHei-33" transform="translate(141.357422 0)"/>
       <use xlink:href="#MicrosoftYaHei-30" transform="translate(200 0)"/>
      </g>
     </g>
    </g>
    <g id="xtick_10">
     <g id="line2d_33">
      <path d="M 596.090057 428.256 
L 596.090057 279.336 
" clip-path="url(#p2baa0b9d37)" style="fill: none; stroke: #b0b0b0; stroke-opacity: 0.3; stroke-width: 0.8; stroke-linecap: square"/>
     </g>
     <g id="line2d_34">
      <g>
       <use xlink:href="#mc6b5730e10" x="596.090057" y="428.256" style="stroke: #000000; stroke-width: 0.8"/>
      </g>
     </g>
     <g id="text_16">
      <!-- 19:00 -->
      <g transform="translate(583.158026 443.24975) scale(0.1 -0.1)">
       <defs>
        <path id="MicrosoftYaHei-39" d="M 578 656 
Q 978 425 1441 425 
Q 2091 425 2448 937 
Q 2806 1450 2806 2394 
Q 2800 2388 2794 2394 
Q 2475 1788 1722 1788 
Q 1113 1788 713 2206 
Q 313 2625 313 3294 
Q 313 4006 750 4464 
Q 1188 4922 1884 4922 
Q 2606 4922 3012 4355 
Q 3419 3788 3419 2703 
Q 3419 1363 2894 641 
Q 2369 -81 1441 -81 
Q 931 -81 578 84 
L 578 656 
z
M 931 3372 
Q 931 2884 1181 2598 
Q 1431 2313 1872 2313 
Q 2253 2313 2512 2573 
Q 2772 2834 2772 3206 
Q 2772 3728 2514 4070 
Q 2256 4413 1834 4413 
Q 1444 4413 1187 4116 
Q 931 3819 931 3372 
z
" transform="scale(0.015625)"/>
       </defs>
       <use xlink:href="#MicrosoftYaHei-31"/>
       <use xlink:href="#MicrosoftYaHei-39" transform="translate(58.642578 0)"/>
       <use xlink:href="#MicrosoftYaHei-3a" transform="translate(117.285156 0)"/>
       <use xlink:href="#MicrosoftYaHei-30" transform="translate(141.357422 0)"/>
       <use xlink:href="#MicrosoftYaHei-30" transform="translate(200 0)"/>
      </g>
     </g>
    </g>
    <g id="text_17">
     <!-- 时间 -->
     <g transform="translate(324.271875 457.729437) scale(0.1 -0.1)">
      <defs>
       <path id="MicrosoftYaHei-65f6" d="M 344 4728 
L 2500 4728 
L 2500 -366 
L 2006 -366 
L 2006 153 
L 838 153 
L 838 -441 
L 344 -441 
L 344 4728 
z
M 2706 3941 
L 4925 3941 
L 4925 5322 
L 5425 5322 
L 5425 3941 
L 6313 3941 
L 6313 3478 
L 5425 3478 
L 5425 116 
Q 5425 -722 4625 -722 
Q 4263 -722 3563 -703 
Q 3531 -478 3463 -178 
Q 4119 -228 4488 -228 
Q 4925 -228 4925 216 
L 4925 3478 
L 2706 3478 
L 2706 3941 
z
M 838 616 
L 2006 616 
L 2006 2234 
L 838 2234 
L 838 616 
z
M 2006 4266 
L 838 4266 
L 838 2684 
L 2006 2684 
L 2006 4266 
z
M 3406 2878 
Q 3906 1966 4163 1422 
Q 4000 1347 3663 1172 
Q 3419 1766 2963 2653 
L 3406 2878 
z
" transform="scale(0.015625)"/>
       <path id="MicrosoftYaHei-95f4" d="M 1863 3647 
L 4513 3647 
L 4513 553 
L 2313 553 
L 2313 166 
L 1863 166 
L 1863 3647 
z
M 2388 4453 
L 2388 4922 
L 6013 4922 
L 6013 -28 
Q 6013 -816 5119 -816 
Q 4756 -816 4169 -803 
Q 4144 -616 4069 -297 
Q 4588 -334 5056 -334 
Q 5525 -334 5525 122 
L 5525 4453 
L 2388 4453 
z
M 419 4084 
L 906 4084 
L 906 -816 
L 419 -816 
L 419 4084 
z
M 2313 997 
L 4063 997 
L 4063 1884 
L 2313 1884 
L 2313 997 
z
M 4063 3203 
L 2313 3203 
L 2313 2328 
L 4063 2328 
L 4063 3203 
z
M 744 5003 
L 1100 5322 
Q 1575 4872 1981 4447 
L 1575 4091 
Q 1194 4541 744 5003 
z
" transform="scale(0.015625)"/>
      </defs>
      <use xlink:href="#MicrosoftYaHei-65f6"/>
      <use xlink:href="#MicrosoftYaHei-95f4" transform="translate(100 0)"/>
     </g>
    </g>
   </g>
   <g id="matplotlib.axis_4">
    <g id="ytick_6">
     <g id="line2d_35">
      <path d="M 46.271875 420.278143 
L 622.271875 420.278143 
" clip-path="url(#p2baa0b9d37)" style="fill: none; stroke: #b0b0b0; stroke-opacity: 0.3; stroke-width: 0.8; stroke-linecap: square"/>
     </g>
     <g id="line2d_36">
      <g>
       <use xlink:href="#m2e8b9458e3" x="46.271875" y="420.278143" style="stroke: #000000; stroke-width: 0.8"/>
      </g>
     </g>
     <g id="text_18">
      <!-- 0 -->
      <g transform="translate(33.407813 424.275018) scale(0.1 -0.1)">
       <use xlink:href="#MicrosoftYaHei-30"/>
      </g>
     </g>
    </g>
    <g id="ytick_7">
     <g id="line2d_37">
      <path d="M 46.271875 392.060994 
L 622.271875 392.060994 
" clip-path="url(#p2baa0b9d37)" style="fill: none; stroke: #b0b0b0; stroke-opacity: 0.3; stroke-width: 0.8; stroke-linecap: square"/>
     </g>
     <g id="line2d_38">
      <g>
       <use xlink:href="#m2e8b9458e3" x="46.271875" y="392.060994" style="stroke: #000000; stroke-width: 0.8"/>
      </g>
     </g>
     <g id="text_19">
      <!-- 100 -->
      <g transform="translate(21.679688 396.057869) scale(0.1 -0.1)">
       <use xlink:href="#MicrosoftYaHei-31"/>
       <use xlink:href="#MicrosoftYaHei-30" transform="translate(58.642578 0)"/>
       <use xlink:href="#MicrosoftYaHei-30" transform="translate(117.285156 0)"/>
      </g>
     </g>
    </g>
    <g id="ytick_8">
     <g id="line2d_39">
      <path d="M 46.271875 363.843845 
L 622.271875 363.843845 
" clip-path="url(#p2baa0b9d37)" style="fill: none; stroke: #b0b0b0; stroke-opacity: 0.3; stroke-width: 0.8; stroke-linecap: square"/>
     </g>
     <g id="line2d_40">
      <g>
       <use xlink:href="#m2e8b9458e3" x="46.271875" y="363.843845" style="stroke: #000000; stroke-width: 0.8"/>
      </g>
     </g>
     <g id="text_20">
      <!-- 200 -->
      <g transform="translate(21.679688 367.84072) scale(0.1 -0.1)">
       <use xlink:href="#MicrosoftYaHei-32"/>
       <use xlink:href="#MicrosoftYaHei-30" transform="translate(58.642578 0)"/>
       <use xlink:href="#MicrosoftYaHei-30" transform="translate(117.285156 0)"/>
      </g>
     </g>
    </g>
    <g id="ytick_9">
     <g id="line2d_41">
      <path d="M 46.271875 335.626696 
L 622.271875 335.626696 
" clip-path="url(#p2baa0b9d37)" style="fill: none; stroke: #b0b0b0; stroke-opacity: 0.3; stroke-width: 0.8; stroke-linecap: square"/>
     </g>
     <g id="line2d_42">
      <g>
       <use xlink:href="#m2e8b9458e3" x="46.271875" y="335.626696" style="stroke: #000000; stroke-width: 0.8"/>
      </g>
     </g>
     <g id="text_21">
      <!-- 300 -->
      <g transform="translate(21.679688 339.623571) scale(0.1 -0.1)">
       <use xlink:href="#MicrosoftYaHei-33"/>
       <use xlink:href="#MicrosoftYaHei-30" transform="translate(58.642578 0)"/>
       <use xlink:href="#MicrosoftYaHei-30" transform="translate(117.285156 0)"/>
      </g>
     </g>
    </g>
    <g id="ytick_10">
     <g id="line2d_43">
      <path d="M 46.271875 307.409546 
L 622.271875 307.409546 
" clip-path="url(#p2baa0b9d37)" style="fill: none; stroke: #b0b0b0; stroke-opacity: 0.3; stroke-width: 0.8; stroke-linecap: square"/>
     </g>
     <g id="line2d_44">
      <g>
       <use xlink:href="#m2e8b9458e3" x="46.271875" y="307.409546" style="stroke: #000000; stroke-width: 0.8"/>
      </g>
     </g>
     <g id="text_22">
      <!-- 400 -->
      <g transform="translate(21.679688 311.406421) scale(0.1 -0.1)">
       <use xlink:href="#MicrosoftYaHei-34"/>
       <use xlink:href="#MicrosoftYaHei-30" transform="translate(58.642578 0)"/>
       <use xlink:href="#MicrosoftYaHei-30" transform="translate(117.285156 0)"/>
      </g>
     </g>
    </g>
    <g id="text_23">
     <!-- 功率 / kW -->
     <g transform="translate(15.19375 376.701469) rotate(-90) scale(0.1 -0.1)">
      <use xlink:href="#MicrosoftYaHei-529f"/>
      <use xlink:href="#MicrosoftYaHei-7387" transform="translate(100 0)"/>
      <use xlink:href="#MicrosoftYaHei-20" transform="translate(200 0)"/>
      <use xlink:href="#MicrosoftYaHei-2f" transform="translate(229.589844 0)"/>
      <use xlink:href="#MicrosoftYaHei-20" transform="translate(272.314453 0)"/>
      <use xlink:href="#MicrosoftYaHei-6b" transform="translate(301.904297 0)"/>
      <use xlink:href="#MicrosoftYaHei-57" transform="translate(356.347656 0)"/>
     </g>
    </g>
   </g>
   <g id="patch_11">
    <path d="M 46.271875 428.256 
L 46.271875 279.336 
" style="fill: none; stroke: #000000; stroke-width: 0.8; stroke-linejoin: miter; stroke-linecap: square"/>
   </g>
   <g id="patch_12">
    <path d="M 622.271875 428.256 
L 622.271875 279.336 
" style="fill: none; stroke: #000000; stroke-width: 0.8; stroke-linejoin: miter; stroke-linecap: square"/>
   </g>
   <g id="patch_13">
    <path d="M 46.271875 428.256 
L 622.271875 428.256 
" style="fill: none; stroke: #000000; stroke-width: 0.8; stroke-linejoin: miter; stroke-linecap: square"/>
   </g>
   <g id="patch_14">
    <path d="M 46.271875 279.336 
L 622.271875 279.336 
" style="fill: none; stroke: #000000; stroke-width: 0.8; stroke-linejoin: miter; stroke-linecap: square"/>
   </g>
   <g id="text_24">
    <!-- 问题二协同主场景（w=1，事件窗口） -->
    <g transform="translate(322.751875 273.623069) scale(0.11 -0.11)">
     <defs>
      <path id="MicrosoftYaHei-Bold-4e8c" d="M 650 4641 
L 5750 4641 
L 5750 3703 
L 650 3703 
L 650 4641 
z
M 200 778 
L 6213 778 
L 6213 -172 
L 200 -172 
L 200 778 
z
" transform="scale(0.015625)"/>
      <path id="MicrosoftYaHei-Bold-77" d="M 5391 3456 
L 4391 0 
L 3331 0 
L 2800 2075 
Q 2747 2284 2744 2503 
L 2722 2503 
Q 2700 2256 2656 2088 
L 2084 0 
L 1038 0 
L 53 3456 
L 1084 3456 
L 1588 1163 
Q 1619 1025 1638 784 
L 1659 784 
Q 1675 1016 1719 1175 
L 2338 3456 
L 3294 3456 
L 3847 1159 
Q 3869 1066 3894 778 
L 3919 778 
Q 3928 944 3972 1159 
L 4453 3456 
L 5391 3456 
z
" transform="scale(0.015625)"/>
      <path id="MicrosoftYaHei-Bold-3d" d="M 4072 2378 
L 797 2378 
L 797 3041 
L 4072 3041 
L 4072 2378 
z
M 4072 916 
L 797 916 
L 797 1578 
L 4072 1578 
L 4072 916 
z
" transform="scale(0.015625)"/>
      <path id="MicrosoftYaHei-Bold-31" d="M 2716 4947 
L 2716 0 
L 1700 0 
L 1700 3809 
Q 1513 3647 1188 3517 
Q 863 3388 591 3356 
L 591 4222 
Q 1447 4472 2072 4947 
L 2716 4947 
z
" transform="scale(0.015625)"/>
      <path id="MicrosoftYaHei-Bold-ff0c" d="M 2075 831 
L 1569 -863 
L 831 -863 
L 1191 831 
L 2075 831 
z
" transform="scale(0.015625)"/>
     </defs>
     <use xlink:href="#MicrosoftYaHei-Bold-95ee"/>
     <use xlink:href="#MicrosoftYaHei-Bold-9898" transform="translate(100 0)"/>
     <use xlink:href="#MicrosoftYaHei-Bold-4e8c" transform="translate(200 0)"/>
     <use xlink:href="#MicrosoftYaHei-Bold-534f" transform="translate(300 0)"/>
     <use xlink:href="#MicrosoftYaHei-Bold-540c" transform="translate(400 0)"/>
     <use xlink:href="#MicrosoftYaHei-Bold-4e3b" transform="translate(500 0)"/>
     <use xlink:href="#MicrosoftYaHei-Bold-573a" transform="translate(600 0)"/>
     <use xlink:href="#MicrosoftYaHei-Bold-666f" transform="translate(700 0)"/>
     <use xlink:href="#MicrosoftYaHei-Bold-ff08" transform="translate(800 0)"/>
     <use xlink:href="#MicrosoftYaHei-Bold-77" transform="translate(900 0)"/>
     <use xlink:href="#MicrosoftYaHei-Bold-3d" transform="translate(985.15625 0)"/>
     <use xlink:href="#MicrosoftYaHei-Bold-31" transform="translate(1061.279297 0)"/>
     <use xlink:href="#MicrosoftYaHei-Bold-ff0c" transform="translate(1122.949219 0)"/>
     <use xlink:href="#MicrosoftYaHei-Bold-4e8b" transform="translate(1222.949219 0)"/>
     <use xlink:href="#MicrosoftYaHei-Bold-4ef6" transform="translate(1322.949219 0)"/>
     <use xlink:href="#MicrosoftYaHei-Bold-7a97" transform="translate(1422.949219 0)"/>
     <use xlink:href="#MicrosoftYaHei-Bold-53e3" transform="translate(1522.949219 0)"/>
     <use xlink:href="#MicrosoftYaHei-Bold-ff09" transform="translate(1622.949219 0)"/>
    </g>
   </g>
   <g id="line2d_45">
    <path d="M 72.453693 405.215829 
L 137.908239 391.130957 
L 203.362784 394.51645 
L 268.81733 388.972909 
L 334.271875 383.400022 
L 399.72642 378.915188 
L 465.180966 289.316146 
L 530.635511 370.841133 
L 596.090057 370.864836 
" clip-path="url(#p2baa0b9d37)" style="fill: none; stroke: #6bc179; stroke-width: 2; stroke-linecap: square"/>
   </g>
   <g id="legend_2">
    <g id="patch_15">
     <path d="M 47.871875 276.3576 
L 207.873125 276.3576 
Q 209.473125 276.3576 209.473125 274.7576 
L 209.473125 250.7901 
Q 209.473125 249.1901 207.873125 249.1901 
L 47.871875 249.1901 
Q 46.271875 249.1901 46.271875 250.7901 
L 46.271875 274.7576 
Q 46.271875 276.3576 47.871875 276.3576 
z
" style="fill: #ffffff; opacity: 0.95; stroke: #cccccc; stroke-linejoin: miter"/>
    </g>
    <g id="patch_16">
     <path d="M 49.471875 258.7851 
L 65.471875 258.7851 
L 65.471875 253.1851 
L 49.471875 253.1851 
z
" style="fill: #5ea0c7; fill-opacity: 0.82"/>
    </g>
    <g id="text_25">
     <!-- ESS 放电功率 -->
     <g transform="translate(71.871875 258.7851) scale(0.08 -0.08)">
      <use xlink:href="#MicrosoftYaHei-45"/>
      <use xlink:href="#MicrosoftYaHei-53" transform="translate(54.980469 0)"/>
      <use xlink:href="#MicrosoftYaHei-53" transform="translate(112.695312 0)"/>
      <use xlink:href="#MicrosoftYaHei-20" transform="translate(170.410156 0)"/>
      <use xlink:href="#MicrosoftYaHei-653e" transform="translate(200 0)"/>
      <use xlink:href="#MicrosoftYaHei-7535" transform="translate(300 0)"/>
      <use xlink:href="#MicrosoftYaHei-529f" transform="translate(400 0)"/>
      <use xlink:href="#MicrosoftYaHei-7387" transform="translate(500 0)"/>
     </g>
    </g>
    <g id="patch_17">
     <path d="M 49.471875 271.16885 
L 65.471875 271.16885 
L 65.471875 265.56885 
L 49.471875 265.56885 
z
" style="fill: #b4d7e5; fill-opacity: 0.82"/>
    </g>
    <g id="text_26">
     <!-- EV 放电功率 -->
     <g transform="translate(71.871875 271.16885) scale(0.08 -0.08)">
      <use xlink:href="#MicrosoftYaHei-45"/>
      <use xlink:href="#MicrosoftYaHei-56" transform="translate(54.980469 0)"/>
      <use xlink:href="#MicrosoftYaHei-20" transform="translate(122.607422 0)"/>
      <use xlink:href="#MicrosoftYaHei-653e" transform="translate(152.197266 0)"/>
      <use xlink:href="#MicrosoftYaHei-7535" transform="translate(252.197266 0)"/>
      <use xlink:href="#MicrosoftYaHei-529f" transform="translate(352.197266 0)"/>
      <use xlink:href="#MicrosoftYaHei-7387" transform="translate(452.197266 0)"/>
     </g>
    </g>
    <g id="line2d_46">
     <path d="M 135.873125 255.9851 
L 143.873125 255.9851 
L 151.873125 255.9851 
" style="fill: none; stroke: #6bc179; stroke-width: 2; stroke-linecap: square"/>
    </g>
    <g id="text_27">
     <!-- 外网购电功率 -->
     <g transform="translate(158.273125 258.7851) scale(0.08 -0.08)">
      <use xlink:href="#MicrosoftYaHei-5916"/>
      <use xlink:href="#MicrosoftYaHei-7f51" transform="translate(100 0)"/>
      <use xlink:href="#MicrosoftYaHei-8d2d" transform="translate(200 0)"/>
      <use xlink:href="#MicrosoftYaHei-7535" transform="translate(300 0)"/>
      <use xlink:href="#MicrosoftYaHei-529f" transform="translate(400 0)"/>
      <use xlink:href="#MicrosoftYaHei-7387" transform="translate(500 0)"/>
     </g>
    </g>
    <g id="line2d_47">
     <path d="M 135.873125 268.36885 
L 143.873125 268.36885 
L 151.873125 268.36885 
" style="fill: none; stroke-dasharray: 6.66,2.88; stroke-dashoffset: 0; stroke: #bedeab; stroke-width: 1.8"/>
    </g>
    <g id="text_28">
     <!-- 建筑柔性功率 -->
     <g transform="translate(158.273125 271.16885) scale(0.08 -0.08)">
      <use xlink:href="#MicrosoftYaHei-5efa"/>
      <use xlink:href="#MicrosoftYaHei-7b51" transform="translate(100 0)"/>
      <use xlink:href="#MicrosoftYaHei-67d4" transform="translate(200 0)"/>
      <use xlink:href="#MicrosoftYaHei-6027" transform="translate(300 0)"/>
      <use xlink:href="#MicrosoftYaHei-529f" transform="translate(400 0)"/>
      <use xlink:href="#MicrosoftYaHei-7387" transform="translate(500 0)"/>
     </g>
    </g>
   </g>
   <g id="line2d_48">
    <path d="M 72.453693 383.279817 
L 137.908239 383.19968 
L 203.362784 387.088568 
L 268.81733 387.299068 
L 334.271875 387.826728 
L 399.72642 388.981938 
L 465.180966 389.753395 
L 530.635511 391.19247 
L 596.090057 392.404679 
" clip-path="url(#p2baa0b9d37)" style="fill: none; stroke-dasharray: 6.66,2.88; stroke-dashoffset: 0; stroke: #bedeab; stroke-width: 1.8"/>
   </g>
  </g>
  <g id="text_29">
   <!-- 特殊事件窗口资源分工对比（问题一 vs 问题二 w=1） -->
   <g transform="translate(202.308828 15.993125) scale(0.11 -0.11)">
    <defs>
     <path id="MicrosoftYaHei-7279" d="M 81 1609 
Q 666 1806 1238 2003 
L 1238 3472 
L 744 3472 
Q 616 2878 431 2384 
Q 238 2522 19 2659 
Q 369 3484 475 4716 
L 925 4641 
Q 884 4250 822 3891 
L 1238 3891 
L 1238 5291 
L 1706 5291 
L 1706 3891 
L 2488 3891 
L 2488 3472 
L 1706 3472 
L 1706 2166 
Q 2059 2291 2406 2416 
Q 2438 2141 2475 1941 
Q 2113 1813 1706 1663 
L 1706 -828 
L 1238 -828 
L 1238 1488 
Q 734 1297 175 1078 
L 81 1609 
z
M 2263 3103 
L 3981 3103 
L 3981 4028 
L 2525 4028 
L 2525 4453 
L 3981 4453 
L 3981 5322 
L 4469 5322 
L 4469 4453 
L 5988 4453 
L 5988 4028 
L 4469 4028 
L 4469 3103 
L 6275 3103 
L 6275 2678 
L 2263 2678 
L 2263 3103 
z
M 2394 1834 
L 4906 1834 
L 4906 2497 
L 5394 2497 
L 5394 1834 
L 6306 1834 
L 6306 1409 
L 5394 1409 
L 5394 34 
Q 5394 -747 4606 -753 
Q 4325 -759 3756 -747 
Q 3719 -503 3663 -209 
Q 4156 -259 4513 -259 
Q 4906 -259 4906 178 
L 4906 1409 
L 2394 1409 
L 2394 1834 
z
M 2744 978 
L 3106 1266 
Q 3556 772 3881 366 
L 3481 59 
Q 3125 541 2744 978 
z
" transform="scale(0.015625)"/>
     <path id="MicrosoftYaHei-6b8a" d="M 2069 22 
Q 3141 806 3903 2084 
L 2481 2084 
L 2481 2522 
L 4063 2522 
L 4063 3659 
L 3300 3659 
Q 3200 3316 3081 2947 
Q 2838 3034 2644 3091 
Q 3013 4072 3156 4878 
L 3613 4784 
Q 3528 4456 3428 4097 
L 4063 4097 
L 4063 5272 
L 4525 5272 
L 4525 4097 
L 5931 4097 
L 5931 3659 
L 4525 3659 
L 4525 2522 
L 6163 2522 
L 6163 2084 
L 4663 2084 
Q 5228 891 6325 128 
Q 6088 -72 5938 -222 
Q 5075 419 4525 1659 
L 4525 -822 
L 4063 -822 
L 4063 1700 
Q 3444 522 2450 -334 
Q 2275 -128 2069 22 
z
M 856 1878 
L 1106 2228 
Q 1369 2050 1669 1816 
Q 1866 2409 1944 3084 
L 1216 3084 
Q 909 2072 388 1303 
Q 275 1459 88 1691 
Q 828 2800 1047 4422 
L 219 4422 
L 219 4859 
L 2731 4859 
L 2731 4422 
L 1513 4422 
Q 1441 3950 1334 3516 
L 2419 3516 
L 2419 3116 
Q 2156 659 481 -772 
Q 294 -591 106 -441 
Q 1025 313 1494 1375 
Q 1203 1613 856 1878 
z
" transform="scale(0.015625)"/>
     <path id="MicrosoftYaHei-4e8b" d="M 531 734 
L 2975 734 
L 2975 1203 
L 144 1203 
L 144 1591 
L 2975 1591 
L 2975 2053 
L 550 2053 
L 550 2428 
L 2975 2428 
L 2975 2853 
L 1388 2853 
L 1388 2691 
L 950 2691 
L 950 4034 
L 2975 4034 
L 2975 4447 
L 163 4447 
L 163 4834 
L 2975 4834 
L 2975 5322 
L 3438 5322 
L 3438 4834 
L 6244 4834 
L 6244 4447 
L 3438 4447 
L 3438 4034 
L 5463 4034 
L 5463 2691 
L 5025 2691 
L 5025 2853 
L 3438 2853 
L 3438 2428 
L 5600 2428 
L 5600 1591 
L 6294 1591 
L 6294 1203 
L 5600 1203 
L 5600 59 
L 5150 59 
L 5150 359 
L 3438 359 
L 3438 -9 
Q 3438 -759 2713 -766 
Q 2369 -766 1813 -753 
Q 1788 -541 1738 -234 
Q 2225 -297 2606 -297 
Q 2975 -297 2975 78 
L 2975 359 
L 531 359 
L 531 734 
z
M 3438 734 
L 5150 734 
L 5150 1203 
L 3438 1203 
L 3438 734 
z
M 5150 2053 
L 3438 2053 
L 3438 1591 
L 5150 1591 
L 5150 2053 
z
M 5025 3684 
L 3438 3684 
L 3438 3203 
L 5025 3203 
L 5025 3684 
z
M 1388 3203 
L 2975 3203 
L 2975 3684 
L 1388 3684 
L 1388 3203 
z
" transform="scale(0.015625)"/>
     <path id="MicrosoftYaHei-4ef6" d="M 1950 1816 
L 4119 1816 
L 4119 3397 
L 2928 3397 
Q 2675 2725 2375 2197 
Q 2194 2372 1963 2528 
Q 2556 3572 2838 4859 
L 3344 4716 
Q 3222 4250 3081 3834 
L 4119 3834 
L 4119 5284 
L 4619 5284 
L 4619 3834 
L 6113 3834 
L 6113 3397 
L 4619 3397 
L 4619 1816 
L 6319 1816 
L 6319 1378 
L 4619 1378 
L 4619 -809 
L 4119 -809 
L 4119 1378 
L 1950 1378 
L 1950 1816 
z
M 69 2191 
Q 931 3466 1456 5278 
L 1969 5128 
Q 1738 4400 1469 3763 
L 1469 -816 
L 975 -816 
L 975 2731 
Q 656 2141 294 1647 
Q 200 1916 69 2191 
z
" transform="scale(0.015625)"/>
     <path id="MicrosoftYaHei-7a97" d="M 719 2966 
L 2694 2966 
Q 2869 3300 3044 3691 
L 3519 3528 
Q 3381 3284 3175 2966 
L 5700 2966 
L 5700 -816 
L 5231 -816 
L 5231 -578 
L 1188 -578 
L 1188 -828 
L 719 -828 
L 719 2966 
z
M 5231 2534 
L 1188 2534 
L 1188 -147 
L 5231 -147 
L 5231 2534 
z
M 2331 1216 
L 2569 1497 
Q 3025 1297 3488 1084 
Q 4081 1428 4306 1734 
L 2453 1734 
Q 2050 1309 1625 991 
Q 1481 1141 1325 1259 
Q 2088 1784 2519 2416 
L 3031 2416 
Q 2900 2244 2766 2084 
L 4844 2084 
L 4844 1728 
Q 4472 1291 3894 897 
Q 4359 678 4831 447 
L 4563 78 
Q 4016 375 3491 644 
Q 2800 263 1719 -3 
Q 1619 178 1469 353 
Q 2450 584 3059 859 
Q 2691 1044 2331 1216 
z
M 325 4741 
L 2984 4741 
Q 2853 4972 2738 5153 
L 3219 5372 
Q 3378 5144 3603 4741 
L 6081 4741 
L 6081 3734 
L 5569 3734 
L 5569 4297 
L 831 4297 
L 831 3728 
L 325 3728 
L 325 4741 
z
M 2488 4128 
L 2719 3747 
Q 1806 3359 319 2872 
Q 225 3078 94 3284 
Q 1481 3672 2488 4128 
z
M 3938 4103 
Q 4913 3772 6313 3253 
L 6100 2859 
Q 5081 3266 3750 3741 
L 3938 4103 
z
" transform="scale(0.015625)"/>
     <path id="MicrosoftYaHei-53e3" d="M 713 4684 
L 5675 4684 
L 5675 -578 
L 5138 -578 
L 5138 28 
L 1250 28 
L 1250 -578 
L 713 -578 
L 713 4684 
z
M 5138 497 
L 5138 4216 
L 1250 4216 
L 1250 497 
L 5138 497 
z
" transform="scale(0.015625)"/>
     <path id="MicrosoftYaHei-8d44" d="M 1831 2716 
Q 3706 3197 3863 4341 
L 2863 4341 
Q 2638 3878 2363 3509 
Q 2163 3647 1944 3778 
Q 2531 4472 2775 5384 
L 3244 5272 
Q 3150 4997 3050 4753 
L 6013 4753 
L 6013 4359 
L 5588 3509 
Q 5375 3609 5131 3703 
L 5463 4341 
L 4350 4341 
Q 4300 4141 4238 3953 
Q 4775 3066 6256 2722 
Q 6081 2484 5944 2266 
Q 4613 2691 4044 3516 
Q 3613 2766 2150 2303 
Q 2025 2491 1831 2716 
z
M 1025 2278 
L 5369 2278 
L 5369 241 
L 4881 241 
L 4881 1841 
L 1513 1841 
L 1513 241 
L 1025 241 
L 1025 2278 
z
M 1744 3922 
Q 1856 3678 1988 3478 
Q 1244 2922 438 2272 
L 113 2697 
Q 994 3303 1744 3922 
z
M 631 5278 
Q 1169 4941 1675 4578 
L 1356 4191 
Q 906 4547 356 4934 
L 631 5278 
z
M 3444 1603 
Q 3438 928 3350 566 
Q 4775 103 6069 -397 
L 5806 -853 
Q 4625 -366 3175 153 
Q 2756 -591 506 -878 
Q 394 -641 238 -391 
Q 2306 -209 2738 384 
Q 2969 697 2956 1603 
L 3444 1603 
z
" transform="scale(0.015625)"/>
     <path id="MicrosoftYaHei-6e90" d="M 2931 3741 
L 3744 3741 
Q 3878 4094 4006 4478 
L 2425 4478 
L 2425 2678 
Q 2425 222 1463 -841 
Q 1313 -647 1100 -453 
Q 1963 509 1963 2672 
L 1963 4903 
L 6300 4903 
L 6300 4478 
L 4547 4478 
Q 4375 4103 4194 3741 
L 5844 3741 
L 5844 1178 
L 5394 1178 
L 5394 1341 
L 4588 1341 
L 4588 -128 
Q 4588 -797 3938 -797 
Q 3725 -797 3394 -791 
Q 3363 -603 3306 -359 
Q 3619 -384 3850 -384 
Q 4138 -384 4138 -84 
L 4138 1341 
L 3381 1341 
L 3381 1178 
L 2931 1178 
L 2931 3741 
z
M 831 1878 
Q 1056 1734 1275 1666 
Q 1019 603 700 -766 
L 219 -603 
Q 581 678 831 1878 
z
M 3381 1753 
L 5394 1753 
L 5394 2347 
L 3381 2347 
L 3381 1753 
z
M 5394 3328 
L 3381 3328 
L 3381 2747 
L 5394 2747 
L 5394 3328 
z
M 6288 -241 
L 5894 -541 
Q 5450 128 4931 759 
L 5294 1016 
Q 5863 353 6288 -241 
z
M 2363 -297 
Q 2894 272 3306 984 
L 3706 741 
Q 3231 -16 2731 -584 
L 2363 -297 
z
M 400 3622 
Q 888 3272 1500 2784 
Q 1281 2522 1144 2378 
Q 544 2909 88 3266 
L 400 3622 
z
M 669 5228 
Q 1163 4859 1688 4384 
Q 1469 4172 1313 4003 
Q 769 4541 350 4884 
L 669 5228 
z
" transform="scale(0.015625)"/>
     <path id="MicrosoftYaHei-5206" d="M 900 2559 
L 5056 2559 
Q 5025 1497 4963 484 
Q 4888 -684 3856 -678 
Q 3350 -684 2788 -647 
Q 2750 -384 2700 -116 
Q 3181 -184 3775 -191 
Q 4400 -203 4463 541 
Q 4513 1216 4538 2097 
L 2616 2097 
Q 2541 1053 2181 416 
Q 1706 -422 588 -878 
Q 425 -666 231 -459 
Q 1269 -72 1725 666 
Q 2053 1225 2103 2097 
L 900 2097 
L 900 2559 
z
M 3488 5159 
L 3938 5353 
Q 4625 3678 6350 2847 
Q 6069 2553 5944 2372 
Q 4225 3366 3488 5159 
z
M 50 2766 
Q 1338 3678 2250 5253 
L 2694 5009 
Q 1744 3347 413 2341 
Q 281 2534 50 2766 
z
" transform="scale(0.015625)"/>
     <path id="MicrosoftYaHei-5de5" d="M 181 97 
L 2919 97 
L 2919 4266 
L 538 4266 
L 538 4766 
L 5863 4766 
L 5863 4266 
L 3469 4266 
L 3469 97 
L 6213 97 
L 6213 -391 
L 181 -391 
L 181 97 
z
" transform="scale(0.015625)"/>
     <path id="MicrosoftYaHei-5bf9" d="M 694 3691 
Q 1234 2909 1741 2166 
Q 2113 3081 2213 4147 
L 250 4147 
L 250 4622 
L 2725 4622 
L 2725 4166 
Q 2553 2809 2059 1700 
Q 2569 953 3044 247 
L 2594 -53 
Q 2203 563 1803 1181 
Q 1247 163 388 -622 
Q 263 -428 81 -166 
Q 975 638 1500 1647 
Q 919 2538 319 3434 
L 694 3691 
z
M 2975 3941 
L 5056 3941 
L 5056 5278 
L 5563 5278 
L 5563 3941 
L 6325 3941 
L 6325 3466 
L 5563 3466 
L 5563 191 
Q 5563 -716 4669 -716 
Q 4388 -716 3744 -709 
Q 3713 -478 3644 -147 
Q 4263 -197 4588 -197 
Q 5056 -197 5056 278 
L 5056 3466 
L 2975 3466 
L 2975 3941 
z
M 3088 2684 
L 3494 2928 
Q 4000 2184 4388 1484 
L 3919 1216 
Q 3550 1922 3088 2684 
z
" transform="scale(0.015625)"/>
     <path id="MicrosoftYaHei-6bd4" d="M 3225 5316 
L 3744 5316 
L 3744 2672 
Q 4959 3550 5744 4509 
L 6188 4178 
Q 5175 3063 3744 2056 
L 3744 247 
Q 3744 -166 4106 -166 
L 5175 -166 
Q 5588 -166 5650 203 
Q 5725 678 5763 1247 
Q 6025 1147 6300 1066 
Q 6244 484 6150 22 
Q 6019 -622 5319 -622 
L 3944 -622 
Q 3225 -622 3225 159 
L 3225 5316 
z
M 1063 5153 
L 1063 3278 
L 2825 3278 
L 2825 2809 
L 1063 2809 
L 1063 153 
Q 1713 428 2763 928 
Q 2763 634 2788 366 
Q 1869 -3 1231 -328 
Q 956 -472 725 -672 
L 344 -184 
Q 544 -34 544 272 
L 544 5153 
L 1063 5153 
z
" transform="scale(0.015625)"/>
     <path id="MicrosoftYaHei-ff08" d="M 5288 -1100 
Q 4172 119 4172 1850 
Q 4172 3603 5288 4838 
L 5825 4838 
Q 4716 3572 4716 1856 
Q 4716 166 5819 -1100 
L 5288 -1100 
z
" transform="scale(0.015625)"/>
     <path id="MicrosoftYaHei-95ee" d="M 1863 3353 
L 4513 3353 
L 4513 853 
L 2313 853 
L 2313 497 
L 1863 497 
L 1863 3353 
z
M 2388 4453 
L 2388 4922 
L 5963 4922 
L 5963 91 
Q 5963 -816 5144 -816 
Q 4613 -816 4119 -803 
Q 4094 -616 4019 -297 
Q 4538 -334 5019 -334 
Q 5475 -334 5475 153 
L 5475 4453 
L 2388 4453 
z
M 4063 2891 
L 2313 2891 
L 2313 1316 
L 4063 1316 
L 4063 2891 
z
M 431 4084 
L 919 4084 
L 919 -816 
L 431 -816 
L 431 4084 
z
M 744 5003 
L 1100 5322 
Q 1444 4997 2006 4409 
L 1600 4053 
Q 1063 4678 744 5003 
z
" transform="scale(0.015625)"/>
     <path id="MicrosoftYaHei-9898" d="M 88 -291 
Q 544 328 581 1622 
L 1013 1622 
Q 994 1234 950 884 
Q 1181 466 1538 209 
L 1538 1916 
L 138 1916 
L 138 2322 
L 3025 2322 
L 3025 1916 
L 1950 1916 
L 1950 1253 
L 2956 1253 
L 2956 847 
L 1950 847 
L 1950 -16 
Q 2369 -184 2906 -197 
Q 4006 -266 6300 -166 
Q 6231 -372 6125 -659 
Q 3888 -716 2906 -634 
Q 1513 -597 850 347 
Q 688 -359 363 -878 
Q 238 -584 88 -291 
z
M 525 5041 
L 2725 5041 
L 2725 2634 
L 2313 2634 
L 2313 2828 
L 938 2828 
L 938 2634 
L 525 2634 
L 525 5041 
z
M 3263 3878 
L 4169 3878 
Q 4231 4247 4275 4591 
L 3031 4591 
L 3031 4997 
L 6169 4997 
L 6169 4591 
L 4738 4591 
Q 4681 4222 4613 3878 
L 5838 3878 
L 5838 1228 
L 5425 1228 
L 5425 3472 
L 3675 3472 
L 3675 1228 
L 3263 1228 
L 3263 3878 
z
M 4344 3203 
L 4756 3203 
L 4756 2422 
Q 4756 1809 4631 1372 
Q 5594 678 6050 284 
L 5713 -47 
Q 5213 422 4481 972 
Q 4444 903 4406 841 
Q 4031 241 3131 -109 
Q 2988 72 2794 259 
Q 3669 547 4006 1028 
Q 4344 1503 4344 2441 
L 4344 3203 
z
M 938 3203 
L 2313 3203 
L 2313 3753 
L 938 3753 
L 938 3203 
z
M 2313 4666 
L 938 4666 
L 938 4122 
L 2313 4122 
L 2313 4666 
z
" transform="scale(0.015625)"/>
     <path id="MicrosoftYaHei-4e00" d="M 100 2703 
L 6313 2703 
L 6313 2153 
L 100 2153 
L 100 2703 
z
" transform="scale(0.015625)"/>
     <path id="MicrosoftYaHei-76" d="M 3331 3456 
L 1963 0 
L 1344 0 
L 44 3456 
L 713 3456 
L 1556 988 
Q 1659 691 1678 491 
L 1694 491 
Q 1725 753 1803 975 
L 2688 3456 
L 3331 3456 
z
" transform="scale(0.015625)"/>
     <path id="MicrosoftYaHei-73" d="M 353 747 
Q 816 413 1350 413 
Q 2066 413 2066 881 
Q 2066 1081 1909 1211 
Q 1753 1341 1275 1519 
Q 700 1750 528 1976 
Q 356 2203 356 2525 
Q 356 2984 745 3261 
Q 1134 3538 1703 3538 
Q 2144 3538 2522 3384 
L 2522 2794 
Q 2134 3044 1644 3044 
Q 1350 3044 1165 2916 
Q 981 2788 981 2578 
Q 981 2372 1114 2256 
Q 1247 2141 1703 1959 
Q 2281 1744 2484 1512 
Q 2688 1281 2688 941 
Q 2688 466 2298 192 
Q 1909 -81 1291 -81 
Q 753 -81 353 122 
L 353 747 
z
" transform="scale(0.015625)"/>
     <path id="MicrosoftYaHei-4e8c" d="M 650 4516 
L 5750 4516 
L 5750 3978 
L 650 3978 
L 650 4516 
z
M 188 422 
L 6194 422 
L 6194 -103 
L 188 -103 
L 188 422 
z
" transform="scale(0.015625)"/>
     <path id="MicrosoftYaHei-77" d="M 4975 3456 
L 3944 0 
L 3306 0 
L 2619 2425 
Q 2575 2581 2563 2756 
L 2550 2756 
Q 2541 2625 2478 2431 
L 1734 0 
L 1116 0 
L 78 3456 
L 716 3456 
L 1406 894 
Q 1438 778 1453 578 
L 1478 578 
Q 1491 750 1538 903 
L 2281 3456 
L 2847 3456 
L 3572 891 
Q 3603 778 3622 572 
L 3650 572 
Q 3656 709 3706 891 
L 4381 3456 
L 4975 3456 
z
" transform="scale(0.015625)"/>
     <path id="MicrosoftYaHei-3d" d="M 3972 2497 
L 788 2497 
L 788 2969 
L 3972 2969 
L 3972 2497 
z
M 3972 1053 
L 788 1053 
L 788 1525 
L 3972 1525 
L 3972 1053 
z
" transform="scale(0.015625)"/>
     <path id="MicrosoftYaHei-ff09" d="M 1113 -1100 
L 575 -1100 
Q 1684 163 1684 1888 
Q 1684 3581 581 4838 
L 1113 4838 
Q 2222 3628 2222 1888 
Q 2222 128 1113 -1100 
z
" transform="scale(0.015625)"/>
    </defs>
    <use xlink:href="#MicrosoftYaHei-7279"/>
    <use xlink:href="#MicrosoftYaHei-6b8a" transform="translate(100 0)"/>
    <use xlink:href="#MicrosoftYaHei-4e8b" transform="translate(200 0)"/>
    <use xlink:href="#MicrosoftYaHei-4ef6" transform="translate(300 0)"/>
    <use xlink:href="#MicrosoftYaHei-7a97" transform="translate(400 0)"/>
    <use xlink:href="#MicrosoftYaHei-53e3" transform="translate(500 0)"/>
    <use xlink:href="#MicrosoftYaHei-8d44" transform="translate(600 0)"/>
    <use xlink:href="#MicrosoftYaHei-6e90" transform="translate(700 0)"/>
    <use xlink:href="#MicrosoftYaHei-5206" transform="translate(800 0)"/>
    <use xlink:href="#MicrosoftYaHei-5de5" transform="translate(900 0)"/>
    <use xlink:href="#MicrosoftYaHei-5bf9" transform="translate(1000 0)"/>
    <use xlink:href="#MicrosoftYaHei-6bd4" transform="translate(1100 0)"/>
    <use xlink:href="#MicrosoftYaHei-ff08" transform="translate(1200 0)"/>
    <use xlink:href="#MicrosoftYaHei-95ee" transform="translate(1300 0)"/>
    <use xlink:href="#MicrosoftYaHei-9898" transform="translate(1400 0)"/>
    <use xlink:href="#MicrosoftYaHei-4e00" transform="translate(1500 0)"/>
    <use xlink:href="#MicrosoftYaHei-20" transform="translate(1600 0)"/>
    <use xlink:href="#MicrosoftYaHei-76" transform="translate(1629.589844 0)"/>
    <use xlink:href="#MicrosoftYaHei-73" transform="translate(1682.080078 0)"/>
    <use xlink:href="#MicrosoftYaHei-20" transform="translate(1728.369141 0)"/>
    <use xlink:href="#MicrosoftYaHei-95ee" transform="translate(1757.958984 0)"/>
    <use xlink:href="#MicrosoftYaHei-9898" transform="translate(1857.958984 0)"/>
    <use xlink:href="#MicrosoftYaHei-4e8c" transform="translate(1957.958984 0)"/>
    <use xlink:href="#MicrosoftYaHei-20" transform="translate(2057.958984 0)"/>
    <use xlink:href="#MicrosoftYaHei-77" transform="translate(2087.548828 0)"/>
    <use xlink:href="#MicrosoftYaHei-3d" transform="translate(2166.503906 0)"/>
    <use xlink:href="#MicrosoftYaHei-31" transform="translate(2240.673828 0)"/>
    <use xlink:href="#MicrosoftYaHei-ff09" transform="translate(2299.316406 0)"/>
   </g>
   <!-- 窗口：2025-07-18 17:00:00 — 2025-07-18 19:00:00 -->
   <g transform="translate(200.198203 29.279406) scale(0.11 -0.11)">
    <defs>
     <path id="MicrosoftYaHei-ff1a" d="M 1606 3531 
Q 1772 3531 1890 3415 
Q 2009 3300 2009 3138 
Q 2009 2975 1893 2858 
Q 1778 2741 1606 2741 
Q 1434 2741 1318 2858 
Q 1203 2975 1203 3138 
Q 1203 3300 1322 3415 
Q 1441 3531 1606 3531 
z
M 1606 716 
Q 1772 716 1890 600 
Q 2009 484 2009 319 
Q 2009 150 1890 36 
Q 1772 -78 1606 -78 
Q 1441 -78 1322 36 
Q 1203 150 1203 319 
Q 1203 484 1322 600 
Q 1441 716 1606 716 
z
" transform="scale(0.015625)"/>
     <path id="MicrosoftYaHei-35" d="M 3294 1494 
Q 3294 784 2823 350 
Q 2353 -84 1559 -84 
Q 878 -84 544 119 
L 544 744 
Q 1034 425 1544 425 
Q 2050 425 2361 704 
Q 2672 984 2672 1447 
Q 2672 1909 2348 2167 
Q 2025 2425 1434 2425 
Q 978 2425 613 2384 
L 791 4841 
L 3053 4841 
L 3053 4303 
L 1306 4303 
L 1206 2931 
L 1647 2950 
Q 2416 2950 2855 2567 
Q 3294 2184 3294 1494 
z
" transform="scale(0.015625)"/>
     <path id="MicrosoftYaHei-2d" d="M 2328 1681 
L 488 1681 
L 488 2153 
L 2328 2153 
L 2328 1681 
z
" transform="scale(0.015625)"/>
     <path id="MicrosoftYaHei-2014" d="M 6913 1681 
L 0 1681 
L 0 2153 
L 6913 2153 
L 6913 1681 
z
" transform="scale(0.015625)"/>
    </defs>
    <use xlink:href="#MicrosoftYaHei-7a97"/>
    <use xlink:href="#MicrosoftYaHei-53e3" transform="translate(100 0)"/>
    <use xlink:href="#MicrosoftYaHei-ff1a" transform="translate(200 0)"/>
    <use xlink:href="#MicrosoftYaHei-32" transform="translate(300 0)"/>
    <use xlink:href="#MicrosoftYaHei-30" transform="translate(358.642578 0)"/>
    <use xlink:href="#MicrosoftYaHei-32" transform="translate(417.285156 0)"/>
    <use xlink:href="#MicrosoftYaHei-35" transform="translate(475.927734 0)"/>
    <use xlink:href="#MicrosoftYaHei-2d" transform="translate(534.570312 0)"/>
    <use xlink:href="#MicrosoftYaHei-30" transform="translate(577.832031 0)"/>
    <use xlink:href="#MicrosoftYaHei-37" transform="translate(636.474609 0)"/>
    <use xlink:href="#MicrosoftYaHei-2d" transform="translate(695.117188 0)"/>
    <use xlink:href="#MicrosoftYaHei-31" transform="translate(738.378906 0)"/>
    <use xlink:href="#MicrosoftYaHei-38" transform="translate(797.021484 0)"/>
    <use xlink:href="#MicrosoftYaHei-20" transform="translate(855.664062 0)"/>
    <use xlink:href="#MicrosoftYaHei-31" transform="translate(885.253906 0)"/>
    <use xlink:href="#MicrosoftYaHei-37" transform="translate(943.896484 0)"/>
    <use xlink:href="#MicrosoftYaHei-3a" transform="translate(1002.539062 0)"/>
    <use xlink:href="#MicrosoftYaHei-30" transform="translate(1026.611328 0)"/>
    <use xlink:href="#MicrosoftYaHei-30" transform="translate(1085.253906 0)"/>
    <use xlink:href="#MicrosoftYaHei-3a" transform="translate(1143.896484 0)"/>
    <use xlink:href="#MicrosoftYaHei-30" transform="translate(1167.96875 0)"/>
    <use xlink:href="#MicrosoftYaHei-30" transform="translate(1226.611328 0)"/>
    <use xlink:href="#MicrosoftYaHei-20" transform="translate(1285.253906 0)"/>
    <use xlink:href="#MicrosoftYaHei-2014" transform="translate(1314.84375 0)"/>
    <use xlink:href="#MicrosoftYaHei-20" transform="translate(1422.851562 0)"/>
    <use xlink:href="#MicrosoftYaHei-32" transform="translate(1452.441406 0)"/>
    <use xlink:href="#MicrosoftYaHei-30" transform="translate(1511.083984 0)"/>
    <use xlink:href="#MicrosoftYaHei-32" transform="translate(1569.726562 0)"/>
    <use xlink:href="#MicrosoftYaHei-35" transform="translate(1628.369141 0)"/>
    <use xlink:href="#MicrosoftYaHei-2d" transform="translate(1687.011719 0)"/>
    <use xlink:href="#MicrosoftYaHei-30" transform="translate(1730.273438 0)"/>
    <use xlink:href="#MicrosoftYaHei-37" transform="translate(1788.916016 0)"/>
    <use xlink:href="#MicrosoftYaHei-2d" transform="translate(1847.558594 0)"/>
    <use xlink:href="#MicrosoftYaHei-31" transform="translate(1890.820312 0)"/>
    <use xlink:href="#MicrosoftYaHei-38" transform="translate(1949.462891 0)"/>
    <use xlink:href="#MicrosoftYaHei-20" transform="translate(2008.105469 0)"/>
    <use xlink:href="#MicrosoftYaHei-31" transform="translate(2037.695312 0)"/>
    <use xlink:href="#MicrosoftYaHei-39" transform="translate(2096.337891 0)"/>
    <use xlink:href="#MicrosoftYaHei-3a" transform="translate(2154.980469 0)"/>
    <use xlink:href="#MicrosoftYaHei-30" transform="translate(2179.052734 0)"/>
    <use xlink:href="#MicrosoftYaHei-30" transform="translate(2237.695312 0)"/>
    <use xlink:href="#MicrosoftYaHei-3a" transform="translate(2296.337891 0)"/>
    <use xlink:href="#MicrosoftYaHei-30" transform="translate(2320.410156 0)"/>
    <use xlink:href="#MicrosoftYaHei-30" transform="translate(2379.052734 0)"/>
   </g>
  </g>
 </g>
 <defs>
  <clipPath id="p52cd575efd">
   <rect x="46.271875" y="70.848" width="576" height="148.92"/>
  </clipPath>
  <clipPath id="p2baa0b9d37">
   <rect x="46.271875" y="279.336" width="576" height="148.92"/>
  </clipPath>
 </defs>
</svg>
